<svg version="1.1" xmlns="http://www.w3.org/2000/svg" xmlns:xlink="http://www.w3.org/1999/xlink" width="1014.3544921875" height="395"><defs/><g><g transform="translate(-14,2) scale(1,1)"><rect fill="#C0C0C0" stroke="none" x="31" y="15" width="131.09716796875" height="59" opacity="0.2"/></g><g transform="translate(-14,2) scale(1,1)"><rect fill="#ffffff" stroke="none" x="24" y="8" width="131.09716796875" height="59"/></g><g transform="translate(-14,2) scale(1,1)"><path fill="none" stroke="#000000" d="M 24 8 L 155.09716796875 8 L 155.09716796875 67 L 24 67 L 24 8 Z Z" stroke-miterlimit="10"/></g><g transform="translate(-14,2) scale(1,1)"><path fill="none" stroke="#000000" d="M 24 48 L 155.09716796875 48" stroke-miterlimit="10"/></g><g transform="translate(-14,2) scale(1,1)"><path fill="none" stroke="#000000" d="M 24 58 L 155.09716796875 58" stroke-miterlimit="10"/></g><g transform="translate(-14,2) scale(1,1)"><g><path fill="none" stroke="none"/><text fill="#000000" stroke="none" font-family="Arial" font-size="13px" font-style="italic" font-weight="bold" text-decoration="none" x="31.740478515625" y="27.5">AResourceManager</text></g></g><g transform="translate(-14,2) scale(1,1)"><g><path fill="none" stroke="none"/><text fill="#000000" stroke="none" font-family="Arial" font-size="13px" font-style="normal" font-weight="normal" text-decoration="none" x="41.509521484375" y="42.5">(from Managers)</text></g></g><g transform="translate(-14,2) scale(1,1)"><rect fill="#C0C0C0" stroke="none" x="607" y="175" width="152" height="99" opacity="0.2"/></g><g transform="translate(-14,2) scale(1,1)"><rect fill="#ffffff" stroke="none" x="600" y="168" width="152" height="99"/></g><g transform="translate(-14,2) scale(1,1)"><path fill="none" stroke="#000000" d="M 600 168 L 752 168 L 752 267 L 600 267 L 600 168 Z Z" stroke-miterlimit="10"/></g><g transform="translate(-14,2) scale(1,1)"><path fill="none" stroke="#000000" d="M 600 208 L 752 208" stroke-miterlimit="10"/></g><g transform="translate(-14,2) scale(1,1)"><path fill="none" stroke="#000000" d="M 600 218 L 752 218" stroke-miterlimit="10"/></g><g transform="translate(-14,2) scale(1,1)"><g><path fill="none" stroke="none"/><text fill="#000000" stroke="none" font-family="Arial" font-size="13px" font-style="normal" font-weight="bold" text-decoration="none" x="632.6455078125" y="187.5">ServiceLocator</text></g></g><g transform="translate(-14,2) scale(1,1)"><g><path fill="none" stroke="none"/><text fill="#000000" stroke="none" font-family="Arial" font-size="13px" font-style="normal" font-weight="normal" text-decoration="none" x="627.9609375" y="202.5">(from Managers)</text></g></g><g transform="translate(-14,2) scale(1,1)"><rect fill="#C0C0C0" stroke="none" x="31" y="87" width="74.71728515625" height="59" opacity="0.2"/></g><g transform="translate(-14,2) scale(1,1)"><rect fill="#ffffff" stroke="none" x="24" y="80" width="74.71728515625" height="59"/></g><g transform="translate(-14,2) scale(1,1)"><path fill="none" stroke="#000000" d="M 24 80 L 98.71728515625 80 L 98.71728515625 139 L 24 139 L 24 80 Z Z" stroke-miterlimit="10"/></g><g transform="translate(-14,2) scale(1,1)"><path fill="none" stroke="#000000" d="M 24 120 L 98.71728515625 120" stroke-miterlimit="10"/></g><g transform="translate(-14,2) scale(1,1)"><path fill="none" stroke="#000000" d="M 24 130 L 98.71728515625 130" stroke-miterlimit="10"/></g><g transform="translate(-14,2) scale(1,1)"><g><path fill="none" stroke="none"/><text fill="#000000" stroke="none" font-family="Arial" font-size="13px" font-style="normal" font-weight="bold" text-decoration="none" x="34.254150390625" y="99.5">IniLoader</text></g></g><g transform="translate(-14,2) scale(1,1)"><g><path fill="none" stroke="none"/><text fill="#000000" stroke="none" font-family="Arial" font-size="13px" font-style="normal" font-weight="normal" text-decoration="none" x="28.5" y="114.5">(from Files)</text></g></g><g transform="translate(-14,2) scale(1,1)"><rect fill="#C0C0C0" stroke="none" x="31" y="159" width="72.54638671875" height="59" opacity="0.2"/></g><g transform="translate(-14,2) scale(1,1)"><rect fill="#ffffff" stroke="none" x="24" y="152" width="72.54638671875" height="59"/></g><g transform="translate(-14,2) scale(1,1)"><path fill="none" stroke="#000000" d="M 24 152 L 96.54638671875 152 L 96.54638671875 211 L 24 211 L 24 152 Z Z" stroke-miterlimit="10"/></g><g transform="translate(-14,2) scale(1,1)"><path fill="none" stroke="#000000" d="M 24 192 L 96.54638671875 192" stroke-miterlimit="10"/></g><g transform="translate(-14,2) scale(1,1)"><path fill="none" stroke="#000000" d="M 24 202 L 96.54638671875 202" stroke-miterlimit="10"/></g><g transform="translate(-14,2) scale(1,1)"><g><path fill="none" stroke="none"/><text fill="#000000" stroke="none" font-family="Arial" font-size="13px" font-style="normal" font-weight="bold" text-decoration="none" x="35.70458984375" y="171.5">Random</text></g></g><g transform="translate(-14,2) scale(1,1)"><g><path fill="none" stroke="none"/><text fill="#000000" stroke="none" font-family="Arial" font-size="13px" font-style="normal" font-weight="normal" text-decoration="none" x="28.5" y="186.5">(from Utils)</text></g></g><g transform="translate(-14,2) scale(1,1)"><rect fill="#C0C0C0" stroke="none" x="191" y="159" width="72.54638671875" height="59" opacity="0.2"/></g><g transform="translate(-14,2) scale(1,1)"><rect fill="#ffffff" stroke="none" x="184" y="152" width="72.54638671875" height="59"/></g><g transform="translate(-14,2) scale(1,1)"><path fill="none" stroke="#000000" d="M 184 152 L 256.54638671875 152 L 256.54638671875 211 L 184 211 L 184 152 Z Z" stroke-miterlimit="10"/></g><g transform="translate(-14,2) scale(1,1)"><path fill="none" stroke="#000000" d="M 184 192 L 256.54638671875 192" stroke-miterlimit="10"/></g><g transform="translate(-14,2) scale(1,1)"><path fill="none" stroke="#000000" d="M 184 202 L 256.54638671875 202" stroke-miterlimit="10"/></g><g transform="translate(-14,2) scale(1,1)"><g><path fill="none" stroke="none"/><text fill="#000000" stroke="none" font-family="Arial" font-size="13px" font-style="normal" font-weight="bold" text-decoration="none" x="206.0703125" y="171.5">Time</text></g></g><g transform="translate(-14,2) scale(1,1)"><g><path fill="none" stroke="none"/><text fill="#000000" stroke="none" font-family="Arial" font-size="13px" font-style="normal" font-weight="normal" text-decoration="none" x="188.5" y="186.5">(from Utils)</text></g></g><g transform="translate(-14,2) scale(1,1)"><rect fill="#C0C0C0" stroke="none" x="111" y="159" width="72.54638671875" height="59" opacity="0.2"/></g><g transform="translate(-14,2) scale(1,1)"><rect fill="#ffffff" stroke="none" x="104" y="152" width="72.54638671875" height="59"/></g><g transform="translate(-14,2) scale(1,1)"><path fill="none" stroke="#000000" d="M 104 152 L 176.54638671875 152 L 176.54638671875 211 L 104 211 L 104 152 Z Z" stroke-miterlimit="10"/></g><g transform="translate(-14,2) scale(1,1)"><path fill="none" stroke="#000000" d="M 104 192 L 176.54638671875 192" stroke-miterlimit="10"/></g><g transform="translate(-14,2) scale(1,1)"><path fill="none" stroke="#000000" d="M 104 202 L 176.54638671875 202" stroke-miterlimit="10"/></g><g transform="translate(-14,2) scale(1,1)"><g><path fill="none" stroke="none"/><text fill="#000000" stroke="none" font-family="Arial" font-size="13px" font-style="normal" font-weight="bold" text-decoration="none" x="126.543212890625" y="171.5">Date</text></g></g><g transform="translate(-14,2) scale(1,1)"><g><path fill="none" stroke="none"/><text fill="#000000" stroke="none" font-family="Arial" font-size="13px" font-style="normal" font-weight="normal" text-decoration="none" x="108.5" y="186.5">(from Utils)</text></g></g><g transform="translate(-14,2) scale(1,1)"><rect fill="#C0C0C0" stroke="none" x="31" y="231" width="121.68994140625" height="59" opacity="0.2"/></g><g transform="translate(-14,2) scale(1,1)"><rect fill="#ffffff" stroke="none" x="24" y="224" width="121.68994140625" height="59"/></g><g transform="translate(-14,2) scale(1,1)"><path fill="none" stroke="#000000" d="M 24 224 L 145.68994140625 224 L 145.68994140625 283 L 24 283 L 24 224 Z Z" stroke-miterlimit="10"/></g><g transform="translate(-14,2) scale(1,1)"><path fill="none" stroke="#000000" d="M 24 264 L 145.68994140625 264" stroke-miterlimit="10"/></g><g transform="translate(-14,2) scale(1,1)"><path fill="none" stroke="#000000" d="M 24 274 L 145.68994140625 274" stroke-miterlimit="10"/></g><g transform="translate(-14,2) scale(1,1)"><g><path fill="none" stroke="none"/><text fill="#000000" stroke="none" font-family="Arial" font-size="13px" font-style="normal" font-weight="bold" text-decoration="none" x="64.25634765625" y="243.5">Profiler</text></g></g><g transform="translate(-14,2) scale(1,1)"><g><path fill="none" stroke="none"/><text fill="#000000" stroke="none" font-family="Arial" font-size="13px" font-style="normal" font-weight="normal" text-decoration="none" x="28.5" y="258.5">(from Performance)</text></g></g><g transform="translate(-14,2) scale(1,1)"><rect fill="#C0C0C0" stroke="none" x="31" y="303" width="85.578125" height="59" opacity="0.2"/></g><g transform="translate(-14,2) scale(1,1)"><rect fill="#ffffff" stroke="none" x="24" y="296" width="85.578125" height="59"/></g><g transform="translate(-14,2) scale(1,1)"><path fill="none" stroke="#000000" d="M 24 296 L 109.578125 296 L 109.578125 355 L 24 355 L 24 296 Z Z" stroke-miterlimit="10"/></g><g transform="translate(-14,2) scale(1,1)"><path fill="none" stroke="#000000" d="M 24 336 L 109.578125 336" stroke-miterlimit="10"/></g><g transform="translate(-14,2) scale(1,1)"><path fill="none" stroke="#000000" d="M 24 346 L 109.578125 346" stroke-miterlimit="10"/></g><g transform="translate(-14,2) scale(1,1)"><g><path fill="none" stroke="none"/><text fill="#000000" stroke="none" font-family="Arial" font-size="13px" font-style="normal" font-weight="bold" text-decoration="none" x="39.694091796875" y="315.5">Assertion</text></g></g><g transform="translate(-14,2) scale(1,1)"><g><path fill="none" stroke="none"/><text fill="#000000" stroke="none" font-family="Arial" font-size="13px" font-style="normal" font-weight="normal" text-decoration="none" x="28.5" y="330.5">(from Debug)</text></g></g><g transform="translate(-14,2) scale(1,1)"><rect fill="#C0C0C0" stroke="none" x="127" y="303" width="85.578125" height="59" opacity="0.2"/></g><g transform="translate(-14,2) scale(1,1)"><rect fill="#ffffff" stroke="none" x="120" y="296" width="85.578125" height="59"/></g><g transform="translate(-14,2) scale(1,1)"><path fill="none" stroke="#000000" d="M 120 296 L 205.578125 296 L 205.578125 355 L 120 355 L 120 296 Z Z" stroke-miterlimit="10"/></g><g transform="translate(-14,2) scale(1,1)"><path fill="none" stroke="#000000" d="M 120 336 L 205.578125 336" stroke-miterlimit="10"/></g><g transform="translate(-14,2) scale(1,1)"><path fill="none" stroke="#000000" d="M 120 346 L 205.578125 346" stroke-miterlimit="10"/></g><g transform="translate(-14,2) scale(1,1)"><g><path fill="none" stroke="none"/><text fill="#000000" stroke="none" font-family="Arial" font-size="13px" font-style="normal" font-weight="bold" text-decoration="none" x="151.944091796875" y="315.5">Log</text></g></g><g transform="translate(-14,2) scale(1,1)"><g><path fill="none" stroke="none"/><text fill="#000000" stroke="none" font-family="Arial" font-size="13px" font-style="normal" font-weight="normal" text-decoration="none" x="124.5" y="330.5">(from Debug)</text></g></g><g transform="translate(-14,2) scale(1,1)"><path fill="#C0C0C0" stroke="none" d="M 604.67724609375 66.5 C 604.67724609375 60.1487248 609.82597089375 55 616.17724609375 55 C 622.52852129375 55 627.67724609375 60.1487248 627.67724609375 66.5 C 627.67724609375 72.8512752 622.52852129375 78 616.17724609375 78 C 609.82597089375 78 604.67724609375 72.8512752 604.67724609375 66.5 Z" opacity="0.2"/></g><g transform="translate(-14,2) scale(1,1)"><path fill="#ffff91" stroke="none" d="M 597.67724609375 59.5 C 597.67724609375 53.1487248 602.82597089375 48 609.17724609375 48 C 615.52852129375 48 620.67724609375 53.1487248 620.67724609375 59.5 C 620.67724609375 65.8512752 615.52852129375 71 609.17724609375 71 C 602.82597089375 71 597.67724609375 65.8512752 597.67724609375 59.5 Z"/></g><g transform="translate(-14,2) scale(1,1)"><path fill="none" stroke="#000000" d="M 597.67724609375 59.5 C 597.67724609375 53.1487248 602.82597089375 48 609.17724609375 48 C 615.52852129375 48 620.67724609375 53.1487248 620.67724609375 59.5 C 620.67724609375 65.8512752 615.52852129375 71 609.17724609375 71 C 602.82597089375 71 597.67724609375 65.8512752 597.67724609375 59.5 Z" stroke-miterlimit="10"/></g><g transform="translate(-14,2) scale(1,1)"><g><path fill="none" stroke="none"/><text fill="#000000" stroke="none" font-family="Arial" font-size="13px" font-style="normal" font-weight="bold" text-decoration="none" x="567.260498046875" y="90.5">IInputManager</text></g></g><g transform="translate(-14,2) scale(1,1)"><g><path fill="none" stroke="none"/><text fill="#000000" stroke="none" font-family="Arial" font-size="13px" font-style="normal" font-weight="normal" text-decoration="none" x="561.13818359375" y="105.5">(from Managers)</text></g></g><g transform="translate(-14,2) scale(1,1)"><path fill="#C0C0C0" stroke="none" d="M 492.67724609375 162.5 C 492.67724609375 156.1487248 497.82597089375 151 504.17724609375 151 C 510.52852129375 151 515.67724609375 156.1487248 515.67724609375 162.5 C 515.67724609375 168.8512752 510.52852129375 174 504.17724609375 174 C 497.82597089375 174 492.67724609375 168.8512752 492.67724609375 162.5 Z" opacity="0.2"/></g><g transform="translate(-14,2) scale(1,1)"><path fill="#ffff91" stroke="none" d="M 485.67724609375 155.5 C 485.67724609375 149.1487248 490.82597089375 144 497.17724609375 144 C 503.52852129375 144 508.67724609375 149.1487248 508.67724609375 155.5 C 508.67724609375 161.8512752 503.52852129375 167 497.17724609375 167 C 490.82597089375 167 485.67724609375 161.8512752 485.67724609375 155.5 Z"/></g><g transform="translate(-14,2) scale(1,1)"><path fill="none" stroke="#000000" d="M 485.67724609375 155.5 C 485.67724609375 149.1487248 490.82597089375 144 497.17724609375 144 C 503.52852129375 144 508.67724609375 149.1487248 508.67724609375 155.5 C 508.67724609375 161.8512752 503.52852129375 167 497.17724609375 167 C 490.82597089375 167 485.67724609375 161.8512752 485.67724609375 155.5 Z" stroke-miterlimit="10"/></g><g transform="translate(-14,2) scale(1,1)"><g><path fill="none" stroke="none"/><text fill="#000000" stroke="none" font-family="Arial" font-size="13px" font-style="normal" font-weight="bold" text-decoration="none" x="453.0927734375" y="186.5">IAudioManager</text></g></g><g transform="translate(-14,2) scale(1,1)"><g><path fill="none" stroke="none"/><text fill="#000000" stroke="none" font-family="Arial" font-size="13px" font-style="normal" font-weight="normal" text-decoration="none" x="449.13818359375" y="201.5">(from Managers)</text></g></g><g transform="translate(-14,2) scale(1,1)"><path fill="#C0C0C0" stroke="none" d="M 492.67724609375 298.5 C 492.67724609375 292.1487248 497.82597089375 287 504.17724609375 287 C 510.52852129375 287 515.67724609375 292.1487248 515.67724609375 298.5 C 515.67724609375 304.8512752 510.52852129375 310 504.17724609375 310 C 497.82597089375 310 492.67724609375 304.8512752 492.67724609375 298.5 Z" opacity="0.2"/></g><g transform="translate(-14,2) scale(1,1)"><path fill="#ffff91" stroke="none" d="M 485.67724609375 291.5 C 485.67724609375 285.1487248 490.82597089375 280 497.17724609375 280 C 503.52852129375 280 508.67724609375 285.1487248 508.67724609375 291.5 C 508.67724609375 297.8512752 503.52852129375 303 497.17724609375 303 C 490.82597089375 303 485.67724609375 297.8512752 485.67724609375 291.5 Z"/></g><g transform="translate(-14,2) scale(1,1)"><path fill="none" stroke="#000000" d="M 485.67724609375 291.5 C 485.67724609375 285.1487248 490.82597089375 280 497.17724609375 280 C 503.52852129375 280 508.67724609375 285.1487248 508.67724609375 291.5 C 508.67724609375 297.8512752 503.52852129375 303 497.17724609375 303 C 490.82597089375 303 485.67724609375 297.8512752 485.67724609375 291.5 Z" stroke-miterlimit="10"/></g><g transform="translate(-14,2) scale(1,1)"><g><path fill="none" stroke="none"/><text fill="#000000" stroke="none" font-family="Arial" font-size="13px" font-style="normal" font-weight="bold" text-decoration="none" x="447.32275390625" y="322.5">IPhysicsManager</text></g></g><g transform="translate(-14,2) scale(1,1)"><g><path fill="none" stroke="none"/><text fill="#000000" stroke="none" font-family="Arial" font-size="13px" font-style="normal" font-weight="normal" text-decoration="none" x="449.13818359375" y="337.5">(from Managers)</text></g></g><g transform="translate(-14,2) scale(1,1)"><path fill="#C0C0C0" stroke="none" d="M 412.67724609375 194.5 C 412.67724609375 188.1487248 417.82597089375 183 424.17724609375 183 C 430.52852129375 183 435.67724609375 188.1487248 435.67724609375 194.5 C 435.67724609375 200.8512752 430.52852129375 206 424.17724609375 206 C 417.82597089375 206 412.67724609375 200.8512752 412.67724609375 194.5 Z" opacity="0.2"/></g><g transform="translate(-14,2) scale(1,1)"><path fill="#ffff91" stroke="none" d="M 405.67724609375 187.5 C 405.67724609375 181.1487248 410.82597089375 176 417.17724609375 176 C 423.52852129375 176 428.67724609375 181.1487248 428.67724609375 187.5 C 428.67724609375 193.8512752 423.52852129375 199 417.17724609375 199 C 410.82597089375 199 405.67724609375 193.8512752 405.67724609375 187.5 Z"/></g><g transform="translate(-14,2) scale(1,1)"><path fill="none" stroke="#000000" d="M 405.67724609375 187.5 C 405.67724609375 181.1487248 410.82597089375 176 417.17724609375 176 C 423.52852129375 176 428.67724609375 181.1487248 428.67724609375 187.5 C 428.67724609375 193.8512752 423.52852129375 199 417.17724609375 199 C 410.82597089375 199 405.67724609375 193.8512752 405.67724609375 187.5 Z" stroke-miterlimit="10"/></g><g transform="translate(-14,2) scale(1,1)"><g><path fill="none" stroke="none"/><text fill="#000000" stroke="none" font-family="Arial" font-size="13px" font-style="normal" font-weight="bold" text-decoration="none" x="359.724609375" y="218.5">IRenderingManager</text></g></g><g transform="translate(-14,2) scale(1,1)"><g><path fill="none" stroke="none"/><text fill="#000000" stroke="none" font-family="Arial" font-size="13px" font-style="normal" font-weight="normal" text-decoration="none" x="369.13818359375" y="233.5">(from Managers)</text></g></g><g transform="translate(-14,2) scale(1,1)"><path fill="#C0C0C0" stroke="none" d="M 740.67724609375 66.5 C 740.67724609375 60.1487248 745.82597089375 55 752.17724609375 55 C 758.52852129375 55 763.67724609375 60.1487248 763.67724609375 66.5 C 763.67724609375 72.8512752 758.52852129375 78 752.17724609375 78 C 745.82597089375 78 740.67724609375 72.8512752 740.67724609375 66.5 Z" opacity="0.2"/></g><g transform="translate(-14,2) scale(1,1)"><path fill="#ffff91" stroke="none" d="M 733.67724609375 59.5 C 733.67724609375 53.1487248 738.82597089375 48 745.17724609375 48 C 751.52852129375 48 756.67724609375 53.1487248 756.67724609375 59.5 C 756.67724609375 65.8512752 751.52852129375 71 745.17724609375 71 C 738.82597089375 71 733.67724609375 65.8512752 733.67724609375 59.5 Z"/></g><g transform="translate(-14,2) scale(1,1)"><path fill="none" stroke="#000000" d="M 733.67724609375 59.5 C 733.67724609375 53.1487248 738.82597089375 48 745.17724609375 48 C 751.52852129375 48 756.67724609375 53.1487248 756.67724609375 59.5 C 756.67724609375 65.8512752 751.52852129375 71 745.17724609375 71 C 738.82597089375 71 733.67724609375 65.8512752 733.67724609375 59.5 Z" stroke-miterlimit="10"/></g><g transform="translate(-14,2) scale(1,1)"><g><path fill="none" stroke="none"/><text fill="#000000" stroke="none" font-family="Arial" font-size="13px" font-style="normal" font-weight="bold" text-decoration="none" x="699.286865234375" y="90.5">ISceneManager</text></g></g><g transform="translate(-14,2) scale(1,1)"><g><path fill="none" stroke="none"/><text fill="#000000" stroke="none" font-family="Arial" font-size="13px" font-style="normal" font-weight="normal" text-decoration="none" x="697.13818359375" y="105.5">(from Managers)</text></g></g><g transform="translate(-14,2) scale(1,1)"><path fill="#C0C0C0" stroke="none" d="M 948.67724609375 194.5 C 948.67724609375 188.1487248 953.82597089375 183 960.17724609375 183 C 966.52852129375 183 971.67724609375 188.1487248 971.67724609375 194.5 C 971.67724609375 200.8512752 966.52852129375 206 960.17724609375 206 C 953.82597089375 206 948.67724609375 200.8512752 948.67724609375 194.5 Z" opacity="0.2"/></g><g transform="translate(-14,2) scale(1,1)"><path fill="#ffff91" stroke="none" d="M 941.67724609375 187.5 C 941.67724609375 181.1487248 946.82597089375 176 953.17724609375 176 C 959.52852129375 176 964.67724609375 181.1487248 964.67724609375 187.5 C 964.67724609375 193.8512752 959.52852129375 199 953.17724609375 199 C 946.82597089375 199 941.67724609375 193.8512752 941.67724609375 187.5 Z"/></g><g transform="translate(-14,2) scale(1,1)"><path fill="none" stroke="#000000" d="M 941.67724609375 187.5 C 941.67724609375 181.1487248 946.82597089375 176 953.17724609375 176 C 959.52852129375 176 964.67724609375 181.1487248 964.67724609375 187.5 C 964.67724609375 193.8512752 959.52852129375 199 953.17724609375 199 C 946.82597089375 199 941.67724609375 193.8512752 941.67724609375 187.5 Z" stroke-miterlimit="10"/></g><g transform="translate(-14,2) scale(1,1)"><g><path fill="none" stroke="none"/><text fill="#000000" stroke="none" font-family="Arial" font-size="13px" font-style="normal" font-weight="bold" text-decoration="none" x="905.477783203125" y="218.5">IEngineManager</text></g></g><g transform="translate(-14,2) scale(1,1)"><g><path fill="none" stroke="none"/><text fill="#000000" stroke="none" font-family="Arial" font-size="13px" font-style="normal" font-weight="normal" text-decoration="none" x="905.13818359375" y="233.5">(from Managers)</text></g></g><g transform="translate(-14,2) scale(1,1)"><path fill="#C0C0C0" stroke="none" d="M 852.67724609375 162.5 C 852.67724609375 156.1487248 857.82597089375 151 864.17724609375 151 C 870.52852129375 151 875.67724609375 156.1487248 875.67724609375 162.5 C 875.67724609375 168.8512752 870.52852129375 174 864.17724609375 174 C 857.82597089375 174 852.67724609375 168.8512752 852.67724609375 162.5 Z" opacity="0.2"/></g><g transform="translate(-14,2) scale(1,1)"><path fill="#ffff91" stroke="none" d="M 845.67724609375 155.5 C 845.67724609375 149.1487248 850.82597089375 144 857.17724609375 144 C 863.52852129375 144 868.67724609375 149.1487248 868.67724609375 155.5 C 868.67724609375 161.8512752 863.52852129375 167 857.17724609375 167 C 850.82597089375 167 845.67724609375 161.8512752 845.67724609375 155.5 Z"/></g><g transform="translate(-14,2) scale(1,1)"><path fill="none" stroke="#000000" d="M 845.67724609375 155.5 C 845.67724609375 149.1487248 850.82597089375 144 857.17724609375 144 C 863.52852129375 144 868.67724609375 149.1487248 868.67724609375 155.5 C 868.67724609375 161.8512752 863.52852129375 167 857.17724609375 167 C 850.82597089375 167 845.67724609375 161.8512752 845.67724609375 155.5 Z" stroke-miterlimit="10"/></g><g transform="translate(-14,2) scale(1,1)"><g><path fill="none" stroke="none"/><text fill="#000000" stroke="none" font-family="Arial" font-size="13px" font-style="normal" font-weight="bold" text-decoration="none" x="808.75732421875" y="186.5">IShaderManager</text></g></g><g transform="translate(-14,2) scale(1,1)"><g><path fill="none" stroke="none"/><text fill="#000000" stroke="none" font-family="Arial" font-size="13px" font-style="normal" font-weight="normal" text-decoration="none" x="809.13818359375" y="201.5">(from Managers)</text></g></g><g transform="translate(-14,2) scale(1,1)"><path fill="#C0C0C0" stroke="none" d="M 868.67724609375 298.5 C 868.67724609375 292.1487248 873.82597089375 287 880.17724609375 287 C 886.52852129375 287 891.67724609375 292.1487248 891.67724609375 298.5 C 891.67724609375 304.8512752 886.52852129375 310 880.17724609375 310 C 873.82597089375 310 868.67724609375 304.8512752 868.67724609375 298.5 Z" opacity="0.2"/></g><g transform="translate(-14,2) scale(1,1)"><path fill="#ffff91" stroke="none" d="M 861.67724609375 291.5 C 861.67724609375 285.1487248 866.82597089375 280 873.17724609375 280 C 879.52852129375 280 884.67724609375 285.1487248 884.67724609375 291.5 C 884.67724609375 297.8512752 879.52852129375 303 873.17724609375 303 C 866.82597089375 303 861.67724609375 297.8512752 861.67724609375 291.5 Z"/></g><g transform="translate(-14,2) scale(1,1)"><path fill="none" stroke="#000000" d="M 861.67724609375 291.5 C 861.67724609375 285.1487248 866.82597089375 280 873.17724609375 280 C 879.52852129375 280 884.67724609375 285.1487248 884.67724609375 291.5 C 884.67724609375 297.8512752 879.52852129375 303 873.17724609375 303 C 866.82597089375 303 861.67724609375 297.8512752 861.67724609375 291.5 Z" stroke-miterlimit="10"/></g><g transform="translate(-14,2) scale(1,1)"><g><path fill="none" stroke="none"/><text fill="#000000" stroke="none" font-family="Arial" font-size="13px" font-style="normal" font-weight="bold" text-decoration="none" x="824.40185546875" y="322.5">ITextureManager</text></g></g><g transform="translate(-14,2) scale(1,1)"><g><path fill="none" stroke="none"/><text fill="#000000" stroke="none" font-family="Arial" font-size="13px" font-style="normal" font-weight="normal" text-decoration="none" x="825.13818359375" y="337.5">(from Managers)</text></g></g><g transform="translate(-14,2) scale(1,1)"><path fill="#C0C0C0" stroke="none" d="M 676.67724609375 338.5 C 676.67724609375 332.1487248 681.82597089375 327 688.17724609375 327 C 694.52852129375 327 699.67724609375 332.1487248 699.67724609375 338.5 C 699.67724609375 344.8512752 694.52852129375 350 688.17724609375 350 C 681.82597089375 350 676.67724609375 344.8512752 676.67724609375 338.5 Z" opacity="0.2"/></g><g transform="translate(-14,2) scale(1,1)"><path fill="#ffff91" stroke="none" d="M 669.67724609375 331.5 C 669.67724609375 325.1487248 674.82597089375 320 681.17724609375 320 C 687.52852129375 320 692.67724609375 325.1487248 692.67724609375 331.5 C 692.67724609375 337.8512752 687.52852129375 343 681.17724609375 343 C 674.82597089375 343 669.67724609375 337.8512752 669.67724609375 331.5 Z"/></g><g transform="translate(-14,2) scale(1,1)"><path fill="none" stroke="#000000" d="M 669.67724609375 331.5 C 669.67724609375 325.1487248 674.82597089375 320 681.17724609375 320 C 687.52852129375 320 692.67724609375 325.1487248 692.67724609375 331.5 C 692.67724609375 337.8512752 687.52852129375 343 681.17724609375 343 C 674.82597089375 343 669.67724609375 337.8512752 669.67724609375 331.5 Z" stroke-miterlimit="10"/></g><g transform="translate(-14,2) scale(1,1)"><g><path fill="none" stroke="none"/><text fill="#000000" stroke="none" font-family="Arial" font-size="13px" font-style="normal" font-weight="bold" text-decoration="none" x="636.013671875" y="362.5">IModelManager</text></g></g><g transform="translate(-14,2) scale(1,1)"><g><path fill="none" stroke="none"/><text fill="#000000" stroke="none" font-family="Arial" font-size="13px" font-style="normal" font-weight="normal" text-decoration="none" x="633.13818359375" y="377.5">(from Managers)</text></g></g><g transform="translate(-14,2) scale(1,1)"><path fill="none" stroke="#000000" d="M 624 111 L 624 168" stroke-miterlimit="10"/></g><g transform="translate(-14,2) scale(1,1)"><path fill="#FFFFFF" stroke="none" d="M 619.790482243984 157.83732514237585 L 624 168 L 628.209517756016 157.83732514237585 L 624 146"/></g><g transform="translate(-14,2) scale(1,1)"><path fill="none" stroke="#000000" d="M 619.790482243984 157.83732514237585 L 624 168 L 628.209517756016 157.83732514237585 L 624 146 L 619.790482243984 157.83732514237585" stroke-miterlimit="10"/></g><g transform="translate(-14,2) scale(1,1)"><path fill="none" stroke="#000000" d="M 562 192 L 600 192" stroke-miterlimit="10"/></g><g transform="translate(-14,2) scale(1,1)"><path fill="#FFFFFF" stroke="none" d="M 589.8373251423759 196.209517756016 L 600 192 L 589.8373251423758 187.790482243984 L 578 192"/></g><g transform="translate(-14,2) scale(1,1)"><path fill="none" stroke="#000000" d="M 589.8373251423759 196.209517756016 L 600 192 L 589.8373251423758 187.790482243984 L 578 192 L 589.8373251423759 196.209517756016" stroke-miterlimit="10"/></g><g transform="translate(-14,2) scale(1,1)"><path fill="none" stroke="#000000" d="M 482 216 L 600 216" stroke-miterlimit="10"/></g><g transform="translate(-14,2) scale(1,1)"><path fill="#FFFFFF" stroke="none" d="M 589.8373251423759 220.209517756016 L 600 216 L 589.8373251423758 211.790482243984 L 578 216"/></g><g transform="translate(-14,2) scale(1,1)"><path fill="none" stroke="#000000" d="M 589.8373251423759 220.209517756016 L 600 216 L 589.8373251423758 211.790482243984 L 578 216 L 589.8373251423759 220.209517756016" stroke-miterlimit="10"/></g><g transform="translate(-14,2) scale(1,1)"><path fill="none" stroke="#000000" d="M 497 280 L 497 243 L 600 243" stroke-miterlimit="10"/></g><g transform="translate(-14,2) scale(1,1)"><path fill="#FFFFFF" stroke="none" d="M 589.8373251423759 247.209517756016 L 600 243 L 589.8373251423758 238.790482243984 L 578 243"/></g><g transform="translate(-14,2) scale(1,1)"><path fill="none" stroke="#000000" d="M 589.8373251423759 247.209517756016 L 600 243 L 589.8373251423758 238.790482243984 L 578 243 L 589.8373251423759 247.209517756016" stroke-miterlimit="10"/></g><g transform="translate(-14,2) scale(1,1)"><path fill="none" stroke="#000000" d="M 680 320 L 680 267" stroke-miterlimit="10"/></g><g transform="translate(-14,2) scale(1,1)"><path fill="#FFFFFF" stroke="none" d="M 684.209517756016 277.16267485762415 L 680 267 L 675.790482243984 277.16267485762415 L 680 289"/></g><g transform="translate(-14,2) scale(1,1)"><path fill="none" stroke="#000000" d="M 684.209517756016 277.16267485762415 L 680 267 L 675.790482243984 277.16267485762415 L 680 289 L 684.209517756016 277.16267485762415" stroke-miterlimit="10"/></g><g transform="translate(-14,2) scale(1,1)"><path fill="none" stroke="#000000" d="M 872 280 L 872 243 L 752 243" stroke-miterlimit="10"/></g><g transform="translate(-14,2) scale(1,1)"><path fill="#FFFFFF" stroke="none" d="M 762.1626748576241 238.790482243984 L 752 243 L 762.1626748576241 247.209517756016 L 774 243"/></g><g transform="translate(-14,2) scale(1,1)"><path fill="none" stroke="#000000" d="M 762.1626748576241 238.790482243984 L 752 243 L 762.1626748576241 247.209517756016 L 774 243 L 762.1626748576241 238.790482243984" stroke-miterlimit="10"/></g><g transform="translate(-14,2) scale(1,1)"><path fill="none" stroke="#000000" d="M 888 219 L 752 219" stroke-miterlimit="10"/></g><g transform="translate(-14,2) scale(1,1)"><path fill="#FFFFFF" stroke="none" d="M 762.1626748576241 214.790482243984 L 752 219 L 762.1626748576241 223.209517756016 L 774 219"/></g><g transform="translate(-14,2) scale(1,1)"><path fill="none" stroke="#000000" d="M 762.1626748576241 214.790482243984 L 752 219 L 762.1626748576241 223.209517756016 L 774 219 L 762.1626748576241 214.790482243984" stroke-miterlimit="10"/></g><g transform="translate(-14,2) scale(1,1)"><path fill="none" stroke="#000000" d="M 792 189 L 752 189" stroke-miterlimit="10"/></g><g transform="translate(-14,2) scale(1,1)"><path fill="#FFFFFF" stroke="none" d="M 762.1626748576241 184.790482243984 L 752 189 L 762.1626748576241 193.209517756016 L 774 189"/></g><g transform="translate(-14,2) scale(1,1)"><path fill="none" stroke="#000000" d="M 762.1626748576241 184.790482243984 L 752 189 L 762.1626748576241 193.209517756016 L 774 189 L 762.1626748576241 184.790482243984" stroke-miterlimit="10"/></g><g transform="translate(-14,2) scale(1,1)"><path fill="none" stroke="#000000" d="M 728 111 L 728 168" stroke-miterlimit="10"/></g><g transform="translate(-14,2) scale(1,1)"><path fill="#FFFFFF" stroke="none" d="M 723.790482243984 157.83732514237585 L 728 168 L 732.209517756016 157.83732514237585 L 728 146"/></g><g transform="translate(-14,2) scale(1,1)"><path fill="none" stroke="#000000" d="M 723.790482243984 157.83732514237585 L 728 168 L 732.209517756016 157.83732514237585 L 728 146 L 723.790482243984 157.83732514237585" stroke-miterlimit="10"/></g><g transform="translate(-14,2) scale(1,1)"><rect fill="#C0C0C0" stroke="none" x="271" y="159" width="72.54638671875" height="59" opacity="0.2"/></g><g transform="translate(-14,2) scale(1,1)"><rect fill="#ffffff" stroke="none" x="264" y="152" width="72.54638671875" height="59"/></g><g transform="translate(-14,2) scale(1,1)"><path fill="none" stroke="#000000" d="M 264 152 L 336.54638671875 152 L 336.54638671875 211 L 264 211 L 264 152 Z Z" stroke-miterlimit="10"/></g><g transform="translate(-14,2) scale(1,1)"><path fill="none" stroke="#000000" d="M 264 192 L 336.54638671875 192" stroke-miterlimit="10"/></g><g transform="translate(-14,2) scale(1,1)"><path fill="none" stroke="#000000" d="M 264 202 L 336.54638671875 202" stroke-miterlimit="10"/></g><g transform="translate(-14,2) scale(1,1)"><g><path fill="none" stroke="none"/><text fill="#000000" stroke="none" font-family="Arial" font-size="13px" font-style="normal" font-weight="bold" text-decoration="none" x="283.65185546875" y="171.5">Event</text></g></g><g transform="translate(-14,2) scale(1,1)"><g><path fill="none" stroke="none"/><text fill="#000000" stroke="none" font-family="Arial" font-size="13px" font-style="normal" font-weight="normal" text-decoration="none" x="268.5" y="186.5">(from Utils)</text></g></g></g></svg>