<svg version="1.1" xmlns="http://www.w3.org/2000/svg" xmlns:xlink="http://www.w3.org/1999/xlink" width="552.07177734375" height="423"><defs/><g><g transform="translate(-8,-6) scale(1,1)"><rect fill="#C0C0C0" stroke="none" x="239" y="247" width="105.078125" height="59" opacity="0.2"/></g><g transform="translate(-8,-6) scale(1,1)"><rect fill="#ffffff" stroke="none" x="232" y="240" width="105.078125" height="59"/></g><g transform="translate(-8,-6) scale(1,1)"><path fill="none" stroke="#000000" d="M 232 240 L 337.078125 240 L 337.078125 299 L 232 299 L 232 240 Z Z" stroke-miterlimit="10"/></g><g transform="translate(-8,-6) scale(1,1)"><path fill="none" stroke="#000000" d="M 232 280 L 337.078125 280" stroke-miterlimit="10"/></g><g transform="translate(-8,-6) scale(1,1)"><path fill="none" stroke="#000000" d="M 232 290 L 337.078125 290" stroke-miterlimit="10"/></g><g transform="translate(-8,-6) scale(1,1)"><g><path fill="none" stroke="none"/><text fill="#000000" stroke="none" font-family="Arial" font-size="13px" font-style="normal" font-weight="bold" text-decoration="none" x="242.260498046875" y="259.5">AudioManager</text></g></g><g transform="translate(-8,-6) scale(1,1)"><g><path fill="none" stroke="none"/><text fill="#000000" stroke="none" font-family="Arial" font-size="13px" font-style="normal" font-weight="normal" text-decoration="none" x="236.5" y="274.5">(from Managers)</text></g></g><g transform="translate(-8,-6) scale(1,1)"><rect fill="#C0C0C0" stroke="none" x="239" y="143" width="109.4072265625" height="59" opacity="0.2"/></g><g transform="translate(-8,-6) scale(1,1)"><rect fill="#ffffff" stroke="none" x="232" y="136" width="109.4072265625" height="59"/></g><g transform="translate(-8,-6) scale(1,1)"><path fill="none" stroke="#000000" d="M 232 136 L 341.4072265625 136 L 341.4072265625 195 L 232 195 L 232 136 Z Z" stroke-miterlimit="10"/></g><g transform="translate(-8,-6) scale(1,1)"><path fill="none" stroke="#000000" d="M 232 176 L 341.4072265625 176" stroke-miterlimit="10"/></g><g transform="translate(-8,-6) scale(1,1)"><path fill="none" stroke="#000000" d="M 232 186 L 341.4072265625 186" stroke-miterlimit="10"/></g><g transform="translate(-8,-6) scale(1,1)"><g><path fill="none" stroke="none"/><text fill="#000000" stroke="none" font-family="Arial" font-size="13px" font-style="normal" font-weight="bold" text-decoration="none" x="259.60546875" y="155.5">AudioFile</text></g></g><g transform="translate(-8,-6) scale(1,1)"><g><path fill="none" stroke="none"/><text fill="#000000" stroke="none" font-family="Arial" font-size="13px" font-style="normal" font-weight="normal" text-decoration="none" x="236.5" y="170.5">(from Resources)</text></g></g><g transform="translate(-8,-6) scale(1,1)"><rect fill="#C0C0C0" stroke="none" x="31" y="143" width="121.67724609375" height="59" opacity="0.2"/></g><g transform="translate(-8,-6) scale(1,1)"><rect fill="#ffffff" stroke="none" x="24" y="136" width="121.67724609375" height="59"/></g><g transform="translate(-8,-6) scale(1,1)"><path fill="none" stroke="#000000" d="M 24 136 L 145.67724609375 136 L 145.67724609375 195 L 24 195 L 24 136 Z Z" stroke-miterlimit="10"/></g><g transform="translate(-8,-6) scale(1,1)"><path fill="none" stroke="#000000" d="M 24 176 L 145.67724609375 176" stroke-miterlimit="10"/></g><g transform="translate(-8,-6) scale(1,1)"><path fill="none" stroke="#000000" d="M 24 186 L 145.67724609375 186" stroke-miterlimit="10"/></g><g transform="translate(-8,-6) scale(1,1)"><g><path fill="none" stroke="none"/><text fill="#000000" stroke="none" font-family="Arial" font-size="13px" font-style="normal" font-weight="bold" text-decoration="none" x="32.08642578125" y="155.5">AudioFileManager</text></g></g><g transform="translate(-8,-6) scale(1,1)"><g><path fill="none" stroke="none"/><text fill="#000000" stroke="none" font-family="Arial" font-size="13px" font-style="normal" font-weight="normal" text-decoration="none" x="36.799560546875" y="170.5">(from Managers)</text></g></g><g transform="translate(-8,-6) scale(1,1)"><rect fill="#C0C0C0" stroke="none" x="25" y="23" width="131.09716796875" height="59" opacity="0.2"/></g><g transform="translate(-8,-6) scale(1,1)"><rect fill="#ffff91" stroke="none" x="18" y="16" width="131.09716796875" height="59"/></g><g transform="translate(-8,-6) scale(1,1)"><path fill="none" stroke="#000000" d="M 18 16 L 149.09716796875 16 L 149.09716796875 75 L 18 75 L 18 16 Z Z" stroke-miterlimit="10"/></g><g transform="translate(-8,-6) scale(1,1)"><path fill="none" stroke="#000000" d="M 18 56 L 149.09716796875 56" stroke-miterlimit="10"/></g><g transform="translate(-8,-6) scale(1,1)"><path fill="none" stroke="#000000" d="M 18 66 L 149.09716796875 66" stroke-miterlimit="10"/></g><g transform="translate(-8,-6) scale(1,1)"><g><path fill="none" stroke="none"/><text fill="#000000" stroke="none" font-family="Arial" font-size="13px" font-style="italic" font-weight="bold" text-decoration="none" x="25.740478515625" y="35.5">AResourceManager</text></g></g><g transform="translate(-8,-6) scale(1,1)"><g><path fill="none" stroke="none"/><text fill="#000000" stroke="none" font-family="Arial" font-size="13px" font-style="normal" font-weight="normal" text-decoration="none" x="35.509521484375" y="50.5">(from Managers)</text></g></g><g transform="translate(-8,-6) scale(1,1)"><path fill="none" stroke="#000000" d="M 83 136 L 83 75" stroke-miterlimit="10"/></g><g transform="translate(-8,-6) scale(1,1)"><path fill="#FFFFFF" stroke="none" d="M 91.41903551203198 95.32534971524831 L 83 75 L 74.58096448796803 95.32534971524831"/></g><g transform="translate(-8,-6) scale(1,1)"><path fill="none" stroke="#000000" d="M 91.41903551203198 95.32534971524831 L 83 75 L 74.58096448796803 95.32534971524831 L 91.41903551203198 95.32534971524831" stroke-miterlimit="10"/></g><g transform="translate(-8,-6) scale(1,1)"><path fill="#C0C0C0" stroke="none" d="M 283.759521484375 34.5 C 283.759521484375 28.1487248 288.908246284375 23 295.259521484375 23 C 301.610796684375 23 306.759521484375 28.1487248 306.759521484375 34.5 C 306.759521484375 40.8512752 301.610796684375 46 295.259521484375 46 C 288.908246284375 46 283.759521484375 40.8512752 283.759521484375 34.5 Z" opacity="0.2"/></g><g transform="translate(-8,-6) scale(1,1)"><path fill="#ffff91" stroke="none" d="M 276.759521484375 27.5 C 276.759521484375 21.1487248 281.908246284375 16 288.259521484375 16 C 294.610796684375 16 299.759521484375 21.1487248 299.759521484375 27.5 C 299.759521484375 33.8512752 294.610796684375 39 288.259521484375 39 C 281.908246284375 39 276.759521484375 33.8512752 276.759521484375 27.5 Z"/></g><g transform="translate(-8,-6) scale(1,1)"><path fill="none" stroke="#000000" d="M 276.759521484375 27.5 C 276.759521484375 21.1487248 281.908246284375 16 288.259521484375 16 C 294.610796684375 16 299.759521484375 21.1487248 299.759521484375 27.5 C 299.759521484375 33.8512752 294.610796684375 39 288.259521484375 39 C 281.908246284375 39 276.759521484375 33.8512752 276.759521484375 27.5 Z" stroke-miterlimit="10"/></g><g transform="translate(-8,-6) scale(1,1)"><g><path fill="none" stroke="none"/><text fill="#000000" stroke="none" font-family="Arial" font-size="13px" font-style="normal" font-weight="bold" text-decoration="none" x="261.52001953125" y="58.5">IPlayable</text></g></g><g transform="translate(-8,-6) scale(1,1)"><g><path fill="none" stroke="none"/><text fill="#000000" stroke="none" font-family="Arial" font-size="13px" font-style="normal" font-weight="normal" text-decoration="none" x="252.5" y="73.5">(from Audio)</text></g></g><g transform="translate(-8,-6) scale(1,1)"><path fill="none" stroke="#000000" d="M 288 136 L 288 39" stroke-miterlimit="10"/></g><g transform="translate(-8,-6) scale(1,1)"><path fill="none" stroke="#000000" d="M 232 165 L 146 165" stroke-miterlimit="10"/></g><g transform="translate(-8,-6) scale(1,1)"><path fill="#000000" stroke="none" d="M 156.16267485762415 160.790482243984 L 146 165 L 156.16267485762415 169.209517756016 L 168 165"/></g><g transform="translate(-8,-6) scale(1,1)"><path fill="none" stroke="#000000" d="M 156.16267485762415 160.790482243984 L 146 165 L 156.16267485762415 169.209517756016 L 168 165 L 156.16267485762415 160.790482243984" stroke-miterlimit="10"/></g><g transform="translate(-8,-6) scale(1,1)"><rect fill="#C0C0C0" stroke="none" x="439" y="143" width="118.07177734375" height="59" opacity="0.2"/></g><g transform="translate(-8,-6) scale(1,1)"><rect fill="#ffffff" stroke="none" x="432" y="136" width="118.07177734375" height="59"/></g><g transform="translate(-8,-6) scale(1,1)"><path fill="none" stroke="#000000" d="M 432 136 L 550.07177734375 136 L 550.07177734375 195 L 432 195 L 432 136 Z Z" stroke-miterlimit="10"/></g><g transform="translate(-8,-6) scale(1,1)"><path fill="none" stroke="#000000" d="M 432 176 L 550.07177734375 176" stroke-miterlimit="10"/></g><g transform="translate(-8,-6) scale(1,1)"><path fill="none" stroke="#000000" d="M 432 186 L 550.07177734375 186" stroke-miterlimit="10"/></g><g transform="translate(-8,-6) scale(1,1)"><g><path fill="none" stroke="none"/><text fill="#000000" stroke="none" font-family="Arial" font-size="13px" font-style="normal" font-weight="bold" text-decoration="none" x="440.08642578125" y="155.5">AudioSourceData</text></g></g><g transform="translate(-8,-6) scale(1,1)"><g><path fill="none" stroke="none"/><text fill="#000000" stroke="none" font-family="Arial" font-size="13px" font-style="normal" font-weight="normal" text-decoration="none" x="458.1708984375" y="170.5">(from Data)</text></g></g><g transform="translate(-8,-6) scale(1,1)"><path fill="none" stroke="#000000" d="M 341 165 L 432 165" stroke-miterlimit="10"/></g><g transform="translate(-8,-6) scale(1,1)"><path fill="#FFFFFF" stroke="none" d="M 421.83732514237585 169.209517756016 L 432 165 L 421.83732514237585 160.790482243984 L 410 165"/></g><g transform="translate(-8,-6) scale(1,1)"><path fill="none" stroke="#000000" d="M 421.83732514237585 169.209517756016 L 432 165 L 421.83732514237585 160.790482243984 L 410 165 L 421.83732514237585 169.209517756016" stroke-miterlimit="10"/></g><g transform="translate(-8,-6) scale(1,1)"><rect fill="#C0C0C0" stroke="none" x="231" y="367" width="124.57177734375" height="59" opacity="0.2"/></g><g transform="translate(-8,-6) scale(1,1)"><rect fill="#ffffff" stroke="none" x="224" y="360" width="124.57177734375" height="59"/></g><g transform="translate(-8,-6) scale(1,1)"><path fill="none" stroke="#000000" d="M 224 360 L 348.57177734375 360 L 348.57177734375 419 L 224 419 L 224 360 Z Z" stroke-miterlimit="10"/></g><g transform="translate(-8,-6) scale(1,1)"><path fill="none" stroke="#000000" d="M 224 400 L 348.57177734375 400" stroke-miterlimit="10"/></g><g transform="translate(-8,-6) scale(1,1)"><path fill="none" stroke="#000000" d="M 224 410 L 348.57177734375 410" stroke-miterlimit="10"/></g><g transform="translate(-8,-6) scale(1,1)"><g><path fill="none" stroke="none"/><text fill="#000000" stroke="none" font-family="Arial" font-size="13px" font-style="normal" font-weight="bold" text-decoration="none" x="232.806884765625" y="379.5">AudioListenerData</text></g></g><g transform="translate(-8,-6) scale(1,1)"><g><path fill="none" stroke="none"/><text fill="#000000" stroke="none" font-family="Arial" font-size="13px" font-style="normal" font-weight="normal" text-decoration="none" x="253.4208984375" y="394.5">(from Data)</text></g></g><g transform="translate(-8,-6) scale(1,1)"><path fill="none" stroke="#000000" d="M 288 360 L 288 299" stroke-miterlimit="10"/></g><g transform="translate(-8,-6) scale(1,1)"><path fill="#FFFFFF" stroke="none" d="M 292.209517756016 309.16267485762415 L 288 299 L 283.790482243984 309.16267485762415 L 288 321"/></g><g transform="translate(-8,-6) scale(1,1)"><path fill="none" stroke="#000000" d="M 292.209517756016 309.16267485762415 L 288 299 L 283.790482243984 309.16267485762415 L 288 321 L 292.209517756016 309.16267485762415" stroke-miterlimit="10"/></g></g></svg>