<svg version="1.1" xmlns="http://www.w3.org/2000/svg" xmlns:xlink="http://www.w3.org/1999/xlink" width="1325.08447265625" height="1147"><defs/><g><g transform="translate(-22,-6) scale(1,1)"><rect fill="#C0C0C0" stroke="none" x="455" y="415" width="126.74267578125" height="59" opacity="0.2"/></g><g transform="translate(-22,-6) scale(1,1)"><rect fill="#ffffff" stroke="none" x="448" y="408" width="126.74267578125" height="59"/></g><g transform="translate(-22,-6) scale(1,1)"><path fill="none" stroke="#000000" d="M 448 408 L 574.74267578125 408 L 574.74267578125 467 L 448 467 L 448 408 Z Z" stroke-miterlimit="10"/></g><g transform="translate(-22,-6) scale(1,1)"><path fill="none" stroke="#000000" d="M 448 448 L 574.74267578125 448" stroke-miterlimit="10"/></g><g transform="translate(-22,-6) scale(1,1)"><path fill="none" stroke="#000000" d="M 448 458 L 574.74267578125 458" stroke-miterlimit="10"/></g><g transform="translate(-22,-6) scale(1,1)"><g><path fill="none" stroke="none"/><text fill="#000000" stroke="none" font-family="Arial" font-size="13px" font-style="normal" font-weight="bold" text-decoration="none" x="455.724609375" y="427.5">RenderingManager</text></g></g><g transform="translate(-22,-6) scale(1,1)"><g><path fill="none" stroke="none"/><text fill="#000000" stroke="none" font-family="Arial" font-size="13px" font-style="normal" font-weight="normal" text-decoration="none" x="463.332275390625" y="442.5">(from Managers)</text></g></g><g transform="translate(-22,-6) scale(1,1)"><rect fill="#C0C0C0" stroke="none" x="175" y="159" width="108.455078125" height="59" opacity="0.2"/></g><g transform="translate(-22,-6) scale(1,1)"><rect fill="#ffffff" stroke="none" x="168" y="152" width="108.455078125" height="59"/></g><g transform="translate(-22,-6) scale(1,1)"><path fill="none" stroke="#000000" d="M 168 152 L 276.455078125 152 L 276.455078125 211 L 168 211 L 168 152 Z Z" stroke-miterlimit="10"/></g><g transform="translate(-22,-6) scale(1,1)"><path fill="none" stroke="#000000" d="M 168 192 L 276.455078125 192" stroke-miterlimit="10"/></g><g transform="translate(-22,-6) scale(1,1)"><path fill="none" stroke="#000000" d="M 168 202 L 276.455078125 202" stroke-miterlimit="10"/></g><g transform="translate(-22,-6) scale(1,1)"><g><path fill="none" stroke="none"/><text fill="#000000" stroke="none" font-family="Arial" font-size="13px" font-style="normal" font-weight="bold" text-decoration="none" x="175.613525390625" y="171.5">ShaderManager</text></g></g><g transform="translate(-22,-6) scale(1,1)"><g><path fill="none" stroke="none"/><text fill="#000000" stroke="none" font-family="Arial" font-size="13px" font-style="normal" font-weight="normal" text-decoration="none" x="174.1884765625" y="186.5">(from Managers)</text></g></g><g transform="translate(-22,-6) scale(1,1)"><rect fill="#C0C0C0" stroke="none" x="455" y="23" width="131.09716796875" height="59" opacity="0.2"/></g><g transform="translate(-22,-6) scale(1,1)"><rect fill="#ffff91" stroke="none" x="448" y="16" width="131.09716796875" height="59"/></g><g transform="translate(-22,-6) scale(1,1)"><path fill="none" stroke="#000000" d="M 448 16 L 579.09716796875 16 L 579.09716796875 75 L 448 75 L 448 16 Z Z" stroke-miterlimit="10"/></g><g transform="translate(-22,-6) scale(1,1)"><path fill="none" stroke="#000000" d="M 448 56 L 579.09716796875 56" stroke-miterlimit="10"/></g><g transform="translate(-22,-6) scale(1,1)"><path fill="none" stroke="#000000" d="M 448 66 L 579.09716796875 66" stroke-miterlimit="10"/></g><g transform="translate(-22,-6) scale(1,1)"><g><path fill="none" stroke="none"/><text fill="#000000" stroke="none" font-family="Arial" font-size="13px" font-style="italic" font-weight="bold" text-decoration="none" x="459.789794921875" y="35.5">AResourceManager</text></g></g><g transform="translate(-22,-6) scale(1,1)"><g><path fill="none" stroke="none"/><text fill="#000000" stroke="none" font-family="Arial" font-size="13px" font-style="normal" font-weight="normal" text-decoration="none" x="465.509521484375" y="50.5">(from Managers)</text></g></g><g transform="translate(-22,-6) scale(1,1)"><path fill="none" stroke="#000000" d="M 222 152 L 222 56 L 448 56" stroke-miterlimit="10"/></g><g transform="translate(-22,-6) scale(1,1)"><path fill="#FFFFFF" stroke="none" d="M 427.6746502847517 64.41903551203198 L 448 56 L 427.6746502847517 47.580964487968025"/></g><g transform="translate(-22,-6) scale(1,1)"><path fill="none" stroke="#000000" d="M 427.6746502847517 64.41903551203198 L 448 56 L 427.6746502847517 47.580964487968025 L 427.6746502847517 64.41903551203198" stroke-miterlimit="10"/></g><g transform="translate(-22,-6) scale(1,1)"><rect fill="#C0C0C0" stroke="none" x="463" y="159" width="108.455078125" height="59" opacity="0.2"/></g><g transform="translate(-22,-6) scale(1,1)"><rect fill="#ffffff" stroke="none" x="456" y="152" width="108.455078125" height="59"/></g><g transform="translate(-22,-6) scale(1,1)"><path fill="none" stroke="#000000" d="M 456 152 L 564.455078125 152 L 564.455078125 211 L 456 211 L 456 152 Z Z" stroke-miterlimit="10"/></g><g transform="translate(-22,-6) scale(1,1)"><path fill="none" stroke="#000000" d="M 456 192 L 564.455078125 192" stroke-miterlimit="10"/></g><g transform="translate(-22,-6) scale(1,1)"><path fill="none" stroke="#000000" d="M 456 202 L 564.455078125 202" stroke-miterlimit="10"/></g><g transform="translate(-22,-6) scale(1,1)"><g><path fill="none" stroke="none"/><text fill="#000000" stroke="none" font-family="Arial" font-size="13px" font-style="normal" font-weight="bold" text-decoration="none" x="463.258056640625" y="171.5">TextureManager</text></g></g><g transform="translate(-22,-6) scale(1,1)"><g><path fill="none" stroke="none"/><text fill="#000000" stroke="none" font-family="Arial" font-size="13px" font-style="normal" font-weight="normal" text-decoration="none" x="462.1884765625" y="186.5">(from Managers)</text></g></g><g transform="translate(-22,-6) scale(1,1)"><rect fill="#C0C0C0" stroke="none" x="751" y="159" width="108.455078125" height="59" opacity="0.2"/></g><g transform="translate(-22,-6) scale(1,1)"><rect fill="#ffffff" stroke="none" x="744" y="152" width="108.455078125" height="59"/></g><g transform="translate(-22,-6) scale(1,1)"><path fill="none" stroke="#000000" d="M 744 152 L 852.455078125 152 L 852.455078125 211 L 744 211 L 744 152 Z Z" stroke-miterlimit="10"/></g><g transform="translate(-22,-6) scale(1,1)"><path fill="none" stroke="#000000" d="M 744 192 L 852.455078125 192" stroke-miterlimit="10"/></g><g transform="translate(-22,-6) scale(1,1)"><path fill="none" stroke="#000000" d="M 744 202 L 852.455078125 202" stroke-miterlimit="10"/></g><g transform="translate(-22,-6) scale(1,1)"><g><path fill="none" stroke="none"/><text fill="#000000" stroke="none" font-family="Arial" font-size="13px" font-style="normal" font-weight="bold" text-decoration="none" x="754.869873046875" y="171.5">ModelManager</text></g></g><g transform="translate(-22,-6) scale(1,1)"><g><path fill="none" stroke="none"/><text fill="#000000" stroke="none" font-family="Arial" font-size="13px" font-style="normal" font-weight="normal" text-decoration="none" x="750.1884765625" y="186.5">(from Managers)</text></g></g><g transform="translate(-22,-6) scale(1,1)"><path fill="none" stroke="#000000" d="M 512 152 L 512 75" stroke-miterlimit="10"/></g><g transform="translate(-22,-6) scale(1,1)"><path fill="#FFFFFF" stroke="none" d="M 520.419035512032 95.32534971524831 L 512 75 L 503.580964487968 95.32534971524831"/></g><g transform="translate(-22,-6) scale(1,1)"><path fill="none" stroke="#000000" d="M 520.419035512032 95.32534971524831 L 512 75 L 503.580964487968 95.32534971524831 L 520.419035512032 95.32534971524831" stroke-miterlimit="10"/></g><g transform="translate(-22,-6) scale(1,1)"><path fill="none" stroke="#000000" d="M 798 152 L 798 56 L 579 56" stroke-miterlimit="10"/></g><g transform="translate(-22,-6) scale(1,1)"><path fill="#FFFFFF" stroke="none" d="M 599.3253497152483 47.580964487968025 L 579 56 L 599.3253497152483 64.41903551203197"/></g><g transform="translate(-22,-6) scale(1,1)"><path fill="none" stroke="#000000" d="M 599.3253497152483 47.580964487968025 L 579 56 L 599.3253497152483 64.41903551203197 L 599.3253497152483 47.580964487968025" stroke-miterlimit="10"/></g><g transform="translate(-22,-6) scale(1,1)"><path fill="none" stroke="#000000" d="M 248 211 L 248 448 L 448 448" stroke-miterlimit="10"/></g><g transform="translate(-22,-6) scale(1,1)"><path fill="#000000" stroke="none" d="M 437.83732514237585 452.209517756016 L 448 448 L 437.83732514237585 443.790482243984 L 426 448"/></g><g transform="translate(-22,-6) scale(1,1)"><path fill="none" stroke="#000000" d="M 437.83732514237585 452.209517756016 L 448 448 L 437.83732514237585 443.790482243984 L 426 448 L 437.83732514237585 452.209517756016" stroke-miterlimit="10"/></g><g transform="translate(-22,-6) scale(1,1)"><path fill="none" stroke="#000000" d="M 510 211 L 510 408" stroke-miterlimit="10"/></g><g transform="translate(-22,-6) scale(1,1)"><path fill="#000000" stroke="none" d="M 505.790482243984 397.83732514237585 L 510 408 L 514.209517756016 397.83732514237585 L 510 386"/></g><g transform="translate(-22,-6) scale(1,1)"><path fill="none" stroke="#000000" d="M 505.790482243984 397.83732514237585 L 510 408 L 514.209517756016 397.83732514237585 L 510 386 L 505.790482243984 397.83732514237585" stroke-miterlimit="10"/></g><g transform="translate(-22,-6) scale(1,1)"><path fill="none" stroke="#000000" d="M 798 211 L 798 437 L 575 437" stroke-miterlimit="10"/></g><g transform="translate(-22,-6) scale(1,1)"><path fill="#000000" stroke="none" d="M 585.1626748576241 432.790482243984 L 575 437 L 585.1626748576241 441.209517756016 L 597 437"/></g><g transform="translate(-22,-6) scale(1,1)"><path fill="none" stroke="#000000" d="M 585.1626748576241 432.790482243984 L 575 437 L 585.1626748576241 441.209517756016 L 597 437 L 585.1626748576241 432.790482243984" stroke-miterlimit="10"/></g><g transform="translate(-22,-6) scale(1,1)"><rect fill="#C0C0C0" stroke="none" x="791" y="567" width="109.4072265625" height="59" opacity="0.2"/></g><g transform="translate(-22,-6) scale(1,1)"><rect fill="#ffffff" stroke="none" x="784" y="560" width="109.4072265625" height="59"/></g><g transform="translate(-22,-6) scale(1,1)"><path fill="none" stroke="#000000" d="M 784 560 L 893.4072265625 560 L 893.4072265625 619 L 784 619 L 784 560 Z Z" stroke-miterlimit="10"/></g><g transform="translate(-22,-6) scale(1,1)"><path fill="none" stroke="#000000" d="M 784 600 L 893.4072265625 600" stroke-miterlimit="10"/></g><g transform="translate(-22,-6) scale(1,1)"><path fill="none" stroke="#000000" d="M 784 610 L 893.4072265625 610" stroke-miterlimit="10"/></g><g transform="translate(-22,-6) scale(1,1)"><g><path fill="none" stroke="none"/><text fill="#000000" stroke="none" font-family="Arial" font-size="13px" font-style="normal" font-weight="bold" text-decoration="none" x="817.38818359375" y="579.5">Texture</text></g></g><g transform="translate(-22,-6) scale(1,1)"><g><path fill="none" stroke="none"/><text fill="#000000" stroke="none" font-family="Arial" font-size="13px" font-style="normal" font-weight="normal" text-decoration="none" x="788.5" y="594.5">(from Resources)</text></g></g><g transform="translate(-22,-6) scale(1,1)"><rect fill="#C0C0C0" stroke="none" x="175" y="687" width="109.4072265625" height="59" opacity="0.2"/></g><g transform="translate(-22,-6) scale(1,1)"><rect fill="#ffffff" stroke="none" x="168" y="680" width="109.4072265625" height="59"/></g><g transform="translate(-22,-6) scale(1,1)"><path fill="none" stroke="#000000" d="M 168 680 L 277.4072265625 680 L 277.4072265625 739 L 168 739 L 168 680 Z Z" stroke-miterlimit="10"/></g><g transform="translate(-22,-6) scale(1,1)"><path fill="none" stroke="#000000" d="M 168 720 L 277.4072265625 720" stroke-miterlimit="10"/></g><g transform="translate(-22,-6) scale(1,1)"><path fill="none" stroke="#000000" d="M 168 730 L 277.4072265625 730" stroke-miterlimit="10"/></g><g transform="translate(-22,-6) scale(1,1)"><g><path fill="none" stroke="none"/><text fill="#000000" stroke="none" font-family="Arial" font-size="13px" font-style="normal" font-weight="bold" text-decoration="none" x="201.74365234375" y="699.5">Shader</text></g></g><g transform="translate(-22,-6) scale(1,1)"><g><path fill="none" stroke="none"/><text fill="#000000" stroke="none" font-family="Arial" font-size="13px" font-style="normal" font-weight="normal" text-decoration="none" x="172.5" y="714.5">(from Resources)</text></g></g><g transform="translate(-22,-6) scale(1,1)"><rect fill="#C0C0C0" stroke="none" x="1023" y="687" width="109.4072265625" height="59" opacity="0.2"/></g><g transform="translate(-22,-6) scale(1,1)"><rect fill="#ffffff" stroke="none" x="1016" y="680" width="109.4072265625" height="59"/></g><g transform="translate(-22,-6) scale(1,1)"><path fill="none" stroke="#000000" d="M 1016 680 L 1125.4072265625 680 L 1125.4072265625 739 L 1016 739 L 1016 680 Z Z" stroke-miterlimit="10"/></g><g transform="translate(-22,-6) scale(1,1)"><path fill="none" stroke="#000000" d="M 1016 720 L 1125.4072265625 720" stroke-miterlimit="10"/></g><g transform="translate(-22,-6) scale(1,1)"><path fill="none" stroke="#000000" d="M 1016 730 L 1125.4072265625 730" stroke-miterlimit="10"/></g><g transform="translate(-22,-6) scale(1,1)"><g><path fill="none" stroke="none"/><text fill="#000000" stroke="none" font-family="Arial" font-size="13px" font-style="normal" font-weight="bold" text-decoration="none" x="1053" y="699.5">Model</text></g></g><g transform="translate(-22,-6) scale(1,1)"><g><path fill="none" stroke="none"/><text fill="#000000" stroke="none" font-family="Arial" font-size="13px" font-style="normal" font-weight="normal" text-decoration="none" x="1020.5" y="714.5">(from Resources)</text></g></g><g transform="translate(-22,-6) scale(1,1)"><rect fill="#C0C0C0" stroke="none" x="535" y="911" width="145.55078125" height="59" opacity="0.2"/></g><g transform="translate(-22,-6) scale(1,1)"><rect fill="#ffffff" stroke="none" x="528" y="904" width="145.55078125" height="59"/></g><g transform="translate(-22,-6) scale(1,1)"><path fill="none" stroke="#000000" d="M 528 904 L 673.55078125 904 L 673.55078125 963 L 528 963 L 528 904 Z Z" stroke-miterlimit="10"/></g><g transform="translate(-22,-6) scale(1,1)"><path fill="none" stroke="#000000" d="M 528 944 L 673.55078125 944" stroke-miterlimit="10"/></g><g transform="translate(-22,-6) scale(1,1)"><path fill="none" stroke="#000000" d="M 528 954 L 673.55078125 954" stroke-miterlimit="10"/></g><g transform="translate(-22,-6) scale(1,1)"><g><path fill="none" stroke="none"/><text fill="#000000" stroke="none" font-family="Arial" font-size="13px" font-style="normal" font-weight="bold" text-decoration="none" x="550.917724609375" y="923.5">OModelRenderer</text></g></g><g transform="translate(-22,-6) scale(1,1)"><g><path fill="none" stroke="none"/><text fill="#000000" stroke="none" font-family="Arial" font-size="13px" font-style="normal" font-weight="normal" text-decoration="none" x="562.8544921875" y="938.5">(from Object)</text></g></g><g transform="translate(-22,-6) scale(1,1)"><rect fill="#C0C0C0" stroke="none" x="335" y="911" width="145.55078125" height="59" opacity="0.2"/></g><g transform="translate(-22,-6) scale(1,1)"><rect fill="#ffffff" stroke="none" x="328" y="904" width="145.55078125" height="59"/></g><g transform="translate(-22,-6) scale(1,1)"><path fill="none" stroke="#000000" d="M 328 904 L 473.55078125 904 L 473.55078125 963 L 328 963 L 328 904 Z Z" stroke-miterlimit="10"/></g><g transform="translate(-22,-6) scale(1,1)"><path fill="none" stroke="#000000" d="M 328 944 L 473.55078125 944" stroke-miterlimit="10"/></g><g transform="translate(-22,-6) scale(1,1)"><path fill="none" stroke="#000000" d="M 328 954 L 473.55078125 954" stroke-miterlimit="10"/></g><g transform="translate(-22,-6) scale(1,1)"><g><path fill="none" stroke="none"/><text fill="#000000" stroke="none" font-family="Arial" font-size="13px" font-style="normal" font-weight="bold" text-decoration="none" x="356.700439453125" y="923.5">OTextRenderer</text></g></g><g transform="translate(-22,-6) scale(1,1)"><g><path fill="none" stroke="none"/><text fill="#000000" stroke="none" font-family="Arial" font-size="13px" font-style="normal" font-weight="normal" text-decoration="none" x="362.8544921875" y="938.5">(from Object)</text></g></g><g transform="translate(-22,-6) scale(1,1)"><path fill="none" stroke="#000000" d="M 222 680 L 222 211" stroke-miterlimit="10"/></g><g transform="translate(-22,-6) scale(1,1)"><path fill="#000000" stroke="none" d="M 226.209517756016 221.16267485762415 L 222 211 L 217.790482243984 221.16267485762415 L 222 233"/></g><g transform="translate(-22,-6) scale(1,1)"><path fill="none" stroke="#000000" d="M 226.209517756016 221.16267485762415 L 222 211 L 217.790482243984 221.16267485762415 L 222 233 L 226.209517756016 221.16267485762415" stroke-miterlimit="10"/></g><g transform="translate(-22,-6) scale(1,1)"><path fill="none" stroke="#000000" d="M 1072 680 L 1072 176 L 852 176" stroke-miterlimit="10"/></g><g transform="translate(-22,-6) scale(1,1)"><path fill="#000000" stroke="none" d="M 862.1626748576241 171.790482243984 L 852 176 L 862.1626748576241 180.209517756016 L 874 176"/></g><g transform="translate(-22,-6) scale(1,1)"><path fill="none" stroke="#000000" d="M 862.1626748576241 171.790482243984 L 852 176 L 862.1626748576241 180.209517756016 L 874 176 L 862.1626748576241 171.790482243984" stroke-miterlimit="10"/></g><g transform="translate(-22,-6) scale(1,1)"><rect fill="#C0C0C0" stroke="none" x="751" y="911" width="145.55078125" height="59" opacity="0.2"/></g><g transform="translate(-22,-6) scale(1,1)"><rect fill="#ffffff" stroke="none" x="744" y="904" width="145.55078125" height="59"/></g><g transform="translate(-22,-6) scale(1,1)"><path fill="none" stroke="#000000" d="M 744 904 L 889.55078125 904 L 889.55078125 963 L 744 963 L 744 904 Z Z" stroke-miterlimit="10"/></g><g transform="translate(-22,-6) scale(1,1)"><path fill="none" stroke="#000000" d="M 744 944 L 889.55078125 944" stroke-miterlimit="10"/></g><g transform="translate(-22,-6) scale(1,1)"><path fill="none" stroke="#000000" d="M 744 954 L 889.55078125 954" stroke-miterlimit="10"/></g><g transform="translate(-22,-6) scale(1,1)"><g><path fill="none" stroke="none"/><text fill="#000000" stroke="none" font-family="Arial" font-size="13px" font-style="normal" font-weight="bold" text-decoration="none" x="767.641357421875" y="923.5">OSpriteRenderer</text></g></g><g transform="translate(-22,-6) scale(1,1)"><g><path fill="none" stroke="none"/><text fill="#000000" stroke="none" font-family="Arial" font-size="13px" font-style="normal" font-weight="normal" text-decoration="none" x="778.8544921875" y="938.5">(from Object)</text></g></g><g transform="translate(-22,-6) scale(1,1)"><path fill="none" stroke="#000000" d="M 840 560 L 840 384 L 536 384 L 536 211" stroke-miterlimit="10"/></g><g transform="translate(-22,-6) scale(1,1)"><path fill="#000000" stroke="none" d="M 540.209517756016 221.16267485762415 L 536 211 L 531.790482243984 221.16267485762415 L 536 233"/></g><g transform="translate(-22,-6) scale(1,1)"><path fill="none" stroke="#000000" d="M 540.209517756016 221.16267485762415 L 536 211 L 531.790482243984 221.16267485762415 L 536 233 L 540.209517756016 221.16267485762415" stroke-miterlimit="10"/></g><g transform="translate(-22,-6) scale(1,1)"><path fill="#C0C0C0" stroke="none" d="M 585.127685546875 1098.5 C 585.127685546875 1092.1487248 590.276410346875 1087 596.627685546875 1087 C 602.978960746875 1087 608.127685546875 1092.1487248 608.127685546875 1098.5 C 608.127685546875 1104.8512752 602.978960746875 1110 596.627685546875 1110 C 590.276410346875 1110 585.127685546875 1104.8512752 585.127685546875 1098.5 Z" opacity="0.2"/></g><g transform="translate(-22,-6) scale(1,1)"><path fill="#ffff91" stroke="none" d="M 578.127685546875 1091.5 C 578.127685546875 1085.1487248 583.276410346875 1080 589.627685546875 1080 C 595.978960746875 1080 601.127685546875 1085.1487248 601.127685546875 1091.5 C 601.127685546875 1097.8512752 595.978960746875 1103 589.627685546875 1103 C 583.276410346875 1103 578.127685546875 1097.8512752 578.127685546875 1091.5 Z"/></g><g transform="translate(-22,-6) scale(1,1)"><path fill="none" stroke="#000000" d="M 578.127685546875 1091.5 C 578.127685546875 1085.1487248 583.276410346875 1080 589.627685546875 1080 C 595.978960746875 1080 601.127685546875 1085.1487248 601.127685546875 1091.5 C 601.127685546875 1097.8512752 595.978960746875 1103 589.627685546875 1103 C 583.276410346875 1103 578.127685546875 1097.8512752 578.127685546875 1091.5 Z" stroke-miterlimit="10"/></g><g transform="translate(-22,-6) scale(1,1)"><g><path fill="none" stroke="none"/><text fill="#000000" stroke="none" font-family="Arial" font-size="13px" font-style="normal" font-weight="bold" text-decoration="none" x="554.214111328125" y="1122.5">IRenderable</text></g></g><g transform="translate(-22,-6) scale(1,1)"><g><path fill="none" stroke="none"/><text fill="#000000" stroke="none" font-family="Arial" font-size="13px" font-style="normal" font-weight="normal" text-decoration="none" x="540.5" y="1137.5">(from Rendering)</text></g></g><g transform="translate(-22,-6) scale(1,1)"><path fill="none" stroke="#000000" d="M 392 963 L 392 1091 L 578.127685546875 1091" stroke-miterlimit="10"/></g><g transform="translate(-22,-6) scale(1,1)"><path fill="none" stroke="#000000" d="M 592 963 L 592 1080" stroke-miterlimit="10"/></g><g transform="translate(-22,-6) scale(1,1)"><path fill="none" stroke="#000000" d="M 824 963 L 824 1091 L 601.127685546875 1091" stroke-miterlimit="10"/></g><g transform="translate(-22,-6) scale(1,1)"><path fill="#C0C0C0" stroke="none" d="M 82.57177734375 170.5 C 82.57177734375 164.1487248 87.72050214375 159 94.07177734375 159 C 100.42305254375 159 105.57177734375 164.1487248 105.57177734375 170.5 C 105.57177734375 176.8512752 100.42305254375 182 94.07177734375 182 C 87.72050214375 182 82.57177734375 176.8512752 82.57177734375 170.5 Z" opacity="0.2"/></g><g transform="translate(-22,-6) scale(1,1)"><path fill="#ffff91" stroke="none" d="M 75.57177734375 163.5 C 75.57177734375 157.1487248 80.72050214375 152 87.07177734375 152 C 93.42305254375 152 98.57177734375 157.1487248 98.57177734375 163.5 C 98.57177734375 169.8512752 93.42305254375 175 87.07177734375 175 C 80.72050214375 175 75.57177734375 169.8512752 75.57177734375 163.5 Z"/></g><g transform="translate(-22,-6) scale(1,1)"><path fill="none" stroke="#000000" d="M 75.57177734375 163.5 C 75.57177734375 157.1487248 80.72050214375 152 87.07177734375 152 C 93.42305254375 152 98.57177734375 157.1487248 98.57177734375 163.5 C 98.57177734375 169.8512752 93.42305254375 175 87.07177734375 175 C 80.72050214375 175 75.57177734375 169.8512752 75.57177734375 163.5 Z" stroke-miterlimit="10"/></g><g transform="translate(-22,-6) scale(1,1)"><g><path fill="none" stroke="none"/><text fill="#000000" stroke="none" font-family="Arial" font-size="13px" font-style="normal" font-weight="bold" text-decoration="none" x="38.65185546875" y="194.5">IShaderManager</text></g></g><g transform="translate(-22,-6) scale(1,1)"><g><path fill="none" stroke="none"/><text fill="#000000" stroke="none" font-family="Arial" font-size="13px" font-style="normal" font-weight="normal" text-decoration="none" x="43.0126953125" y="209.5">(from Services)</text></g></g><g transform="translate(-22,-6) scale(1,1)"><path fill="#C0C0C0" stroke="none" d="M 371.533447265625 170.5 C 371.533447265625 164.1487248 376.682172065625 159 383.033447265625 159 C 389.384722465625 159 394.533447265625 164.1487248 394.533447265625 170.5 C 394.533447265625 176.8512752 389.384722465625 182 383.033447265625 182 C 376.682172065625 182 371.533447265625 176.8512752 371.533447265625 170.5 Z" opacity="0.2"/></g><g transform="translate(-22,-6) scale(1,1)"><path fill="#ffff91" stroke="none" d="M 364.533447265625 163.5 C 364.533447265625 157.1487248 369.682172065625 152 376.033447265625 152 C 382.384722465625 152 387.533447265625 157.1487248 387.533447265625 163.5 C 387.533447265625 169.8512752 382.384722465625 175 376.033447265625 175 C 369.682172065625 175 364.533447265625 169.8512752 364.533447265625 163.5 Z"/></g><g transform="translate(-22,-6) scale(1,1)"><path fill="none" stroke="#000000" d="M 364.533447265625 163.5 C 364.533447265625 157.1487248 369.682172065625 152 376.033447265625 152 C 382.384722465625 152 387.533447265625 157.1487248 387.533447265625 163.5 C 387.533447265625 169.8512752 382.384722465625 175 376.033447265625 175 C 369.682172065625 175 364.533447265625 169.8512752 364.533447265625 163.5 Z" stroke-miterlimit="10"/></g><g transform="translate(-22,-6) scale(1,1)"><g><path fill="none" stroke="none"/><text fill="#000000" stroke="none" font-family="Arial" font-size="13px" font-style="normal" font-weight="bold" text-decoration="none" x="327.258056640625" y="194.5">ITextureManager</text></g></g><g transform="translate(-22,-6) scale(1,1)"><g><path fill="none" stroke="none"/><text fill="#000000" stroke="none" font-family="Arial" font-size="13px" font-style="normal" font-weight="normal" text-decoration="none" x="331.974365234375" y="209.5">(from Services)</text></g></g><g transform="translate(-22,-6) scale(1,1)"><path fill="#C0C0C0" stroke="none" d="M 656.0390625 170.5 C 656.0390625 164.1487248 661.1877873 159 667.5390625 159 C 673.8903377 159 679.0390625 164.1487248 679.0390625 170.5 C 679.0390625 176.8512752 673.8903377 182 667.5390625 182 C 661.1877873 182 656.0390625 176.8512752 656.0390625 170.5 Z" opacity="0.2"/></g><g transform="translate(-22,-6) scale(1,1)"><path fill="#ffff91" stroke="none" d="M 649.0390625 163.5 C 649.0390625 157.1487248 654.1877873 152 660.5390625 152 C 666.8903377 152 672.0390625 157.1487248 672.0390625 163.5 C 672.0390625 169.8512752 666.8903377 175 660.5390625 175 C 654.1877873 175 649.0390625 169.8512752 649.0390625 163.5 Z"/></g><g transform="translate(-22,-6) scale(1,1)"><path fill="none" stroke="#000000" d="M 649.0390625 163.5 C 649.0390625 157.1487248 654.1877873 152 660.5390625 152 C 666.8903377 152 672.0390625 157.1487248 672.0390625 163.5 C 672.0390625 169.8512752 666.8903377 175 660.5390625 175 C 654.1877873 175 649.0390625 169.8512752 649.0390625 163.5 Z" stroke-miterlimit="10"/></g><g transform="translate(-22,-6) scale(1,1)"><g><path fill="none" stroke="none"/><text fill="#000000" stroke="none" font-family="Arial" font-size="13px" font-style="normal" font-weight="bold" text-decoration="none" x="615.37548828125" y="194.5">IModelManager</text></g></g><g transform="translate(-22,-6) scale(1,1)"><g><path fill="none" stroke="none"/><text fill="#000000" stroke="none" font-family="Arial" font-size="13px" font-style="normal" font-weight="normal" text-decoration="none" x="616.47998046875" y="209.5">(from Services)</text></g></g><g transform="translate(-22,-6) scale(1,1)"><path fill="none" stroke="#000000" d="M 168 163 L 98.57177734375 163" stroke-miterlimit="10"/></g><g transform="translate(-22,-6) scale(1,1)"><path fill="none" stroke="#000000" d="M 456 163 L 387.533447265625 163" stroke-miterlimit="10"/></g><g transform="translate(-22,-6) scale(1,1)"><path fill="none" stroke="#000000" d="M 744 163 L 672.0390625 163" stroke-miterlimit="10"/></g><g transform="translate(-22,-6) scale(1,1)"><rect fill="#C0C0C0" stroke="none" x="343" y="519" width="145.55078125" height="59" opacity="0.2"/></g><g transform="translate(-22,-6) scale(1,1)"><rect fill="#ffffff" stroke="none" x="336" y="512" width="145.55078125" height="59"/></g><g transform="translate(-22,-6) scale(1,1)"><path fill="none" stroke="#000000" d="M 336 512 L 481.55078125 512 L 481.55078125 571 L 336 571 L 336 512 Z Z" stroke-miterlimit="10"/></g><g transform="translate(-22,-6) scale(1,1)"><path fill="none" stroke="#000000" d="M 336 552 L 481.55078125 552" stroke-miterlimit="10"/></g><g transform="translate(-22,-6) scale(1,1)"><path fill="none" stroke="#000000" d="M 336 562 L 481.55078125 562" stroke-miterlimit="10"/></g><g transform="translate(-22,-6) scale(1,1)"><g><path fill="none" stroke="none"/><text fill="#000000" stroke="none" font-family="Arial" font-size="13px" font-style="normal" font-weight="bold" text-decoration="none" x="380.601318359375" y="531.5">OCamera</text></g></g><g transform="translate(-22,-6) scale(1,1)"><g><path fill="none" stroke="none"/><text fill="#000000" stroke="none" font-family="Arial" font-size="13px" font-style="normal" font-weight="normal" text-decoration="none" x="370.8544921875" y="546.5">(from Object)</text></g></g><g transform="translate(-22,-6) scale(1,1)"><path fill="none" stroke="#000000" d="M 472 512 L 472 467" stroke-miterlimit="10"/></g><g transform="translate(-22,-6) scale(1,1)"><path fill="#FFFFFF" stroke="none" d="M 476.209517756016 477.16267485762415 L 472 467 L 467.790482243984 477.16267485762415 L 472 489"/></g><g transform="translate(-22,-6) scale(1,1)"><path fill="none" stroke="#000000" d="M 476.209517756016 477.16267485762415 L 472 467 L 467.790482243984 477.16267485762415 L 472 489 L 476.209517756016 477.16267485762415" stroke-miterlimit="10"/></g><g transform="translate(-22,-6) scale(1,1)"><rect fill="#C0C0C0" stroke="none" x="343" y="327" width="92.07177734375" height="59" opacity="0.2"/></g><g transform="translate(-22,-6) scale(1,1)"><rect fill="#ffffff" stroke="none" x="336" y="320" width="92.07177734375" height="59"/></g><g transform="translate(-22,-6) scale(1,1)"><path fill="none" stroke="#000000" d="M 336 320 L 428.07177734375 320 L 428.07177734375 379 L 336 379 L 336 320 Z Z" stroke-miterlimit="10"/></g><g transform="translate(-22,-6) scale(1,1)"><path fill="none" stroke="#000000" d="M 336 360 L 428.07177734375 360" stroke-miterlimit="10"/></g><g transform="translate(-22,-6) scale(1,1)"><path fill="none" stroke="#000000" d="M 336 370 L 428.07177734375 370" stroke-miterlimit="10"/></g><g transform="translate(-22,-6) scale(1,1)"><g><path fill="none" stroke="none"/><text fill="#000000" stroke="none" font-family="Arial" font-size="13px" font-style="normal" font-weight="bold" text-decoration="none" x="345.562255859375" y="339.5">GLEWDriver</text></g></g><g transform="translate(-22,-6) scale(1,1)"><g><path fill="none" stroke="none"/><text fill="#000000" stroke="none" font-family="Arial" font-size="13px" font-style="normal" font-weight="normal" text-decoration="none" x="340.5" y="354.5">(from Context)</text></g></g><g transform="translate(-22,-6) scale(1,1)"><path fill="none" stroke="#000000" d="M 366 379 L 366 424 L 448 424" stroke-miterlimit="10"/></g><g transform="translate(-22,-6) scale(1,1)"><path fill="#000000" stroke="none" d="M 437.83732514237585 428.209517756016 L 448 424 L 437.83732514237585 419.790482243984 L 426 424"/></g><g transform="translate(-22,-6) scale(1,1)"><path fill="none" stroke="#000000" d="M 437.83732514237585 428.209517756016 L 448 424 L 437.83732514237585 419.790482243984 L 426 424 L 437.83732514237585 428.209517756016" stroke-miterlimit="10"/></g><g transform="translate(-22,-6) scale(1,1)"><path fill="#C0C0C0" stroke="none" d="M 361.535888671875 272.5 C 361.535888671875 266.1487248 366.684613471875 261 373.035888671875 261 C 379.387163871875 261 384.535888671875 266.1487248 384.535888671875 272.5 C 384.535888671875 278.8512752 379.387163871875 284 373.035888671875 284 C 366.684613471875 284 361.535888671875 278.8512752 361.535888671875 272.5 Z" opacity="0.2"/></g><g transform="translate(-22,-6) scale(1,1)"><path fill="#ffff91" stroke="none" d="M 354.535888671875 265.5 C 354.535888671875 259.1487248 359.684613471875 254 366.035888671875 254 C 372.387163871875 254 377.535888671875 259.1487248 377.535888671875 265.5 C 377.535888671875 271.8512752 372.387163871875 277 366.035888671875 277 C 359.684613471875 277 354.535888671875 271.8512752 354.535888671875 265.5 Z"/></g><g transform="translate(-22,-6) scale(1,1)"><path fill="none" stroke="#000000" d="M 354.535888671875 265.5 C 354.535888671875 259.1487248 359.684613471875 254 366.035888671875 254 C 372.387163871875 254 377.535888671875 259.1487248 377.535888671875 265.5 C 377.535888671875 271.8512752 372.387163871875 277 366.035888671875 277 C 359.684613471875 277 354.535888671875 271.8512752 354.535888671875 265.5 Z" stroke-miterlimit="10"/></g><g transform="translate(-22,-6) scale(1,1)"><g><path fill="none" stroke="none"/><text fill="#000000" stroke="none" font-family="Arial" font-size="13px" font-style="normal" font-weight="bold" text-decoration="none" x="346.897705078125" y="296.5">IDriver</text></g></g><g transform="translate(-22,-6) scale(1,1)"><g><path fill="none" stroke="none"/><text fill="#000000" stroke="none" font-family="Arial" font-size="13px" font-style="normal" font-weight="normal" text-decoration="none" x="324.5" y="311.5">(from Context)</text></g></g><g transform="translate(-22,-6) scale(1,1)"><path fill="none" stroke="#000000" d="M 366 320 L 366 277" stroke-miterlimit="10"/></g><g transform="translate(-22,-6) scale(1,1)"><rect fill="#C0C0C0" stroke="none" x="1167" y="783" width="105.08447265625" height="59" opacity="0.2"/></g><g transform="translate(-22,-6) scale(1,1)"><rect fill="#ffffff" stroke="none" x="1160" y="776" width="105.08447265625" height="59"/></g><g transform="translate(-22,-6) scale(1,1)"><path fill="none" stroke="#000000" d="M 1160 776 L 1265.08447265625 776 L 1265.08447265625 835 L 1160 835 L 1160 776 Z Z" stroke-miterlimit="10"/></g><g transform="translate(-22,-6) scale(1,1)"><path fill="none" stroke="#000000" d="M 1160 816 L 1265.08447265625 816" stroke-miterlimit="10"/></g><g transform="translate(-22,-6) scale(1,1)"><path fill="none" stroke="#000000" d="M 1160 826 L 1265.08447265625 826" stroke-miterlimit="10"/></g><g transform="translate(-22,-6) scale(1,1)"><g><path fill="none" stroke="none"/><text fill="#000000" stroke="none" font-family="Arial" font-size="13px" font-style="normal" font-weight="bold" text-decoration="none" x="1194.114990234375" y="795.5">Vertex</text></g></g><g transform="translate(-22,-6) scale(1,1)"><g><path fill="none" stroke="none"/><text fill="#000000" stroke="none" font-family="Arial" font-size="13px" font-style="normal" font-weight="normal" text-decoration="none" x="1164.5" y="810.5">(from HighLevel)</text></g></g><g transform="translate(-22,-6) scale(1,1)"><rect fill="#C0C0C0" stroke="none" x="567" y="687" width="105.08447265625" height="59" opacity="0.2"/></g><g transform="translate(-22,-6) scale(1,1)"><rect fill="#ffffff" stroke="none" x="560" y="680" width="105.08447265625" height="59"/></g><g transform="translate(-22,-6) scale(1,1)"><path fill="none" stroke="#000000" d="M 560 680 L 665.08447265625 680 L 665.08447265625 739 L 560 739 L 560 680 Z Z" stroke-miterlimit="10"/></g><g transform="translate(-22,-6) scale(1,1)"><path fill="none" stroke="#000000" d="M 560 720 L 665.08447265625 720" stroke-miterlimit="10"/></g><g transform="translate(-22,-6) scale(1,1)"><path fill="none" stroke="#000000" d="M 560 730 L 665.08447265625 730" stroke-miterlimit="10"/></g><g transform="translate(-22,-6) scale(1,1)"><g><path fill="none" stroke="none"/><text fill="#000000" stroke="none" font-family="Arial" font-size="13px" font-style="normal" font-weight="bold" text-decoration="none" x="597.009521484375" y="699.5">Color</text></g></g><g transform="translate(-22,-6) scale(1,1)"><g><path fill="none" stroke="none"/><text fill="#000000" stroke="none" font-family="Arial" font-size="13px" font-style="normal" font-weight="normal" text-decoration="none" x="564.5" y="714.5">(from HighLevel)</text></g></g><g transform="translate(-22,-6) scale(1,1)"><rect fill="#C0C0C0" stroke="none" x="407" y="687" width="105.08447265625" height="59" opacity="0.2"/></g><g transform="translate(-22,-6) scale(1,1)"><rect fill="#ffffff" stroke="none" x="400" y="680" width="105.08447265625" height="59"/></g><g transform="translate(-22,-6) scale(1,1)"><path fill="none" stroke="#000000" d="M 400 680 L 505.08447265625 680 L 505.08447265625 739 L 400 739 L 400 680 Z Z" stroke-miterlimit="10"/></g><g transform="translate(-22,-6) scale(1,1)"><path fill="none" stroke="#000000" d="M 400 720 L 505.08447265625 720" stroke-miterlimit="10"/></g><g transform="translate(-22,-6) scale(1,1)"><path fill="none" stroke="#000000" d="M 400 730 L 505.08447265625 730" stroke-miterlimit="10"/></g><g transform="translate(-22,-6) scale(1,1)"><g><path fill="none" stroke="none"/><text fill="#000000" stroke="none" font-family="Arial" font-size="13px" font-style="normal" font-weight="bold" text-decoration="none" x="429.424072265625" y="699.5">Material</text></g></g><g transform="translate(-22,-6) scale(1,1)"><g><path fill="none" stroke="none"/><text fill="#000000" stroke="none" font-family="Arial" font-size="13px" font-style="normal" font-weight="normal" text-decoration="none" x="404.5" y="714.5">(from HighLevel)</text></g></g><g transform="translate(-22,-6) scale(1,1)"><rect fill="#C0C0C0" stroke="none" x="1119" y="567" width="105.08447265625" height="59" opacity="0.2"/></g><g transform="translate(-22,-6) scale(1,1)"><rect fill="#ffffff" stroke="none" x="1112" y="560" width="105.08447265625" height="59"/></g><g transform="translate(-22,-6) scale(1,1)"><path fill="none" stroke="#000000" d="M 1112 560 L 1217.08447265625 560 L 1217.08447265625 619 L 1112 619 L 1112 560 Z Z" stroke-miterlimit="10"/></g><g transform="translate(-22,-6) scale(1,1)"><path fill="none" stroke="#000000" d="M 1112 600 L 1217.08447265625 600" stroke-miterlimit="10"/></g><g transform="translate(-22,-6) scale(1,1)"><path fill="none" stroke="#000000" d="M 1112 610 L 1217.08447265625 610" stroke-miterlimit="10"/></g><g transform="translate(-22,-6) scale(1,1)"><g><path fill="none" stroke="none"/><text fill="#000000" stroke="none" font-family="Arial" font-size="13px" font-style="normal" font-weight="bold" text-decoration="none" x="1122.39697265625" y="579.5">GLVertexArray</text></g></g><g transform="translate(-22,-6) scale(1,1)"><g><path fill="none" stroke="none"/><text fill="#000000" stroke="none" font-family="Arial" font-size="13px" font-style="normal" font-weight="normal" text-decoration="none" x="1120.83544921875" y="594.5">(from OpenGL)</text></g></g><g transform="translate(-22,-6) scale(1,1)"><rect fill="#C0C0C0" stroke="none" x="1239" y="567" width="105.08447265625" height="59" opacity="0.2"/></g><g transform="translate(-22,-6) scale(1,1)"><rect fill="#ffffff" stroke="none" x="1232" y="560" width="105.08447265625" height="59"/></g><g transform="translate(-22,-6) scale(1,1)"><path fill="none" stroke="#000000" d="M 1232 560 L 1337.08447265625 560 L 1337.08447265625 619 L 1232 619 L 1232 560 Z Z" stroke-miterlimit="10"/></g><g transform="translate(-22,-6) scale(1,1)"><path fill="none" stroke="#000000" d="M 1232 600 L 1337.08447265625 600" stroke-miterlimit="10"/></g><g transform="translate(-22,-6) scale(1,1)"><path fill="none" stroke="#000000" d="M 1232 610 L 1337.08447265625 610" stroke-miterlimit="10"/></g><g transform="translate(-22,-6) scale(1,1)"><g><path fill="none" stroke="none"/><text fill="#000000" stroke="none" font-family="Arial" font-size="13px" font-style="normal" font-weight="bold" text-decoration="none" x="1240.7021484375" y="579.5">GLVertexBuffer</text></g></g><g transform="translate(-22,-6) scale(1,1)"><g><path fill="none" stroke="none"/><text fill="#000000" stroke="none" font-family="Arial" font-size="13px" font-style="normal" font-weight="normal" text-decoration="none" x="1240.83544921875" y="594.5">(from OpenGL)</text></g></g><g transform="translate(-22,-6) scale(1,1)"><path fill="#C0C0C0" stroke="none" d="M 217.127685546875 818.5 C 217.127685546875 812.1487248 222.276410346875 807 228.627685546875 807 C 234.978960746875 807 240.127685546875 812.1487248 240.127685546875 818.5 C 240.127685546875 824.8512752 234.978960746875 830 228.627685546875 830 C 222.276410346875 830 217.127685546875 824.8512752 217.127685546875 818.5 Z" opacity="0.2"/></g><g transform="translate(-22,-6) scale(1,1)"><path fill="#ffff91" stroke="none" d="M 210.127685546875 811.5 C 210.127685546875 805.1487248 215.276410346875 800 221.627685546875 800 C 227.978960746875 800 233.127685546875 805.1487248 233.127685546875 811.5 C 233.127685546875 817.8512752 227.978960746875 823 221.627685546875 823 C 215.276410346875 823 210.127685546875 817.8512752 210.127685546875 811.5 Z"/></g><g transform="translate(-22,-6) scale(1,1)"><path fill="none" stroke="#000000" d="M 210.127685546875 811.5 C 210.127685546875 805.1487248 215.276410346875 800 221.627685546875 800 C 227.978960746875 800 233.127685546875 805.1487248 233.127685546875 811.5 C 233.127685546875 817.8512752 227.978960746875 823 221.627685546875 823 C 215.276410346875 823 210.127685546875 817.8512752 210.127685546875 811.5 Z" stroke-miterlimit="10"/></g><g transform="translate(-22,-6) scale(1,1)"><g><path fill="none" stroke="none"/><text fill="#000000" stroke="none" font-family="Arial" font-size="13px" font-style="normal" font-weight="bold" text-decoration="none" x="198.86181640625" y="842.5">IShader</text></g></g><g transform="translate(-22,-6) scale(1,1)"><g><path fill="none" stroke="none"/><text fill="#000000" stroke="none" font-family="Arial" font-size="13px" font-style="normal" font-weight="normal" text-decoration="none" x="172.5" y="857.5">(from Rendering)</text></g></g><g transform="translate(-22,-6) scale(1,1)"><path fill="#C0C0C0" stroke="none" d="M 985.127685546875 466.5 C 985.127685546875 460.1487248 990.276410346875 455 996.627685546875 455 C 1002.978960746875 455 1008.127685546875 460.1487248 1008.127685546875 466.5 C 1008.127685546875 472.8512752 1002.978960746875 478 996.627685546875 478 C 990.276410346875 478 985.127685546875 472.8512752 985.127685546875 466.5 Z" opacity="0.2"/></g><g transform="translate(-22,-6) scale(1,1)"><path fill="#ffff91" stroke="none" d="M 978.127685546875 459.5 C 978.127685546875 453.1487248 983.276410346875 448 989.627685546875 448 C 995.978960746875 448 1001.127685546875 453.1487248 1001.127685546875 459.5 C 1001.127685546875 465.8512752 995.978960746875 471 989.627685546875 471 C 983.276410346875 471 978.127685546875 465.8512752 978.127685546875 459.5 Z"/></g><g transform="translate(-22,-6) scale(1,1)"><path fill="none" stroke="#000000" d="M 978.127685546875 459.5 C 978.127685546875 453.1487248 983.276410346875 448 989.627685546875 448 C 995.978960746875 448 1001.127685546875 453.1487248 1001.127685546875 459.5 C 1001.127685546875 465.8512752 995.978960746875 471 989.627685546875 471 C 983.276410346875 471 978.127685546875 465.8512752 978.127685546875 459.5 Z" stroke-miterlimit="10"/></g><g transform="translate(-22,-6) scale(1,1)"><g><path fill="none" stroke="none"/><text fill="#000000" stroke="none" font-family="Arial" font-size="13px" font-style="normal" font-weight="bold" text-decoration="none" x="966.50634765625" y="490.5">ITexture</text></g></g><g transform="translate(-22,-6) scale(1,1)"><g><path fill="none" stroke="none"/><text fill="#000000" stroke="none" font-family="Arial" font-size="13px" font-style="normal" font-weight="normal" text-decoration="none" x="940.5" y="505.5">(from Rendering)</text></g></g><g transform="translate(-22,-6) scale(1,1)"><rect fill="#C0C0C0" stroke="none" x="39" y="871" width="96.41357421875" height="59" opacity="0.2"/></g><g transform="translate(-22,-6) scale(1,1)"><rect fill="#ffffff" stroke="none" x="32" y="864" width="96.41357421875" height="59"/></g><g transform="translate(-22,-6) scale(1,1)"><path fill="none" stroke="#000000" d="M 32 864 L 128.41357421875 864 L 128.41357421875 923 L 32 923 L 32 864 Z Z" stroke-miterlimit="10"/></g><g transform="translate(-22,-6) scale(1,1)"><path fill="none" stroke="#000000" d="M 32 904 L 128.41357421875 904" stroke-miterlimit="10"/></g><g transform="translate(-22,-6) scale(1,1)"><path fill="none" stroke="#000000" d="M 32 914 L 128.41357421875 914" stroke-miterlimit="10"/></g><g transform="translate(-22,-6) scale(1,1)"><g><path fill="none" stroke="none"/><text fill="#000000" stroke="none" font-family="Arial" font-size="13px" font-style="normal" font-weight="bold" text-decoration="none" x="50.575927734375" y="883.5">GLShader</text></g></g><g transform="translate(-22,-6) scale(1,1)"><g><path fill="none" stroke="none"/><text fill="#000000" stroke="none" font-family="Arial" font-size="13px" font-style="normal" font-weight="normal" text-decoration="none" x="36.5" y="898.5">(from OpenGL)</text></g></g><g transform="translate(-22,-6) scale(1,1)"><path fill="none" stroke="#000000" d="M 88 864 L 88 811 L 210.127685546875 811" stroke-miterlimit="10"/></g><g transform="translate(-22,-6) scale(1,1)"><rect fill="#C0C0C0" stroke="none" x="948" y="567" width="96.41357421875" height="59" opacity="0.2"/></g><g transform="translate(-22,-6) scale(1,1)"><rect fill="#ffffff" stroke="none" x="941" y="560" width="96.41357421875" height="59"/></g><g transform="translate(-22,-6) scale(1,1)"><path fill="none" stroke="#000000" d="M 941 560 L 1037.41357421875 560 L 1037.41357421875 619 L 941 619 L 941 560 Z Z" stroke-miterlimit="10"/></g><g transform="translate(-22,-6) scale(1,1)"><path fill="none" stroke="#000000" d="M 941 600 L 1037.41357421875 600" stroke-miterlimit="10"/></g><g transform="translate(-22,-6) scale(1,1)"><path fill="none" stroke="#000000" d="M 941 610 L 1037.41357421875 610" stroke-miterlimit="10"/></g><g transform="translate(-22,-6) scale(1,1)"><g><path fill="none" stroke="none"/><text fill="#000000" stroke="none" font-family="Arial" font-size="13px" font-style="normal" font-weight="bold" text-decoration="none" x="959.702880859375" y="579.5">GLTexture</text></g></g><g transform="translate(-22,-6) scale(1,1)"><g><path fill="none" stroke="none"/><text fill="#000000" stroke="none" font-family="Arial" font-size="13px" font-style="normal" font-weight="normal" text-decoration="none" x="945.5" y="594.5">(from OpenGL)</text></g></g><g transform="translate(-22,-6) scale(1,1)"><path fill="none" stroke="#000000" d="M 989 560 L 989 471" stroke-miterlimit="10"/></g><g transform="translate(-22,-6) scale(1,1)"><path fill="none" stroke="#000000" d="M 784 584 L 456 584 L 456 680" stroke-miterlimit="10"/></g><g transform="translate(-22,-6) scale(1,1)"><path fill="#FFFFFF" stroke="none" d="M 451.790482243984 669.8373251423759 L 456 680 L 460.209517756016 669.8373251423759 L 456 658"/></g><g transform="translate(-22,-6) scale(1,1)"><path fill="none" stroke="#000000" d="M 451.790482243984 669.8373251423759 L 456 680 L 460.209517756016 669.8373251423759 L 456 658 L 451.790482243984 669.8373251423759" stroke-miterlimit="10"/></g><g transform="translate(-22,-6) scale(1,1)"><rect fill="#C0C0C0" stroke="none" x="791" y="687" width="105.08447265625" height="59" opacity="0.2"/></g><g transform="translate(-22,-6) scale(1,1)"><rect fill="#ffffff" stroke="none" x="784" y="680" width="105.08447265625" height="59"/></g><g transform="translate(-22,-6) scale(1,1)"><path fill="none" stroke="#000000" d="M 784 680 L 889.08447265625 680 L 889.08447265625 739 L 784 739 L 784 680 Z Z" stroke-miterlimit="10"/></g><g transform="translate(-22,-6) scale(1,1)"><path fill="none" stroke="#000000" d="M 784 720 L 889.08447265625 720" stroke-miterlimit="10"/></g><g transform="translate(-22,-6) scale(1,1)"><path fill="none" stroke="#000000" d="M 784 730 L 889.08447265625 730" stroke-miterlimit="10"/></g><g transform="translate(-22,-6) scale(1,1)"><g><path fill="none" stroke="none"/><text fill="#000000" stroke="none" font-family="Arial" font-size="13px" font-style="normal" font-weight="bold" text-decoration="none" x="819.562255859375" y="699.5">Sprite</text></g></g><g transform="translate(-22,-6) scale(1,1)"><g><path fill="none" stroke="none"/><text fill="#000000" stroke="none" font-family="Arial" font-size="13px" font-style="normal" font-weight="normal" text-decoration="none" x="788.5" y="714.5">(from HighLevel)</text></g></g><g transform="translate(-22,-6) scale(1,1)"><path fill="none" stroke="#000000" d="M 840 619 L 840 680" stroke-miterlimit="10"/></g><g transform="translate(-22,-6) scale(1,1)"><path fill="#FFFFFF" stroke="none" d="M 835.790482243984 669.8373251423759 L 840 680 L 844.209517756016 669.8373251423759 L 840 658"/></g><g transform="translate(-22,-6) scale(1,1)"><path fill="none" stroke="#000000" d="M 835.790482243984 669.8373251423759 L 840 680 L 844.209517756016 669.8373251423759 L 840 658 L 835.790482243984 669.8373251423759" stroke-miterlimit="10"/></g><g transform="translate(-22,-6) scale(1,1)"><path fill="none" stroke="#000000" d="M 277 709 L 400 709" stroke-miterlimit="10"/></g><g transform="translate(-22,-6) scale(1,1)"><path fill="#FFFFFF" stroke="none" d="M 389.83732514237585 713.209517756016 L 400 709 L 389.83732514237585 704.790482243984 L 378 709"/></g><g transform="translate(-22,-6) scale(1,1)"><path fill="none" stroke="#000000" d="M 389.83732514237585 713.209517756016 L 400 709 L 389.83732514237585 704.790482243984 L 378 709 L 389.83732514237585 713.209517756016" stroke-miterlimit="10"/></g><g transform="translate(-22,-6) scale(1,1)"><path fill="none" stroke="#000000" d="M 1072 739 L 1072 936 L 890 936" stroke-miterlimit="10"/></g><g transform="translate(-22,-6) scale(1,1)"><path fill="#FFFFFF" stroke="none" d="M 900.1626748576241 931.790482243984 L 890 936 L 900.1626748576241 940.209517756016 L 912 936"/></g><g transform="translate(-22,-6) scale(1,1)"><path fill="none" stroke="#000000" d="M 900.1626748576241 931.790482243984 L 890 936 L 900.1626748576241 940.209517756016 L 912 936 L 900.1626748576241 931.790482243984" stroke-miterlimit="10"/></g><g transform="translate(-22,-6) scale(1,1)"><path fill="none" stroke="#000000" d="M 424 739 L 424 904" stroke-miterlimit="10"/></g><g transform="translate(-22,-6) scale(1,1)"><path fill="#FFFFFF" stroke="none" d="M 419.790482243984 893.8373251423759 L 424 904 L 428.209517756016 893.8373251423759 L 424 882"/></g><g transform="translate(-22,-6) scale(1,1)"><path fill="none" stroke="#000000" d="M 419.790482243984 893.8373251423759 L 424 904 L 428.209517756016 893.8373251423759 L 424 882 L 419.790482243984 893.8373251423759" stroke-miterlimit="10"/></g><g transform="translate(-22,-6) scale(1,1)"><path fill="none" stroke="#000000" d="M 464 739 L 464 864 L 592 864 L 592 904" stroke-miterlimit="10"/></g><g transform="translate(-22,-6) scale(1,1)"><path fill="#FFFFFF" stroke="none" d="M 587.790482243984 893.8373251423759 L 592 904 L 596.209517756016 893.8373251423759 L 592 882"/></g><g transform="translate(-22,-6) scale(1,1)"><path fill="none" stroke="#000000" d="M 587.790482243984 893.8373251423759 L 592 904 L 596.209517756016 893.8373251423759 L 592 882 L 587.790482243984 893.8373251423759" stroke-miterlimit="10"/></g><g transform="translate(-22,-6) scale(1,1)"><path fill="none" stroke="#000000" d="M 498 739 L 498 808 L 784 808 L 784 904" stroke-miterlimit="10"/></g><g transform="translate(-22,-6) scale(1,1)"><path fill="#FFFFFF" stroke="none" d="M 779.790482243984 893.8373251423759 L 784 904 L 788.209517756016 893.8373251423759 L 784 882"/></g><g transform="translate(-22,-6) scale(1,1)"><path fill="none" stroke="#000000" d="M 779.790482243984 893.8373251423759 L 784 904 L 788.209517756016 893.8373251423759 L 784 882 L 779.790482243984 893.8373251423759" stroke-miterlimit="10"/></g><g transform="translate(-22,-6) scale(1,1)"><path fill="none" stroke="#000000" d="M 560 709 L 505 709" stroke-miterlimit="10"/></g><g transform="translate(-22,-6) scale(1,1)"><path fill="#000000" stroke="none" d="M 515.1626748576241 704.790482243984 L 505 709 L 515.1626748576241 713.209517756016 L 527 709"/></g><g transform="translate(-22,-6) scale(1,1)"><path fill="none" stroke="#000000" d="M 515.1626748576241 704.790482243984 L 505 709 L 515.1626748576241 713.209517756016 L 527 709 L 515.1626748576241 704.790482243984" stroke-miterlimit="10"/></g><g transform="translate(-22,-6) scale(1,1)"><path fill="none" stroke="#000000" d="M 840 739 L 840 904" stroke-miterlimit="10"/></g><g transform="translate(-22,-6) scale(1,1)"><path fill="#FFFFFF" stroke="none" d="M 835.790482243984 893.8373251423759 L 840 904 L 844.209517756016 893.8373251423759 L 840 882"/></g><g transform="translate(-22,-6) scale(1,1)"><path fill="none" stroke="#000000" d="M 835.790482243984 893.8373251423759 L 840 904 L 844.209517756016 893.8373251423759 L 840 882 L 835.790482243984 893.8373251423759" stroke-miterlimit="10"/></g><g transform="translate(-22,-6) scale(1,1)"><path fill="none" stroke="#000000" d="M 1160 800 L 1096 800 L 1096 739" stroke-miterlimit="10"/></g><g transform="translate(-22,-6) scale(1,1)"><path fill="#000000" stroke="none" d="M 1100.2095177560159 749.1626748576241 L 1096 739 L 1091.7904822439841 749.1626748576241 L 1096 761"/></g><g transform="translate(-22,-6) scale(1,1)"><path fill="none" stroke="#000000" d="M 1100.2095177560159 749.1626748576241 L 1096 739 L 1091.7904822439841 749.1626748576241 L 1096 761 L 1100.2095177560159 749.1626748576241" stroke-miterlimit="10"/></g><g transform="translate(-22,-6) scale(1,1)"><path fill="none" stroke="#000000" d="M 1168 619 L 1168 696 L 1125 696" stroke-miterlimit="10"/></g><g transform="translate(-22,-6) scale(1,1)"><path fill="#000000" stroke="none" d="M 1135.162674857624 691.790482243984 L 1125 696 L 1135.162674857624 700.209517756016 L 1147 696"/></g><g transform="translate(-22,-6) scale(1,1)"><path fill="none" stroke="#000000" d="M 1135.162674857624 691.790482243984 L 1125 696 L 1135.162674857624 700.209517756016 L 1147 696 L 1135.162674857624 691.790482243984" stroke-miterlimit="10"/></g><g transform="translate(-22,-6) scale(1,1)"><path fill="none" stroke="#000000" d="M 1288 619 L 1288 720 L 1125 720" stroke-miterlimit="10"/></g><g transform="translate(-22,-6) scale(1,1)"><path fill="#000000" stroke="none" d="M 1135.162674857624 715.790482243984 L 1125 720 L 1135.162674857624 724.209517756016 L 1147 720"/></g><g transform="translate(-22,-6) scale(1,1)"><path fill="none" stroke="#000000" d="M 1135.162674857624 715.790482243984 L 1125 720 L 1135.162674857624 724.209517756016 L 1147 720 L 1135.162674857624 715.790482243984" stroke-miterlimit="10"/></g><g transform="translate(-22,-6) scale(1,1)"><path fill="none" stroke="#000000" d="M 221 800 L 221 739" stroke-miterlimit="10"/></g><g transform="translate(-22,-6) scale(1,1)"><path fill="#000000" stroke="none" d="M 225.209517756016 749.1626748576241 L 221 739 L 216.790482243984 749.1626748576241 L 221 761"/></g><g transform="translate(-22,-6) scale(1,1)"><path fill="none" stroke="#000000" d="M 225.209517756016 749.1626748576241 L 221 739 L 216.790482243984 749.1626748576241 L 221 761 L 225.209517756016 749.1626748576241" stroke-miterlimit="10"/></g><g transform="translate(-22,-6) scale(1,1)"><path fill="none" stroke="#000000" d="M 992 448 L 992 424 L 872 424 L 872 560" stroke-miterlimit="10"/></g><g transform="translate(-22,-6) scale(1,1)"><path fill="#000000" stroke="none" d="M 867.790482243984 549.8373251423759 L 872 560 L 876.209517756016 549.8373251423759 L 872 538"/></g><g transform="translate(-22,-6) scale(1,1)"><path fill="none" stroke="#000000" d="M 867.790482243984 549.8373251423759 L 872 560 L 876.209517756016 549.8373251423759 L 872 538 L 867.790482243984 549.8373251423759" stroke-miterlimit="10"/></g></g></svg>