<svg version="1.1" xmlns="http://www.w3.org/2000/svg" xmlns:xlink="http://www.w3.org/1999/xlink" width="969.4072265625" height="823"><defs/><g><g transform="translate(-22,-6) scale(1,1)"><rect fill="#C0C0C0" stroke="none" x="455" y="311" width="126.74267578125" height="59" opacity="0.2"/></g><g transform="translate(-22,-6) scale(1,1)"><rect fill="#ffffff" stroke="none" x="448" y="304" width="126.74267578125" height="59"/></g><g transform="translate(-22,-6) scale(1,1)"><path fill="none" stroke="#000000" d="M 448 304 L 574.74267578125 304 L 574.74267578125 363 L 448 363 L 448 304 Z Z" stroke-miterlimit="10"/></g><g transform="translate(-22,-6) scale(1,1)"><path fill="none" stroke="#000000" d="M 448 344 L 574.74267578125 344" stroke-miterlimit="10"/></g><g transform="translate(-22,-6) scale(1,1)"><path fill="none" stroke="#000000" d="M 448 354 L 574.74267578125 354" stroke-miterlimit="10"/></g><g transform="translate(-22,-6) scale(1,1)"><g><path fill="none" stroke="none"/><text fill="#000000" stroke="none" font-family="Arial" font-size="13px" font-style="normal" font-weight="bold" text-decoration="none" x="455.724609375" y="323.5">RenderingManager</text></g></g><g transform="translate(-22,-6) scale(1,1)"><g><path fill="none" stroke="none"/><text fill="#000000" stroke="none" font-family="Arial" font-size="13px" font-style="normal" font-weight="normal" text-decoration="none" x="463.332275390625" y="338.5">(from Managers)</text></g></g><g transform="translate(-22,-6) scale(1,1)"><rect fill="#C0C0C0" stroke="none" x="175" y="159" width="108.455078125" height="59" opacity="0.2"/></g><g transform="translate(-22,-6) scale(1,1)"><rect fill="#ffffff" stroke="none" x="168" y="152" width="108.455078125" height="59"/></g><g transform="translate(-22,-6) scale(1,1)"><path fill="none" stroke="#000000" d="M 168 152 L 276.455078125 152 L 276.455078125 211 L 168 211 L 168 152 Z Z" stroke-miterlimit="10"/></g><g transform="translate(-22,-6) scale(1,1)"><path fill="none" stroke="#000000" d="M 168 192 L 276.455078125 192" stroke-miterlimit="10"/></g><g transform="translate(-22,-6) scale(1,1)"><path fill="none" stroke="#000000" d="M 168 202 L 276.455078125 202" stroke-miterlimit="10"/></g><g transform="translate(-22,-6) scale(1,1)"><g><path fill="none" stroke="none"/><text fill="#000000" stroke="none" font-family="Arial" font-size="13px" font-style="normal" font-weight="bold" text-decoration="none" x="175.613525390625" y="171.5">ShaderManager</text></g></g><g transform="translate(-22,-6) scale(1,1)"><g><path fill="none" stroke="none"/><text fill="#000000" stroke="none" font-family="Arial" font-size="13px" font-style="normal" font-weight="normal" text-decoration="none" x="174.1884765625" y="186.5">(from Managers)</text></g></g><g transform="translate(-22,-6) scale(1,1)"><rect fill="#C0C0C0" stroke="none" x="455" y="23" width="131.09716796875" height="59" opacity="0.2"/></g><g transform="translate(-22,-6) scale(1,1)"><rect fill="#ffff91" stroke="none" x="448" y="16" width="131.09716796875" height="59"/></g><g transform="translate(-22,-6) scale(1,1)"><path fill="none" stroke="#000000" d="M 448 16 L 579.09716796875 16 L 579.09716796875 75 L 448 75 L 448 16 Z Z" stroke-miterlimit="10"/></g><g transform="translate(-22,-6) scale(1,1)"><path fill="none" stroke="#000000" d="M 448 56 L 579.09716796875 56" stroke-miterlimit="10"/></g><g transform="translate(-22,-6) scale(1,1)"><path fill="none" stroke="#000000" d="M 448 66 L 579.09716796875 66" stroke-miterlimit="10"/></g><g transform="translate(-22,-6) scale(1,1)"><g><path fill="none" stroke="none"/><text fill="#000000" stroke="none" font-family="Arial" font-size="13px" font-style="italic" font-weight="bold" text-decoration="none" x="455.740478515625" y="35.5">AResourceManager</text></g></g><g transform="translate(-22,-6) scale(1,1)"><g><path fill="none" stroke="none"/><text fill="#000000" stroke="none" font-family="Arial" font-size="13px" font-style="normal" font-weight="normal" text-decoration="none" x="465.509521484375" y="50.5">(from Managers)</text></g></g><g transform="translate(-22,-6) scale(1,1)"><path fill="none" stroke="#000000" d="M 222 152 L 222 56 L 448 56" stroke-miterlimit="10"/></g><g transform="translate(-22,-6) scale(1,1)"><path fill="#FFFFFF" stroke="none" d="M 427.6746502847517 64.41903551203198 L 448 56 L 427.6746502847517 47.580964487968025"/></g><g transform="translate(-22,-6) scale(1,1)"><path fill="none" stroke="#000000" d="M 427.6746502847517 64.41903551203198 L 448 56 L 427.6746502847517 47.580964487968025 L 427.6746502847517 64.41903551203198" stroke-miterlimit="10"/></g><g transform="translate(-22,-6) scale(1,1)"><rect fill="#C0C0C0" stroke="none" x="463" y="159" width="108.455078125" height="59" opacity="0.2"/></g><g transform="translate(-22,-6) scale(1,1)"><rect fill="#ffffff" stroke="none" x="456" y="152" width="108.455078125" height="59"/></g><g transform="translate(-22,-6) scale(1,1)"><path fill="none" stroke="#000000" d="M 456 152 L 564.455078125 152 L 564.455078125 211 L 456 211 L 456 152 Z Z" stroke-miterlimit="10"/></g><g transform="translate(-22,-6) scale(1,1)"><path fill="none" stroke="#000000" d="M 456 192 L 564.455078125 192" stroke-miterlimit="10"/></g><g transform="translate(-22,-6) scale(1,1)"><path fill="none" stroke="#000000" d="M 456 202 L 564.455078125 202" stroke-miterlimit="10"/></g><g transform="translate(-22,-6) scale(1,1)"><g><path fill="none" stroke="none"/><text fill="#000000" stroke="none" font-family="Arial" font-size="13px" font-style="normal" font-weight="bold" text-decoration="none" x="463.258056640625" y="171.5">TextureManager</text></g></g><g transform="translate(-22,-6) scale(1,1)"><g><path fill="none" stroke="none"/><text fill="#000000" stroke="none" font-family="Arial" font-size="13px" font-style="normal" font-weight="normal" text-decoration="none" x="462.1884765625" y="186.5">(from Managers)</text></g></g><g transform="translate(-22,-6) scale(1,1)"><rect fill="#C0C0C0" stroke="none" x="751" y="159" width="108.455078125" height="59" opacity="0.2"/></g><g transform="translate(-22,-6) scale(1,1)"><rect fill="#ffffff" stroke="none" x="744" y="152" width="108.455078125" height="59"/></g><g transform="translate(-22,-6) scale(1,1)"><path fill="none" stroke="#000000" d="M 744 152 L 852.455078125 152 L 852.455078125 211 L 744 211 L 744 152 Z Z" stroke-miterlimit="10"/></g><g transform="translate(-22,-6) scale(1,1)"><path fill="none" stroke="#000000" d="M 744 192 L 852.455078125 192" stroke-miterlimit="10"/></g><g transform="translate(-22,-6) scale(1,1)"><path fill="none" stroke="#000000" d="M 744 202 L 852.455078125 202" stroke-miterlimit="10"/></g><g transform="translate(-22,-6) scale(1,1)"><g><path fill="none" stroke="none"/><text fill="#000000" stroke="none" font-family="Arial" font-size="13px" font-style="normal" font-weight="bold" text-decoration="none" x="754.869873046875" y="171.5">ModelManager</text></g></g><g transform="translate(-22,-6) scale(1,1)"><g><path fill="none" stroke="none"/><text fill="#000000" stroke="none" font-family="Arial" font-size="13px" font-style="normal" font-weight="normal" text-decoration="none" x="750.1884765625" y="186.5">(from Managers)</text></g></g><g transform="translate(-22,-6) scale(1,1)"><path fill="none" stroke="#000000" d="M 512 152 L 512 75" stroke-miterlimit="10"/></g><g transform="translate(-22,-6) scale(1,1)"><path fill="#FFFFFF" stroke="none" d="M 520.419035512032 95.32534971524831 L 512 75 L 503.580964487968 95.32534971524831"/></g><g transform="translate(-22,-6) scale(1,1)"><path fill="none" stroke="#000000" d="M 520.419035512032 95.32534971524831 L 512 75 L 503.580964487968 95.32534971524831 L 520.419035512032 95.32534971524831" stroke-miterlimit="10"/></g><g transform="translate(-22,-6) scale(1,1)"><path fill="none" stroke="#000000" d="M 798 152 L 798 56 L 579 56" stroke-miterlimit="10"/></g><g transform="translate(-22,-6) scale(1,1)"><path fill="#FFFFFF" stroke="none" d="M 599.3253497152483 47.580964487968025 L 579 56 L 599.3253497152483 64.41903551203197"/></g><g transform="translate(-22,-6) scale(1,1)"><path fill="none" stroke="#000000" d="M 599.3253497152483 47.580964487968025 L 579 56 L 599.3253497152483 64.41903551203197 L 599.3253497152483 47.580964487968025" stroke-miterlimit="10"/></g><g transform="translate(-22,-6) scale(1,1)"><path fill="none" stroke="#000000" d="M 248 211 L 248 333 L 448 333" stroke-miterlimit="10"/></g><g transform="translate(-22,-6) scale(1,1)"><path fill="#000000" stroke="none" d="M 437.83732514237585 337.209517756016 L 448 333 L 437.83732514237585 328.790482243984 L 426 333"/></g><g transform="translate(-22,-6) scale(1,1)"><path fill="none" stroke="#000000" d="M 437.83732514237585 337.209517756016 L 448 333 L 437.83732514237585 328.790482243984 L 426 333 L 437.83732514237585 337.209517756016" stroke-miterlimit="10"/></g><g transform="translate(-22,-6) scale(1,1)"><path fill="none" stroke="#000000" d="M 510 211 L 510 304" stroke-miterlimit="10"/></g><g transform="translate(-22,-6) scale(1,1)"><path fill="#000000" stroke="none" d="M 505.790482243984 293.83732514237585 L 510 304 L 514.209517756016 293.83732514237585 L 510 282"/></g><g transform="translate(-22,-6) scale(1,1)"><path fill="none" stroke="#000000" d="M 505.790482243984 293.83732514237585 L 510 304 L 514.209517756016 293.83732514237585 L 510 282 L 505.790482243984 293.83732514237585" stroke-miterlimit="10"/></g><g transform="translate(-22,-6) scale(1,1)"><path fill="none" stroke="#000000" d="M 798 211 L 798 333 L 575 333" stroke-miterlimit="10"/></g><g transform="translate(-22,-6) scale(1,1)"><path fill="#000000" stroke="none" d="M 585.1626748576241 328.790482243984 L 575 333 L 585.1626748576241 337.209517756016 L 597 333"/></g><g transform="translate(-22,-6) scale(1,1)"><path fill="none" stroke="#000000" d="M 585.1626748576241 328.790482243984 L 575 333 L 585.1626748576241 337.209517756016 L 597 333 L 585.1626748576241 328.790482243984" stroke-miterlimit="10"/></g><g transform="translate(-22,-6) scale(1,1)"><rect fill="#C0C0C0" stroke="none" x="687" y="407" width="109.4072265625" height="59" opacity="0.2"/></g><g transform="translate(-22,-6) scale(1,1)"><rect fill="#ffffff" stroke="none" x="680" y="400" width="109.4072265625" height="59"/></g><g transform="translate(-22,-6) scale(1,1)"><path fill="none" stroke="#000000" d="M 680 400 L 789.4072265625 400 L 789.4072265625 459 L 680 459 L 680 400 Z Z" stroke-miterlimit="10"/></g><g transform="translate(-22,-6) scale(1,1)"><path fill="none" stroke="#000000" d="M 680 440 L 789.4072265625 440" stroke-miterlimit="10"/></g><g transform="translate(-22,-6) scale(1,1)"><path fill="none" stroke="#000000" d="M 680 450 L 789.4072265625 450" stroke-miterlimit="10"/></g><g transform="translate(-22,-6) scale(1,1)"><g><path fill="none" stroke="none"/><text fill="#000000" stroke="none" font-family="Arial" font-size="13px" font-style="normal" font-weight="bold" text-decoration="none" x="713.38818359375" y="419.5">Texture</text></g></g><g transform="translate(-22,-6) scale(1,1)"><g><path fill="none" stroke="none"/><text fill="#000000" stroke="none" font-family="Arial" font-size="13px" font-style="normal" font-weight="normal" text-decoration="none" x="684.5" y="434.5">(from Resources)</text></g></g><g transform="translate(-22,-6) scale(1,1)"><rect fill="#C0C0C0" stroke="none" x="175" y="407" width="109.4072265625" height="59" opacity="0.2"/></g><g transform="translate(-22,-6) scale(1,1)"><rect fill="#ffffff" stroke="none" x="168" y="400" width="109.4072265625" height="59"/></g><g transform="translate(-22,-6) scale(1,1)"><path fill="none" stroke="#000000" d="M 168 400 L 277.4072265625 400 L 277.4072265625 459 L 168 459 L 168 400 Z Z" stroke-miterlimit="10"/></g><g transform="translate(-22,-6) scale(1,1)"><path fill="none" stroke="#000000" d="M 168 440 L 277.4072265625 440" stroke-miterlimit="10"/></g><g transform="translate(-22,-6) scale(1,1)"><path fill="none" stroke="#000000" d="M 168 450 L 277.4072265625 450" stroke-miterlimit="10"/></g><g transform="translate(-22,-6) scale(1,1)"><g><path fill="none" stroke="none"/><text fill="#000000" stroke="none" font-family="Arial" font-size="13px" font-style="normal" font-weight="bold" text-decoration="none" x="201.74365234375" y="419.5">Shader</text></g></g><g transform="translate(-22,-6) scale(1,1)"><g><path fill="none" stroke="none"/><text fill="#000000" stroke="none" font-family="Arial" font-size="13px" font-style="normal" font-weight="normal" text-decoration="none" x="172.5" y="434.5">(from Resources)</text></g></g><g transform="translate(-22,-6) scale(1,1)"><rect fill="#C0C0C0" stroke="none" x="879" y="407" width="109.4072265625" height="59" opacity="0.2"/></g><g transform="translate(-22,-6) scale(1,1)"><rect fill="#ffffff" stroke="none" x="872" y="400" width="109.4072265625" height="59"/></g><g transform="translate(-22,-6) scale(1,1)"><path fill="none" stroke="#000000" d="M 872 400 L 981.4072265625 400 L 981.4072265625 459 L 872 459 L 872 400 Z Z" stroke-miterlimit="10"/></g><g transform="translate(-22,-6) scale(1,1)"><path fill="none" stroke="#000000" d="M 872 440 L 981.4072265625 440" stroke-miterlimit="10"/></g><g transform="translate(-22,-6) scale(1,1)"><path fill="none" stroke="#000000" d="M 872 450 L 981.4072265625 450" stroke-miterlimit="10"/></g><g transform="translate(-22,-6) scale(1,1)"><g><path fill="none" stroke="none"/><text fill="#000000" stroke="none" font-family="Arial" font-size="13px" font-style="normal" font-weight="bold" text-decoration="none" x="909" y="419.5">Model</text></g></g><g transform="translate(-22,-6) scale(1,1)"><g><path fill="none" stroke="none"/><text fill="#000000" stroke="none" font-family="Arial" font-size="13px" font-style="normal" font-weight="normal" text-decoration="none" x="876.5" y="434.5">(from Resources)</text></g></g><g transform="translate(-22,-6) scale(1,1)"><rect fill="#C0C0C0" stroke="none" x="167" y="767" width="120.9853515625" height="59" opacity="0.2"/></g><g transform="translate(-22,-6) scale(1,1)"><rect fill="#ffffff" stroke="none" x="160" y="760" width="120.9853515625" height="59"/></g><g transform="translate(-22,-6) scale(1,1)"><path fill="none" stroke="#000000" d="M 160 760 L 280.9853515625 760 L 280.9853515625 819 L 160 819 L 160 760 Z Z" stroke-miterlimit="10"/></g><g transform="translate(-22,-6) scale(1,1)"><path fill="none" stroke="#000000" d="M 160 800 L 280.9853515625 800" stroke-miterlimit="10"/></g><g transform="translate(-22,-6) scale(1,1)"><path fill="none" stroke="#000000" d="M 160 810 L 280.9853515625 810" stroke-miterlimit="10"/></g><g transform="translate(-22,-6) scale(1,1)"><g><path fill="none" stroke="none"/><text fill="#000000" stroke="none" font-family="Arial" font-size="13px" font-style="normal" font-weight="bold" text-decoration="none" x="198.094970703125" y="779.5">RModel</text></g></g><g transform="translate(-22,-6) scale(1,1)"><g><path fill="none" stroke="none"/><text fill="#000000" stroke="none" font-family="Arial" font-size="13px" font-style="normal" font-weight="normal" text-decoration="none" x="164.5" y="794.5">(from Renderables)</text></g></g><g transform="translate(-22,-6) scale(1,1)"><rect fill="#C0C0C0" stroke="none" x="247" y="535" width="120.9853515625" height="59" opacity="0.2"/></g><g transform="translate(-22,-6) scale(1,1)"><rect fill="#ffffff" stroke="none" x="240" y="528" width="120.9853515625" height="59"/></g><g transform="translate(-22,-6) scale(1,1)"><path fill="none" stroke="#000000" d="M 240 528 L 360.9853515625 528 L 360.9853515625 587 L 240 587 L 240 528 Z Z" stroke-miterlimit="10"/></g><g transform="translate(-22,-6) scale(1,1)"><path fill="none" stroke="#000000" d="M 240 568 L 360.9853515625 568" stroke-miterlimit="10"/></g><g transform="translate(-22,-6) scale(1,1)"><path fill="none" stroke="#000000" d="M 240 578 L 360.9853515625 578" stroke-miterlimit="10"/></g><g transform="translate(-22,-6) scale(1,1)"><g><path fill="none" stroke="none"/><text fill="#000000" stroke="none" font-family="Arial" font-size="13px" font-style="normal" font-weight="bold" text-decoration="none" x="283.9951171875" y="547.5">RText</text></g></g><g transform="translate(-22,-6) scale(1,1)"><g><path fill="none" stroke="none"/><text fill="#000000" stroke="none" font-family="Arial" font-size="13px" font-style="normal" font-weight="normal" text-decoration="none" x="244.5" y="562.5">(from Renderables)</text></g></g><g transform="translate(-22,-6) scale(1,1)"><path fill="none" stroke="#000000" d="M 222 400 L 222 211" stroke-miterlimit="10"/></g><g transform="translate(-22,-6) scale(1,1)"><path fill="#000000" stroke="none" d="M 226.209517756016 221.16267485762415 L 222 211 L 217.790482243984 221.16267485762415 L 222 233"/></g><g transform="translate(-22,-6) scale(1,1)"><path fill="none" stroke="#000000" d="M 226.209517756016 221.16267485762415 L 222 211 L 217.790482243984 221.16267485762415 L 222 233 L 226.209517756016 221.16267485762415" stroke-miterlimit="10"/></g><g transform="translate(-22,-6) scale(1,1)"><path fill="none" stroke="#000000" d="M 264 459 L 264 528" stroke-miterlimit="10"/></g><g transform="translate(-22,-6) scale(1,1)"><path fill="#FFFFFF" stroke="none" d="M 259.790482243984 517.8373251423759 L 264 528 L 268.209517756016 517.8373251423759 L 264 506"/></g><g transform="translate(-22,-6) scale(1,1)"><path fill="none" stroke="#000000" d="M 259.790482243984 517.8373251423759 L 264 528 L 268.209517756016 517.8373251423759 L 264 506 L 259.790482243984 517.8373251423759" stroke-miterlimit="10"/></g><g transform="translate(-22,-6) scale(1,1)"><path fill="none" stroke="#000000" d="M 222 459 L 222 760" stroke-miterlimit="10"/></g><g transform="translate(-22,-6) scale(1,1)"><path fill="#FFFFFF" stroke="none" d="M 217.790482243984 749.8373251423759 L 222 760 L 226.209517756016 749.8373251423759 L 222 738"/></g><g transform="translate(-22,-6) scale(1,1)"><path fill="none" stroke="#000000" d="M 217.790482243984 749.8373251423759 L 222 760 L 226.209517756016 749.8373251423759 L 222 738 L 217.790482243984 749.8373251423759" stroke-miterlimit="10"/></g><g transform="translate(-22,-6) scale(1,1)"><path fill="none" stroke="#000000" d="M 928 459 L 928 800 L 281 800" stroke-miterlimit="10"/></g><g transform="translate(-22,-6) scale(1,1)"><path fill="#FFFFFF" stroke="none" d="M 291.16267485762415 795.790482243984 L 281 800 L 291.16267485762415 804.209517756016 L 303 800"/></g><g transform="translate(-22,-6) scale(1,1)"><path fill="none" stroke="#000000" d="M 291.16267485762415 795.790482243984 L 281 800 L 291.16267485762415 804.209517756016 L 303 800 L 291.16267485762415 795.790482243984" stroke-miterlimit="10"/></g><g transform="translate(-22,-6) scale(1,1)"><path fill="none" stroke="#000000" d="M 928 400 L 928 184 L 852 184" stroke-miterlimit="10"/></g><g transform="translate(-22,-6) scale(1,1)"><path fill="#000000" stroke="none" d="M 862.1626748576241 179.790482243984 L 852 184 L 862.1626748576241 188.209517756016 L 874 184"/></g><g transform="translate(-22,-6) scale(1,1)"><path fill="none" stroke="#000000" d="M 862.1626748576241 179.790482243984 L 852 184 L 862.1626748576241 188.209517756016 L 874 184 L 862.1626748576241 179.790482243984" stroke-miterlimit="10"/></g><g transform="translate(-22,-6) scale(1,1)"><rect fill="#C0C0C0" stroke="none" x="471" y="407" width="120.9853515625" height="59" opacity="0.2"/></g><g transform="translate(-22,-6) scale(1,1)"><rect fill="#ffffff" stroke="none" x="464" y="400" width="120.9853515625" height="59"/></g><g transform="translate(-22,-6) scale(1,1)"><path fill="none" stroke="#000000" d="M 464 400 L 584.9853515625 400 L 584.9853515625 459 L 464 459 L 464 400 Z Z" stroke-miterlimit="10"/></g><g transform="translate(-22,-6) scale(1,1)"><path fill="none" stroke="#000000" d="M 464 440 L 584.9853515625 440" stroke-miterlimit="10"/></g><g transform="translate(-22,-6) scale(1,1)"><path fill="none" stroke="#000000" d="M 464 450 L 584.9853515625 450" stroke-miterlimit="10"/></g><g transform="translate(-22,-6) scale(1,1)"><g><path fill="none" stroke="none"/><text fill="#000000" stroke="none" font-family="Arial" font-size="13px" font-style="normal" font-weight="bold" text-decoration="none" x="502.818603515625" y="419.5">RSprite</text></g></g><g transform="translate(-22,-6) scale(1,1)"><g><path fill="none" stroke="none"/><text fill="#000000" stroke="none" font-family="Arial" font-size="13px" font-style="normal" font-weight="normal" text-decoration="none" x="468.5" y="434.5">(from Renderables)</text></g></g><g transform="translate(-22,-6) scale(1,1)"><path fill="none" stroke="#000000" d="M 734 400 L 734 280 L 534 280 L 534 211" stroke-miterlimit="10"/></g><g transform="translate(-22,-6) scale(1,1)"><path fill="#000000" stroke="none" d="M 538.209517756016 221.16267485762415 L 534 211 L 529.790482243984 221.16267485762415 L 534 233"/></g><g transform="translate(-22,-6) scale(1,1)"><path fill="none" stroke="#000000" d="M 538.209517756016 221.16267485762415 L 534 211 L 529.790482243984 221.16267485762415 L 534 233 L 538.209517756016 221.16267485762415" stroke-miterlimit="10"/></g><g transform="translate(-22,-6) scale(1,1)"><path fill="none" stroke="#000000" d="M 680 429 L 585 429" stroke-miterlimit="10"/></g><g transform="translate(-22,-6) scale(1,1)"><path fill="#FFFFFF" stroke="none" d="M 595.1626748576241 424.790482243984 L 585 429 L 595.1626748576241 433.209517756016 L 607 429"/></g><g transform="translate(-22,-6) scale(1,1)"><path fill="none" stroke="#000000" d="M 595.1626748576241 424.790482243984 L 585 429 L 595.1626748576241 433.209517756016 L 607 429 L 595.1626748576241 424.790482243984" stroke-miterlimit="10"/></g><g transform="translate(-22,-6) scale(1,1)"><path fill="none" stroke="#000000" d="M 277 429 L 464 429" stroke-miterlimit="10"/></g><g transform="translate(-22,-6) scale(1,1)"><path fill="#FFFFFF" stroke="none" d="M 453.83732514237585 433.209517756016 L 464 429 L 453.83732514237585 424.790482243984 L 442 429"/></g><g transform="translate(-22,-6) scale(1,1)"><path fill="none" stroke="#000000" d="M 453.83732514237585 433.209517756016 L 464 429 L 453.83732514237585 424.790482243984 L 442 429 L 453.83732514237585 433.209517756016" stroke-miterlimit="10"/></g><g transform="translate(-22,-6) scale(1,1)"><path fill="#C0C0C0" stroke="none" d="M 521.127685546875 562.5 C 521.127685546875 556.1487248 526.276410346875 551 532.627685546875 551 C 538.978960746875 551 544.127685546875 556.1487248 544.127685546875 562.5 C 544.127685546875 568.8512752 538.978960746875 574 532.627685546875 574 C 526.276410346875 574 521.127685546875 568.8512752 521.127685546875 562.5 Z" opacity="0.2"/></g><g transform="translate(-22,-6) scale(1,1)"><path fill="#ffff91" stroke="none" d="M 514.127685546875 555.5 C 514.127685546875 549.1487248 519.276410346875 544 525.627685546875 544 C 531.978960746875 544 537.127685546875 549.1487248 537.127685546875 555.5 C 537.127685546875 561.8512752 531.978960746875 567 525.627685546875 567 C 519.276410346875 567 514.127685546875 561.8512752 514.127685546875 555.5 Z"/></g><g transform="translate(-22,-6) scale(1,1)"><path fill="none" stroke="#000000" d="M 514.127685546875 555.5 C 514.127685546875 549.1487248 519.276410346875 544 525.627685546875 544 C 531.978960746875 544 537.127685546875 549.1487248 537.127685546875 555.5 C 537.127685546875 561.8512752 531.978960746875 567 525.627685546875 567 C 519.276410346875 567 514.127685546875 561.8512752 514.127685546875 555.5 Z" stroke-miterlimit="10"/></g><g transform="translate(-22,-6) scale(1,1)"><g><path fill="none" stroke="none"/><text fill="#000000" stroke="none" font-family="Arial" font-size="13px" font-style="normal" font-weight="bold" text-decoration="none" x="490.214111328125" y="586.5">IRenderable</text></g></g><g transform="translate(-22,-6) scale(1,1)"><g><path fill="none" stroke="none"/><text fill="#000000" stroke="none" font-family="Arial" font-size="13px" font-style="normal" font-weight="normal" text-decoration="none" x="476.5" y="601.5">(from Rendering)</text></g></g><g transform="translate(-22,-6) scale(1,1)"><path fill="none" stroke="#000000" d="M 361 555 L 514.127685546875 555" stroke-miterlimit="10"/></g><g transform="translate(-22,-6) scale(1,1)"><path fill="none" stroke="#000000" d="M 281 776 L 525 776 L 525 567" stroke-miterlimit="10"/></g><g transform="translate(-22,-6) scale(1,1)"><path fill="none" stroke="#000000" d="M 524 459 L 524 544" stroke-miterlimit="10"/></g><g transform="translate(-22,-6) scale(1,1)"><path fill="#C0C0C0" stroke="none" d="M 82.57177734375 170.5 C 82.57177734375 164.1487248 87.72050214375 159 94.07177734375 159 C 100.42305254375 159 105.57177734375 164.1487248 105.57177734375 170.5 C 105.57177734375 176.8512752 100.42305254375 182 94.07177734375 182 C 87.72050214375 182 82.57177734375 176.8512752 82.57177734375 170.5 Z" opacity="0.2"/></g><g transform="translate(-22,-6) scale(1,1)"><path fill="#ffff91" stroke="none" d="M 75.57177734375 163.5 C 75.57177734375 157.1487248 80.72050214375 152 87.07177734375 152 C 93.42305254375 152 98.57177734375 157.1487248 98.57177734375 163.5 C 98.57177734375 169.8512752 93.42305254375 175 87.07177734375 175 C 80.72050214375 175 75.57177734375 169.8512752 75.57177734375 163.5 Z"/></g><g transform="translate(-22,-6) scale(1,1)"><path fill="none" stroke="#000000" d="M 75.57177734375 163.5 C 75.57177734375 157.1487248 80.72050214375 152 87.07177734375 152 C 93.42305254375 152 98.57177734375 157.1487248 98.57177734375 163.5 C 98.57177734375 169.8512752 93.42305254375 175 87.07177734375 175 C 80.72050214375 175 75.57177734375 169.8512752 75.57177734375 163.5 Z" stroke-miterlimit="10"/></g><g transform="translate(-22,-6) scale(1,1)"><g><path fill="none" stroke="none"/><text fill="#000000" stroke="none" font-family="Arial" font-size="13px" font-style="normal" font-weight="bold" text-decoration="none" x="38.65185546875" y="194.5">IShaderManager</text></g></g><g transform="translate(-22,-6) scale(1,1)"><g><path fill="none" stroke="none"/><text fill="#000000" stroke="none" font-family="Arial" font-size="13px" font-style="normal" font-weight="normal" text-decoration="none" x="39.03271484375" y="209.5">(from Managers)</text></g></g><g transform="translate(-22,-6) scale(1,1)"><path fill="#C0C0C0" stroke="none" d="M 371.533447265625 170.5 C 371.533447265625 164.1487248 376.682172065625 159 383.033447265625 159 C 389.384722465625 159 394.533447265625 164.1487248 394.533447265625 170.5 C 394.533447265625 176.8512752 389.384722465625 182 383.033447265625 182 C 376.682172065625 182 371.533447265625 176.8512752 371.533447265625 170.5 Z" opacity="0.2"/></g><g transform="translate(-22,-6) scale(1,1)"><path fill="#ffff91" stroke="none" d="M 364.533447265625 163.5 C 364.533447265625 157.1487248 369.682172065625 152 376.033447265625 152 C 382.384722465625 152 387.533447265625 157.1487248 387.533447265625 163.5 C 387.533447265625 169.8512752 382.384722465625 175 376.033447265625 175 C 369.682172065625 175 364.533447265625 169.8512752 364.533447265625 163.5 Z"/></g><g transform="translate(-22,-6) scale(1,1)"><path fill="none" stroke="#000000" d="M 364.533447265625 163.5 C 364.533447265625 157.1487248 369.682172065625 152 376.033447265625 152 C 382.384722465625 152 387.533447265625 157.1487248 387.533447265625 163.5 C 387.533447265625 169.8512752 382.384722465625 175 376.033447265625 175 C 369.682172065625 175 364.533447265625 169.8512752 364.533447265625 163.5 Z" stroke-miterlimit="10"/></g><g transform="translate(-22,-6) scale(1,1)"><g><path fill="none" stroke="none"/><text fill="#000000" stroke="none" font-family="Arial" font-size="13px" font-style="normal" font-weight="bold" text-decoration="none" x="327.258056640625" y="194.5">ITextureManager</text></g></g><g transform="translate(-22,-6) scale(1,1)"><g><path fill="none" stroke="none"/><text fill="#000000" stroke="none" font-family="Arial" font-size="13px" font-style="normal" font-weight="normal" text-decoration="none" x="327.994384765625" y="209.5">(from Managers)</text></g></g><g transform="translate(-22,-6) scale(1,1)"><path fill="#C0C0C0" stroke="none" d="M 656.0390625 170.5 C 656.0390625 164.1487248 661.1877873 159 667.5390625 159 C 673.8903377 159 679.0390625 164.1487248 679.0390625 170.5 C 679.0390625 176.8512752 673.8903377 182 667.5390625 182 C 661.1877873 182 656.0390625 176.8512752 656.0390625 170.5 Z" opacity="0.2"/></g><g transform="translate(-22,-6) scale(1,1)"><path fill="#ffff91" stroke="none" d="M 649.0390625 163.5 C 649.0390625 157.1487248 654.1877873 152 660.5390625 152 C 666.8903377 152 672.0390625 157.1487248 672.0390625 163.5 C 672.0390625 169.8512752 666.8903377 175 660.5390625 175 C 654.1877873 175 649.0390625 169.8512752 649.0390625 163.5 Z"/></g><g transform="translate(-22,-6) scale(1,1)"><path fill="none" stroke="#000000" d="M 649.0390625 163.5 C 649.0390625 157.1487248 654.1877873 152 660.5390625 152 C 666.8903377 152 672.0390625 157.1487248 672.0390625 163.5 C 672.0390625 169.8512752 666.8903377 175 660.5390625 175 C 654.1877873 175 649.0390625 169.8512752 649.0390625 163.5 Z" stroke-miterlimit="10"/></g><g transform="translate(-22,-6) scale(1,1)"><g><path fill="none" stroke="none"/><text fill="#000000" stroke="none" font-family="Arial" font-size="13px" font-style="normal" font-weight="bold" text-decoration="none" x="615.37548828125" y="194.5">IModelManager</text></g></g><g transform="translate(-22,-6) scale(1,1)"><g><path fill="none" stroke="none"/><text fill="#000000" stroke="none" font-family="Arial" font-size="13px" font-style="normal" font-weight="normal" text-decoration="none" x="612.5" y="209.5">(from Managers)</text></g></g><g transform="translate(-22,-6) scale(1,1)"><path fill="none" stroke="#000000" d="M 168 163 L 98.57177734375 163" stroke-miterlimit="10"/></g><g transform="translate(-22,-6) scale(1,1)"><path fill="none" stroke="#000000" d="M 456 163 L 387.533447265625 163" stroke-miterlimit="10"/></g><g transform="translate(-22,-6) scale(1,1)"><path fill="none" stroke="#000000" d="M 744 163 L 672.0390625 163" stroke-miterlimit="10"/></g></g></svg>