<svg version="1.1" xmlns="http://www.w3.org/2000/svg" xmlns:xlink="http://www.w3.org/1999/xlink" width="1692.97900390625" height="775"><defs/><g><g transform="translate(-22,-14) scale(1,1)"><rect fill="#C0C0C0" stroke="none" x="255" y="343" width="159" height="183" opacity="0.2"/></g><g transform="translate(-22,-14) scale(1,1)"><rect fill="#ffffff" stroke="none" x="248" y="336" width="159" height="183"/></g><g transform="translate(-22,-14) scale(1,1)"><path fill="none" stroke="#000000" d="M 248 336 L 407 336 L 407 519 L 248 519 L 248 336 Z Z" stroke-miterlimit="10"/></g><g transform="translate(-22,-14) scale(1,1)"><path fill="none" stroke="#000000" d="M 248 361 L 407 361" stroke-miterlimit="10"/></g><g transform="translate(-22,-14) scale(1,1)"><path fill="none" stroke="#000000" d="M 248 371 L 407 371" stroke-miterlimit="10"/></g><g transform="translate(-22,-14) scale(1,1)"><g><path fill="none" stroke="none"/><text fill="#000000" stroke="none" font-family="Arial" font-size="13px" font-style="normal" font-weight="bold" text-decoration="none" x="281.6064453125" y="355.5">EngineManager</text></g></g><g transform="translate(-22,-14) scale(1,1)"><rect fill="#C0C0C0" stroke="none" x="471" y="399" width="102.88818359375" height="59" opacity="0.2"/></g><g transform="translate(-22,-14) scale(1,1)"><rect fill="#ffffff" stroke="none" x="464" y="392" width="102.88818359375" height="59"/></g><g transform="translate(-22,-14) scale(1,1)"><path fill="none" stroke="#000000" d="M 464 392 L 566.88818359375 392 L 566.88818359375 451 L 464 451 L 464 392 Z Z" stroke-miterlimit="10"/></g><g transform="translate(-22,-14) scale(1,1)"><path fill="none" stroke="#000000" d="M 464 432 L 566.88818359375 432" stroke-miterlimit="10"/></g><g transform="translate(-22,-14) scale(1,1)"><path fill="none" stroke="#000000" d="M 464 442 L 566.88818359375 442" stroke-miterlimit="10"/></g><g transform="translate(-22,-14) scale(1,1)"><g><path fill="none" stroke="none"/><text fill="#000000" stroke="none" font-family="Arial" font-size="13px" font-style="normal" font-weight="bold" text-decoration="none" x="478.970458984375" y="411.5">GLEWDriver</text></g></g><g transform="translate(-22,-14) scale(1,1)"><g><path fill="none" stroke="none"/><text fill="#000000" stroke="none" font-family="Arial" font-size="13px" font-style="normal" font-weight="normal" text-decoration="none" x="473.908203125" y="426.5">(from Context)</text></g></g><g transform="translate(-22,-14) scale(1,1)"><rect fill="#C0C0C0" stroke="none" x="79" y="399" width="102.88818359375" height="59" opacity="0.2"/></g><g transform="translate(-22,-14) scale(1,1)"><rect fill="#ffffff" stroke="none" x="72" y="392" width="102.88818359375" height="59"/></g><g transform="translate(-22,-14) scale(1,1)"><path fill="none" stroke="#000000" d="M 72 392 L 174.88818359375 392 L 174.88818359375 451 L 72 451 L 72 392 Z Z" stroke-miterlimit="10"/></g><g transform="translate(-22,-14) scale(1,1)"><path fill="none" stroke="#000000" d="M 72 432 L 174.88818359375 432" stroke-miterlimit="10"/></g><g transform="translate(-22,-14) scale(1,1)"><path fill="none" stroke="#000000" d="M 72 442 L 174.88818359375 442" stroke-miterlimit="10"/></g><g transform="translate(-22,-14) scale(1,1)"><g><path fill="none" stroke="none"/><text fill="#000000" stroke="none" font-family="Arial" font-size="13px" font-style="normal" font-weight="bold" text-decoration="none" x="84.799560546875" y="411.5">GLFWDevice</text></g></g><g transform="translate(-22,-14) scale(1,1)"><g><path fill="none" stroke="none"/><text fill="#000000" stroke="none" font-family="Arial" font-size="13px" font-style="normal" font-weight="normal" text-decoration="none" x="81.908203125" y="426.5">(from Context)</text></g></g><g transform="translate(-22,-14) scale(1,1)"><path fill="#C0C0C0" stroke="none" d="M 508.785888671875 306.5 C 508.785888671875 300.1487248 513.934613471875 295 520.285888671875 295 C 526.637163871875 295 531.785888671875 300.1487248 531.785888671875 306.5 C 531.785888671875 312.8512752 526.637163871875 318 520.285888671875 318 C 513.934613471875 318 508.785888671875 312.8512752 508.785888671875 306.5 Z" opacity="0.2"/></g><g transform="translate(-22,-14) scale(1,1)"><path fill="#ffff91" stroke="none" d="M 501.785888671875 299.5 C 501.785888671875 293.1487248 506.934613471875 288 513.285888671875 288 C 519.637163871875 288 524.785888671875 293.1487248 524.785888671875 299.5 C 524.785888671875 305.8512752 519.637163871875 311 513.285888671875 311 C 506.934613471875 311 501.785888671875 305.8512752 501.785888671875 299.5 Z"/></g><g transform="translate(-22,-14) scale(1,1)"><path fill="none" stroke="#000000" d="M 501.785888671875 299.5 C 501.785888671875 293.1487248 506.934613471875 288 513.285888671875 288 C 519.637163871875 288 524.785888671875 293.1487248 524.785888671875 299.5 C 524.785888671875 305.8512752 519.637163871875 311 513.285888671875 311 C 506.934613471875 311 501.785888671875 305.8512752 501.785888671875 299.5 Z" stroke-miterlimit="10"/></g><g transform="translate(-22,-14) scale(1,1)"><g><path fill="none" stroke="none"/><text fill="#000000" stroke="none" font-family="Arial" font-size="13px" font-style="normal" font-weight="bold" text-decoration="none" x="494.147705078125" y="330.5">IDriver</text></g></g><g transform="translate(-22,-14) scale(1,1)"><g><path fill="none" stroke="none"/><text fill="#000000" stroke="none" font-family="Arial" font-size="13px" font-style="normal" font-weight="normal" text-decoration="none" x="471.75" y="345.5">(from Context)</text></g></g><g transform="translate(-22,-14) scale(1,1)"><path fill="#C0C0C0" stroke="none" d="M 116.785888671875 306.5 C 116.785888671875 300.1487248 121.934613471875 295 128.285888671875 295 C 134.637163871875 295 139.785888671875 300.1487248 139.785888671875 306.5 C 139.785888671875 312.8512752 134.637163871875 318 128.285888671875 318 C 121.934613471875 318 116.785888671875 312.8512752 116.785888671875 306.5 Z" opacity="0.2"/></g><g transform="translate(-22,-14) scale(1,1)"><path fill="#ffff91" stroke="none" d="M 109.785888671875 299.5 C 109.785888671875 293.1487248 114.934613471875 288 121.285888671875 288 C 127.637163871875 288 132.785888671875 293.1487248 132.785888671875 299.5 C 132.785888671875 305.8512752 127.637163871875 311 121.285888671875 311 C 114.934613471875 311 109.785888671875 305.8512752 109.785888671875 299.5 Z"/></g><g transform="translate(-22,-14) scale(1,1)"><path fill="none" stroke="#000000" d="M 109.785888671875 299.5 C 109.785888671875 293.1487248 114.934613471875 288 121.285888671875 288 C 127.637163871875 288 132.785888671875 293.1487248 132.785888671875 299.5 C 132.785888671875 305.8512752 127.637163871875 311 121.285888671875 311 C 114.934613471875 311 109.785888671875 305.8512752 109.785888671875 299.5 Z" stroke-miterlimit="10"/></g><g transform="translate(-22,-14) scale(1,1)"><g><path fill="none" stroke="none"/><text fill="#000000" stroke="none" font-family="Arial" font-size="13px" font-style="normal" font-weight="bold" text-decoration="none" x="99.61181640625" y="330.5">IDevice</text></g></g><g transform="translate(-22,-14) scale(1,1)"><g><path fill="none" stroke="none"/><text fill="#000000" stroke="none" font-family="Arial" font-size="13px" font-style="normal" font-weight="normal" text-decoration="none" x="79.75" y="345.5">(from Context)</text></g></g><g transform="translate(-22,-14) scale(1,1)"><path fill="none" stroke="#000000" d="M 121 392 L 121 311" stroke-miterlimit="10"/></g><g transform="translate(-22,-14) scale(1,1)"><path fill="none" stroke="#000000" d="M 513 392 L 513 311" stroke-miterlimit="10"/></g><g transform="translate(-22,-14) scale(1,1)"><path fill="none" stroke="#000000" d="M 175 425 L 248 425" stroke-miterlimit="10"/></g><g transform="translate(-22,-14) scale(1,1)"><path fill="#000000" stroke="none" d="M 237.83732514237585 429.209517756016 L 248 425 L 237.83732514237585 420.790482243984 L 226 425"/></g><g transform="translate(-22,-14) scale(1,1)"><path fill="none" stroke="#000000" d="M 237.83732514237585 429.209517756016 L 248 425 L 237.83732514237585 420.790482243984 L 226 425 L 237.83732514237585 429.209517756016" stroke-miterlimit="10"/></g><g transform="translate(-22,-14) scale(1,1)"><path fill="none" stroke="#000000" d="M 464 424 L 407 424" stroke-miterlimit="10"/></g><g transform="translate(-22,-14) scale(1,1)"><path fill="#000000" stroke="none" d="M 417.16267485762415 419.790482243984 L 407 424 L 417.16267485762415 428.209517756016 L 429 424"/></g><g transform="translate(-22,-14) scale(1,1)"><path fill="none" stroke="#000000" d="M 417.16267485762415 419.790482243984 L 407 424 L 417.16267485762415 428.209517756016 L 429 424 L 417.16267485762415 419.790482243984" stroke-miterlimit="10"/></g><g transform="translate(-22,-14) scale(1,1)"><rect fill="#C0C0C0" stroke="none" x="159" y="183" width="105.078125" height="59" opacity="0.2"/></g><g transform="translate(-22,-14) scale(1,1)"><rect fill="#ffffff" stroke="none" x="152" y="176" width="105.078125" height="59"/></g><g transform="translate(-22,-14) scale(1,1)"><path fill="none" stroke="#000000" d="M 152 176 L 257.078125 176 L 257.078125 235 L 152 235 L 152 176 Z Z" stroke-miterlimit="10"/></g><g transform="translate(-22,-14) scale(1,1)"><path fill="none" stroke="#000000" d="M 152 216 L 257.078125 216" stroke-miterlimit="10"/></g><g transform="translate(-22,-14) scale(1,1)"><path fill="none" stroke="#000000" d="M 152 226 L 257.078125 226" stroke-miterlimit="10"/></g><g transform="translate(-22,-14) scale(1,1)"><g><path fill="none" stroke="none"/><text fill="#000000" stroke="none" font-family="Arial" font-size="13px" font-style="normal" font-weight="bold" text-decoration="none" x="164.42822265625" y="195.5">InputManager</text></g></g><g transform="translate(-22,-14) scale(1,1)"><g><path fill="none" stroke="none"/><text fill="#000000" stroke="none" font-family="Arial" font-size="13px" font-style="normal" font-weight="normal" text-decoration="none" x="156.5" y="210.5">(from Managers)</text></g></g><g transform="translate(-22,-14) scale(1,1)"><path fill="#C0C0C0" stroke="none" d="M 200.0390625 42.5 C 200.0390625 36.1487248 205.1877873 31 211.5390625 31 C 217.8903377 31 223.0390625 36.1487248 223.0390625 42.5 C 223.0390625 48.8512752 217.8903377 54 211.5390625 54 C 205.1877873 54 200.0390625 48.8512752 200.0390625 42.5 Z" opacity="0.2"/></g><g transform="translate(-22,-14) scale(1,1)"><path fill="#ffff91" stroke="none" d="M 193.0390625 35.5 C 193.0390625 29.1487248 198.1877873 24 204.5390625 24 C 210.8903377 24 216.0390625 29.1487248 216.0390625 35.5 C 216.0390625 41.8512752 210.8903377 47 204.5390625 47 C 198.1877873 47 193.0390625 41.8512752 193.0390625 35.5 Z"/></g><g transform="translate(-22,-14) scale(1,1)"><path fill="none" stroke="#000000" d="M 193.0390625 35.5 C 193.0390625 29.1487248 198.1877873 24 204.5390625 24 C 210.8903377 24 216.0390625 29.1487248 216.0390625 35.5 C 216.0390625 41.8512752 210.8903377 47 204.5390625 47 C 198.1877873 47 193.0390625 41.8512752 193.0390625 35.5 Z" stroke-miterlimit="10"/></g><g transform="translate(-22,-14) scale(1,1)"><g><path fill="none" stroke="none"/><text fill="#000000" stroke="none" font-family="Arial" font-size="13px" font-style="normal" font-weight="bold" text-decoration="none" x="162.622314453125" y="66.5">IInputManager</text></g></g><g transform="translate(-22,-14) scale(1,1)"><g><path fill="none" stroke="none"/><text fill="#000000" stroke="none" font-family="Arial" font-size="13px" font-style="normal" font-weight="normal" text-decoration="none" x="156.5" y="81.5">(from Managers)</text></g></g><g transform="translate(-22,-14) scale(1,1)"><path fill="none" stroke="#000000" d="M 204 176 L 204 47" stroke-miterlimit="10"/></g><g transform="translate(-22,-14) scale(1,1)"><path fill="#C0C0C0" stroke="none" d="M 416.0390625 42.5 C 416.0390625 36.1487248 421.1877873 31 427.5390625 31 C 433.8903377 31 439.0390625 36.1487248 439.0390625 42.5 C 439.0390625 48.8512752 433.8903377 54 427.5390625 54 C 421.1877873 54 416.0390625 48.8512752 416.0390625 42.5 Z" opacity="0.2"/></g><g transform="translate(-22,-14) scale(1,1)"><path fill="#ffff91" stroke="none" d="M 409.0390625 35.5 C 409.0390625 29.1487248 414.1877873 24 420.5390625 24 C 426.8903377 24 432.0390625 29.1487248 432.0390625 35.5 C 432.0390625 41.8512752 426.8903377 47 420.5390625 47 C 414.1877873 47 409.0390625 41.8512752 409.0390625 35.5 Z"/></g><g transform="translate(-22,-14) scale(1,1)"><path fill="none" stroke="#000000" d="M 409.0390625 35.5 C 409.0390625 29.1487248 414.1877873 24 420.5390625 24 C 426.8903377 24 432.0390625 29.1487248 432.0390625 35.5 C 432.0390625 41.8512752 426.8903377 47 420.5390625 47 C 414.1877873 47 409.0390625 41.8512752 409.0390625 35.5 Z" stroke-miterlimit="10"/></g><g transform="translate(-22,-14) scale(1,1)"><g><path fill="none" stroke="none"/><text fill="#000000" stroke="none" font-family="Arial" font-size="13px" font-style="normal" font-weight="bold" text-decoration="none" x="374.648681640625" y="66.5">ISceneManager</text></g></g><g transform="translate(-22,-14) scale(1,1)"><g><path fill="none" stroke="none"/><text fill="#000000" stroke="none" font-family="Arial" font-size="13px" font-style="normal" font-weight="normal" text-decoration="none" x="372.5" y="81.5">(from Managers)</text></g></g><g transform="translate(-22,-14) scale(1,1)"><rect fill="#C0C0C0" stroke="none" x="375" y="183" width="105.078125" height="59" opacity="0.2"/></g><g transform="translate(-22,-14) scale(1,1)"><rect fill="#ffffff" stroke="none" x="368" y="176" width="105.078125" height="59"/></g><g transform="translate(-22,-14) scale(1,1)"><path fill="none" stroke="#000000" d="M 368 176 L 473.078125 176 L 473.078125 235 L 368 235 L 368 176 Z Z" stroke-miterlimit="10"/></g><g transform="translate(-22,-14) scale(1,1)"><path fill="none" stroke="#000000" d="M 368 216 L 473.078125 216" stroke-miterlimit="10"/></g><g transform="translate(-22,-14) scale(1,1)"><path fill="none" stroke="#000000" d="M 368 226 L 473.078125 226" stroke-miterlimit="10"/></g><g transform="translate(-22,-14) scale(1,1)"><g><path fill="none" stroke="none"/><text fill="#000000" stroke="none" font-family="Arial" font-size="13px" font-style="normal" font-weight="bold" text-decoration="none" x="376.45458984375" y="195.5">SceneManager</text></g></g><g transform="translate(-22,-14) scale(1,1)"><g><path fill="none" stroke="none"/><text fill="#000000" stroke="none" font-family="Arial" font-size="13px" font-style="normal" font-weight="normal" text-decoration="none" x="372.5" y="210.5">(from Managers)</text></g></g><g transform="translate(-22,-14) scale(1,1)"><path fill="none" stroke="#000000" d="M 420 176 L 420 47" stroke-miterlimit="10"/></g><g transform="translate(-22,-14) scale(1,1)"><rect fill="#C0C0C0" stroke="none" x="575" y="183" width="109.4072265625" height="59" opacity="0.2"/></g><g transform="translate(-22,-14) scale(1,1)"><rect fill="#ffffff" stroke="none" x="568" y="176" width="109.4072265625" height="59"/></g><g transform="translate(-22,-14) scale(1,1)"><path fill="none" stroke="#000000" d="M 568 176 L 677.4072265625 176 L 677.4072265625 235 L 568 235 L 568 176 Z Z" stroke-miterlimit="10"/></g><g transform="translate(-22,-14) scale(1,1)"><path fill="none" stroke="#000000" d="M 568 216 L 677.4072265625 216" stroke-miterlimit="10"/></g><g transform="translate(-22,-14) scale(1,1)"><path fill="none" stroke="#000000" d="M 568 226 L 677.4072265625 226" stroke-miterlimit="10"/></g><g transform="translate(-22,-14) scale(1,1)"><g><path fill="none" stroke="none"/><text fill="#000000" stroke="none" font-family="Arial" font-size="13px" font-style="normal" font-weight="bold" text-decoration="none" x="604.273193359375" y="195.5">Scene</text></g></g><g transform="translate(-22,-14) scale(1,1)"><g><path fill="none" stroke="none"/><text fill="#000000" stroke="none" font-family="Arial" font-size="13px" font-style="normal" font-weight="normal" text-decoration="none" x="581.53271484375" y="210.5">(from Objects)</text></g></g><g transform="translate(-22,-14) scale(1,1)"><path fill="none" stroke="#000000" d="M 568 205 L 473 205" stroke-miterlimit="10"/></g><g transform="translate(-22,-14) scale(1,1)"><path fill="#000000" stroke="none" d="M 483.16267485762415 200.790482243984 L 473 205 L 483.16267485762415 209.209517756016 L 495 205"/></g><g transform="translate(-22,-14) scale(1,1)"><path fill="none" stroke="#000000" d="M 483.16267485762415 200.790482243984 L 473 205 L 483.16267485762415 209.209517756016 L 495 205 L 483.16267485762415 200.790482243984" stroke-miterlimit="10"/></g><g transform="translate(-22,-14) scale(1,1)"><rect fill="#C0C0C0" stroke="none" x="767" y="58" width="109.4072265625" height="59" opacity="0.2"/></g><g transform="translate(-22,-14) scale(1,1)"><rect fill="#ffffff" stroke="none" x="760" y="51" width="109.4072265625" height="59"/></g><g transform="translate(-22,-14) scale(1,1)"><path fill="none" stroke="#000000" d="M 760 51 L 869.4072265625 51 L 869.4072265625 110 L 760 110 L 760 51 Z Z" stroke-miterlimit="10"/></g><g transform="translate(-22,-14) scale(1,1)"><path fill="none" stroke="#000000" d="M 760 91 L 869.4072265625 91" stroke-miterlimit="10"/></g><g transform="translate(-22,-14) scale(1,1)"><path fill="none" stroke="#000000" d="M 760 101 L 869.4072265625 101" stroke-miterlimit="10"/></g><g transform="translate(-22,-14) scale(1,1)"><g><path fill="none" stroke="none"/><text fill="#000000" stroke="none" font-family="Arial" font-size="13px" font-style="italic" font-weight="bold" text-decoration="none" x="791.582275390625" y="70.5">AObject</text></g></g><g transform="translate(-22,-14) scale(1,1)"><g><path fill="none" stroke="none"/><text fill="#000000" stroke="none" font-family="Arial" font-size="13px" font-style="normal" font-weight="normal" text-decoration="none" x="773.53271484375" y="85.5">(from Objects)</text></g></g><g transform="translate(-22,-14) scale(1,1)"><rect fill="#C0C0C0" stroke="none" x="767" y="183" width="109.4072265625" height="59" opacity="0.2"/></g><g transform="translate(-22,-14) scale(1,1)"><rect fill="#ffffff" stroke="none" x="760" y="176" width="109.4072265625" height="59"/></g><g transform="translate(-22,-14) scale(1,1)"><path fill="none" stroke="#000000" d="M 760 176 L 869.4072265625 176 L 869.4072265625 235 L 760 235 L 760 176 Z Z" stroke-miterlimit="10"/></g><g transform="translate(-22,-14) scale(1,1)"><path fill="none" stroke="#000000" d="M 760 216 L 869.4072265625 216" stroke-miterlimit="10"/></g><g transform="translate(-22,-14) scale(1,1)"><path fill="none" stroke="#000000" d="M 760 226 L 869.4072265625 226" stroke-miterlimit="10"/></g><g transform="translate(-22,-14) scale(1,1)"><g><path fill="none" stroke="none"/><text fill="#000000" stroke="none" font-family="Arial" font-size="13px" font-style="normal" font-weight="bold" text-decoration="none" x="778.21728515625" y="195.5">GameObject</text></g></g><g transform="translate(-22,-14) scale(1,1)"><g><path fill="none" stroke="none"/><text fill="#000000" stroke="none" font-family="Arial" font-size="13px" font-style="normal" font-weight="normal" text-decoration="none" x="773.53271484375" y="210.5">(from Objects)</text></g></g><g transform="translate(-22,-14) scale(1,1)"><path fill="none" stroke="#000000" d="M 624 176 L 624 80 L 760 80" stroke-miterlimit="10"/></g><g transform="translate(-22,-14) scale(1,1)"><path fill="#FFFFFF" stroke="none" d="M 739.6746502847517 88.41903551203198 L 760 80 L 739.6746502847517 71.58096448796803"/></g><g transform="translate(-22,-14) scale(1,1)"><path fill="none" stroke="#000000" d="M 739.6746502847517 88.41903551203198 L 760 80 L 739.6746502847517 71.58096448796803 L 739.6746502847517 88.41903551203198" stroke-miterlimit="10"/></g><g transform="translate(-22,-14) scale(1,1)"><path fill="none" stroke="#000000" d="M 814 176 L 814 110" stroke-miterlimit="10"/></g><g transform="translate(-22,-14) scale(1,1)"><path fill="#FFFFFF" stroke="none" d="M 822.419035512032 130.3253497152483 L 814 110 L 805.580964487968 130.3253497152483"/></g><g transform="translate(-22,-14) scale(1,1)"><path fill="none" stroke="#000000" d="M 822.419035512032 130.3253497152483 L 814 110 L 805.580964487968 130.3253497152483 L 822.419035512032 130.3253497152483" stroke-miterlimit="10"/></g><g transform="translate(-22,-14) scale(1,1)"><rect fill="#C0C0C0" stroke="none" x="1159" y="183" width="120.97900390625" height="59" opacity="0.2"/></g><g transform="translate(-22,-14) scale(1,1)"><rect fill="#ffffff" stroke="none" x="1152" y="176" width="120.97900390625" height="59"/></g><g transform="translate(-22,-14) scale(1,1)"><path fill="none" stroke="#000000" d="M 1152 176 L 1272.97900390625 176 L 1272.97900390625 235 L 1152 235 L 1152 176 Z Z" stroke-miterlimit="10"/></g><g transform="translate(-22,-14) scale(1,1)"><path fill="none" stroke="#000000" d="M 1152 216 L 1272.97900390625 216" stroke-miterlimit="10"/></g><g transform="translate(-22,-14) scale(1,1)"><path fill="none" stroke="#000000" d="M 1152 226 L 1272.97900390625 226" stroke-miterlimit="10"/></g><g transform="translate(-22,-14) scale(1,1)"><g><path fill="none" stroke="none"/><text fill="#000000" stroke="none" font-family="Arial" font-size="13px" font-style="italic" font-weight="bold" text-decoration="none" x="1174.549560546875" y="195.5">AComponent</text></g></g><g transform="translate(-22,-14) scale(1,1)"><g><path fill="none" stroke="none"/><text fill="#000000" stroke="none" font-family="Arial" font-size="13px" font-style="normal" font-weight="normal" text-decoration="none" x="1156.5" y="210.5">(from Components)</text></g></g><g transform="translate(-22,-14) scale(1,1)"><path fill="none" stroke="#000000" d="M 1216 176 L 1216 80 L 869 80" stroke-miterlimit="10"/></g><g transform="translate(-22,-14) scale(1,1)"><path fill="#FFFFFF" stroke="none" d="M 889.3253497152483 71.58096448796803 L 869 80 L 889.3253497152483 88.41903551203197"/></g><g transform="translate(-22,-14) scale(1,1)"><path fill="none" stroke="#000000" d="M 889.3253497152483 71.58096448796803 L 869 80 L 889.3253497152483 88.41903551203197 L 889.3253497152483 71.58096448796803" stroke-miterlimit="10"/></g><g transform="translate(-22,-14) scale(1,1)"><rect fill="#C0C0C0" stroke="none" x="263" y="621" width="130.3544921875" height="63" opacity="0.2"/></g><g transform="translate(-22,-14) scale(1,1)"><rect fill="#ffff91" stroke="none" x="256" y="614" width="130.3544921875" height="63"/></g><g transform="translate(-22,-14) scale(1,1)"><path fill="none" stroke="#000000" d="M 256 614 L 386.3544921875 614 L 386.3544921875 677 L 256 677 L 256 614 Z Z" stroke-miterlimit="10"/></g><g transform="translate(-22,-14) scale(1,1)"><path fill="none" stroke="#000000" d="M 256 654 L 386.3544921875 654" stroke-miterlimit="10"/></g><g transform="translate(-22,-14) scale(1,1)"><path fill="none" stroke="#000000" d="M 256 664 L 386.3544921875 664" stroke-miterlimit="10"/></g><g transform="translate(-22,-14) scale(1,1)"><g><path fill="none" stroke="none"/><text fill="#000000" stroke="none" font-family="Arial" font-size="13px" font-style="normal" font-weight="bold" text-decoration="none" x="265.530517578125" y="633.5">RenderingManager</text></g></g><g transform="translate(-22,-14) scale(1,1)"><g><path fill="none" stroke="none"/><text fill="#000000" stroke="none" font-family="Arial" font-size="13px" font-style="normal" font-weight="normal" text-decoration="none" x="273.13818359375" y="648.5">(from Managers)</text></g></g><g transform="translate(-22,-14) scale(1,1)"><rect fill="#C0C0C0" stroke="none" x="39" y="623" width="112" height="63" opacity="0.2"/></g><g transform="translate(-22,-14) scale(1,1)"><rect fill="#ffff91" stroke="none" x="32" y="616" width="112" height="63"/></g><g transform="translate(-22,-14) scale(1,1)"><path fill="none" stroke="#000000" d="M 32 616 L 144 616 L 144 679 L 32 679 L 32 616 Z Z" stroke-miterlimit="10"/></g><g transform="translate(-22,-14) scale(1,1)"><path fill="none" stroke="#000000" d="M 32 656 L 144 656" stroke-miterlimit="10"/></g><g transform="translate(-22,-14) scale(1,1)"><path fill="none" stroke="#000000" d="M 32 666 L 144 666" stroke-miterlimit="10"/></g><g transform="translate(-22,-14) scale(1,1)"><g><path fill="none" stroke="none"/><text fill="#000000" stroke="none" font-family="Arial" font-size="13px" font-style="normal" font-weight="bold" text-decoration="none" x="45.721435546875" y="635.5">AudioManager</text></g></g><g transform="translate(-22,-14) scale(1,1)"><g><path fill="none" stroke="none"/><text fill="#000000" stroke="none" font-family="Arial" font-size="13px" font-style="normal" font-weight="normal" text-decoration="none" x="39.9609375" y="650.5">(from Managers)</text></g></g><g transform="translate(-22,-14) scale(1,1)"><rect fill="#C0C0C0" stroke="none" x="533" y="621" width="115.21533203125" height="63" opacity="0.2"/></g><g transform="translate(-22,-14) scale(1,1)"><rect fill="#ffff91" stroke="none" x="526" y="614" width="115.21533203125" height="63"/></g><g transform="translate(-22,-14) scale(1,1)"><path fill="none" stroke="#000000" d="M 526 614 L 641.21533203125 614 L 641.21533203125 677 L 526 677 L 526 614 Z Z" stroke-miterlimit="10"/></g><g transform="translate(-22,-14) scale(1,1)"><path fill="none" stroke="#000000" d="M 526 654 L 641.21533203125 654" stroke-miterlimit="10"/></g><g transform="translate(-22,-14) scale(1,1)"><path fill="none" stroke="#000000" d="M 526 664 L 641.21533203125 664" stroke-miterlimit="10"/></g><g transform="translate(-22,-14) scale(1,1)"><g><path fill="none" stroke="none"/><text fill="#000000" stroke="none" font-family="Arial" font-size="13px" font-style="normal" font-weight="bold" text-decoration="none" x="535.55908203125" y="633.5">PhysicsManager</text></g></g><g transform="translate(-22,-14) scale(1,1)"><g><path fill="none" stroke="none"/><text fill="#000000" stroke="none" font-family="Arial" font-size="13px" font-style="normal" font-weight="normal" text-decoration="none" x="535.568603515625" y="648.5">(from Managers)</text></g></g><g transform="translate(-22,-14) scale(1,1)"><path fill="none" stroke="#000000" d="M 324 614 L 324 519" stroke-miterlimit="10"/></g><g transform="translate(-22,-14) scale(1,1)"><path fill="#000000" stroke="none" d="M 328.209517756016 529.1626748576241 L 324 519 L 319.790482243984 529.1626748576241 L 324 541"/></g><g transform="translate(-22,-14) scale(1,1)"><path fill="none" stroke="#000000" d="M 328.209517756016 529.1626748576241 L 324 519 L 319.790482243984 529.1626748576241 L 324 541 L 328.209517756016 529.1626748576241" stroke-miterlimit="10"/></g><g transform="translate(-22,-14) scale(1,1)"><path fill="none" stroke="#000000" d="M 88 616 L 88 480 L 248 480" stroke-miterlimit="10"/></g><g transform="translate(-22,-14) scale(1,1)"><path fill="#000000" stroke="none" d="M 237.83732514237585 484.209517756016 L 248 480 L 237.83732514237585 475.790482243984 L 226 480"/></g><g transform="translate(-22,-14) scale(1,1)"><path fill="none" stroke="#000000" d="M 237.83732514237585 484.209517756016 L 248 480 L 237.83732514237585 475.790482243984 L 226 480 L 237.83732514237585 484.209517756016" stroke-miterlimit="10"/></g><g transform="translate(-22,-14) scale(1,1)"><path fill="none" stroke="#000000" d="M 584 614 L 584 480 L 407 480" stroke-miterlimit="10"/></g><g transform="translate(-22,-14) scale(1,1)"><path fill="#000000" stroke="none" d="M 417.16267485762415 475.790482243984 L 407 480 L 417.16267485762415 484.209517756016 L 429 480"/></g><g transform="translate(-22,-14) scale(1,1)"><path fill="none" stroke="#000000" d="M 417.16267485762415 475.790482243984 L 407 480 L 417.16267485762415 484.209517756016 L 429 480 L 417.16267485762415 475.790482243984" stroke-miterlimit="10"/></g><g transform="translate(-22,-14) scale(1,1)"><path fill="none" stroke="#000000" d="M 208 235 L 208 376 L 248 376" stroke-miterlimit="10"/></g><g transform="translate(-22,-14) scale(1,1)"><path fill="#000000" stroke="none" d="M 237.83732514237585 380.209517756016 L 248 376 L 237.83732514237585 371.790482243984 L 226 376"/></g><g transform="translate(-22,-14) scale(1,1)"><path fill="none" stroke="#000000" d="M 237.83732514237585 380.209517756016 L 248 376 L 237.83732514237585 371.790482243984 L 226 376 L 237.83732514237585 380.209517756016" stroke-miterlimit="10"/></g><g transform="translate(-22,-14) scale(1,1)"><path fill="none" stroke="#000000" d="M 392 235 L 392 336" stroke-miterlimit="10"/></g><g transform="translate(-22,-14) scale(1,1)"><path fill="#000000" stroke="none" d="M 387.790482243984 325.83732514237585 L 392 336 L 396.209517756016 325.83732514237585 L 392 314"/></g><g transform="translate(-22,-14) scale(1,1)"><path fill="none" stroke="#000000" d="M 387.790482243984 325.83732514237585 L 392 336 L 396.209517756016 325.83732514237585 L 392 314 L 387.790482243984 325.83732514237585" stroke-miterlimit="10"/></g><g transform="translate(-22,-14) scale(1,1)"><path fill="#C0C0C0" stroke="none" d="M 83.5 714.5 C 83.5 708.1487248 88.6487248 703 95 703 C 101.3512752 703 106.5 708.1487248 106.5 714.5 C 106.5 720.8512752 101.3512752 726 95 726 C 88.6487248 726 83.5 720.8512752 83.5 714.5 Z" opacity="0.2"/></g><g transform="translate(-22,-14) scale(1,1)"><path fill="#ffff91" stroke="none" d="M 76.5 707.5 C 76.5 701.1487248 81.6487248 696 88 696 C 94.3512752 696 99.5 701.1487248 99.5 707.5 C 99.5 713.8512752 94.3512752 719 88 719 C 81.6487248 719 76.5 713.8512752 76.5 707.5 Z"/></g><g transform="translate(-22,-14) scale(1,1)"><path fill="none" stroke="#000000" d="M 76.5 707.5 C 76.5 701.1487248 81.6487248 696 88 696 C 94.3512752 696 99.5 701.1487248 99.5 707.5 C 99.5 713.8512752 94.3512752 719 88 719 C 81.6487248 719 76.5 713.8512752 76.5 707.5 Z" stroke-miterlimit="10"/></g><g transform="translate(-22,-14) scale(1,1)"><g><path fill="none" stroke="none"/><text fill="#000000" stroke="none" font-family="Arial" font-size="13px" font-style="normal" font-weight="bold" text-decoration="none" x="43.91552734375" y="738.5">IAudioManager</text></g></g><g transform="translate(-22,-14) scale(1,1)"><g><path fill="none" stroke="none"/><text fill="#000000" stroke="none" font-family="Arial" font-size="13px" font-style="normal" font-weight="normal" text-decoration="none" x="39.9609375" y="753.5">(from Managers)</text></g></g><g transform="translate(-22,-14) scale(1,1)"><path fill="#C0C0C0" stroke="none" d="M 581.107666015625 714.5 C 581.107666015625 708.1487248 586.256390815625 703 592.607666015625 703 C 598.958941215625 703 604.107666015625 708.1487248 604.107666015625 714.5 C 604.107666015625 720.8512752 598.958941215625 726 592.607666015625 726 C 586.256390815625 726 581.107666015625 720.8512752 581.107666015625 714.5 Z" opacity="0.2"/></g><g transform="translate(-22,-14) scale(1,1)"><path fill="#ffff91" stroke="none" d="M 574.107666015625 707.5 C 574.107666015625 701.1487248 579.256390815625 696 585.607666015625 696 C 591.958941215625 696 597.107666015625 701.1487248 597.107666015625 707.5 C 597.107666015625 713.8512752 591.958941215625 719 585.607666015625 719 C 579.256390815625 719 574.107666015625 713.8512752 574.107666015625 707.5 Z"/></g><g transform="translate(-22,-14) scale(1,1)"><path fill="none" stroke="#000000" d="M 574.107666015625 707.5 C 574.107666015625 701.1487248 579.256390815625 696 585.607666015625 696 C 591.958941215625 696 597.107666015625 701.1487248 597.107666015625 707.5 C 597.107666015625 713.8512752 591.958941215625 719 585.607666015625 719 C 579.256390815625 719 574.107666015625 713.8512752 574.107666015625 707.5 Z" stroke-miterlimit="10"/></g><g transform="translate(-22,-14) scale(1,1)"><g><path fill="none" stroke="none"/><text fill="#000000" stroke="none" font-family="Arial" font-size="13px" font-style="normal" font-weight="bold" text-decoration="none" x="535.753173828125" y="738.5">IPhysicsManager</text></g></g><g transform="translate(-22,-14) scale(1,1)"><g><path fill="none" stroke="none"/><text fill="#000000" stroke="none" font-family="Arial" font-size="13px" font-style="normal" font-weight="normal" text-decoration="none" x="537.568603515625" y="753.5">(from Managers)</text></g></g><g transform="translate(-22,-14) scale(1,1)"><path fill="#C0C0C0" stroke="none" d="M 316.67724609375 714.5 C 316.67724609375 708.1487248 321.82597089375 703 328.17724609375 703 C 334.52852129375 703 339.67724609375 708.1487248 339.67724609375 714.5 C 339.67724609375 720.8512752 334.52852129375 726 328.17724609375 726 C 321.82597089375 726 316.67724609375 720.8512752 316.67724609375 714.5 Z" opacity="0.2"/></g><g transform="translate(-22,-14) scale(1,1)"><path fill="#ffff91" stroke="none" d="M 309.67724609375 707.5 C 309.67724609375 701.1487248 314.82597089375 696 321.17724609375 696 C 327.52852129375 696 332.67724609375 701.1487248 332.67724609375 707.5 C 332.67724609375 713.8512752 327.52852129375 719 321.17724609375 719 C 314.82597089375 719 309.67724609375 713.8512752 309.67724609375 707.5 Z"/></g><g transform="translate(-22,-14) scale(1,1)"><path fill="none" stroke="#000000" d="M 309.67724609375 707.5 C 309.67724609375 701.1487248 314.82597089375 696 321.17724609375 696 C 327.52852129375 696 332.67724609375 701.1487248 332.67724609375 707.5 C 332.67724609375 713.8512752 327.52852129375 719 321.17724609375 719 C 314.82597089375 719 309.67724609375 713.8512752 309.67724609375 707.5 Z" stroke-miterlimit="10"/></g><g transform="translate(-22,-14) scale(1,1)"><g><path fill="none" stroke="none"/><text fill="#000000" stroke="none" font-family="Arial" font-size="13px" font-style="normal" font-weight="bold" text-decoration="none" x="263.724609375" y="738.5">IRenderingManager</text></g></g><g transform="translate(-22,-14) scale(1,1)"><g><path fill="none" stroke="none"/><text fill="#000000" stroke="none" font-family="Arial" font-size="13px" font-style="normal" font-weight="normal" text-decoration="none" x="273.13818359375" y="753.5">(from Managers)</text></g></g><g transform="translate(-22,-14) scale(1,1)"><path fill="#C0C0C0" stroke="none" d="M 322.20361328125 250.5 C 322.20361328125 244.1487248 327.35233808125 239 333.70361328125 239 C 340.05488848125 239 345.20361328125 244.1487248 345.20361328125 250.5 C 345.20361328125 256.8512752 340.05488848125 262 333.70361328125 262 C 327.35233808125 262 322.20361328125 256.8512752 322.20361328125 250.5 Z" opacity="0.2"/></g><g transform="translate(-22,-14) scale(1,1)"><path fill="#ffff91" stroke="none" d="M 315.20361328125 243.5 C 315.20361328125 237.1487248 320.35233808125 232 326.70361328125 232 C 333.05488848125 232 338.20361328125 237.1487248 338.20361328125 243.5 C 338.20361328125 249.8512752 333.05488848125 255 326.70361328125 255 C 320.35233808125 255 315.20361328125 249.8512752 315.20361328125 243.5 Z"/></g><g transform="translate(-22,-14) scale(1,1)"><path fill="none" stroke="#000000" d="M 315.20361328125 243.5 C 315.20361328125 237.1487248 320.35233808125 232 326.70361328125 232 C 333.05488848125 232 338.20361328125 237.1487248 338.20361328125 243.5 C 338.20361328125 249.8512752 333.05488848125 255 326.70361328125 255 C 320.35233808125 255 315.20361328125 249.8512752 315.20361328125 243.5 Z" stroke-miterlimit="10"/></g><g transform="translate(-22,-14) scale(1,1)"><g><path fill="none" stroke="none"/><text fill="#000000" stroke="none" font-family="Arial" font-size="13px" font-style="normal" font-weight="bold" text-decoration="none" x="279.004150390625" y="274.5">IEngineManager</text></g></g><g transform="translate(-22,-14) scale(1,1)"><g><path fill="none" stroke="none"/><text fill="#000000" stroke="none" font-family="Arial" font-size="13px" font-style="normal" font-weight="normal" text-decoration="none" x="278.66455078125" y="289.5">(from Managers)</text></g></g><g transform="translate(-22,-14) scale(1,1)"><path fill="none" stroke="#000000" d="M 326 336 L 326 255" stroke-miterlimit="10"/></g><g transform="translate(-22,-14) scale(1,1)"><path fill="none" stroke="#000000" d="M 321 677 L 321 696" stroke-miterlimit="10"/></g><g transform="translate(-22,-14) scale(1,1)"><path fill="none" stroke="#000000" d="M 88 679 L 88 696" stroke-miterlimit="10"/></g><g transform="translate(-22,-14) scale(1,1)"><path fill="none" stroke="#000000" d="M 584 677 L 584 696" stroke-miterlimit="10"/></g><g transform="translate(-22,-14) scale(1,1)"><rect fill="#C0C0C0" stroke="none" x="967" y="607" width="120.9853515625" height="59" opacity="0.2"/></g><g transform="translate(-22,-14) scale(1,1)"><rect fill="#ffffff" stroke="none" x="960" y="600" width="120.9853515625" height="59"/></g><g transform="translate(-22,-14) scale(1,1)"><path fill="none" stroke="#000000" d="M 960 600 L 1080.9853515625 600 L 1080.9853515625 659 L 960 659 L 960 600 Z Z" stroke-miterlimit="10"/></g><g transform="translate(-22,-14) scale(1,1)"><path fill="none" stroke="#000000" d="M 960 640 L 1080.9853515625 640" stroke-miterlimit="10"/></g><g transform="translate(-22,-14) scale(1,1)"><path fill="none" stroke="#000000" d="M 960 650 L 1080.9853515625 650" stroke-miterlimit="10"/></g><g transform="translate(-22,-14) scale(1,1)"><g><path fill="none" stroke="none"/><text fill="#000000" stroke="none" font-family="Arial" font-size="13px" font-style="normal" font-weight="bold" text-decoration="none" x="976.41455078125" y="619.5">SpriteRenderer</text></g></g><g transform="translate(-22,-14) scale(1,1)"><g><path fill="none" stroke="none"/><text fill="#000000" stroke="none" font-family="Arial" font-size="13px" font-style="normal" font-weight="normal" text-decoration="none" x="968.838623046875" y="634.5">(from Behaviours)</text></g></g><g transform="translate(-22,-14) scale(1,1)"><rect fill="#C0C0C0" stroke="none" x="1095" y="607" width="120.9853515625" height="59" opacity="0.2"/></g><g transform="translate(-22,-14) scale(1,1)"><rect fill="#ffffff" stroke="none" x="1088" y="600" width="120.9853515625" height="59"/></g><g transform="translate(-22,-14) scale(1,1)"><path fill="none" stroke="#000000" d="M 1088 600 L 1208.9853515625 600 L 1208.9853515625 659 L 1088 659 L 1088 600 Z Z" stroke-miterlimit="10"/></g><g transform="translate(-22,-14) scale(1,1)"><path fill="none" stroke="#000000" d="M 1088 640 L 1208.9853515625 640" stroke-miterlimit="10"/></g><g transform="translate(-22,-14) scale(1,1)"><path fill="none" stroke="#000000" d="M 1088 650 L 1208.9853515625 650" stroke-miterlimit="10"/></g><g transform="translate(-22,-14) scale(1,1)"><g><path fill="none" stroke="none"/><text fill="#000000" stroke="none" font-family="Arial" font-size="13px" font-style="normal" font-weight="bold" text-decoration="none" x="1103.69091796875" y="619.5">ModelRenderer</text></g></g><g transform="translate(-22,-14) scale(1,1)"><g><path fill="none" stroke="none"/><text fill="#000000" stroke="none" font-family="Arial" font-size="13px" font-style="normal" font-weight="normal" text-decoration="none" x="1096.838623046875" y="634.5">(from Behaviours)</text></g></g><g transform="translate(-22,-14) scale(1,1)"><rect fill="#C0C0C0" stroke="none" x="847" y="535" width="120.97900390625" height="59" opacity="0.2"/></g><g transform="translate(-22,-14) scale(1,1)"><rect fill="#ffffff" stroke="none" x="840" y="528" width="120.97900390625" height="59"/></g><g transform="translate(-22,-14) scale(1,1)"><path fill="none" stroke="#000000" d="M 840 528 L 960.97900390625 528 L 960.97900390625 587 L 840 587 L 840 528 Z Z" stroke-miterlimit="10"/></g><g transform="translate(-22,-14) scale(1,1)"><path fill="none" stroke="#000000" d="M 840 568 L 960.97900390625 568" stroke-miterlimit="10"/></g><g transform="translate(-22,-14) scale(1,1)"><path fill="none" stroke="#000000" d="M 840 578 L 960.97900390625 578" stroke-miterlimit="10"/></g><g transform="translate(-22,-14) scale(1,1)"><g><path fill="none" stroke="none"/><text fill="#000000" stroke="none" font-family="Arial" font-size="13px" font-style="normal" font-weight="bold" text-decoration="none" x="877.371337890625" y="547.5">Camera</text></g></g><g transform="translate(-22,-14) scale(1,1)"><g><path fill="none" stroke="none"/><text fill="#000000" stroke="none" font-family="Arial" font-size="13px" font-style="normal" font-weight="normal" text-decoration="none" x="848.83544921875" y="562.5">(from Behaviours)</text></g></g><g transform="translate(-22,-14) scale(1,1)"><rect fill="#C0C0C0" stroke="none" x="1159" y="327" width="120.97900390625" height="59" opacity="0.2"/></g><g transform="translate(-22,-14) scale(1,1)"><rect fill="#ffffff" stroke="none" x="1152" y="320" width="120.97900390625" height="59"/></g><g transform="translate(-22,-14) scale(1,1)"><path fill="none" stroke="#000000" d="M 1152 320 L 1272.97900390625 320 L 1272.97900390625 379 L 1152 379 L 1152 320 Z Z" stroke-miterlimit="10"/></g><g transform="translate(-22,-14) scale(1,1)"><path fill="none" stroke="#000000" d="M 1152 360 L 1272.97900390625 360" stroke-miterlimit="10"/></g><g transform="translate(-22,-14) scale(1,1)"><path fill="none" stroke="#000000" d="M 1152 370 L 1272.97900390625 370" stroke-miterlimit="10"/></g><g transform="translate(-22,-14) scale(1,1)"><g><path fill="none" stroke="none"/><text fill="#000000" stroke="none" font-family="Arial" font-size="13px" font-style="italic" font-weight="bold" text-decoration="none" x="1178.885009765625" y="339.5">ABehaviour</text></g></g><g transform="translate(-22,-14) scale(1,1)"><g><path fill="none" stroke="none"/><text fill="#000000" stroke="none" font-family="Arial" font-size="13px" font-style="normal" font-weight="normal" text-decoration="none" x="1160.83544921875" y="354.5">(from Behaviours)</text></g></g><g transform="translate(-22,-14) scale(1,1)"><rect fill="#C0C0C0" stroke="none" x="1399" y="327" width="120.97900390625" height="59" opacity="0.2"/></g><g transform="translate(-22,-14) scale(1,1)"><rect fill="#ffffff" stroke="none" x="1392" y="320" width="120.97900390625" height="59"/></g><g transform="translate(-22,-14) scale(1,1)"><path fill="none" stroke="#000000" d="M 1392 320 L 1512.97900390625 320 L 1512.97900390625 379 L 1392 379 L 1392 320 Z Z" stroke-miterlimit="10"/></g><g transform="translate(-22,-14) scale(1,1)"><path fill="none" stroke="#000000" d="M 1392 360 L 1512.97900390625 360" stroke-miterlimit="10"/></g><g transform="translate(-22,-14) scale(1,1)"><path fill="none" stroke="#000000" d="M 1392 370 L 1512.97900390625 370" stroke-miterlimit="10"/></g><g transform="translate(-22,-14) scale(1,1)"><g><path fill="none" stroke="none"/><text fill="#000000" stroke="none" font-family="Arial" font-size="13px" font-style="normal" font-weight="bold" text-decoration="none" x="1423.11572265625" y="339.5">Transform</text></g></g><g transform="translate(-22,-14) scale(1,1)"><g><path fill="none" stroke="none"/><text fill="#000000" stroke="none" font-family="Arial" font-size="13px" font-style="normal" font-weight="normal" text-decoration="none" x="1396.5" y="354.5">(from Components)</text></g></g><g transform="translate(-22,-14) scale(1,1)"><path fill="none" stroke="#000000" d="M 1448 320 L 1448 208 L 1273 208" stroke-miterlimit="10"/></g><g transform="translate(-22,-14) scale(1,1)"><path fill="#FFFFFF" stroke="none" d="M 1293.3253497152482 199.58096448796803 L 1273 208 L 1293.3253497152482 216.41903551203197"/></g><g transform="translate(-22,-14) scale(1,1)"><path fill="none" stroke="#000000" d="M 1293.3253497152482 199.58096448796803 L 1273 208 L 1293.3253497152482 216.41903551203197 L 1293.3253497152482 199.58096448796803" stroke-miterlimit="10"/></g><g transform="translate(-22,-14) scale(1,1)"><path fill="none" stroke="#000000" d="M 1212 320 L 1212 235" stroke-miterlimit="10"/></g><g transform="translate(-22,-14) scale(1,1)"><path fill="#FFFFFF" stroke="none" d="M 1220.419035512032 255.3253497152483 L 1212 235 L 1203.580964487968 255.3253497152483"/></g><g transform="translate(-22,-14) scale(1,1)"><path fill="none" stroke="#000000" d="M 1220.419035512032 255.3253497152483 L 1212 235 L 1203.580964487968 255.3253497152483 L 1220.419035512032 255.3253497152483" stroke-miterlimit="10"/></g><g transform="translate(-22,-14) scale(1,1)"><path fill="none" stroke="#000000" d="M 961 557 L 1152 557 L 1152 379" stroke-miterlimit="10"/></g><g transform="translate(-22,-14) scale(1,1)"><path fill="#FFFFFF" stroke="none" d="M 1160.419035512032 399.3253497152483 L 1152 379 L 1143.580964487968 399.3253497152483"/></g><g transform="translate(-22,-14) scale(1,1)"><path fill="none" stroke="#000000" d="M 1160.419035512032 399.3253497152483 L 1152 379 L 1143.580964487968 399.3253497152483 L 1160.419035512032 399.3253497152483" stroke-miterlimit="10"/></g><g transform="translate(-22,-14) scale(1,1)"><path fill="none" stroke="#000000" d="M 1048 600 L 1048 576 L 1176 576 L 1176 379" stroke-miterlimit="10"/></g><g transform="translate(-22,-14) scale(1,1)"><path fill="#FFFFFF" stroke="none" d="M 1184.419035512032 399.3253497152483 L 1176 379 L 1167.580964487968 399.3253497152483"/></g><g transform="translate(-22,-14) scale(1,1)"><path fill="none" stroke="#000000" d="M 1184.419035512032 399.3253497152483 L 1176 379 L 1167.580964487968 399.3253497152483 L 1184.419035512032 399.3253497152483" stroke-miterlimit="10"/></g><g transform="translate(-22,-14) scale(1,1)"><path fill="none" stroke="#000000" d="M 1200 600 L 1200 379" stroke-miterlimit="10"/></g><g transform="translate(-22,-14) scale(1,1)"><path fill="#FFFFFF" stroke="none" d="M 1208.419035512032 399.3253497152483 L 1200 379 L 1191.580964487968 399.3253497152483"/></g><g transform="translate(-22,-14) scale(1,1)"><path fill="none" stroke="#000000" d="M 1208.419035512032 399.3253497152483 L 1200 379 L 1191.580964487968 399.3253497152483 L 1208.419035512032 399.3253497152483" stroke-miterlimit="10"/></g><g transform="translate(-22,-14) scale(1,1)"><rect fill="#C0C0C0" stroke="none" x="1223" y="607" width="120.9853515625" height="59" opacity="0.2"/></g><g transform="translate(-22,-14) scale(1,1)"><rect fill="#ffffff" stroke="none" x="1216" y="600" width="120.9853515625" height="59"/></g><g transform="translate(-22,-14) scale(1,1)"><path fill="none" stroke="#000000" d="M 1216 600 L 1336.9853515625 600 L 1336.9853515625 659 L 1216 659 L 1216 600 Z Z" stroke-miterlimit="10"/></g><g transform="translate(-22,-14) scale(1,1)"><path fill="none" stroke="#000000" d="M 1216 640 L 1336.9853515625 640" stroke-miterlimit="10"/></g><g transform="translate(-22,-14) scale(1,1)"><path fill="none" stroke="#000000" d="M 1216 650 L 1336.9853515625 650" stroke-miterlimit="10"/></g><g transform="translate(-22,-14) scale(1,1)"><g><path fill="none" stroke="none"/><text fill="#000000" stroke="none" font-family="Arial" font-size="13px" font-style="normal" font-weight="bold" text-decoration="none" x="1237.4736328125" y="619.5">TextRenderer</text></g></g><g transform="translate(-22,-14) scale(1,1)"><g><path fill="none" stroke="none"/><text fill="#000000" stroke="none" font-family="Arial" font-size="13px" font-style="normal" font-weight="normal" text-decoration="none" x="1224.838623046875" y="634.5">(from Behaviours)</text></g></g><g transform="translate(-22,-14) scale(1,1)"><path fill="none" stroke="#000000" d="M 1224 600 L 1224 379" stroke-miterlimit="10"/></g><g transform="translate(-22,-14) scale(1,1)"><path fill="#FFFFFF" stroke="none" d="M 1232.419035512032 399.3253497152483 L 1224 379 L 1215.580964487968 399.3253497152483"/></g><g transform="translate(-22,-14) scale(1,1)"><path fill="none" stroke="#000000" d="M 1232.419035512032 399.3253497152483 L 1224 379 L 1215.580964487968 399.3253497152483 L 1232.419035512032 399.3253497152483" stroke-miterlimit="10"/></g><g transform="translate(-22,-14) scale(1,1)"><rect fill="#C0C0C0" stroke="none" x="1351" y="607" width="120.97900390625" height="59" opacity="0.2"/></g><g transform="translate(-22,-14) scale(1,1)"><rect fill="#ffffff" stroke="none" x="1344" y="600" width="120.97900390625" height="59"/></g><g transform="translate(-22,-14) scale(1,1)"><path fill="none" stroke="#000000" d="M 1344 600 L 1464.97900390625 600 L 1464.97900390625 659 L 1344 659 L 1344 600 Z Z" stroke-miterlimit="10"/></g><g transform="translate(-22,-14) scale(1,1)"><path fill="none" stroke="#000000" d="M 1344 640 L 1464.97900390625 640" stroke-miterlimit="10"/></g><g transform="translate(-22,-14) scale(1,1)"><path fill="none" stroke="#000000" d="M 1344 650 L 1464.97900390625 650" stroke-miterlimit="10"/></g><g transform="translate(-22,-14) scale(1,1)"><g><path fill="none" stroke="none"/><text fill="#000000" stroke="none" font-family="Arial" font-size="13px" font-style="normal" font-weight="bold" text-decoration="none" x="1364.740478515625" y="619.5">AudioListener</text></g></g><g transform="translate(-22,-14) scale(1,1)"><g><path fill="none" stroke="none"/><text fill="#000000" stroke="none" font-family="Arial" font-size="13px" font-style="normal" font-weight="normal" text-decoration="none" x="1352.83544921875" y="634.5">(from Behaviours)</text></g></g><g transform="translate(-22,-14) scale(1,1)"><rect fill="#C0C0C0" stroke="none" x="1471" y="535" width="120.97900390625" height="59" opacity="0.2"/></g><g transform="translate(-22,-14) scale(1,1)"><rect fill="#ffffff" stroke="none" x="1464" y="528" width="120.97900390625" height="59"/></g><g transform="translate(-22,-14) scale(1,1)"><path fill="none" stroke="#000000" d="M 1464 528 L 1584.97900390625 528 L 1584.97900390625 587 L 1464 587 L 1464 528 Z Z" stroke-miterlimit="10"/></g><g transform="translate(-22,-14) scale(1,1)"><path fill="none" stroke="#000000" d="M 1464 568 L 1584.97900390625 568" stroke-miterlimit="10"/></g><g transform="translate(-22,-14) scale(1,1)"><path fill="none" stroke="#000000" d="M 1464 578 L 1584.97900390625 578" stroke-miterlimit="10"/></g><g transform="translate(-22,-14) scale(1,1)"><g><path fill="none" stroke="none"/><text fill="#000000" stroke="none" font-family="Arial" font-size="13px" font-style="normal" font-weight="bold" text-decoration="none" x="1487.27001953125" y="547.5">AudioSource</text></g></g><g transform="translate(-22,-14) scale(1,1)"><g><path fill="none" stroke="none"/><text fill="#000000" stroke="none" font-family="Arial" font-size="13px" font-style="normal" font-weight="normal" text-decoration="none" x="1472.83544921875" y="562.5">(from Behaviours)</text></g></g><g transform="translate(-22,-14) scale(1,1)"><rect fill="#C0C0C0" stroke="none" x="727" y="463" width="120.97900390625" height="59" opacity="0.2"/></g><g transform="translate(-22,-14) scale(1,1)"><rect fill="#ffffff" stroke="none" x="720" y="456" width="120.97900390625" height="59"/></g><g transform="translate(-22,-14) scale(1,1)"><path fill="none" stroke="#000000" d="M 720 456 L 840.97900390625 456 L 840.97900390625 515 L 720 515 L 720 456 Z Z" stroke-miterlimit="10"/></g><g transform="translate(-22,-14) scale(1,1)"><path fill="none" stroke="#000000" d="M 720 496 L 840.97900390625 496" stroke-miterlimit="10"/></g><g transform="translate(-22,-14) scale(1,1)"><path fill="none" stroke="#000000" d="M 720 506 L 840.97900390625 506" stroke-miterlimit="10"/></g><g transform="translate(-22,-14) scale(1,1)"><g><path fill="none" stroke="none"/><text fill="#000000" stroke="none" font-family="Arial" font-size="13px" font-style="normal" font-weight="bold" text-decoration="none" x="747.253173828125" y="475.5">BoxCollider</text></g></g><g transform="translate(-22,-14) scale(1,1)"><g><path fill="none" stroke="none"/><text fill="#000000" stroke="none" font-family="Arial" font-size="13px" font-style="normal" font-weight="normal" text-decoration="none" x="728.83544921875" y="490.5">(from Behaviours)</text></g></g><g transform="translate(-22,-14) scale(1,1)"><path fill="none" stroke="#000000" d="M 841 488 L 1096 488 L 1096 352 L 1152 352" stroke-miterlimit="10"/></g><g transform="translate(-22,-14) scale(1,1)"><path fill="#FFFFFF" stroke="none" d="M 1131.6746502847518 360.419035512032 L 1152 352 L 1131.6746502847516 343.580964487968"/></g><g transform="translate(-22,-14) scale(1,1)"><path fill="none" stroke="#000000" d="M 1131.6746502847518 360.419035512032 L 1152 352 L 1131.6746502847516 343.580964487968 L 1131.6746502847518 360.419035512032" stroke-miterlimit="10"/></g><g transform="translate(-22,-14) scale(1,1)"><path fill="none" stroke="#000000" d="M 1368 600 L 1368 584 L 1248 584 L 1248 379" stroke-miterlimit="10"/></g><g transform="translate(-22,-14) scale(1,1)"><path fill="#FFFFFF" stroke="none" d="M 1256.419035512032 399.3253497152483 L 1248 379 L 1239.580964487968 399.3253497152483"/></g><g transform="translate(-22,-14) scale(1,1)"><path fill="none" stroke="#000000" d="M 1256.419035512032 399.3253497152483 L 1248 379 L 1239.580964487968 399.3253497152483 L 1256.419035512032 399.3253497152483" stroke-miterlimit="10"/></g><g transform="translate(-22,-14) scale(1,1)"><path fill="none" stroke="#000000" d="M 1464 557 L 1272 557 L 1272 379" stroke-miterlimit="10"/></g><g transform="translate(-22,-14) scale(1,1)"><path fill="#FFFFFF" stroke="none" d="M 1280.419035512032 399.3253497152483 L 1272 379 L 1263.580964487968 399.3253497152483"/></g><g transform="translate(-22,-14) scale(1,1)"><path fill="none" stroke="#000000" d="M 1280.419035512032 399.3253497152483 L 1272 379 L 1263.580964487968 399.3253497152483 L 1280.419035512032 399.3253497152483" stroke-miterlimit="10"/></g><g transform="translate(-22,-14) scale(1,1)"><rect fill="#C0C0C0" stroke="none" x="1095" y="727" width="120.9853515625" height="59" opacity="0.2"/></g><g transform="translate(-22,-14) scale(1,1)"><rect fill="#ffff91" stroke="none" x="1088" y="720" width="120.9853515625" height="59"/></g><g transform="translate(-22,-14) scale(1,1)"><path fill="none" stroke="#000000" d="M 1088 720 L 1208.9853515625 720 L 1208.9853515625 779 L 1088 779 L 1088 720 Z Z" stroke-miterlimit="10"/></g><g transform="translate(-22,-14) scale(1,1)"><path fill="none" stroke="#000000" d="M 1088 760 L 1208.9853515625 760" stroke-miterlimit="10"/></g><g transform="translate(-22,-14) scale(1,1)"><path fill="none" stroke="#000000" d="M 1088 770 L 1208.9853515625 770" stroke-miterlimit="10"/></g><g transform="translate(-22,-14) scale(1,1)"><g><path fill="none" stroke="none"/><text fill="#000000" stroke="none" font-family="Arial" font-size="13px" font-style="normal" font-weight="bold" text-decoration="none" x="1126.094970703125" y="739.5">RModel</text></g></g><g transform="translate(-22,-14) scale(1,1)"><g><path fill="none" stroke="none"/><text fill="#000000" stroke="none" font-family="Arial" font-size="13px" font-style="normal" font-weight="normal" text-decoration="none" x="1092.5" y="754.5">(from Renderables)</text></g></g><g transform="translate(-22,-14) scale(1,1)"><path fill="none" stroke="#000000" d="M 1152 720 L 1152 659" stroke-miterlimit="10"/></g><g transform="translate(-22,-14) scale(1,1)"><path fill="#000000" stroke="none" d="M 1156.2095177560159 669.1626748576241 L 1152 659 L 1147.7904822439841 669.1626748576241 L 1152 681"/></g><g transform="translate(-22,-14) scale(1,1)"><path fill="none" stroke="#000000" d="M 1156.2095177560159 669.1626748576241 L 1152 659 L 1147.7904822439841 669.1626748576241 L 1152 681 L 1156.2095177560159 669.1626748576241" stroke-miterlimit="10"/></g><g transform="translate(-22,-14) scale(1,1)"><rect fill="#C0C0C0" stroke="none" x="1223" y="727" width="120.9853515625" height="59" opacity="0.2"/></g><g transform="translate(-22,-14) scale(1,1)"><rect fill="#ffff91" stroke="none" x="1216" y="720" width="120.9853515625" height="59"/></g><g transform="translate(-22,-14) scale(1,1)"><path fill="none" stroke="#000000" d="M 1216 720 L 1336.9853515625 720 L 1336.9853515625 779 L 1216 779 L 1216 720 Z Z" stroke-miterlimit="10"/></g><g transform="translate(-22,-14) scale(1,1)"><path fill="none" stroke="#000000" d="M 1216 760 L 1336.9853515625 760" stroke-miterlimit="10"/></g><g transform="translate(-22,-14) scale(1,1)"><path fill="none" stroke="#000000" d="M 1216 770 L 1336.9853515625 770" stroke-miterlimit="10"/></g><g transform="translate(-22,-14) scale(1,1)"><g><path fill="none" stroke="none"/><text fill="#000000" stroke="none" font-family="Arial" font-size="13px" font-style="normal" font-weight="bold" text-decoration="none" x="1259.9951171875" y="739.5">RText</text></g></g><g transform="translate(-22,-14) scale(1,1)"><g><path fill="none" stroke="none"/><text fill="#000000" stroke="none" font-family="Arial" font-size="13px" font-style="normal" font-weight="normal" text-decoration="none" x="1220.5" y="754.5">(from Renderables)</text></g></g><g transform="translate(-22,-14) scale(1,1)"><path fill="none" stroke="#000000" d="M 1282 720 L 1282 659" stroke-miterlimit="10"/></g><g transform="translate(-22,-14) scale(1,1)"><path fill="#000000" stroke="none" d="M 1286.2095177560159 669.1626748576241 L 1282 659 L 1277.7904822439841 669.1626748576241 L 1282 681"/></g><g transform="translate(-22,-14) scale(1,1)"><path fill="none" stroke="#000000" d="M 1286.2095177560159 669.1626748576241 L 1282 659 L 1277.7904822439841 669.1626748576241 L 1282 681 L 1286.2095177560159 669.1626748576241" stroke-miterlimit="10"/></g><g transform="translate(-22,-14) scale(1,1)"><rect fill="#C0C0C0" stroke="none" x="967" y="727" width="120.9853515625" height="59" opacity="0.2"/></g><g transform="translate(-22,-14) scale(1,1)"><rect fill="#ffff91" stroke="none" x="960" y="720" width="120.9853515625" height="59"/></g><g transform="translate(-22,-14) scale(1,1)"><path fill="none" stroke="#000000" d="M 960 720 L 1080.9853515625 720 L 1080.9853515625 779 L 960 779 L 960 720 Z Z" stroke-miterlimit="10"/></g><g transform="translate(-22,-14) scale(1,1)"><path fill="none" stroke="#000000" d="M 960 760 L 1080.9853515625 760" stroke-miterlimit="10"/></g><g transform="translate(-22,-14) scale(1,1)"><path fill="none" stroke="#000000" d="M 960 770 L 1080.9853515625 770" stroke-miterlimit="10"/></g><g transform="translate(-22,-14) scale(1,1)"><g><path fill="none" stroke="none"/><text fill="#000000" stroke="none" font-family="Arial" font-size="13px" font-style="normal" font-weight="bold" text-decoration="none" x="998.818603515625" y="739.5">RSprite</text></g></g><g transform="translate(-22,-14) scale(1,1)"><g><path fill="none" stroke="none"/><text fill="#000000" stroke="none" font-family="Arial" font-size="13px" font-style="normal" font-weight="normal" text-decoration="none" x="964.5" y="754.5">(from Renderables)</text></g></g><g transform="translate(-22,-14) scale(1,1)"><path fill="none" stroke="#000000" d="M 1022 720 L 1022 659" stroke-miterlimit="10"/></g><g transform="translate(-22,-14) scale(1,1)"><path fill="#000000" stroke="none" d="M 1026.2095177560159 669.1626748576241 L 1022 659 L 1017.790482243984 669.1626748576241 L 1022 681"/></g><g transform="translate(-22,-14) scale(1,1)"><path fill="none" stroke="#000000" d="M 1026.2095177560159 669.1626748576241 L 1022 659 L 1017.790482243984 669.1626748576241 L 1022 681 L 1026.2095177560159 669.1626748576241" stroke-miterlimit="10"/></g><g transform="translate(-22,-14) scale(1,1)"><rect fill="#C0C0C0" stroke="none" x="1591" y="471" width="120.97900390625" height="59" opacity="0.2"/></g><g transform="translate(-22,-14) scale(1,1)"><rect fill="#ffffff" stroke="none" x="1584" y="464" width="120.97900390625" height="59"/></g><g transform="translate(-22,-14) scale(1,1)"><path fill="none" stroke="#000000" d="M 1584 464 L 1704.97900390625 464 L 1704.97900390625 523 L 1584 523 L 1584 464 Z Z" stroke-miterlimit="10"/></g><g transform="translate(-22,-14) scale(1,1)"><path fill="none" stroke="#000000" d="M 1584 504 L 1704.97900390625 504" stroke-miterlimit="10"/></g><g transform="translate(-22,-14) scale(1,1)"><path fill="none" stroke="#000000" d="M 1584 514 L 1704.97900390625 514" stroke-miterlimit="10"/></g><g transform="translate(-22,-14) scale(1,1)"><g><path fill="none" stroke="none"/><text fill="#000000" stroke="none" font-family="Arial" font-size="13px" font-style="normal" font-weight="bold" text-decoration="none" x="1615.582275390625" y="483.5">Rigidbody</text></g></g><g transform="translate(-22,-14) scale(1,1)"><g><path fill="none" stroke="none"/><text fill="#000000" stroke="none" font-family="Arial" font-size="13px" font-style="normal" font-weight="normal" text-decoration="none" x="1592.83544921875" y="498.5">(from Behaviours)</text></g></g><g transform="translate(-22,-14) scale(1,1)"><path fill="none" stroke="#000000" d="M 1584 488 L 1328 488 L 1328 352 L 1273 352" stroke-miterlimit="10"/></g><g transform="translate(-22,-14) scale(1,1)"><path fill="#FFFFFF" stroke="none" d="M 1293.3253497152482 343.580964487968 L 1273 352 L 1293.3253497152482 360.419035512032"/></g><g transform="translate(-22,-14) scale(1,1)"><path fill="none" stroke="#000000" d="M 1293.3253497152482 343.580964487968 L 1273 352 L 1293.3253497152482 360.419035512032 L 1293.3253497152482 343.580964487968" stroke-miterlimit="10"/></g><g transform="translate(-22,-14) scale(1,1)"><rect fill="#C0C0C0" stroke="none" x="727" y="607" width="120.97900390625" height="59" opacity="0.2"/></g><g transform="translate(-22,-14) scale(1,1)"><rect fill="#ffff91" stroke="none" x="720" y="600" width="120.97900390625" height="59"/></g><g transform="translate(-22,-14) scale(1,1)"><path fill="none" stroke="#000000" d="M 720 600 L 840.97900390625 600 L 840.97900390625 659 L 720 659 L 720 600 Z Z" stroke-miterlimit="10"/></g><g transform="translate(-22,-14) scale(1,1)"><path fill="none" stroke="#000000" d="M 720 640 L 840.97900390625 640" stroke-miterlimit="10"/></g><g transform="translate(-22,-14) scale(1,1)"><path fill="none" stroke="#000000" d="M 720 650 L 840.97900390625 650" stroke-miterlimit="10"/></g><g transform="translate(-22,-14) scale(1,1)"><g><path fill="none" stroke="none"/><text fill="#000000" stroke="none" font-family="Arial" font-size="13px" font-style="normal" font-weight="bold" text-decoration="none" x="733.523193359375" y="619.5">BoxColliderData</text></g></g><g transform="translate(-22,-14) scale(1,1)"><g><path fill="none" stroke="none"/><text fill="#000000" stroke="none" font-family="Arial" font-size="13px" font-style="normal" font-weight="normal" text-decoration="none" x="737.15087890625" y="634.5">(from Physical)</text></g></g><g transform="translate(-22,-14) scale(1,1)"><rect fill="#C0C0C0" stroke="none" x="1591" y="607" width="120.97900390625" height="59" opacity="0.2"/></g><g transform="translate(-22,-14) scale(1,1)"><rect fill="#ffff91" stroke="none" x="1584" y="600" width="120.97900390625" height="59"/></g><g transform="translate(-22,-14) scale(1,1)"><path fill="none" stroke="#000000" d="M 1584 600 L 1704.97900390625 600 L 1704.97900390625 659 L 1584 659 L 1584 600 Z Z" stroke-miterlimit="10"/></g><g transform="translate(-22,-14) scale(1,1)"><path fill="none" stroke="#000000" d="M 1584 640 L 1704.97900390625 640" stroke-miterlimit="10"/></g><g transform="translate(-22,-14) scale(1,1)"><path fill="none" stroke="#000000" d="M 1584 650 L 1704.97900390625 650" stroke-miterlimit="10"/></g><g transform="translate(-22,-14) scale(1,1)"><g><path fill="none" stroke="none"/><text fill="#000000" stroke="none" font-family="Arial" font-size="13px" font-style="normal" font-weight="bold" text-decoration="none" x="1601.852294921875" y="619.5">RigidbodyData</text></g></g><g transform="translate(-22,-14) scale(1,1)"><g><path fill="none" stroke="none"/><text fill="#000000" stroke="none" font-family="Arial" font-size="13px" font-style="normal" font-weight="normal" text-decoration="none" x="1601.15087890625" y="634.5">(from Physical)</text></g></g><g transform="translate(-22,-14) scale(1,1)"><path fill="none" stroke="#000000" d="M 780 600 L 780 515" stroke-miterlimit="10"/></g><g transform="translate(-22,-14) scale(1,1)"><path fill="#000000" stroke="none" d="M 784.209517756016 525.1626748576241 L 780 515 L 775.790482243984 525.1626748576241 L 780 537"/></g><g transform="translate(-22,-14) scale(1,1)"><path fill="none" stroke="#000000" d="M 784.209517756016 525.1626748576241 L 780 515 L 775.790482243984 525.1626748576241 L 780 537 L 784.209517756016 525.1626748576241" stroke-miterlimit="10"/></g><g transform="translate(-22,-14) scale(1,1)"><path fill="none" stroke="#000000" d="M 1644 600 L 1644 523" stroke-miterlimit="10"/></g><g transform="translate(-22,-14) scale(1,1)"><path fill="#000000" stroke="none" d="M 1648.2095177560159 533.1626748576241 L 1644 523 L 1639.7904822439841 533.1626748576241 L 1644 545"/></g><g transform="translate(-22,-14) scale(1,1)"><path fill="none" stroke="#000000" d="M 1648.2095177560159 533.1626748576241 L 1644 523 L 1639.7904822439841 533.1626748576241 L 1644 545 L 1648.2095177560159 533.1626748576241" stroke-miterlimit="10"/></g></g></svg>