<svg version="1.1" xmlns="http://www.w3.org/2000/svg" xmlns:xlink="http://www.w3.org/1999/xlink" width="855.3544921875" height="239"><defs/><g><g transform="translate(-22,-26) scale(1,1)"><path fill="#C0C0C0" stroke="none" d="M 92.67724609375 54.5 C 92.67724609375 48.1487248 97.82597089375 43 104.17724609375 43 C 110.52852129375 43 115.67724609375 48.1487248 115.67724609375 54.5 C 115.67724609375 60.8512752 110.52852129375 66 104.17724609375 66 C 97.82597089375 66 92.67724609375 60.8512752 92.67724609375 54.5 Z" opacity="0.2"/></g><g transform="translate(-22,-26) scale(1,1)"><path fill="#ffffff" stroke="none" d="M 85.67724609375 47.5 C 85.67724609375 41.1487248 90.82597089375 36 97.17724609375 36 C 103.52852129375 36 108.67724609375 41.1487248 108.67724609375 47.5 C 108.67724609375 53.8512752 103.52852129375 59 97.17724609375 59 C 90.82597089375 59 85.67724609375 53.8512752 85.67724609375 47.5 Z"/></g><g transform="translate(-22,-26) scale(1,1)"><path fill="none" stroke="#000000" d="M 85.67724609375 47.5 C 85.67724609375 41.1487248 90.82597089375 36 97.17724609375 36 C 103.52852129375 36 108.67724609375 41.1487248 108.67724609375 47.5 C 108.67724609375 53.8512752 103.52852129375 59 97.17724609375 59 C 90.82597089375 59 85.67724609375 53.8512752 85.67724609375 47.5 Z" stroke-miterlimit="10"/></g><g transform="translate(-22,-26) scale(1,1)"><g><path fill="none" stroke="none"/><text fill="#000000" stroke="none" font-family="Arial" font-size="13px" font-style="normal" font-weight="bold" text-decoration="none" x="55.260498046875" y="78.5">IInputManager</text></g></g><g transform="translate(-22,-26) scale(1,1)"><g><path fill="none" stroke="none"/><text fill="#000000" stroke="none" font-family="Arial" font-size="13px" font-style="normal" font-weight="normal" text-decoration="none" x="49.13818359375" y="93.5">(from Managers)</text></g></g><g transform="translate(-22,-26) scale(1,1)"><path fill="#C0C0C0" stroke="none" d="M 233.67724609375 54.5 C 233.67724609375 48.1487248 238.82597089375 43 245.17724609375 43 C 251.52852129375 43 256.67724609375 48.1487248 256.67724609375 54.5 C 256.67724609375 60.8512752 251.52852129375 66 245.17724609375 66 C 238.82597089375 66 233.67724609375 60.8512752 233.67724609375 54.5 Z" opacity="0.2"/></g><g transform="translate(-22,-26) scale(1,1)"><path fill="#ffffff" stroke="none" d="M 226.67724609375 47.5 C 226.67724609375 41.1487248 231.82597089375 36 238.17724609375 36 C 244.52852129375 36 249.67724609375 41.1487248 249.67724609375 47.5 C 249.67724609375 53.8512752 244.52852129375 59 238.17724609375 59 C 231.82597089375 59 226.67724609375 53.8512752 226.67724609375 47.5 Z"/></g><g transform="translate(-22,-26) scale(1,1)"><path fill="none" stroke="#000000" d="M 226.67724609375 47.5 C 226.67724609375 41.1487248 231.82597089375 36 238.17724609375 36 C 244.52852129375 36 249.67724609375 41.1487248 249.67724609375 47.5 C 249.67724609375 53.8512752 244.52852129375 59 238.17724609375 59 C 231.82597089375 59 226.67724609375 53.8512752 226.67724609375 47.5 Z" stroke-miterlimit="10"/></g><g transform="translate(-22,-26) scale(1,1)"><g><path fill="none" stroke="none"/><text fill="#000000" stroke="none" font-family="Arial" font-size="13px" font-style="normal" font-weight="bold" text-decoration="none" x="194.0927734375" y="78.5">IAudioManager</text></g></g><g transform="translate(-22,-26) scale(1,1)"><g><path fill="none" stroke="none"/><text fill="#000000" stroke="none" font-family="Arial" font-size="13px" font-style="normal" font-weight="normal" text-decoration="none" x="190.13818359375" y="93.5">(from Managers)</text></g></g><g transform="translate(-22,-26) scale(1,1)"><path fill="#C0C0C0" stroke="none" d="M 374.67724609375 54.5 C 374.67724609375 48.1487248 379.82597089375 43 386.17724609375 43 C 392.52852129375 43 397.67724609375 48.1487248 397.67724609375 54.5 C 397.67724609375 60.8512752 392.52852129375 66 386.17724609375 66 C 379.82597089375 66 374.67724609375 60.8512752 374.67724609375 54.5 Z" opacity="0.2"/></g><g transform="translate(-22,-26) scale(1,1)"><path fill="#ffffff" stroke="none" d="M 367.67724609375 47.5 C 367.67724609375 41.1487248 372.82597089375 36 379.17724609375 36 C 385.52852129375 36 390.67724609375 41.1487248 390.67724609375 47.5 C 390.67724609375 53.8512752 385.52852129375 59 379.17724609375 59 C 372.82597089375 59 367.67724609375 53.8512752 367.67724609375 47.5 Z"/></g><g transform="translate(-22,-26) scale(1,1)"><path fill="none" stroke="#000000" d="M 367.67724609375 47.5 C 367.67724609375 41.1487248 372.82597089375 36 379.17724609375 36 C 385.52852129375 36 390.67724609375 41.1487248 390.67724609375 47.5 C 390.67724609375 53.8512752 385.52852129375 59 379.17724609375 59 C 372.82597089375 59 367.67724609375 53.8512752 367.67724609375 47.5 Z" stroke-miterlimit="10"/></g><g transform="translate(-22,-26) scale(1,1)"><g><path fill="none" stroke="none"/><text fill="#000000" stroke="none" font-family="Arial" font-size="13px" font-style="normal" font-weight="bold" text-decoration="none" x="329.32275390625" y="78.5">IPhysicsManager</text></g></g><g transform="translate(-22,-26) scale(1,1)"><g><path fill="none" stroke="none"/><text fill="#000000" stroke="none" font-family="Arial" font-size="13px" font-style="normal" font-weight="normal" text-decoration="none" x="331.13818359375" y="93.5">(from Managers)</text></g></g><g transform="translate(-22,-26) scale(1,1)"><path fill="#C0C0C0" stroke="none" d="M 515.67724609375 54.5 C 515.67724609375 48.1487248 520.82597089375 43 527.17724609375 43 C 533.52852129375 43 538.67724609375 48.1487248 538.67724609375 54.5 C 538.67724609375 60.8512752 533.52852129375 66 527.17724609375 66 C 520.82597089375 66 515.67724609375 60.8512752 515.67724609375 54.5 Z" opacity="0.2"/></g><g transform="translate(-22,-26) scale(1,1)"><path fill="#ffffff" stroke="none" d="M 508.67724609375 47.5 C 508.67724609375 41.1487248 513.82597089375 36 520.17724609375 36 C 526.52852129375 36 531.67724609375 41.1487248 531.67724609375 47.5 C 531.67724609375 53.8512752 526.52852129375 59 520.17724609375 59 C 513.82597089375 59 508.67724609375 53.8512752 508.67724609375 47.5 Z"/></g><g transform="translate(-22,-26) scale(1,1)"><path fill="none" stroke="#000000" d="M 508.67724609375 47.5 C 508.67724609375 41.1487248 513.82597089375 36 520.17724609375 36 C 526.52852129375 36 531.67724609375 41.1487248 531.67724609375 47.5 C 531.67724609375 53.8512752 526.52852129375 59 520.17724609375 59 C 513.82597089375 59 508.67724609375 53.8512752 508.67724609375 47.5 Z" stroke-miterlimit="10"/></g><g transform="translate(-22,-26) scale(1,1)"><g><path fill="none" stroke="none"/><text fill="#000000" stroke="none" font-family="Arial" font-size="13px" font-style="normal" font-weight="bold" text-decoration="none" x="462.724609375" y="78.5">IRenderingManager</text></g></g><g transform="translate(-22,-26) scale(1,1)"><g><path fill="none" stroke="none"/><text fill="#000000" stroke="none" font-family="Arial" font-size="13px" font-style="normal" font-weight="normal" text-decoration="none" x="472.13818359375" y="93.5">(from Managers)</text></g></g><g transform="translate(-22,-26) scale(1,1)"><path fill="#C0C0C0" stroke="none" d="M 656.67724609375 54.5 C 656.67724609375 48.1487248 661.82597089375 43 668.17724609375 43 C 674.52852129375 43 679.67724609375 48.1487248 679.67724609375 54.5 C 679.67724609375 60.8512752 674.52852129375 66 668.17724609375 66 C 661.82597089375 66 656.67724609375 60.8512752 656.67724609375 54.5 Z" opacity="0.2"/></g><g transform="translate(-22,-26) scale(1,1)"><path fill="#ffffff" stroke="none" d="M 649.67724609375 47.5 C 649.67724609375 41.1487248 654.82597089375 36 661.17724609375 36 C 667.52852129375 36 672.67724609375 41.1487248 672.67724609375 47.5 C 672.67724609375 53.8512752 667.52852129375 59 661.17724609375 59 C 654.82597089375 59 649.67724609375 53.8512752 649.67724609375 47.5 Z"/></g><g transform="translate(-22,-26) scale(1,1)"><path fill="none" stroke="#000000" d="M 649.67724609375 47.5 C 649.67724609375 41.1487248 654.82597089375 36 661.17724609375 36 C 667.52852129375 36 672.67724609375 41.1487248 672.67724609375 47.5 C 672.67724609375 53.8512752 667.52852129375 59 661.17724609375 59 C 654.82597089375 59 649.67724609375 53.8512752 649.67724609375 47.5 Z" stroke-miterlimit="10"/></g><g transform="translate(-22,-26) scale(1,1)"><g><path fill="none" stroke="none"/><text fill="#000000" stroke="none" font-family="Arial" font-size="13px" font-style="normal" font-weight="bold" text-decoration="none" x="615.286865234375" y="78.5">ISceneManager</text></g></g><g transform="translate(-22,-26) scale(1,1)"><g><path fill="none" stroke="none"/><text fill="#000000" stroke="none" font-family="Arial" font-size="13px" font-style="normal" font-weight="normal" text-decoration="none" x="613.13818359375" y="93.5">(from Managers)</text></g></g><g transform="translate(-22,-26) scale(1,1)"><path fill="#C0C0C0" stroke="none" d="M 797.67724609375 54.5 C 797.67724609375 48.1487248 802.82597089375 43 809.17724609375 43 C 815.52852129375 43 820.67724609375 48.1487248 820.67724609375 54.5 C 820.67724609375 60.8512752 815.52852129375 66 809.17724609375 66 C 802.82597089375 66 797.67724609375 60.8512752 797.67724609375 54.5 Z" opacity="0.2"/></g><g transform="translate(-22,-26) scale(1,1)"><path fill="#ffffff" stroke="none" d="M 790.67724609375 47.5 C 790.67724609375 41.1487248 795.82597089375 36 802.17724609375 36 C 808.52852129375 36 813.67724609375 41.1487248 813.67724609375 47.5 C 813.67724609375 53.8512752 808.52852129375 59 802.17724609375 59 C 795.82597089375 59 790.67724609375 53.8512752 790.67724609375 47.5 Z"/></g><g transform="translate(-22,-26) scale(1,1)"><path fill="none" stroke="#000000" d="M 790.67724609375 47.5 C 790.67724609375 41.1487248 795.82597089375 36 802.17724609375 36 C 808.52852129375 36 813.67724609375 41.1487248 813.67724609375 47.5 C 813.67724609375 53.8512752 808.52852129375 59 802.17724609375 59 C 795.82597089375 59 790.67724609375 53.8512752 790.67724609375 47.5 Z" stroke-miterlimit="10"/></g><g transform="translate(-22,-26) scale(1,1)"><g><path fill="none" stroke="none"/><text fill="#000000" stroke="none" font-family="Arial" font-size="13px" font-style="normal" font-weight="bold" text-decoration="none" x="754.477783203125" y="78.5">IEngineManager</text></g></g><g transform="translate(-22,-26) scale(1,1)"><g><path fill="none" stroke="none"/><text fill="#000000" stroke="none" font-family="Arial" font-size="13px" font-style="normal" font-weight="normal" text-decoration="none" x="754.13818359375" y="93.5">(from Managers)</text></g></g><g transform="translate(-22,-26) scale(1,1)"><path fill="#C0C0C0" stroke="none" d="M 369.535888671875 130.5 C 369.535888671875 124.1487248 374.684613471875 119 381.035888671875 119 C 387.387163871875 119 392.535888671875 124.1487248 392.535888671875 130.5 C 392.535888671875 136.8512752 387.387163871875 142 381.035888671875 142 C 374.684613471875 142 369.535888671875 136.8512752 369.535888671875 130.5 Z" opacity="0.2"/></g><g transform="translate(-22,-26) scale(1,1)"><path fill="#ffffff" stroke="none" d="M 362.535888671875 123.5 C 362.535888671875 117.1487248 367.684613471875 112 374.035888671875 112 C 380.387163871875 112 385.535888671875 117.1487248 385.535888671875 123.5 C 385.535888671875 129.8512752 380.387163871875 135 374.035888671875 135 C 367.684613471875 135 362.535888671875 129.8512752 362.535888671875 123.5 Z"/></g><g transform="translate(-22,-26) scale(1,1)"><path fill="none" stroke="#000000" d="M 362.535888671875 123.5 C 362.535888671875 117.1487248 367.684613471875 112 374.035888671875 112 C 380.387163871875 112 385.535888671875 117.1487248 385.535888671875 123.5 C 385.535888671875 129.8512752 380.387163871875 135 374.035888671875 135 C 367.684613471875 135 362.535888671875 129.8512752 362.535888671875 123.5 Z" stroke-miterlimit="10"/></g><g transform="translate(-22,-26) scale(1,1)"><g><path fill="none" stroke="none"/><text fill="#000000" stroke="none" font-family="Arial" font-size="13px" font-style="normal" font-weight="bold" text-decoration="none" x="354.897705078125" y="154.5">IDriver</text></g></g><g transform="translate(-22,-26) scale(1,1)"><g><path fill="none" stroke="none"/><text fill="#000000" stroke="none" font-family="Arial" font-size="13px" font-style="normal" font-weight="normal" text-decoration="none" x="332.5" y="169.5">(from Context)</text></g></g><g transform="translate(-22,-26) scale(1,1)"><path fill="#C0C0C0" stroke="none" d="M 513.535888671875 130.5 C 513.535888671875 124.1487248 518.684613471875 119 525.035888671875 119 C 531.387163871875 119 536.535888671875 124.1487248 536.535888671875 130.5 C 536.535888671875 136.8512752 531.387163871875 142 525.035888671875 142 C 518.684613471875 142 513.535888671875 136.8512752 513.535888671875 130.5 Z" opacity="0.2"/></g><g transform="translate(-22,-26) scale(1,1)"><path fill="#ffffff" stroke="none" d="M 506.535888671875 123.5 C 506.535888671875 117.1487248 511.684613471875 112 518.035888671875 112 C 524.387163871875 112 529.535888671875 117.1487248 529.535888671875 123.5 C 529.535888671875 129.8512752 524.387163871875 135 518.035888671875 135 C 511.684613471875 135 506.535888671875 129.8512752 506.535888671875 123.5 Z"/></g><g transform="translate(-22,-26) scale(1,1)"><path fill="none" stroke="#000000" d="M 506.535888671875 123.5 C 506.535888671875 117.1487248 511.684613471875 112 518.035888671875 112 C 524.387163871875 112 529.535888671875 117.1487248 529.535888671875 123.5 C 529.535888671875 129.8512752 524.387163871875 135 518.035888671875 135 C 511.684613471875 135 506.535888671875 129.8512752 506.535888671875 123.5 Z" stroke-miterlimit="10"/></g><g transform="translate(-22,-26) scale(1,1)"><g><path fill="none" stroke="none"/><text fill="#000000" stroke="none" font-family="Arial" font-size="13px" font-style="normal" font-weight="bold" text-decoration="none" x="496.36181640625" y="154.5">IDevice</text></g></g><g transform="translate(-22,-26) scale(1,1)"><g><path fill="none" stroke="none"/><text fill="#000000" stroke="none" font-family="Arial" font-size="13px" font-style="normal" font-weight="normal" text-decoration="none" x="476.5" y="169.5">(from Context)</text></g></g><g transform="translate(-22,-26) scale(1,1)"><path fill="#C0C0C0" stroke="none" d="M 441.127685546875 210.5 C 441.127685546875 204.1487248 446.276410346875 199 452.627685546875 199 C 458.978960746875 199 464.127685546875 204.1487248 464.127685546875 210.5 C 464.127685546875 216.8512752 458.978960746875 222 452.627685546875 222 C 446.276410346875 222 441.127685546875 216.8512752 441.127685546875 210.5 Z" opacity="0.2"/></g><g transform="translate(-22,-26) scale(1,1)"><path fill="#ffffff" stroke="none" d="M 434.127685546875 203.5 C 434.127685546875 197.1487248 439.276410346875 192 445.627685546875 192 C 451.978960746875 192 457.127685546875 197.1487248 457.127685546875 203.5 C 457.127685546875 209.8512752 451.978960746875 215 445.627685546875 215 C 439.276410346875 215 434.127685546875 209.8512752 434.127685546875 203.5 Z"/></g><g transform="translate(-22,-26) scale(1,1)"><path fill="none" stroke="#000000" d="M 434.127685546875 203.5 C 434.127685546875 197.1487248 439.276410346875 192 445.627685546875 192 C 451.978960746875 192 457.127685546875 197.1487248 457.127685546875 203.5 C 457.127685546875 209.8512752 451.978960746875 215 445.627685546875 215 C 439.276410346875 215 434.127685546875 209.8512752 434.127685546875 203.5 Z" stroke-miterlimit="10"/></g><g transform="translate(-22,-26) scale(1,1)"><g><path fill="none" stroke="none"/><text fill="#000000" stroke="none" font-family="Arial" font-size="13px" font-style="normal" font-weight="bold" text-decoration="none" x="410.214111328125" y="234.5">IRenderable</text></g></g><g transform="translate(-22,-26) scale(1,1)"><g><path fill="none" stroke="none"/><text fill="#000000" stroke="none" font-family="Arial" font-size="13px" font-style="normal" font-weight="normal" text-decoration="none" x="396.5" y="249.5">(from Rendering)</text></g></g></g></svg>