<svg version="1.1" xmlns="http://www.w3.org/2000/svg" xmlns:xlink="http://www.w3.org/1999/xlink" width="969.4072265625" height="879"><defs/><g><g transform="translate(-22,-6) scale(1,1)"><rect fill="#C0C0C0" stroke="none" x="455" y="311" width="126.74267578125" height="59" opacity="0.2"/></g><g transform="translate(-22,-6) scale(1,1)"><rect fill="#ffffff" stroke="none" x="448" y="304" width="126.74267578125" height="59"/></g><g transform="translate(-22,-6) scale(1,1)"><path fill="none" stroke="#000000" d="M 448 304 L 574.74267578125 304 L 574.74267578125 363 L 448 363 L 448 304 Z Z" stroke-miterlimit="10"/></g><g transform="translate(-22,-6) scale(1,1)"><path fill="none" stroke="#000000" d="M 448 344 L 574.74267578125 344" stroke-miterlimit="10"/></g><g transform="translate(-22,-6) scale(1,1)"><path fill="none" stroke="#000000" d="M 448 354 L 574.74267578125 354" stroke-miterlimit="10"/></g><g transform="translate(-22,-6) scale(1,1)"><g><path fill="none" stroke="none"/><text fill="#000000" stroke="none" font-family="Arial" font-size="13px" font-style="normal" font-weight="bold" text-decoration="none" x="455.724609375" y="323.5">RenderingManager</text></g></g><g transform="translate(-22,-6) scale(1,1)"><g><path fill="none" stroke="none"/><text fill="#000000" stroke="none" font-family="Arial" font-size="13px" font-style="normal" font-weight="normal" text-decoration="none" x="463.332275390625" y="338.5">(from Managers)</text></g></g><g transform="translate(-22,-6) scale(1,1)"><rect fill="#C0C0C0" stroke="none" x="175" y="159" width="108.455078125" height="59" opacity="0.2"/></g><g transform="translate(-22,-6) scale(1,1)"><rect fill="#ffffff" stroke="none" x="168" y="152" width="108.455078125" height="59"/></g><g transform="translate(-22,-6) scale(1,1)"><path fill="none" stroke="#000000" d="M 168 152 L 276.455078125 152 L 276.455078125 211 L 168 211 L 168 152 Z Z" stroke-miterlimit="10"/></g><g transform="translate(-22,-6) scale(1,1)"><path fill="none" stroke="#000000" d="M 168 192 L 276.455078125 192" stroke-miterlimit="10"/></g><g transform="translate(-22,-6) scale(1,1)"><path fill="none" stroke="#000000" d="M 168 202 L 276.455078125 202" stroke-miterlimit="10"/></g><g transform="translate(-22,-6) scale(1,1)"><g><path fill="none" stroke="none"/><text fill="#000000" stroke="none" font-family="Arial" font-size="13px" font-style="normal" font-weight="bold" text-decoration="none" x="175.613525390625" y="171.5">ShaderManager</text></g></g><g transform="translate(-22,-6) scale(1,1)"><g><path fill="none" stroke="none"/><text fill="#000000" stroke="none" font-family="Arial" font-size="13px" font-style="normal" font-weight="normal" text-decoration="none" x="174.1884765625" y="186.5">(from Managers)</text></g></g><g transform="translate(-22,-6) scale(1,1)"><rect fill="#C0C0C0" stroke="none" x="455" y="23" width="131.09716796875" height="59" opacity="0.2"/></g><g transform="translate(-22,-6) scale(1,1)"><rect fill="#ffff91" stroke="none" x="448" y="16" width="131.09716796875" height="59"/></g><g transform="translate(-22,-6) scale(1,1)"><path fill="none" stroke="#000000" d="M 448 16 L 579.09716796875 16 L 579.09716796875 75 L 448 75 L 448 16 Z Z" stroke-miterlimit="10"/></g><g transform="translate(-22,-6) scale(1,1)"><path fill="none" stroke="#000000" d="M 448 56 L 579.09716796875 56" stroke-miterlimit="10"/></g><g transform="translate(-22,-6) scale(1,1)"><path fill="none" stroke="#000000" d="M 448 66 L 579.09716796875 66" stroke-miterlimit="10"/></g><g transform="translate(-22,-6) scale(1,1)"><g><path fill="none" stroke="none"/><text fill="#000000" stroke="none" font-family="Arial" font-size="13px" font-style="italic" font-weight="bold" text-decoration="none" x="455.740478515625" y="35.5">AResourceManager</text></g></g><g transform="translate(-22,-6) scale(1,1)"><g><path fill="none" stroke="none"/><text fill="#000000" stroke="none" font-family="Arial" font-size="13px" font-style="normal" font-weight="normal" text-decoration="none" x="465.509521484375" y="50.5">(from Managers)</text></g></g><g transform="translate(-22,-6) scale(1,1)"><path fill="none" stroke="#000000" d="M 222 152 L 222 56 L 448 56" stroke-miterlimit="10"/></g><g transform="translate(-22,-6) scale(1,1)"><path fill="#FFFFFF" stroke="none" d="M 427.6746502847517 64.41903551203198 L 448 56 L 427.6746502847517 47.580964487968025"/></g><g transform="translate(-22,-6) scale(1,1)"><path fill="none" stroke="#000000" d="M 427.6746502847517 64.41903551203198 L 448 56 L 427.6746502847517 47.580964487968025 L 427.6746502847517 64.41903551203198" stroke-miterlimit="10"/></g><g transform="translate(-22,-6) scale(1,1)"><rect fill="#C0C0C0" stroke="none" x="463" y="159" width="108.455078125" height="59" opacity="0.2"/></g><g transform="translate(-22,-6) scale(1,1)"><rect fill="#ffffff" stroke="none" x="456" y="152" width="108.455078125" height="59"/></g><g transform="translate(-22,-6) scale(1,1)"><path fill="none" stroke="#000000" d="M 456 152 L 564.455078125 152 L 564.455078125 211 L 456 211 L 456 152 Z Z" stroke-miterlimit="10"/></g><g transform="translate(-22,-6) scale(1,1)"><path fill="none" stroke="#000000" d="M 456 192 L 564.455078125 192" stroke-miterlimit="10"/></g><g transform="translate(-22,-6) scale(1,1)"><path fill="none" stroke="#000000" d="M 456 202 L 564.455078125 202" stroke-miterlimit="10"/></g><g transform="translate(-22,-6) scale(1,1)"><g><path fill="none" stroke="none"/><text fill="#000000" stroke="none" font-family="Arial" font-size="13px" font-style="normal" font-weight="bold" text-decoration="none" x="463.258056640625" y="171.5">TextureManager</text></g></g><g transform="translate(-22,-6) scale(1,1)"><g><path fill="none" stroke="none"/><text fill="#000000" stroke="none" font-family="Arial" font-size="13px" font-style="normal" font-weight="normal" text-decoration="none" x="462.1884765625" y="186.5">(from Managers)</text></g></g><g transform="translate(-22,-6) scale(1,1)"><rect fill="#C0C0C0" stroke="none" x="751" y="159" width="108.455078125" height="59" opacity="0.2"/></g><g transform="translate(-22,-6) scale(1,1)"><rect fill="#ffffff" stroke="none" x="744" y="152" width="108.455078125" height="59"/></g><g transform="translate(-22,-6) scale(1,1)"><path fill="none" stroke="#000000" d="M 744 152 L 852.455078125 152 L 852.455078125 211 L 744 211 L 744 152 Z Z" stroke-miterlimit="10"/></g><g transform="translate(-22,-6) scale(1,1)"><path fill="none" stroke="#000000" d="M 744 192 L 852.455078125 192" stroke-miterlimit="10"/></g><g transform="translate(-22,-6) scale(1,1)"><path fill="none" stroke="#000000" d="M 744 202 L 852.455078125 202" stroke-miterlimit="10"/></g><g transform="translate(-22,-6) scale(1,1)"><g><path fill="none" stroke="none"/><text fill="#000000" stroke="none" font-family="Arial" font-size="13px" font-style="normal" font-weight="bold" text-decoration="none" x="754.869873046875" y="171.5">ModelManager</text></g></g><g transform="translate(-22,-6) scale(1,1)"><g><path fill="none" stroke="none"/><text fill="#000000" stroke="none" font-family="Arial" font-size="13px" font-style="normal" font-weight="normal" text-decoration="none" x="750.1884765625" y="186.5">(from Managers)</text></g></g><g transform="translate(-22,-6) scale(1,1)"><path fill="none" stroke="#000000" d="M 512 152 L 512 75" stroke-miterlimit="10"/></g><g transform="translate(-22,-6) scale(1,1)"><path fill="#FFFFFF" stroke="none" d="M 520.419035512032 95.32534971524831 L 512 75 L 503.580964487968 95.32534971524831"/></g><g transform="translate(-22,-6) scale(1,1)"><path fill="none" stroke="#000000" d="M 520.419035512032 95.32534971524831 L 512 75 L 503.580964487968 95.32534971524831 L 520.419035512032 95.32534971524831" stroke-miterlimit="10"/></g><g transform="translate(-22,-6) scale(1,1)"><path fill="none" stroke="#000000" d="M 798 152 L 798 56 L 579 56" stroke-miterlimit="10"/></g><g transform="translate(-22,-6) scale(1,1)"><path fill="#FFFFFF" stroke="none" d="M 599.3253497152483 47.580964487968025 L 579 56 L 599.3253497152483 64.41903551203197"/></g><g transform="translate(-22,-6) scale(1,1)"><path fill="none" stroke="#000000" d="M 599.3253497152483 47.580964487968025 L 579 56 L 599.3253497152483 64.41903551203197 L 599.3253497152483 47.580964487968025" stroke-miterlimit="10"/></g><g transform="translate(-22,-6) scale(1,1)"><path fill="none" stroke="#000000" d="M 248 211 L 248 333 L 448 333" stroke-miterlimit="10"/></g><g transform="translate(-22,-6) scale(1,1)"><path fill="#000000" stroke="none" d="M 437.83732514237585 337.209517756016 L 448 333 L 437.83732514237585 328.790482243984 L 426 333"/></g><g transform="translate(-22,-6) scale(1,1)"><path fill="none" stroke="#000000" d="M 437.83732514237585 337.209517756016 L 448 333 L 437.83732514237585 328.790482243984 L 426 333 L 437.83732514237585 337.209517756016" stroke-miterlimit="10"/></g><g transform="translate(-22,-6) scale(1,1)"><path fill="none" stroke="#000000" d="M 510 211 L 510 304" stroke-miterlimit="10"/></g><g transform="translate(-22,-6) scale(1,1)"><path fill="#000000" stroke="none" d="M 505.790482243984 293.83732514237585 L 510 304 L 514.209517756016 293.83732514237585 L 510 282"/></g><g transform="translate(-22,-6) scale(1,1)"><path fill="none" stroke="#000000" d="M 505.790482243984 293.83732514237585 L 510 304 L 514.209517756016 293.83732514237585 L 510 282 L 505.790482243984 293.83732514237585" stroke-miterlimit="10"/></g><g transform="translate(-22,-6) scale(1,1)"><path fill="none" stroke="#000000" d="M 798 211 L 798 333 L 575 333" stroke-miterlimit="10"/></g><g transform="translate(-22,-6) scale(1,1)"><path fill="#000000" stroke="none" d="M 585.1626748576241 328.790482243984 L 575 333 L 585.1626748576241 337.209517756016 L 597 333"/></g><g transform="translate(-22,-6) scale(1,1)"><path fill="none" stroke="#000000" d="M 585.1626748576241 328.790482243984 L 575 333 L 585.1626748576241 337.209517756016 L 597 333 L 585.1626748576241 328.790482243984" stroke-miterlimit="10"/></g><g transform="translate(-22,-6) scale(1,1)"><rect fill="#C0C0C0" stroke="none" x="687" y="463" width="109.4072265625" height="59" opacity="0.2"/></g><g transform="translate(-22,-6) scale(1,1)"><rect fill="#ffffff" stroke="none" x="680" y="456" width="109.4072265625" height="59"/></g><g transform="translate(-22,-6) scale(1,1)"><path fill="none" stroke="#000000" d="M 680 456 L 789.4072265625 456 L 789.4072265625 515 L 680 515 L 680 456 Z Z" stroke-miterlimit="10"/></g><g transform="translate(-22,-6) scale(1,1)"><path fill="none" stroke="#000000" d="M 680 496 L 789.4072265625 496" stroke-miterlimit="10"/></g><g transform="translate(-22,-6) scale(1,1)"><path fill="none" stroke="#000000" d="M 680 506 L 789.4072265625 506" stroke-miterlimit="10"/></g><g transform="translate(-22,-6) scale(1,1)"><g><path fill="none" stroke="none"/><text fill="#000000" stroke="none" font-family="Arial" font-size="13px" font-style="normal" font-weight="bold" text-decoration="none" x="713.38818359375" y="475.5">Texture</text></g></g><g transform="translate(-22,-6) scale(1,1)"><g><path fill="none" stroke="none"/><text fill="#000000" stroke="none" font-family="Arial" font-size="13px" font-style="normal" font-weight="normal" text-decoration="none" x="684.5" y="490.5">(from Resources)</text></g></g><g transform="translate(-22,-6) scale(1,1)"><rect fill="#C0C0C0" stroke="none" x="175" y="463" width="109.4072265625" height="59" opacity="0.2"/></g><g transform="translate(-22,-6) scale(1,1)"><rect fill="#ffffff" stroke="none" x="168" y="456" width="109.4072265625" height="59"/></g><g transform="translate(-22,-6) scale(1,1)"><path fill="none" stroke="#000000" d="M 168 456 L 277.4072265625 456 L 277.4072265625 515 L 168 515 L 168 456 Z Z" stroke-miterlimit="10"/></g><g transform="translate(-22,-6) scale(1,1)"><path fill="none" stroke="#000000" d="M 168 496 L 277.4072265625 496" stroke-miterlimit="10"/></g><g transform="translate(-22,-6) scale(1,1)"><path fill="none" stroke="#000000" d="M 168 506 L 277.4072265625 506" stroke-miterlimit="10"/></g><g transform="translate(-22,-6) scale(1,1)"><g><path fill="none" stroke="none"/><text fill="#000000" stroke="none" font-family="Arial" font-size="13px" font-style="normal" font-weight="bold" text-decoration="none" x="201.74365234375" y="475.5">Shader</text></g></g><g transform="translate(-22,-6) scale(1,1)"><g><path fill="none" stroke="none"/><text fill="#000000" stroke="none" font-family="Arial" font-size="13px" font-style="normal" font-weight="normal" text-decoration="none" x="172.5" y="490.5">(from Resources)</text></g></g><g transform="translate(-22,-6) scale(1,1)"><rect fill="#C0C0C0" stroke="none" x="879" y="463" width="109.4072265625" height="59" opacity="0.2"/></g><g transform="translate(-22,-6) scale(1,1)"><rect fill="#ffffff" stroke="none" x="872" y="456" width="109.4072265625" height="59"/></g><g transform="translate(-22,-6) scale(1,1)"><path fill="none" stroke="#000000" d="M 872 456 L 981.4072265625 456 L 981.4072265625 515 L 872 515 L 872 456 Z Z" stroke-miterlimit="10"/></g><g transform="translate(-22,-6) scale(1,1)"><path fill="none" stroke="#000000" d="M 872 496 L 981.4072265625 496" stroke-miterlimit="10"/></g><g transform="translate(-22,-6) scale(1,1)"><path fill="none" stroke="#000000" d="M 872 506 L 981.4072265625 506" stroke-miterlimit="10"/></g><g transform="translate(-22,-6) scale(1,1)"><g><path fill="none" stroke="none"/><text fill="#000000" stroke="none" font-family="Arial" font-size="13px" font-style="normal" font-weight="bold" text-decoration="none" x="909" y="475.5">Model</text></g></g><g transform="translate(-22,-6) scale(1,1)"><g><path fill="none" stroke="none"/><text fill="#000000" stroke="none" font-family="Arial" font-size="13px" font-style="normal" font-weight="normal" text-decoration="none" x="876.5" y="490.5">(from Resources)</text></g></g><g transform="translate(-22,-6) scale(1,1)"><rect fill="#C0C0C0" stroke="none" x="167" y="823" width="131.80810546875" height="59" opacity="0.2"/></g><g transform="translate(-22,-6) scale(1,1)"><rect fill="#ffffff" stroke="none" x="160" y="816" width="131.80810546875" height="59"/></g><g transform="translate(-22,-6) scale(1,1)"><path fill="none" stroke="#000000" d="M 160 816 L 291.80810546875 816 L 291.80810546875 875 L 160 875 L 160 816 Z Z" stroke-miterlimit="10"/></g><g transform="translate(-22,-6) scale(1,1)"><path fill="none" stroke="#000000" d="M 160 856 L 291.80810546875 856" stroke-miterlimit="10"/></g><g transform="translate(-22,-6) scale(1,1)"><path fill="none" stroke="#000000" d="M 160 866 L 291.80810546875 866" stroke-miterlimit="10"/></g><g transform="translate(-22,-6) scale(1,1)"><g><path fill="none" stroke="none"/><text fill="#000000" stroke="none" font-family="Arial" font-size="13px" font-style="normal" font-weight="bold" text-decoration="none" x="167.372314453125" y="835.5">ModelRendererData</text></g></g><g transform="translate(-22,-6) scale(1,1)"><g><path fill="none" stroke="none"/><text fill="#000000" stroke="none" font-family="Arial" font-size="13px" font-style="normal" font-weight="normal" text-decoration="none" x="193.0390625" y="850.5">(from Data)</text></g></g><g transform="translate(-22,-6) scale(1,1)"><rect fill="#C0C0C0" stroke="none" x="247" y="591" width="120.9853515625" height="59" opacity="0.2"/></g><g transform="translate(-22,-6) scale(1,1)"><rect fill="#ffffff" stroke="none" x="240" y="584" width="120.9853515625" height="59"/></g><g transform="translate(-22,-6) scale(1,1)"><path fill="none" stroke="#000000" d="M 240 584 L 360.9853515625 584 L 360.9853515625 643 L 240 643 L 240 584 Z Z" stroke-miterlimit="10"/></g><g transform="translate(-22,-6) scale(1,1)"><path fill="none" stroke="#000000" d="M 240 624 L 360.9853515625 624" stroke-miterlimit="10"/></g><g transform="translate(-22,-6) scale(1,1)"><path fill="none" stroke="#000000" d="M 240 634 L 360.9853515625 634" stroke-miterlimit="10"/></g><g transform="translate(-22,-6) scale(1,1)"><g><path fill="none" stroke="none"/><text fill="#000000" stroke="none" font-family="Arial" font-size="13px" font-style="normal" font-weight="bold" text-decoration="none" x="247.74365234375" y="603.5">TextRendererData</text></g></g><g transform="translate(-22,-6) scale(1,1)"><g><path fill="none" stroke="none"/><text fill="#000000" stroke="none" font-family="Arial" font-size="13px" font-style="normal" font-weight="normal" text-decoration="none" x="267.627685546875" y="618.5">(from Data)</text></g></g><g transform="translate(-22,-6) scale(1,1)"><path fill="none" stroke="#000000" d="M 222 456 L 222 211" stroke-miterlimit="10"/></g><g transform="translate(-22,-6) scale(1,1)"><path fill="#000000" stroke="none" d="M 226.209517756016 221.16267485762415 L 222 211 L 217.790482243984 221.16267485762415 L 222 233"/></g><g transform="translate(-22,-6) scale(1,1)"><path fill="none" stroke="#000000" d="M 226.209517756016 221.16267485762415 L 222 211 L 217.790482243984 221.16267485762415 L 222 233 L 226.209517756016 221.16267485762415" stroke-miterlimit="10"/></g><g transform="translate(-22,-6) scale(1,1)"><path fill="none" stroke="#000000" d="M 264 515 L 264 584" stroke-miterlimit="10"/></g><g transform="translate(-22,-6) scale(1,1)"><path fill="#FFFFFF" stroke="none" d="M 259.790482243984 573.8373251423759 L 264 584 L 268.209517756016 573.8373251423759 L 264 562"/></g><g transform="translate(-22,-6) scale(1,1)"><path fill="none" stroke="#000000" d="M 259.790482243984 573.8373251423759 L 264 584 L 268.209517756016 573.8373251423759 L 264 562 L 259.790482243984 573.8373251423759" stroke-miterlimit="10"/></g><g transform="translate(-22,-6) scale(1,1)"><path fill="none" stroke="#000000" d="M 222 515 L 222 816" stroke-miterlimit="10"/></g><g transform="translate(-22,-6) scale(1,1)"><path fill="#FFFFFF" stroke="none" d="M 217.790482243984 805.8373251423759 L 222 816 L 226.209517756016 805.8373251423759 L 222 794"/></g><g transform="translate(-22,-6) scale(1,1)"><path fill="none" stroke="#000000" d="M 217.790482243984 805.8373251423759 L 222 816 L 226.209517756016 805.8373251423759 L 222 794 L 217.790482243984 805.8373251423759" stroke-miterlimit="10"/></g><g transform="translate(-22,-6) scale(1,1)"><path fill="none" stroke="#000000" d="M 928 515 L 928 856 L 292 856" stroke-miterlimit="10"/></g><g transform="translate(-22,-6) scale(1,1)"><path fill="#FFFFFF" stroke="none" d="M 302.16267485762415 851.790482243984 L 292 856 L 302.16267485762415 860.209517756016 L 314 856"/></g><g transform="translate(-22,-6) scale(1,1)"><path fill="none" stroke="#000000" d="M 302.16267485762415 851.790482243984 L 292 856 L 302.16267485762415 860.209517756016 L 314 856 L 302.16267485762415 851.790482243984" stroke-miterlimit="10"/></g><g transform="translate(-22,-6) scale(1,1)"><path fill="none" stroke="#000000" d="M 928 456 L 928 184 L 852 184" stroke-miterlimit="10"/></g><g transform="translate(-22,-6) scale(1,1)"><path fill="#000000" stroke="none" d="M 862.1626748576241 179.790482243984 L 852 184 L 862.1626748576241 188.209517756016 L 874 184"/></g><g transform="translate(-22,-6) scale(1,1)"><path fill="none" stroke="#000000" d="M 862.1626748576241 179.790482243984 L 852 184 L 862.1626748576241 188.209517756016 L 874 184 L 862.1626748576241 179.790482243984" stroke-miterlimit="10"/></g><g transform="translate(-22,-6) scale(1,1)"><rect fill="#C0C0C0" stroke="none" x="471" y="463" width="131.09716796875" height="59" opacity="0.2"/></g><g transform="translate(-22,-6) scale(1,1)"><rect fill="#ffffff" stroke="none" x="464" y="456" width="131.09716796875" height="59"/></g><g transform="translate(-22,-6) scale(1,1)"><path fill="none" stroke="#000000" d="M 464 456 L 595.09716796875 456 L 595.09716796875 515 L 464 515 L 464 456 Z Z" stroke-miterlimit="10"/></g><g transform="translate(-22,-6) scale(1,1)"><path fill="none" stroke="#000000" d="M 464 496 L 595.09716796875 496" stroke-miterlimit="10"/></g><g transform="translate(-22,-6) scale(1,1)"><path fill="none" stroke="#000000" d="M 464 506 L 595.09716796875 506" stroke-miterlimit="10"/></g><g transform="translate(-22,-6) scale(1,1)"><g><path fill="none" stroke="none"/><text fill="#000000" stroke="none" font-family="Arial" font-size="13px" font-style="normal" font-weight="bold" text-decoration="none" x="471.740478515625" y="475.5">SpriteRendererData</text></g></g><g transform="translate(-22,-6) scale(1,1)"><g><path fill="none" stroke="none"/><text fill="#000000" stroke="none" font-family="Arial" font-size="13px" font-style="normal" font-weight="normal" text-decoration="none" x="496.68359375" y="490.5">(from Data)</text></g></g><g transform="translate(-22,-6) scale(1,1)"><path fill="none" stroke="#000000" d="M 734 456 L 734 280 L 534 280 L 534 211" stroke-miterlimit="10"/></g><g transform="translate(-22,-6) scale(1,1)"><path fill="#000000" stroke="none" d="M 538.209517756016 221.16267485762415 L 534 211 L 529.790482243984 221.16267485762415 L 534 233"/></g><g transform="translate(-22,-6) scale(1,1)"><path fill="none" stroke="#000000" d="M 538.209517756016 221.16267485762415 L 534 211 L 529.790482243984 221.16267485762415 L 534 233 L 538.209517756016 221.16267485762415" stroke-miterlimit="10"/></g><g transform="translate(-22,-6) scale(1,1)"><path fill="none" stroke="#000000" d="M 680 485 L 595 485" stroke-miterlimit="10"/></g><g transform="translate(-22,-6) scale(1,1)"><path fill="#FFFFFF" stroke="none" d="M 605.1626748576241 480.790482243984 L 595 485 L 605.1626748576241 489.209517756016 L 617 485"/></g><g transform="translate(-22,-6) scale(1,1)"><path fill="none" stroke="#000000" d="M 605.1626748576241 480.790482243984 L 595 485 L 605.1626748576241 489.209517756016 L 617 485 L 605.1626748576241 480.790482243984" stroke-miterlimit="10"/></g><g transform="translate(-22,-6) scale(1,1)"><path fill="none" stroke="#000000" d="M 277 485 L 464 485" stroke-miterlimit="10"/></g><g transform="translate(-22,-6) scale(1,1)"><path fill="#FFFFFF" stroke="none" d="M 453.83732514237585 489.209517756016 L 464 485 L 453.83732514237585 480.790482243984 L 442 485"/></g><g transform="translate(-22,-6) scale(1,1)"><path fill="none" stroke="#000000" d="M 453.83732514237585 489.209517756016 L 464 485 L 453.83732514237585 480.790482243984 L 442 485 L 453.83732514237585 489.209517756016" stroke-miterlimit="10"/></g><g transform="translate(-22,-6) scale(1,1)"><path fill="#C0C0C0" stroke="none" d="M 521.127685546875 618.5 C 521.127685546875 612.1487248 526.276410346875 607 532.627685546875 607 C 538.978960746875 607 544.127685546875 612.1487248 544.127685546875 618.5 C 544.127685546875 624.8512752 538.978960746875 630 532.627685546875 630 C 526.276410346875 630 521.127685546875 624.8512752 521.127685546875 618.5 Z" opacity="0.2"/></g><g transform="translate(-22,-6) scale(1,1)"><path fill="#ffff91" stroke="none" d="M 514.127685546875 611.5 C 514.127685546875 605.1487248 519.276410346875 600 525.627685546875 600 C 531.978960746875 600 537.127685546875 605.1487248 537.127685546875 611.5 C 537.127685546875 617.8512752 531.978960746875 623 525.627685546875 623 C 519.276410346875 623 514.127685546875 617.8512752 514.127685546875 611.5 Z"/></g><g transform="translate(-22,-6) scale(1,1)"><path fill="none" stroke="#000000" d="M 514.127685546875 611.5 C 514.127685546875 605.1487248 519.276410346875 600 525.627685546875 600 C 531.978960746875 600 537.127685546875 605.1487248 537.127685546875 611.5 C 537.127685546875 617.8512752 531.978960746875 623 525.627685546875 623 C 519.276410346875 623 514.127685546875 617.8512752 514.127685546875 611.5 Z" stroke-miterlimit="10"/></g><g transform="translate(-22,-6) scale(1,1)"><g><path fill="none" stroke="none"/><text fill="#000000" stroke="none" font-family="Arial" font-size="13px" font-style="normal" font-weight="bold" text-decoration="none" x="490.214111328125" y="642.5">IRenderable</text></g></g><g transform="translate(-22,-6) scale(1,1)"><g><path fill="none" stroke="none"/><text fill="#000000" stroke="none" font-family="Arial" font-size="13px" font-style="normal" font-weight="normal" text-decoration="none" x="476.5" y="657.5">(from Rendering)</text></g></g><g transform="translate(-22,-6) scale(1,1)"><path fill="none" stroke="#000000" d="M 361 611 L 514.127685546875 611" stroke-miterlimit="10"/></g><g transform="translate(-22,-6) scale(1,1)"><path fill="none" stroke="#000000" d="M 292 832 L 525 832 L 525 623" stroke-miterlimit="10"/></g><g transform="translate(-22,-6) scale(1,1)"><path fill="none" stroke="#000000" d="M 524 515 L 524 600" stroke-miterlimit="10"/></g><g transform="translate(-22,-6) scale(1,1)"><path fill="#C0C0C0" stroke="none" d="M 82.57177734375 170.5 C 82.57177734375 164.1487248 87.72050214375 159 94.07177734375 159 C 100.42305254375 159 105.57177734375 164.1487248 105.57177734375 170.5 C 105.57177734375 176.8512752 100.42305254375 182 94.07177734375 182 C 87.72050214375 182 82.57177734375 176.8512752 82.57177734375 170.5 Z" opacity="0.2"/></g><g transform="translate(-22,-6) scale(1,1)"><path fill="#ffff91" stroke="none" d="M 75.57177734375 163.5 C 75.57177734375 157.1487248 80.72050214375 152 87.07177734375 152 C 93.42305254375 152 98.57177734375 157.1487248 98.57177734375 163.5 C 98.57177734375 169.8512752 93.42305254375 175 87.07177734375 175 C 80.72050214375 175 75.57177734375 169.8512752 75.57177734375 163.5 Z"/></g><g transform="translate(-22,-6) scale(1,1)"><path fill="none" stroke="#000000" d="M 75.57177734375 163.5 C 75.57177734375 157.1487248 80.72050214375 152 87.07177734375 152 C 93.42305254375 152 98.57177734375 157.1487248 98.57177734375 163.5 C 98.57177734375 169.8512752 93.42305254375 175 87.07177734375 175 C 80.72050214375 175 75.57177734375 169.8512752 75.57177734375 163.5 Z" stroke-miterlimit="10"/></g><g transform="translate(-22,-6) scale(1,1)"><g><path fill="none" stroke="none"/><text fill="#000000" stroke="none" font-family="Arial" font-size="13px" font-style="normal" font-weight="bold" text-decoration="none" x="38.65185546875" y="194.5">IShaderManager</text></g></g><g transform="translate(-22,-6) scale(1,1)"><g><path fill="none" stroke="none"/><text fill="#000000" stroke="none" font-family="Arial" font-size="13px" font-style="normal" font-weight="normal" text-decoration="none" x="39.03271484375" y="209.5">(from Managers)</text></g></g><g transform="translate(-22,-6) scale(1,1)"><path fill="#C0C0C0" stroke="none" d="M 371.533447265625 170.5 C 371.533447265625 164.1487248 376.682172065625 159 383.033447265625 159 C 389.384722465625 159 394.533447265625 164.1487248 394.533447265625 170.5 C 394.533447265625 176.8512752 389.384722465625 182 383.033447265625 182 C 376.682172065625 182 371.533447265625 176.8512752 371.533447265625 170.5 Z" opacity="0.2"/></g><g transform="translate(-22,-6) scale(1,1)"><path fill="#ffff91" stroke="none" d="M 364.533447265625 163.5 C 364.533447265625 157.1487248 369.682172065625 152 376.033447265625 152 C 382.384722465625 152 387.533447265625 157.1487248 387.533447265625 163.5 C 387.533447265625 169.8512752 382.384722465625 175 376.033447265625 175 C 369.682172065625 175 364.533447265625 169.8512752 364.533447265625 163.5 Z"/></g><g transform="translate(-22,-6) scale(1,1)"><path fill="none" stroke="#000000" d="M 364.533447265625 163.5 C 364.533447265625 157.1487248 369.682172065625 152 376.033447265625 152 C 382.384722465625 152 387.533447265625 157.1487248 387.533447265625 163.5 C 387.533447265625 169.8512752 382.384722465625 175 376.033447265625 175 C 369.682172065625 175 364.533447265625 169.8512752 364.533447265625 163.5 Z" stroke-miterlimit="10"/></g><g transform="translate(-22,-6) scale(1,1)"><g><path fill="none" stroke="none"/><text fill="#000000" stroke="none" font-family="Arial" font-size="13px" font-style="normal" font-weight="bold" text-decoration="none" x="327.258056640625" y="194.5">ITextureManager</text></g></g><g transform="translate(-22,-6) scale(1,1)"><g><path fill="none" stroke="none"/><text fill="#000000" stroke="none" font-family="Arial" font-size="13px" font-style="normal" font-weight="normal" text-decoration="none" x="327.994384765625" y="209.5">(from Managers)</text></g></g><g transform="translate(-22,-6) scale(1,1)"><path fill="#C0C0C0" stroke="none" d="M 656.0390625 170.5 C 656.0390625 164.1487248 661.1877873 159 667.5390625 159 C 673.8903377 159 679.0390625 164.1487248 679.0390625 170.5 C 679.0390625 176.8512752 673.8903377 182 667.5390625 182 C 661.1877873 182 656.0390625 176.8512752 656.0390625 170.5 Z" opacity="0.2"/></g><g transform="translate(-22,-6) scale(1,1)"><path fill="#ffff91" stroke="none" d="M 649.0390625 163.5 C 649.0390625 157.1487248 654.1877873 152 660.5390625 152 C 666.8903377 152 672.0390625 157.1487248 672.0390625 163.5 C 672.0390625 169.8512752 666.8903377 175 660.5390625 175 C 654.1877873 175 649.0390625 169.8512752 649.0390625 163.5 Z"/></g><g transform="translate(-22,-6) scale(1,1)"><path fill="none" stroke="#000000" d="M 649.0390625 163.5 C 649.0390625 157.1487248 654.1877873 152 660.5390625 152 C 666.8903377 152 672.0390625 157.1487248 672.0390625 163.5 C 672.0390625 169.8512752 666.8903377 175 660.5390625 175 C 654.1877873 175 649.0390625 169.8512752 649.0390625 163.5 Z" stroke-miterlimit="10"/></g><g transform="translate(-22,-6) scale(1,1)"><g><path fill="none" stroke="none"/><text fill="#000000" stroke="none" font-family="Arial" font-size="13px" font-style="normal" font-weight="bold" text-decoration="none" x="615.37548828125" y="194.5">IModelManager</text></g></g><g transform="translate(-22,-6) scale(1,1)"><g><path fill="none" stroke="none"/><text fill="#000000" stroke="none" font-family="Arial" font-size="13px" font-style="normal" font-weight="normal" text-decoration="none" x="612.5" y="209.5">(from Managers)</text></g></g><g transform="translate(-22,-6) scale(1,1)"><path fill="none" stroke="#000000" d="M 168 163 L 98.57177734375 163" stroke-miterlimit="10"/></g><g transform="translate(-22,-6) scale(1,1)"><path fill="none" stroke="#000000" d="M 456 163 L 387.533447265625 163" stroke-miterlimit="10"/></g><g transform="translate(-22,-6) scale(1,1)"><path fill="none" stroke="#000000" d="M 744 163 L 672.0390625 163" stroke-miterlimit="10"/></g><g transform="translate(-22,-6) scale(1,1)"><rect fill="#C0C0C0" stroke="none" x="343" y="391" width="84.87353515625" height="59" opacity="0.2"/></g><g transform="translate(-22,-6) scale(1,1)"><rect fill="#ffffff" stroke="none" x="336" y="384" width="84.87353515625" height="59"/></g><g transform="translate(-22,-6) scale(1,1)"><path fill="none" stroke="#000000" d="M 336 384 L 420.87353515625 384 L 420.87353515625 443 L 336 443 L 336 384 Z Z" stroke-miterlimit="10"/></g><g transform="translate(-22,-6) scale(1,1)"><path fill="none" stroke="#000000" d="M 336 424 L 420.87353515625 424" stroke-miterlimit="10"/></g><g transform="translate(-22,-6) scale(1,1)"><path fill="none" stroke="#000000" d="M 336 434 L 420.87353515625 434" stroke-miterlimit="10"/></g><g transform="translate(-22,-6) scale(1,1)"><g><path fill="none" stroke="none"/><text fill="#000000" stroke="none" font-family="Arial" font-size="13px" font-style="normal" font-weight="bold" text-decoration="none" x="341.588623046875" y="403.5">CameraData</text></g></g><g transform="translate(-22,-6) scale(1,1)"><g><path fill="none" stroke="none"/><text fill="#000000" stroke="none" font-family="Arial" font-size="13px" font-style="normal" font-weight="normal" text-decoration="none" x="345.57177734375" y="418.5">(from Data)</text></g></g><g transform="translate(-22,-6) scale(1,1)"><path fill="none" stroke="#000000" d="M 421 421 L 512 421 L 512 363" stroke-miterlimit="10"/></g><g transform="translate(-22,-6) scale(1,1)"><path fill="#FFFFFF" stroke="none" d="M 516.209517756016 373.16267485762415 L 512 363 L 507.790482243984 373.16267485762415 L 512 385"/></g><g transform="translate(-22,-6) scale(1,1)"><path fill="none" stroke="#000000" d="M 516.209517756016 373.16267485762415 L 512 363 L 507.790482243984 373.16267485762415 L 512 385 L 516.209517756016 373.16267485762415" stroke-miterlimit="10"/></g></g></svg>