<svg version="1.1" xmlns="http://www.w3.org/2000/svg" xmlns:xlink="http://www.w3.org/1999/xlink" width="855.3544921875" height="423"><defs/><g><g transform="translate(-22,-26) scale(1,1)"><path fill="#C0C0C0" stroke="none" d="M 92.67724609375 54.5 C 92.67724609375 48.1487248 97.82597089375 43 104.17724609375 43 C 110.52852129375 43 115.67724609375 48.1487248 115.67724609375 54.5 C 115.67724609375 60.8512752 110.52852129375 66 104.17724609375 66 C 97.82597089375 66 92.67724609375 60.8512752 92.67724609375 54.5 Z" opacity="0.2"/></g><g transform="translate(-22,-26) scale(1,1)"><path fill="#ffffff" stroke="none" d="M 85.67724609375 47.5 C 85.67724609375 41.1487248 90.82597089375 36 97.17724609375 36 C 103.52852129375 36 108.67724609375 41.1487248 108.67724609375 47.5 C 108.67724609375 53.8512752 103.52852129375 59 97.17724609375 59 C 90.82597089375 59 85.67724609375 53.8512752 85.67724609375 47.5 Z"/></g><g transform="translate(-22,-26) scale(1,1)"><path fill="none" stroke="#000000" d="M 85.67724609375 47.5 C 85.67724609375 41.1487248 90.82597089375 36 97.17724609375 36 C 103.52852129375 36 108.67724609375 41.1487248 108.67724609375 47.5 C 108.67724609375 53.8512752 103.52852129375 59 97.17724609375 59 C 90.82597089375 59 85.67724609375 53.8512752 85.67724609375 47.5 Z" stroke-miterlimit="10"/></g><g transform="translate(-22,-26) scale(1,1)"><g><path fill="none" stroke="none"/><text fill="#000000" stroke="none" font-family="Arial" font-size="13px" font-style="normal" font-weight="bold" text-decoration="none" x="55.260498046875" y="78.5">IInputManager</text></g></g><g transform="translate(-22,-26) scale(1,1)"><g><path fill="none" stroke="none"/><text fill="#000000" stroke="none" font-family="Arial" font-size="13px" font-style="normal" font-weight="normal" text-decoration="none" x="49.13818359375" y="93.5">(from Managers)</text></g></g><g transform="translate(-22,-26) scale(1,1)"><path fill="#C0C0C0" stroke="none" d="M 233.67724609375 54.5 C 233.67724609375 48.1487248 238.82597089375 43 245.17724609375 43 C 251.52852129375 43 256.67724609375 48.1487248 256.67724609375 54.5 C 256.67724609375 60.8512752 251.52852129375 66 245.17724609375 66 C 238.82597089375 66 233.67724609375 60.8512752 233.67724609375 54.5 Z" opacity="0.2"/></g><g transform="translate(-22,-26) scale(1,1)"><path fill="#ffffff" stroke="none" d="M 226.67724609375 47.5 C 226.67724609375 41.1487248 231.82597089375 36 238.17724609375 36 C 244.52852129375 36 249.67724609375 41.1487248 249.67724609375 47.5 C 249.67724609375 53.8512752 244.52852129375 59 238.17724609375 59 C 231.82597089375 59 226.67724609375 53.8512752 226.67724609375 47.5 Z"/></g><g transform="translate(-22,-26) scale(1,1)"><path fill="none" stroke="#000000" d="M 226.67724609375 47.5 C 226.67724609375 41.1487248 231.82597089375 36 238.17724609375 36 C 244.52852129375 36 249.67724609375 41.1487248 249.67724609375 47.5 C 249.67724609375 53.8512752 244.52852129375 59 238.17724609375 59 C 231.82597089375 59 226.67724609375 53.8512752 226.67724609375 47.5 Z" stroke-miterlimit="10"/></g><g transform="translate(-22,-26) scale(1,1)"><g><path fill="none" stroke="none"/><text fill="#000000" stroke="none" font-family="Arial" font-size="13px" font-style="normal" font-weight="bold" text-decoration="none" x="194.0927734375" y="78.5">IAudioManager</text></g></g><g transform="translate(-22,-26) scale(1,1)"><g><path fill="none" stroke="none"/><text fill="#000000" stroke="none" font-family="Arial" font-size="13px" font-style="normal" font-weight="normal" text-decoration="none" x="190.13818359375" y="93.5">(from Managers)</text></g></g><g transform="translate(-22,-26) scale(1,1)"><path fill="#C0C0C0" stroke="none" d="M 374.67724609375 54.5 C 374.67724609375 48.1487248 379.82597089375 43 386.17724609375 43 C 392.52852129375 43 397.67724609375 48.1487248 397.67724609375 54.5 C 397.67724609375 60.8512752 392.52852129375 66 386.17724609375 66 C 379.82597089375 66 374.67724609375 60.8512752 374.67724609375 54.5 Z" opacity="0.2"/></g><g transform="translate(-22,-26) scale(1,1)"><path fill="#ffffff" stroke="none" d="M 367.67724609375 47.5 C 367.67724609375 41.1487248 372.82597089375 36 379.17724609375 36 C 385.52852129375 36 390.67724609375 41.1487248 390.67724609375 47.5 C 390.67724609375 53.8512752 385.52852129375 59 379.17724609375 59 C 372.82597089375 59 367.67724609375 53.8512752 367.67724609375 47.5 Z"/></g><g transform="translate(-22,-26) scale(1,1)"><path fill="none" stroke="#000000" d="M 367.67724609375 47.5 C 367.67724609375 41.1487248 372.82597089375 36 379.17724609375 36 C 385.52852129375 36 390.67724609375 41.1487248 390.67724609375 47.5 C 390.67724609375 53.8512752 385.52852129375 59 379.17724609375 59 C 372.82597089375 59 367.67724609375 53.8512752 367.67724609375 47.5 Z" stroke-miterlimit="10"/></g><g transform="translate(-22,-26) scale(1,1)"><g><path fill="none" stroke="none"/><text fill="#000000" stroke="none" font-family="Arial" font-size="13px" font-style="normal" font-weight="bold" text-decoration="none" x="329.32275390625" y="78.5">IPhysicsManager</text></g></g><g transform="translate(-22,-26) scale(1,1)"><g><path fill="none" stroke="none"/><text fill="#000000" stroke="none" font-family="Arial" font-size="13px" font-style="normal" font-weight="normal" text-decoration="none" x="331.13818359375" y="93.5">(from Managers)</text></g></g><g transform="translate(-22,-26) scale(1,1)"><path fill="#C0C0C0" stroke="none" d="M 515.67724609375 54.5 C 515.67724609375 48.1487248 520.82597089375 43 527.17724609375 43 C 533.52852129375 43 538.67724609375 48.1487248 538.67724609375 54.5 C 538.67724609375 60.8512752 533.52852129375 66 527.17724609375 66 C 520.82597089375 66 515.67724609375 60.8512752 515.67724609375 54.5 Z" opacity="0.2"/></g><g transform="translate(-22,-26) scale(1,1)"><path fill="#ffffff" stroke="none" d="M 508.67724609375 47.5 C 508.67724609375 41.1487248 513.82597089375 36 520.17724609375 36 C 526.52852129375 36 531.67724609375 41.1487248 531.67724609375 47.5 C 531.67724609375 53.8512752 526.52852129375 59 520.17724609375 59 C 513.82597089375 59 508.67724609375 53.8512752 508.67724609375 47.5 Z"/></g><g transform="translate(-22,-26) scale(1,1)"><path fill="none" stroke="#000000" d="M 508.67724609375 47.5 C 508.67724609375 41.1487248 513.82597089375 36 520.17724609375 36 C 526.52852129375 36 531.67724609375 41.1487248 531.67724609375 47.5 C 531.67724609375 53.8512752 526.52852129375 59 520.17724609375 59 C 513.82597089375 59 508.67724609375 53.8512752 508.67724609375 47.5 Z" stroke-miterlimit="10"/></g><g transform="translate(-22,-26) scale(1,1)"><g><path fill="none" stroke="none"/><text fill="#000000" stroke="none" font-family="Arial" font-size="13px" font-style="normal" font-weight="bold" text-decoration="none" x="462.724609375" y="78.5">IRenderingManager</text></g></g><g transform="translate(-22,-26) scale(1,1)"><g><path fill="none" stroke="none"/><text fill="#000000" stroke="none" font-family="Arial" font-size="13px" font-style="normal" font-weight="normal" text-decoration="none" x="472.13818359375" y="93.5">(from Managers)</text></g></g><g transform="translate(-22,-26) scale(1,1)"><path fill="#C0C0C0" stroke="none" d="M 656.67724609375 54.5 C 656.67724609375 48.1487248 661.82597089375 43 668.17724609375 43 C 674.52852129375 43 679.67724609375 48.1487248 679.67724609375 54.5 C 679.67724609375 60.8512752 674.52852129375 66 668.17724609375 66 C 661.82597089375 66 656.67724609375 60.8512752 656.67724609375 54.5 Z" opacity="0.2"/></g><g transform="translate(-22,-26) scale(1,1)"><path fill="#ffffff" stroke="none" d="M 649.67724609375 47.5 C 649.67724609375 41.1487248 654.82597089375 36 661.17724609375 36 C 667.52852129375 36 672.67724609375 41.1487248 672.67724609375 47.5 C 672.67724609375 53.8512752 667.52852129375 59 661.17724609375 59 C 654.82597089375 59 649.67724609375 53.8512752 649.67724609375 47.5 Z"/></g><g transform="translate(-22,-26) scale(1,1)"><path fill="none" stroke="#000000" d="M 649.67724609375 47.5 C 649.67724609375 41.1487248 654.82597089375 36 661.17724609375 36 C 667.52852129375 36 672.67724609375 41.1487248 672.67724609375 47.5 C 672.67724609375 53.8512752 667.52852129375 59 661.17724609375 59 C 654.82597089375 59 649.67724609375 53.8512752 649.67724609375 47.5 Z" stroke-miterlimit="10"/></g><g transform="translate(-22,-26) scale(1,1)"><g><path fill="none" stroke="none"/><text fill="#000000" stroke="none" font-family="Arial" font-size="13px" font-style="normal" font-weight="bold" text-decoration="none" x="615.286865234375" y="78.5">ISceneManager</text></g></g><g transform="translate(-22,-26) scale(1,1)"><g><path fill="none" stroke="none"/><text fill="#000000" stroke="none" font-family="Arial" font-size="13px" font-style="normal" font-weight="normal" text-decoration="none" x="613.13818359375" y="93.5">(from Managers)</text></g></g><g transform="translate(-22,-26) scale(1,1)"><path fill="#C0C0C0" stroke="none" d="M 797.67724609375 54.5 C 797.67724609375 48.1487248 802.82597089375 43 809.17724609375 43 C 815.52852129375 43 820.67724609375 48.1487248 820.67724609375 54.5 C 820.67724609375 60.8512752 815.52852129375 66 809.17724609375 66 C 802.82597089375 66 797.67724609375 60.8512752 797.67724609375 54.5 Z" opacity="0.2"/></g><g transform="translate(-22,-26) scale(1,1)"><path fill="#ffffff" stroke="none" d="M 790.67724609375 47.5 C 790.67724609375 41.1487248 795.82597089375 36 802.17724609375 36 C 808.52852129375 36 813.67724609375 41.1487248 813.67724609375 47.5 C 813.67724609375 53.8512752 808.52852129375 59 802.17724609375 59 C 795.82597089375 59 790.67724609375 53.8512752 790.67724609375 47.5 Z"/></g><g transform="translate(-22,-26) scale(1,1)"><path fill="none" stroke="#000000" d="M 790.67724609375 47.5 C 790.67724609375 41.1487248 795.82597089375 36 802.17724609375 36 C 808.52852129375 36 813.67724609375 41.1487248 813.67724609375 47.5 C 813.67724609375 53.8512752 808.52852129375 59 802.17724609375 59 C 795.82597089375 59 790.67724609375 53.8512752 790.67724609375 47.5 Z" stroke-miterlimit="10"/></g><g transform="translate(-22,-26) scale(1,1)"><g><path fill="none" stroke="none"/><text fill="#000000" stroke="none" font-family="Arial" font-size="13px" font-style="normal" font-weight="bold" text-decoration="none" x="754.477783203125" y="78.5">IEngineManager</text></g></g><g transform="translate(-22,-26) scale(1,1)"><g><path fill="none" stroke="none"/><text fill="#000000" stroke="none" font-family="Arial" font-size="13px" font-style="normal" font-weight="normal" text-decoration="none" x="754.13818359375" y="93.5">(from Managers)</text></g></g><g transform="translate(-22,-26) scale(1,1)"><path fill="#C0C0C0" stroke="none" d="M 385.535888671875 298.5 C 385.535888671875 292.1487248 390.684613471875 287 397.035888671875 287 C 403.387163871875 287 408.535888671875 292.1487248 408.535888671875 298.5 C 408.535888671875 304.8512752 403.387163871875 310 397.035888671875 310 C 390.684613471875 310 385.535888671875 304.8512752 385.535888671875 298.5 Z" opacity="0.2"/></g><g transform="translate(-22,-26) scale(1,1)"><path fill="#ffffff" stroke="none" d="M 378.535888671875 291.5 C 378.535888671875 285.1487248 383.684613471875 280 390.035888671875 280 C 396.387163871875 280 401.535888671875 285.1487248 401.535888671875 291.5 C 401.535888671875 297.8512752 396.387163871875 303 390.035888671875 303 C 383.684613471875 303 378.535888671875 297.8512752 378.535888671875 291.5 Z"/></g><g transform="translate(-22,-26) scale(1,1)"><path fill="none" stroke="#000000" d="M 378.535888671875 291.5 C 378.535888671875 285.1487248 383.684613471875 280 390.035888671875 280 C 396.387163871875 280 401.535888671875 285.1487248 401.535888671875 291.5 C 401.535888671875 297.8512752 396.387163871875 303 390.035888671875 303 C 383.684613471875 303 378.535888671875 297.8512752 378.535888671875 291.5 Z" stroke-miterlimit="10"/></g><g transform="translate(-22,-26) scale(1,1)"><g><path fill="none" stroke="none"/><text fill="#000000" stroke="none" font-family="Arial" font-size="13px" font-style="normal" font-weight="bold" text-decoration="none" x="370.897705078125" y="322.5">IDriver</text></g></g><g transform="translate(-22,-26) scale(1,1)"><g><path fill="none" stroke="none"/><text fill="#000000" stroke="none" font-family="Arial" font-size="13px" font-style="normal" font-weight="normal" text-decoration="none" x="348.5" y="337.5">(from Context)</text></g></g><g transform="translate(-22,-26) scale(1,1)"><path fill="#C0C0C0" stroke="none" d="M 521.535888671875 298.5 C 521.535888671875 292.1487248 526.684613471875 287 533.035888671875 287 C 539.387163871875 287 544.535888671875 292.1487248 544.535888671875 298.5 C 544.535888671875 304.8512752 539.387163871875 310 533.035888671875 310 C 526.684613471875 310 521.535888671875 304.8512752 521.535888671875 298.5 Z" opacity="0.2"/></g><g transform="translate(-22,-26) scale(1,1)"><path fill="#ffffff" stroke="none" d="M 514.535888671875 291.5 C 514.535888671875 285.1487248 519.684613471875 280 526.035888671875 280 C 532.387163871875 280 537.535888671875 285.1487248 537.535888671875 291.5 C 537.535888671875 297.8512752 532.387163871875 303 526.035888671875 303 C 519.684613471875 303 514.535888671875 297.8512752 514.535888671875 291.5 Z"/></g><g transform="translate(-22,-26) scale(1,1)"><path fill="none" stroke="#000000" d="M 514.535888671875 291.5 C 514.535888671875 285.1487248 519.684613471875 280 526.035888671875 280 C 532.387163871875 280 537.535888671875 285.1487248 537.535888671875 291.5 C 537.535888671875 297.8512752 532.387163871875 303 526.035888671875 303 C 519.684613471875 303 514.535888671875 297.8512752 514.535888671875 291.5 Z" stroke-miterlimit="10"/></g><g transform="translate(-22,-26) scale(1,1)"><g><path fill="none" stroke="none"/><text fill="#000000" stroke="none" font-family="Arial" font-size="13px" font-style="normal" font-weight="bold" text-decoration="none" x="504.36181640625" y="322.5">IDevice</text></g></g><g transform="translate(-22,-26) scale(1,1)"><g><path fill="none" stroke="none"/><text fill="#000000" stroke="none" font-family="Arial" font-size="13px" font-style="normal" font-weight="normal" text-decoration="none" x="484.5" y="337.5">(from Context)</text></g></g><g transform="translate(-22,-26) scale(1,1)"><path fill="#C0C0C0" stroke="none" d="M 309.127685546875 214.5 C 309.127685546875 208.1487248 314.276410346875 203 320.627685546875 203 C 326.978960746875 203 332.127685546875 208.1487248 332.127685546875 214.5 C 332.127685546875 220.8512752 326.978960746875 226 320.627685546875 226 C 314.276410346875 226 309.127685546875 220.8512752 309.127685546875 214.5 Z" opacity="0.2"/></g><g transform="translate(-22,-26) scale(1,1)"><path fill="#ffffff" stroke="none" d="M 302.127685546875 207.5 C 302.127685546875 201.1487248 307.276410346875 196 313.627685546875 196 C 319.978960746875 196 325.127685546875 201.1487248 325.127685546875 207.5 C 325.127685546875 213.8512752 319.978960746875 219 313.627685546875 219 C 307.276410346875 219 302.127685546875 213.8512752 302.127685546875 207.5 Z"/></g><g transform="translate(-22,-26) scale(1,1)"><path fill="none" stroke="#000000" d="M 302.127685546875 207.5 C 302.127685546875 201.1487248 307.276410346875 196 313.627685546875 196 C 319.978960746875 196 325.127685546875 201.1487248 325.127685546875 207.5 C 325.127685546875 213.8512752 319.978960746875 219 313.627685546875 219 C 307.276410346875 219 302.127685546875 213.8512752 302.127685546875 207.5 Z" stroke-miterlimit="10"/></g><g transform="translate(-22,-26) scale(1,1)"><g><path fill="none" stroke="none"/><text fill="#000000" stroke="none" font-family="Arial" font-size="13px" font-style="normal" font-weight="bold" text-decoration="none" x="278.214111328125" y="238.5">IRenderable</text></g></g><g transform="translate(-22,-26) scale(1,1)"><g><path fill="none" stroke="none"/><text fill="#000000" stroke="none" font-family="Arial" font-size="13px" font-style="normal" font-weight="normal" text-decoration="none" x="264.5" y="253.5">(from Rendering)</text></g></g><g transform="translate(-22,-26) scale(1,1)"><path fill="#C0C0C0" stroke="none" d="M 451.759521484375 394.5 C 451.759521484375 388.1487248 456.908246284375 383 463.259521484375 383 C 469.610796684375 383 474.759521484375 388.1487248 474.759521484375 394.5 C 474.759521484375 400.8512752 469.610796684375 406 463.259521484375 406 C 456.908246284375 406 451.759521484375 400.8512752 451.759521484375 394.5 Z" opacity="0.2"/></g><g transform="translate(-22,-26) scale(1,1)"><path fill="#ffffff" stroke="none" d="M 444.759521484375 387.5 C 444.759521484375 381.1487248 449.908246284375 376 456.259521484375 376 C 462.610796684375 376 467.759521484375 381.1487248 467.759521484375 387.5 C 467.759521484375 393.8512752 462.610796684375 399 456.259521484375 399 C 449.908246284375 399 444.759521484375 393.8512752 444.759521484375 387.5 Z"/></g><g transform="translate(-22,-26) scale(1,1)"><path fill="none" stroke="#000000" d="M 444.759521484375 387.5 C 444.759521484375 381.1487248 449.908246284375 376 456.259521484375 376 C 462.610796684375 376 467.759521484375 381.1487248 467.759521484375 387.5 C 467.759521484375 393.8512752 462.610796684375 399 456.259521484375 399 C 449.908246284375 399 444.759521484375 393.8512752 444.759521484375 387.5 Z" stroke-miterlimit="10"/></g><g transform="translate(-22,-26) scale(1,1)"><g><path fill="none" stroke="none"/><text fill="#000000" stroke="none" font-family="Arial" font-size="13px" font-style="normal" font-weight="bold" text-decoration="none" x="429.52001953125" y="418.5">IPlayable</text></g></g><g transform="translate(-22,-26) scale(1,1)"><g><path fill="none" stroke="none"/><text fill="#000000" stroke="none" font-family="Arial" font-size="13px" font-style="normal" font-weight="normal" text-decoration="none" x="420.5" y="433.5">(from Audio)</text></g></g><g transform="translate(-22,-26) scale(1,1)"><path fill="#C0C0C0" stroke="none" d="M 252.67724609375 130.5 C 252.67724609375 124.1487248 257.82597089375 119 264.17724609375 119 C 270.52852129375 119 275.67724609375 124.1487248 275.67724609375 130.5 C 275.67724609375 136.8512752 270.52852129375 142 264.17724609375 142 C 257.82597089375 142 252.67724609375 136.8512752 252.67724609375 130.5 Z" opacity="0.2"/></g><g transform="translate(-22,-26) scale(1,1)"><path fill="#ffffff" stroke="none" d="M 245.67724609375 123.5 C 245.67724609375 117.1487248 250.82597089375 112 257.17724609375 112 C 263.52852129375 112 268.67724609375 117.1487248 268.67724609375 123.5 C 268.67724609375 129.8512752 263.52852129375 135 257.17724609375 135 C 250.82597089375 135 245.67724609375 129.8512752 245.67724609375 123.5 Z"/></g><g transform="translate(-22,-26) scale(1,1)"><path fill="none" stroke="#000000" d="M 245.67724609375 123.5 C 245.67724609375 117.1487248 250.82597089375 112 257.17724609375 112 C 263.52852129375 112 268.67724609375 117.1487248 268.67724609375 123.5 C 268.67724609375 129.8512752 263.52852129375 135 257.17724609375 135 C 250.82597089375 135 245.67724609375 129.8512752 245.67724609375 123.5 Z" stroke-miterlimit="10"/></g><g transform="translate(-22,-26) scale(1,1)"><g><path fill="none" stroke="none"/><text fill="#000000" stroke="none" font-family="Arial" font-size="13px" font-style="normal" font-weight="bold" text-decoration="none" x="212.013671875" y="154.5">IModelManager</text></g></g><g transform="translate(-22,-26) scale(1,1)"><g><path fill="none" stroke="none"/><text fill="#000000" stroke="none" font-family="Arial" font-size="13px" font-style="normal" font-weight="normal" text-decoration="none" x="209.13818359375" y="169.5">(from Managers)</text></g></g><g transform="translate(-22,-26) scale(1,1)"><path fill="#C0C0C0" stroke="none" d="M 388.67724609375 130.5 C 388.67724609375 124.1487248 393.82597089375 119 400.17724609375 119 C 406.52852129375 119 411.67724609375 124.1487248 411.67724609375 130.5 C 411.67724609375 136.8512752 406.52852129375 142 400.17724609375 142 C 393.82597089375 142 388.67724609375 136.8512752 388.67724609375 130.5 Z" opacity="0.2"/></g><g transform="translate(-22,-26) scale(1,1)"><path fill="#ffffff" stroke="none" d="M 381.67724609375 123.5 C 381.67724609375 117.1487248 386.82597089375 112 393.17724609375 112 C 399.52852129375 112 404.67724609375 117.1487248 404.67724609375 123.5 C 404.67724609375 129.8512752 399.52852129375 135 393.17724609375 135 C 386.82597089375 135 381.67724609375 129.8512752 381.67724609375 123.5 Z"/></g><g transform="translate(-22,-26) scale(1,1)"><path fill="none" stroke="#000000" d="M 381.67724609375 123.5 C 381.67724609375 117.1487248 386.82597089375 112 393.17724609375 112 C 399.52852129375 112 404.67724609375 117.1487248 404.67724609375 123.5 C 404.67724609375 129.8512752 399.52852129375 135 393.17724609375 135 C 386.82597089375 135 381.67724609375 129.8512752 381.67724609375 123.5 Z" stroke-miterlimit="10"/></g><g transform="translate(-22,-26) scale(1,1)"><g><path fill="none" stroke="none"/><text fill="#000000" stroke="none" font-family="Arial" font-size="13px" font-style="normal" font-weight="bold" text-decoration="none" x="344.75732421875" y="154.5">IShaderManager</text></g></g><g transform="translate(-22,-26) scale(1,1)"><g><path fill="none" stroke="none"/><text fill="#000000" stroke="none" font-family="Arial" font-size="13px" font-style="normal" font-weight="normal" text-decoration="none" x="345.13818359375" y="169.5">(from Managers)</text></g></g><g transform="translate(-22,-26) scale(1,1)"><path fill="#C0C0C0" stroke="none" d="M 524.67724609375 130.5 C 524.67724609375 124.1487248 529.82597089375 119 536.17724609375 119 C 542.52852129375 119 547.67724609375 124.1487248 547.67724609375 130.5 C 547.67724609375 136.8512752 542.52852129375 142 536.17724609375 142 C 529.82597089375 142 524.67724609375 136.8512752 524.67724609375 130.5 Z" opacity="0.2"/></g><g transform="translate(-22,-26) scale(1,1)"><path fill="#ffffff" stroke="none" d="M 517.67724609375 123.5 C 517.67724609375 117.1487248 522.82597089375 112 529.17724609375 112 C 535.52852129375 112 540.67724609375 117.1487248 540.67724609375 123.5 C 540.67724609375 129.8512752 535.52852129375 135 529.17724609375 135 C 522.82597089375 135 517.67724609375 129.8512752 517.67724609375 123.5 Z"/></g><g transform="translate(-22,-26) scale(1,1)"><path fill="none" stroke="#000000" d="M 517.67724609375 123.5 C 517.67724609375 117.1487248 522.82597089375 112 529.17724609375 112 C 535.52852129375 112 540.67724609375 117.1487248 540.67724609375 123.5 C 540.67724609375 129.8512752 535.52852129375 135 529.17724609375 135 C 522.82597089375 135 517.67724609375 129.8512752 517.67724609375 123.5 Z" stroke-miterlimit="10"/></g><g transform="translate(-22,-26) scale(1,1)"><g><path fill="none" stroke="none"/><text fill="#000000" stroke="none" font-family="Arial" font-size="13px" font-style="normal" font-weight="bold" text-decoration="none" x="480.40185546875" y="154.5">ITextureManager</text></g></g><g transform="translate(-22,-26) scale(1,1)"><g><path fill="none" stroke="none"/><text fill="#000000" stroke="none" font-family="Arial" font-size="13px" font-style="normal" font-weight="normal" text-decoration="none" x="481.13818359375" y="169.5">(from Managers)</text></g></g><g transform="translate(-22,-26) scale(1,1)"><path fill="#C0C0C0" stroke="none" d="M 660.67724609375 130.5 C 660.67724609375 124.1487248 665.82597089375 119 672.17724609375 119 C 678.52852129375 119 683.67724609375 124.1487248 683.67724609375 130.5 C 683.67724609375 136.8512752 678.52852129375 142 672.17724609375 142 C 665.82597089375 142 660.67724609375 136.8512752 660.67724609375 130.5 Z" opacity="0.2"/></g><g transform="translate(-22,-26) scale(1,1)"><path fill="#ffffff" stroke="none" d="M 653.67724609375 123.5 C 653.67724609375 117.1487248 658.82597089375 112 665.17724609375 112 C 671.52852129375 112 676.67724609375 117.1487248 676.67724609375 123.5 C 676.67724609375 129.8512752 671.52852129375 135 665.17724609375 135 C 658.82597089375 135 653.67724609375 129.8512752 653.67724609375 123.5 Z"/></g><g transform="translate(-22,-26) scale(1,1)"><path fill="none" stroke="#000000" d="M 653.67724609375 123.5 C 653.67724609375 117.1487248 658.82597089375 112 665.17724609375 112 C 671.52852129375 112 676.67724609375 117.1487248 676.67724609375 123.5 C 676.67724609375 129.8512752 671.52852129375 135 665.17724609375 135 C 658.82597089375 135 653.67724609375 129.8512752 653.67724609375 123.5 Z" stroke-miterlimit="10"/></g><g transform="translate(-22,-26) scale(1,1)"><g><path fill="none" stroke="none"/><text fill="#000000" stroke="none" font-family="Arial" font-size="13px" font-style="normal" font-weight="bold" text-decoration="none" x="610.619140625" y="154.5">IAudioFileManager</text></g></g><g transform="translate(-22,-26) scale(1,1)"><g><path fill="none" stroke="none"/><text fill="#000000" stroke="none" font-family="Arial" font-size="13px" font-style="normal" font-weight="normal" text-decoration="none" x="617.13818359375" y="169.5">(from Managers)</text></g></g><g transform="translate(-22,-26) scale(1,1)"><path fill="#C0C0C0" stroke="none" d="M 599.127685546875 214.5 C 599.127685546875 208.1487248 604.276410346875 203 610.627685546875 203 C 616.978960746875 203 622.127685546875 208.1487248 622.127685546875 214.5 C 622.127685546875 220.8512752 616.978960746875 226 610.627685546875 226 C 604.276410346875 226 599.127685546875 220.8512752 599.127685546875 214.5 Z" opacity="0.2"/></g><g transform="translate(-22,-26) scale(1,1)"><path fill="#ffffff" stroke="none" d="M 592.127685546875 207.5 C 592.127685546875 201.1487248 597.276410346875 196 603.627685546875 196 C 609.978960746875 196 615.127685546875 201.1487248 615.127685546875 207.5 C 615.127685546875 213.8512752 609.978960746875 219 603.627685546875 219 C 597.276410346875 219 592.127685546875 213.8512752 592.127685546875 207.5 Z"/></g><g transform="translate(-22,-26) scale(1,1)"><path fill="none" stroke="#000000" d="M 592.127685546875 207.5 C 592.127685546875 201.1487248 597.276410346875 196 603.627685546875 196 C 609.978960746875 196 615.127685546875 201.1487248 615.127685546875 207.5 C 615.127685546875 213.8512752 609.978960746875 219 603.627685546875 219 C 597.276410346875 219 592.127685546875 213.8512752 592.127685546875 207.5 Z" stroke-miterlimit="10"/></g><g transform="translate(-22,-26) scale(1,1)"><g><path fill="none" stroke="none"/><text fill="#000000" stroke="none" font-family="Arial" font-size="13px" font-style="normal" font-weight="bold" text-decoration="none" x="580.86181640625" y="238.5">IShader</text></g></g><g transform="translate(-22,-26) scale(1,1)"><g><path fill="none" stroke="none"/><text fill="#000000" stroke="none" font-family="Arial" font-size="13px" font-style="normal" font-weight="normal" text-decoration="none" x="554.5" y="253.5">(from Rendering)</text></g></g><g transform="translate(-22,-26) scale(1,1)"><path fill="#C0C0C0" stroke="none" d="M 454.127685546875 214.5 C 454.127685546875 208.1487248 459.276410346875 203 465.627685546875 203 C 471.978960746875 203 477.127685546875 208.1487248 477.127685546875 214.5 C 477.127685546875 220.8512752 471.978960746875 226 465.627685546875 226 C 459.276410346875 226 454.127685546875 220.8512752 454.127685546875 214.5 Z" opacity="0.2"/></g><g transform="translate(-22,-26) scale(1,1)"><path fill="#ffffff" stroke="none" d="M 447.127685546875 207.5 C 447.127685546875 201.1487248 452.276410346875 196 458.627685546875 196 C 464.978960746875 196 470.127685546875 201.1487248 470.127685546875 207.5 C 470.127685546875 213.8512752 464.978960746875 219 458.627685546875 219 C 452.276410346875 219 447.127685546875 213.8512752 447.127685546875 207.5 Z"/></g><g transform="translate(-22,-26) scale(1,1)"><path fill="none" stroke="#000000" d="M 447.127685546875 207.5 C 447.127685546875 201.1487248 452.276410346875 196 458.627685546875 196 C 464.978960746875 196 470.127685546875 201.1487248 470.127685546875 207.5 C 470.127685546875 213.8512752 464.978960746875 219 458.627685546875 219 C 452.276410346875 219 447.127685546875 213.8512752 447.127685546875 207.5 Z" stroke-miterlimit="10"/></g><g transform="translate(-22,-26) scale(1,1)"><g><path fill="none" stroke="none"/><text fill="#000000" stroke="none" font-family="Arial" font-size="13px" font-style="normal" font-weight="bold" text-decoration="none" x="435.50634765625" y="238.5">ITexture</text></g></g><g transform="translate(-22,-26) scale(1,1)"><g><path fill="none" stroke="none"/><text fill="#000000" stroke="none" font-family="Arial" font-size="13px" font-style="normal" font-weight="normal" text-decoration="none" x="409.5" y="253.5">(from Rendering)</text></g></g></g></svg>