<svg version="1.1" xmlns="http://www.w3.org/2000/svg" xmlns:xlink="http://www.w3.org/1999/xlink" width="283.5" height="407"><defs/><g><g transform="translate(-14,2) scale(1,1)"><rect fill="#C0C0C0" stroke="none" x="103" y="135" width="111.603515625" height="59" opacity="0.2"/></g><g transform="translate(-14,2) scale(1,1)"><rect fill="#ffffff" stroke="none" x="96" y="128" width="111.603515625" height="59"/></g><g transform="translate(-14,2) scale(1,1)"><path fill="none" stroke="#000000" d="M 96 128 L 207.603515625 128 L 207.603515625 187 L 96 187 L 96 128 Z Z" stroke-miterlimit="10"/></g><g transform="translate(-14,2) scale(1,1)"><path fill="none" stroke="#000000" d="M 96 168 L 207.603515625 168" stroke-miterlimit="10"/></g><g transform="translate(-14,2) scale(1,1)"><path fill="none" stroke="#000000" d="M 96 178 L 207.603515625 178" stroke-miterlimit="10"/></g><g transform="translate(-14,2) scale(1,1)"><g><path fill="none" stroke="none"/><text fill="#000000" stroke="none" font-family="Arial" font-size="13px" font-style="normal" font-weight="bold" text-decoration="none" x="103.753173828125" y="147.5">PhysicsManager</text></g></g><g transform="translate(-14,2) scale(1,1)"><g><path fill="none" stroke="none"/><text fill="#000000" stroke="none" font-family="Arial" font-size="13px" font-style="normal" font-weight="normal" text-decoration="none" x="103.7626953125" y="162.5">(from Managers)</text></g></g><g transform="translate(-14,2) scale(1,1)"><rect fill="#C0C0C0" stroke="none" x="175" y="343" width="119.5" height="59" opacity="0.2"/></g><g transform="translate(-14,2) scale(1,1)"><rect fill="#ffffff" stroke="none" x="168" y="336" width="119.5" height="59"/></g><g transform="translate(-14,2) scale(1,1)"><path fill="none" stroke="#000000" d="M 168 336 L 287.5 336 L 287.5 395 L 168 395 L 168 336 Z Z" stroke-miterlimit="10"/></g><g transform="translate(-14,2) scale(1,1)"><path fill="none" stroke="#000000" d="M 168 376 L 287.5 376" stroke-miterlimit="10"/></g><g transform="translate(-14,2) scale(1,1)"><path fill="none" stroke="#000000" d="M 168 386 L 287.5 386" stroke-miterlimit="10"/></g><g transform="translate(-14,2) scale(1,1)"><g><path fill="none" stroke="none"/><text fill="#000000" stroke="none" font-family="Arial" font-size="13px" font-style="normal" font-weight="bold" text-decoration="none" x="189.819580078125" y="355.5">DBoxCollider</text></g></g><g transform="translate(-14,2) scale(1,1)"><g><path fill="none" stroke="none"/><text fill="#000000" stroke="none" font-family="Arial" font-size="13px" font-style="normal" font-weight="normal" text-decoration="none" x="194.885009765625" y="370.5">(from Data)</text></g></g><g transform="translate(-14,2) scale(1,1)"><rect fill="#C0C0C0" stroke="none" x="31" y="343" width="119.5" height="59" opacity="0.2"/></g><g transform="translate(-14,2) scale(1,1)"><rect fill="#ffffff" stroke="none" x="24" y="336" width="119.5" height="59"/></g><g transform="translate(-14,2) scale(1,1)"><path fill="none" stroke="#000000" d="M 24 336 L 143.5 336 L 143.5 395 L 24 395 L 24 336 Z Z" stroke-miterlimit="10"/></g><g transform="translate(-14,2) scale(1,1)"><path fill="none" stroke="#000000" d="M 24 376 L 143.5 376" stroke-miterlimit="10"/></g><g transform="translate(-14,2) scale(1,1)"><path fill="none" stroke="#000000" d="M 24 386 L 143.5 386" stroke-miterlimit="10"/></g><g transform="translate(-14,2) scale(1,1)"><g><path fill="none" stroke="none"/><text fill="#000000" stroke="none" font-family="Arial" font-size="13px" font-style="normal" font-weight="bold" text-decoration="none" x="50.148681640625" y="355.5">DRigidbody</text></g></g><g transform="translate(-14,2) scale(1,1)"><g><path fill="none" stroke="none"/><text fill="#000000" stroke="none" font-family="Arial" font-size="13px" font-style="normal" font-weight="normal" text-decoration="none" x="50.885009765625" y="370.5">(from Data)</text></g></g><g transform="translate(-14,2) scale(1,1)"><rect fill="#C0C0C0" stroke="none" x="103" y="239" width="119.5" height="59" opacity="0.2"/></g><g transform="translate(-14,2) scale(1,1)"><rect fill="#ffffff" stroke="none" x="96" y="232" width="119.5" height="59"/></g><g transform="translate(-14,2) scale(1,1)"><path fill="none" stroke="#000000" d="M 96 232 L 215.5 232 L 215.5 291 L 96 291 L 96 232 Z Z" stroke-miterlimit="10"/></g><g transform="translate(-14,2) scale(1,1)"><path fill="none" stroke="#000000" d="M 96 272 L 215.5 272" stroke-miterlimit="10"/></g><g transform="translate(-14,2) scale(1,1)"><path fill="none" stroke="#000000" d="M 96 282 L 215.5 282" stroke-miterlimit="10"/></g><g transform="translate(-14,2) scale(1,1)"><g><path fill="none" stroke="none"/><text fill="#000000" stroke="none" font-family="Arial" font-size="13px" font-style="normal" font-weight="bold" text-decoration="none" x="139.49365234375" y="251.5">Entity</text></g></g><g transform="translate(-14,2) scale(1,1)"><g><path fill="none" stroke="none"/><text fill="#000000" stroke="none" font-family="Arial" font-size="13px" font-style="normal" font-weight="normal" text-decoration="none" x="112.411376953125" y="266.5">(from Physical)</text></g></g><g transform="translate(-14,2) scale(1,1)"><path fill="none" stroke="#000000" d="M 120 336 L 120 291" stroke-miterlimit="10"/></g><g transform="translate(-14,2) scale(1,1)"><path fill="#FFFFFF" stroke="none" d="M 124.20951775601598 301.16267485762415 L 120 291 L 115.79048224398402 301.16267485762415 L 120 313"/></g><g transform="translate(-14,2) scale(1,1)"><path fill="none" stroke="#000000" d="M 124.20951775601598 301.16267485762415 L 120 291 L 115.79048224398402 301.16267485762415 L 120 313 L 124.20951775601598 301.16267485762415" stroke-miterlimit="10"/></g><g transform="translate(-14,2) scale(1,1)"><path fill="none" stroke="#000000" d="M 192 336 L 192 291" stroke-miterlimit="10"/></g><g transform="translate(-14,2) scale(1,1)"><path fill="#FFFFFF" stroke="none" d="M 196.209517756016 301.16267485762415 L 192 291 L 187.790482243984 301.16267485762415 L 192 313"/></g><g transform="translate(-14,2) scale(1,1)"><path fill="none" stroke="#000000" d="M 196.209517756016 301.16267485762415 L 192 291 L 187.790482243984 301.16267485762415 L 192 313 L 196.209517756016 301.16267485762415" stroke-miterlimit="10"/></g><g transform="translate(-14,2) scale(1,1)"><path fill="none" stroke="#000000" d="M 152 232 L 152 187" stroke-miterlimit="10"/></g><g transform="translate(-14,2) scale(1,1)"><path fill="#000000" stroke="none" d="M 156.209517756016 197.16267485762415 L 152 187 L 147.790482243984 197.16267485762415 L 152 209"/></g><g transform="translate(-14,2) scale(1,1)"><path fill="none" stroke="#000000" d="M 156.209517756016 197.16267485762415 L 152 187 L 147.790482243984 197.16267485762415 L 152 209 L 156.209517756016 197.16267485762415" stroke-miterlimit="10"/></g><g transform="translate(-14,2) scale(1,1)"><path fill="#C0C0C0" stroke="none" d="M 149.107666015625 26.5 C 149.107666015625 20.1487248 154.256390815625 15 160.607666015625 15 C 166.958941215625 15 172.107666015625 20.1487248 172.107666015625 26.5 C 172.107666015625 32.8512752 166.958941215625 38 160.607666015625 38 C 154.256390815625 38 149.107666015625 32.8512752 149.107666015625 26.5 Z" opacity="0.2"/></g><g transform="translate(-14,2) scale(1,1)"><path fill="#ffff91" stroke="none" d="M 142.107666015625 19.5 C 142.107666015625 13.1487248 147.256390815625 8 153.607666015625 8 C 159.958941215625 8 165.107666015625 13.1487248 165.107666015625 19.5 C 165.107666015625 25.8512752 159.958941215625 31 153.607666015625 31 C 147.256390815625 31 142.107666015625 25.8512752 142.107666015625 19.5 Z"/></g><g transform="translate(-14,2) scale(1,1)"><path fill="none" stroke="#000000" d="M 142.107666015625 19.5 C 142.107666015625 13.1487248 147.256390815625 8 153.607666015625 8 C 159.958941215625 8 165.107666015625 13.1487248 165.107666015625 19.5 C 165.107666015625 25.8512752 159.958941215625 31 153.607666015625 31 C 147.256390815625 31 142.107666015625 25.8512752 142.107666015625 19.5 Z" stroke-miterlimit="10"/></g><g transform="translate(-14,2) scale(1,1)"><g><path fill="none" stroke="none"/><text fill="#000000" stroke="none" font-family="Arial" font-size="13px" font-style="normal" font-weight="bold" text-decoration="none" x="103.753173828125" y="50.5">IPhysicsManager</text></g></g><g transform="translate(-14,2) scale(1,1)"><g><path fill="none" stroke="none"/><text fill="#000000" stroke="none" font-family="Arial" font-size="13px" font-style="normal" font-weight="normal" text-decoration="none" x="105.568603515625" y="65.5">(from Managers)</text></g></g><g transform="translate(-14,2) scale(1,1)"><path fill="none" stroke="#000000" d="M 153 128 L 153 31" stroke-miterlimit="10"/></g></g></svg>