<svg version="1.1" xmlns="http://www.w3.org/2000/svg" xmlns:xlink="http://www.w3.org/1999/xlink" width="443.5" height="407"><defs/><g><g transform="translate(-30,-6) scale(1,1)"><rect fill="#C0C0C0" stroke="none" x="199" y="143" width="111.603515625" height="59" opacity="0.2"/></g><g transform="translate(-30,-6) scale(1,1)"><rect fill="#ffffff" stroke="none" x="192" y="136" width="111.603515625" height="59"/></g><g transform="translate(-30,-6) scale(1,1)"><path fill="none" stroke="#000000" d="M 192 136 L 303.603515625 136 L 303.603515625 195 L 192 195 L 192 136 Z Z" stroke-miterlimit="10"/></g><g transform="translate(-30,-6) scale(1,1)"><path fill="none" stroke="#000000" d="M 192 176 L 303.603515625 176" stroke-miterlimit="10"/></g><g transform="translate(-30,-6) scale(1,1)"><path fill="none" stroke="#000000" d="M 192 186 L 303.603515625 186" stroke-miterlimit="10"/></g><g transform="translate(-30,-6) scale(1,1)"><g><path fill="none" stroke="none"/><text fill="#000000" stroke="none" font-family="Arial" font-size="13px" font-style="normal" font-weight="bold" text-decoration="none" x="199.753173828125" y="155.5">PhysicsManager</text></g></g><g transform="translate(-30,-6) scale(1,1)"><g><path fill="none" stroke="none"/><text fill="#000000" stroke="none" font-family="Arial" font-size="13px" font-style="normal" font-weight="normal" text-decoration="none" x="199.7626953125" y="170.5">(from Managers)</text></g></g><g transform="translate(-30,-6) scale(1,1)"><rect fill="#C0C0C0" stroke="none" x="351" y="351" width="119.5" height="59" opacity="0.2"/></g><g transform="translate(-30,-6) scale(1,1)"><rect fill="#ffffff" stroke="none" x="344" y="344" width="119.5" height="59"/></g><g transform="translate(-30,-6) scale(1,1)"><path fill="none" stroke="#000000" d="M 344 344 L 463.5 344 L 463.5 403 L 344 403 L 344 344 Z Z" stroke-miterlimit="10"/></g><g transform="translate(-30,-6) scale(1,1)"><path fill="none" stroke="#000000" d="M 344 384 L 463.5 384" stroke-miterlimit="10"/></g><g transform="translate(-30,-6) scale(1,1)"><path fill="none" stroke="#000000" d="M 344 394 L 463.5 394" stroke-miterlimit="10"/></g><g transform="translate(-30,-6) scale(1,1)"><g><path fill="none" stroke="none"/><text fill="#000000" stroke="none" font-family="Arial" font-size="13px" font-style="normal" font-weight="bold" text-decoration="none" x="365.457763671875" y="363.5">OBoxCollider</text></g></g><g transform="translate(-30,-6) scale(1,1)"><g><path fill="none" stroke="none"/><text fill="#000000" stroke="none" font-family="Arial" font-size="13px" font-style="normal" font-weight="normal" text-decoration="none" x="365.8291015625" y="378.5">(from Object)</text></g></g><g transform="translate(-30,-6) scale(1,1)"><rect fill="#C0C0C0" stroke="none" x="47" y="351" width="119.5" height="59" opacity="0.2"/></g><g transform="translate(-30,-6) scale(1,1)"><rect fill="#ffffff" stroke="none" x="40" y="344" width="119.5" height="59"/></g><g transform="translate(-30,-6) scale(1,1)"><path fill="none" stroke="#000000" d="M 40 344 L 159.5 344 L 159.5 403 L 40 403 L 40 344 Z Z" stroke-miterlimit="10"/></g><g transform="translate(-30,-6) scale(1,1)"><path fill="none" stroke="#000000" d="M 40 384 L 159.5 384" stroke-miterlimit="10"/></g><g transform="translate(-30,-6) scale(1,1)"><path fill="none" stroke="#000000" d="M 40 394 L 159.5 394" stroke-miterlimit="10"/></g><g transform="translate(-30,-6) scale(1,1)"><g><path fill="none" stroke="none"/><text fill="#000000" stroke="none" font-family="Arial" font-size="13px" font-style="normal" font-weight="bold" text-decoration="none" x="65.786865234375" y="363.5">ORigidbody</text></g></g><g transform="translate(-30,-6) scale(1,1)"><g><path fill="none" stroke="none"/><text fill="#000000" stroke="none" font-family="Arial" font-size="13px" font-style="normal" font-weight="normal" text-decoration="none" x="61.8291015625" y="378.5">(from Object)</text></g></g><g transform="translate(-30,-6) scale(1,1)"><rect fill="#C0C0C0" stroke="none" x="199" y="247" width="119.5" height="59" opacity="0.2"/></g><g transform="translate(-30,-6) scale(1,1)"><rect fill="#ffffff" stroke="none" x="192" y="240" width="119.5" height="59"/></g><g transform="translate(-30,-6) scale(1,1)"><path fill="none" stroke="#000000" d="M 192 240 L 311.5 240 L 311.5 299 L 192 299 L 192 240 Z Z" stroke-miterlimit="10"/></g><g transform="translate(-30,-6) scale(1,1)"><path fill="none" stroke="#000000" d="M 192 280 L 311.5 280" stroke-miterlimit="10"/></g><g transform="translate(-30,-6) scale(1,1)"><path fill="none" stroke="#000000" d="M 192 290 L 311.5 290" stroke-miterlimit="10"/></g><g transform="translate(-30,-6) scale(1,1)"><g><path fill="none" stroke="none"/><text fill="#000000" stroke="none" font-family="Arial" font-size="13px" font-style="normal" font-weight="bold" text-decoration="none" x="235.49365234375" y="259.5">Entity</text></g></g><g transform="translate(-30,-6) scale(1,1)"><g><path fill="none" stroke="none"/><text fill="#000000" stroke="none" font-family="Arial" font-size="13px" font-style="normal" font-weight="normal" text-decoration="none" x="208.411376953125" y="274.5">(from Physical)</text></g></g><g transform="translate(-30,-6) scale(1,1)"><path fill="none" stroke="#000000" d="M 96 344 L 96 272 L 192 272" stroke-miterlimit="10"/></g><g transform="translate(-30,-6) scale(1,1)"><path fill="#FFFFFF" stroke="none" d="M 181.83732514237585 276.209517756016 L 192 272 L 181.83732514237585 267.790482243984 L 170 272"/></g><g transform="translate(-30,-6) scale(1,1)"><path fill="none" stroke="#000000" d="M 181.83732514237585 276.209517756016 L 192 272 L 181.83732514237585 267.790482243984 L 170 272 L 181.83732514237585 276.209517756016" stroke-miterlimit="10"/></g><g transform="translate(-30,-6) scale(1,1)"><path fill="none" stroke="#000000" d="M 408 344 L 408 272 L 312 272" stroke-miterlimit="10"/></g><g transform="translate(-30,-6) scale(1,1)"><path fill="#FFFFFF" stroke="none" d="M 322.16267485762415 267.790482243984 L 312 272 L 322.16267485762415 276.209517756016 L 334 272"/></g><g transform="translate(-30,-6) scale(1,1)"><path fill="none" stroke="#000000" d="M 322.16267485762415 267.790482243984 L 312 272 L 322.16267485762415 276.209517756016 L 334 272 L 322.16267485762415 267.790482243984" stroke-miterlimit="10"/></g><g transform="translate(-30,-6) scale(1,1)"><path fill="none" stroke="#000000" d="M 248 240 L 248 195" stroke-miterlimit="10"/></g><g transform="translate(-30,-6) scale(1,1)"><path fill="#000000" stroke="none" d="M 252.209517756016 205.16267485762415 L 248 195 L 243.790482243984 205.16267485762415 L 248 217"/></g><g transform="translate(-30,-6) scale(1,1)"><path fill="none" stroke="#000000" d="M 252.209517756016 205.16267485762415 L 248 195 L 243.790482243984 205.16267485762415 L 248 217 L 252.209517756016 205.16267485762415" stroke-miterlimit="10"/></g><g transform="translate(-30,-6) scale(1,1)"><path fill="#C0C0C0" stroke="none" d="M 245.107666015625 34.5 C 245.107666015625 28.1487248 250.256390815625 23 256.607666015625 23 C 262.958941215625 23 268.107666015625 28.1487248 268.107666015625 34.5 C 268.107666015625 40.8512752 262.958941215625 46 256.607666015625 46 C 250.256390815625 46 245.107666015625 40.8512752 245.107666015625 34.5 Z" opacity="0.2"/></g><g transform="translate(-30,-6) scale(1,1)"><path fill="#ffff91" stroke="none" d="M 238.107666015625 27.5 C 238.107666015625 21.1487248 243.256390815625 16 249.607666015625 16 C 255.958941215625 16 261.107666015625 21.1487248 261.107666015625 27.5 C 261.107666015625 33.8512752 255.958941215625 39 249.607666015625 39 C 243.256390815625 39 238.107666015625 33.8512752 238.107666015625 27.5 Z"/></g><g transform="translate(-30,-6) scale(1,1)"><path fill="none" stroke="#000000" d="M 238.107666015625 27.5 C 238.107666015625 21.1487248 243.256390815625 16 249.607666015625 16 C 255.958941215625 16 261.107666015625 21.1487248 261.107666015625 27.5 C 261.107666015625 33.8512752 255.958941215625 39 249.607666015625 39 C 243.256390815625 39 238.107666015625 33.8512752 238.107666015625 27.5 Z" stroke-miterlimit="10"/></g><g transform="translate(-30,-6) scale(1,1)"><g><path fill="none" stroke="none"/><text fill="#000000" stroke="none" font-family="Arial" font-size="13px" font-style="normal" font-weight="bold" text-decoration="none" x="199.753173828125" y="58.5">IPhysicsManager</text></g></g><g transform="translate(-30,-6) scale(1,1)"><g><path fill="none" stroke="none"/><text fill="#000000" stroke="none" font-family="Arial" font-size="13px" font-style="normal" font-weight="normal" text-decoration="none" x="201.568603515625" y="73.5">(from Managers)</text></g></g><g transform="translate(-30,-6) scale(1,1)"><path fill="none" stroke="#000000" d="M 249 136 L 249 39" stroke-miterlimit="10"/></g><g transform="translate(-30,-6) scale(1,1)"><rect fill="#C0C0C0" stroke="none" x="199" y="351" width="119.5" height="59" opacity="0.2"/></g><g transform="translate(-30,-6) scale(1,1)"><rect fill="#ffffff" stroke="none" x="192" y="344" width="119.5" height="59"/></g><g transform="translate(-30,-6) scale(1,1)"><path fill="none" stroke="#000000" d="M 192 344 L 311.5 344 L 311.5 403 L 192 403 L 192 344 Z Z" stroke-miterlimit="10"/></g><g transform="translate(-30,-6) scale(1,1)"><path fill="none" stroke="#000000" d="M 192 384 L 311.5 384" stroke-miterlimit="10"/></g><g transform="translate(-30,-6) scale(1,1)"><path fill="none" stroke="#000000" d="M 192 394 L 311.5 394" stroke-miterlimit="10"/></g><g transform="translate(-30,-6) scale(1,1)"><g><path fill="none" stroke="none"/><text fill="#000000" stroke="none" font-family="Arial" font-size="13px" font-style="normal" font-weight="bold" text-decoration="none" x="217.3203125" y="363.5">OTransform</text></g></g><g transform="translate(-30,-6) scale(1,1)"><g><path fill="none" stroke="none"/><text fill="#000000" stroke="none" font-family="Arial" font-size="13px" font-style="normal" font-weight="normal" text-decoration="none" x="213.8291015625" y="378.5">(from Object)</text></g></g><g transform="translate(-30,-6) scale(1,1)"><path fill="none" stroke="#000000" d="M 251 344 L 251 299" stroke-miterlimit="10"/></g><g transform="translate(-30,-6) scale(1,1)"><path fill="#FFFFFF" stroke="none" d="M 255.209517756016 309.16267485762415 L 251 299 L 246.790482243984 309.16267485762415 L 251 321"/></g><g transform="translate(-30,-6) scale(1,1)"><path fill="none" stroke="#000000" d="M 255.209517756016 309.16267485762415 L 251 299 L 246.790482243984 309.16267485762415 L 251 321 L 255.209517756016 309.16267485762415" stroke-miterlimit="10"/></g></g></svg>