<svg version="1.1" xmlns="http://www.w3.org/2000/svg" xmlns:xlink="http://www.w3.org/1999/xlink" width="969.4072265625" height="887"><defs/><g><g transform="translate(-22,-6) scale(1,1)"><rect fill="#C0C0C0" stroke="none" x="455" y="415" width="126.74267578125" height="59" opacity="0.2"/></g><g transform="translate(-22,-6) scale(1,1)"><rect fill="#ffffff" stroke="none" x="448" y="408" width="126.74267578125" height="59"/></g><g transform="translate(-22,-6) scale(1,1)"><path fill="none" stroke="#000000" d="M 448 408 L 574.74267578125 408 L 574.74267578125 467 L 448 467 L 448 408 Z Z" stroke-miterlimit="10"/></g><g transform="translate(-22,-6) scale(1,1)"><path fill="none" stroke="#000000" d="M 448 448 L 574.74267578125 448" stroke-miterlimit="10"/></g><g transform="translate(-22,-6) scale(1,1)"><path fill="none" stroke="#000000" d="M 448 458 L 574.74267578125 458" stroke-miterlimit="10"/></g><g transform="translate(-22,-6) scale(1,1)"><g><path fill="none" stroke="none"/><text fill="#000000" stroke="none" font-family="Arial" font-size="13px" font-style="normal" font-weight="bold" text-decoration="none" x="455.724609375" y="427.5">RenderingManager</text></g></g><g transform="translate(-22,-6) scale(1,1)"><g><path fill="none" stroke="none"/><text fill="#000000" stroke="none" font-family="Arial" font-size="13px" font-style="normal" font-weight="normal" text-decoration="none" x="463.332275390625" y="442.5">(from Managers)</text></g></g><g transform="translate(-22,-6) scale(1,1)"><rect fill="#C0C0C0" stroke="none" x="175" y="159" width="108.455078125" height="59" opacity="0.2"/></g><g transform="translate(-22,-6) scale(1,1)"><rect fill="#ffffff" stroke="none" x="168" y="152" width="108.455078125" height="59"/></g><g transform="translate(-22,-6) scale(1,1)"><path fill="none" stroke="#000000" d="M 168 152 L 276.455078125 152 L 276.455078125 211 L 168 211 L 168 152 Z Z" stroke-miterlimit="10"/></g><g transform="translate(-22,-6) scale(1,1)"><path fill="none" stroke="#000000" d="M 168 192 L 276.455078125 192" stroke-miterlimit="10"/></g><g transform="translate(-22,-6) scale(1,1)"><path fill="none" stroke="#000000" d="M 168 202 L 276.455078125 202" stroke-miterlimit="10"/></g><g transform="translate(-22,-6) scale(1,1)"><g><path fill="none" stroke="none"/><text fill="#000000" stroke="none" font-family="Arial" font-size="13px" font-style="normal" font-weight="bold" text-decoration="none" x="175.613525390625" y="171.5">ShaderManager</text></g></g><g transform="translate(-22,-6) scale(1,1)"><g><path fill="none" stroke="none"/><text fill="#000000" stroke="none" font-family="Arial" font-size="13px" font-style="normal" font-weight="normal" text-decoration="none" x="174.1884765625" y="186.5">(from Managers)</text></g></g><g transform="translate(-22,-6) scale(1,1)"><rect fill="#C0C0C0" stroke="none" x="455" y="23" width="131.09716796875" height="59" opacity="0.2"/></g><g transform="translate(-22,-6) scale(1,1)"><rect fill="#ffff91" stroke="none" x="448" y="16" width="131.09716796875" height="59"/></g><g transform="translate(-22,-6) scale(1,1)"><path fill="none" stroke="#000000" d="M 448 16 L 579.09716796875 16 L 579.09716796875 75 L 448 75 L 448 16 Z Z" stroke-miterlimit="10"/></g><g transform="translate(-22,-6) scale(1,1)"><path fill="none" stroke="#000000" d="M 448 56 L 579.09716796875 56" stroke-miterlimit="10"/></g><g transform="translate(-22,-6) scale(1,1)"><path fill="none" stroke="#000000" d="M 448 66 L 579.09716796875 66" stroke-miterlimit="10"/></g><g transform="translate(-22,-6) scale(1,1)"><g><path fill="none" stroke="none"/><text fill="#000000" stroke="none" font-family="Arial" font-size="13px" font-style="italic" font-weight="bold" text-decoration="none" x="455.740478515625" y="35.5">AResourceManager</text></g></g><g transform="translate(-22,-6) scale(1,1)"><g><path fill="none" stroke="none"/><text fill="#000000" stroke="none" font-family="Arial" font-size="13px" font-style="normal" font-weight="normal" text-decoration="none" x="465.509521484375" y="50.5">(from Managers)</text></g></g><g transform="translate(-22,-6) scale(1,1)"><path fill="none" stroke="#000000" d="M 222 152 L 222 56 L 448 56" stroke-miterlimit="10"/></g><g transform="translate(-22,-6) scale(1,1)"><path fill="#FFFFFF" stroke="none" d="M 427.6746502847517 64.41903551203198 L 448 56 L 427.6746502847517 47.580964487968025"/></g><g transform="translate(-22,-6) scale(1,1)"><path fill="none" stroke="#000000" d="M 427.6746502847517 64.41903551203198 L 448 56 L 427.6746502847517 47.580964487968025 L 427.6746502847517 64.41903551203198" stroke-miterlimit="10"/></g><g transform="translate(-22,-6) scale(1,1)"><rect fill="#C0C0C0" stroke="none" x="463" y="159" width="108.455078125" height="59" opacity="0.2"/></g><g transform="translate(-22,-6) scale(1,1)"><rect fill="#ffffff" stroke="none" x="456" y="152" width="108.455078125" height="59"/></g><g transform="translate(-22,-6) scale(1,1)"><path fill="none" stroke="#000000" d="M 456 152 L 564.455078125 152 L 564.455078125 211 L 456 211 L 456 152 Z Z" stroke-miterlimit="10"/></g><g transform="translate(-22,-6) scale(1,1)"><path fill="none" stroke="#000000" d="M 456 192 L 564.455078125 192" stroke-miterlimit="10"/></g><g transform="translate(-22,-6) scale(1,1)"><path fill="none" stroke="#000000" d="M 456 202 L 564.455078125 202" stroke-miterlimit="10"/></g><g transform="translate(-22,-6) scale(1,1)"><g><path fill="none" stroke="none"/><text fill="#000000" stroke="none" font-family="Arial" font-size="13px" font-style="normal" font-weight="bold" text-decoration="none" x="463.258056640625" y="171.5">TextureManager</text></g></g><g transform="translate(-22,-6) scale(1,1)"><g><path fill="none" stroke="none"/><text fill="#000000" stroke="none" font-family="Arial" font-size="13px" font-style="normal" font-weight="normal" text-decoration="none" x="462.1884765625" y="186.5">(from Managers)</text></g></g><g transform="translate(-22,-6) scale(1,1)"><rect fill="#C0C0C0" stroke="none" x="751" y="159" width="108.455078125" height="59" opacity="0.2"/></g><g transform="translate(-22,-6) scale(1,1)"><rect fill="#ffffff" stroke="none" x="744" y="152" width="108.455078125" height="59"/></g><g transform="translate(-22,-6) scale(1,1)"><path fill="none" stroke="#000000" d="M 744 152 L 852.455078125 152 L 852.455078125 211 L 744 211 L 744 152 Z Z" stroke-miterlimit="10"/></g><g transform="translate(-22,-6) scale(1,1)"><path fill="none" stroke="#000000" d="M 744 192 L 852.455078125 192" stroke-miterlimit="10"/></g><g transform="translate(-22,-6) scale(1,1)"><path fill="none" stroke="#000000" d="M 744 202 L 852.455078125 202" stroke-miterlimit="10"/></g><g transform="translate(-22,-6) scale(1,1)"><g><path fill="none" stroke="none"/><text fill="#000000" stroke="none" font-family="Arial" font-size="13px" font-style="normal" font-weight="bold" text-decoration="none" x="754.869873046875" y="171.5">ModelManager</text></g></g><g transform="translate(-22,-6) scale(1,1)"><g><path fill="none" stroke="none"/><text fill="#000000" stroke="none" font-family="Arial" font-size="13px" font-style="normal" font-weight="normal" text-decoration="none" x="750.1884765625" y="186.5">(from Managers)</text></g></g><g transform="translate(-22,-6) scale(1,1)"><path fill="none" stroke="#000000" d="M 512 152 L 512 75" stroke-miterlimit="10"/></g><g transform="translate(-22,-6) scale(1,1)"><path fill="#FFFFFF" stroke="none" d="M 520.419035512032 95.32534971524831 L 512 75 L 503.580964487968 95.32534971524831"/></g><g transform="translate(-22,-6) scale(1,1)"><path fill="none" stroke="#000000" d="M 520.419035512032 95.32534971524831 L 512 75 L 503.580964487968 95.32534971524831 L 520.419035512032 95.32534971524831" stroke-miterlimit="10"/></g><g transform="translate(-22,-6) scale(1,1)"><path fill="none" stroke="#000000" d="M 798 152 L 798 56 L 579 56" stroke-miterlimit="10"/></g><g transform="translate(-22,-6) scale(1,1)"><path fill="#FFFFFF" stroke="none" d="M 599.3253497152483 47.580964487968025 L 579 56 L 599.3253497152483 64.41903551203197"/></g><g transform="translate(-22,-6) scale(1,1)"><path fill="none" stroke="#000000" d="M 599.3253497152483 47.580964487968025 L 579 56 L 599.3253497152483 64.41903551203197 L 599.3253497152483 47.580964487968025" stroke-miterlimit="10"/></g><g transform="translate(-22,-6) scale(1,1)"><path fill="none" stroke="#000000" d="M 248 211 L 248 453 L 448 453" stroke-miterlimit="10"/></g><g transform="translate(-22,-6) scale(1,1)"><path fill="#000000" stroke="none" d="M 437.83732514237585 457.209517756016 L 448 453 L 437.83732514237585 448.790482243984 L 426 453"/></g><g transform="translate(-22,-6) scale(1,1)"><path fill="none" stroke="#000000" d="M 437.83732514237585 457.209517756016 L 448 453 L 437.83732514237585 448.790482243984 L 426 453 L 437.83732514237585 457.209517756016" stroke-miterlimit="10"/></g><g transform="translate(-22,-6) scale(1,1)"><path fill="none" stroke="#000000" d="M 510 211 L 510 408" stroke-miterlimit="10"/></g><g transform="translate(-22,-6) scale(1,1)"><path fill="#000000" stroke="none" d="M 505.790482243984 397.83732514237585 L 510 408 L 514.209517756016 397.83732514237585 L 510 386"/></g><g transform="translate(-22,-6) scale(1,1)"><path fill="none" stroke="#000000" d="M 505.790482243984 397.83732514237585 L 510 408 L 514.209517756016 397.83732514237585 L 510 386 L 505.790482243984 397.83732514237585" stroke-miterlimit="10"/></g><g transform="translate(-22,-6) scale(1,1)"><path fill="none" stroke="#000000" d="M 798 211 L 798 437 L 575 437" stroke-miterlimit="10"/></g><g transform="translate(-22,-6) scale(1,1)"><path fill="#000000" stroke="none" d="M 585.1626748576241 432.790482243984 L 575 437 L 585.1626748576241 441.209517756016 L 597 437"/></g><g transform="translate(-22,-6) scale(1,1)"><path fill="none" stroke="#000000" d="M 585.1626748576241 432.790482243984 L 575 437 L 585.1626748576241 441.209517756016 L 597 437 L 585.1626748576241 432.790482243984" stroke-miterlimit="10"/></g><g transform="translate(-22,-6) scale(1,1)"><rect fill="#C0C0C0" stroke="none" x="687" y="567" width="109.4072265625" height="59" opacity="0.2"/></g><g transform="translate(-22,-6) scale(1,1)"><rect fill="#ffffff" stroke="none" x="680" y="560" width="109.4072265625" height="59"/></g><g transform="translate(-22,-6) scale(1,1)"><path fill="none" stroke="#000000" d="M 680 560 L 789.4072265625 560 L 789.4072265625 619 L 680 619 L 680 560 Z Z" stroke-miterlimit="10"/></g><g transform="translate(-22,-6) scale(1,1)"><path fill="none" stroke="#000000" d="M 680 600 L 789.4072265625 600" stroke-miterlimit="10"/></g><g transform="translate(-22,-6) scale(1,1)"><path fill="none" stroke="#000000" d="M 680 610 L 789.4072265625 610" stroke-miterlimit="10"/></g><g transform="translate(-22,-6) scale(1,1)"><g><path fill="none" stroke="none"/><text fill="#000000" stroke="none" font-family="Arial" font-size="13px" font-style="normal" font-weight="bold" text-decoration="none" x="713.38818359375" y="579.5">Texture</text></g></g><g transform="translate(-22,-6) scale(1,1)"><g><path fill="none" stroke="none"/><text fill="#000000" stroke="none" font-family="Arial" font-size="13px" font-style="normal" font-weight="normal" text-decoration="none" x="684.5" y="594.5">(from Resources)</text></g></g><g transform="translate(-22,-6) scale(1,1)"><rect fill="#C0C0C0" stroke="none" x="175" y="567" width="109.4072265625" height="59" opacity="0.2"/></g><g transform="translate(-22,-6) scale(1,1)"><rect fill="#ffffff" stroke="none" x="168" y="560" width="109.4072265625" height="59"/></g><g transform="translate(-22,-6) scale(1,1)"><path fill="none" stroke="#000000" d="M 168 560 L 277.4072265625 560 L 277.4072265625 619 L 168 619 L 168 560 Z Z" stroke-miterlimit="10"/></g><g transform="translate(-22,-6) scale(1,1)"><path fill="none" stroke="#000000" d="M 168 600 L 277.4072265625 600" stroke-miterlimit="10"/></g><g transform="translate(-22,-6) scale(1,1)"><path fill="none" stroke="#000000" d="M 168 610 L 277.4072265625 610" stroke-miterlimit="10"/></g><g transform="translate(-22,-6) scale(1,1)"><g><path fill="none" stroke="none"/><text fill="#000000" stroke="none" font-family="Arial" font-size="13px" font-style="normal" font-weight="bold" text-decoration="none" x="201.74365234375" y="579.5">Shader</text></g></g><g transform="translate(-22,-6) scale(1,1)"><g><path fill="none" stroke="none"/><text fill="#000000" stroke="none" font-family="Arial" font-size="13px" font-style="normal" font-weight="normal" text-decoration="none" x="172.5" y="594.5">(from Resources)</text></g></g><g transform="translate(-22,-6) scale(1,1)"><rect fill="#C0C0C0" stroke="none" x="879" y="567" width="109.4072265625" height="59" opacity="0.2"/></g><g transform="translate(-22,-6) scale(1,1)"><rect fill="#ffffff" stroke="none" x="872" y="560" width="109.4072265625" height="59"/></g><g transform="translate(-22,-6) scale(1,1)"><path fill="none" stroke="#000000" d="M 872 560 L 981.4072265625 560 L 981.4072265625 619 L 872 619 L 872 560 Z Z" stroke-miterlimit="10"/></g><g transform="translate(-22,-6) scale(1,1)"><path fill="none" stroke="#000000" d="M 872 600 L 981.4072265625 600" stroke-miterlimit="10"/></g><g transform="translate(-22,-6) scale(1,1)"><path fill="none" stroke="#000000" d="M 872 610 L 981.4072265625 610" stroke-miterlimit="10"/></g><g transform="translate(-22,-6) scale(1,1)"><g><path fill="none" stroke="none"/><text fill="#000000" stroke="none" font-family="Arial" font-size="13px" font-style="normal" font-weight="bold" text-decoration="none" x="909" y="579.5">Model</text></g></g><g transform="translate(-22,-6) scale(1,1)"><g><path fill="none" stroke="none"/><text fill="#000000" stroke="none" font-family="Arial" font-size="13px" font-style="normal" font-weight="normal" text-decoration="none" x="876.5" y="594.5">(from Resources)</text></g></g><g transform="translate(-22,-6) scale(1,1)"><rect fill="#C0C0C0" stroke="none" x="167" y="831" width="131.80810546875" height="59" opacity="0.2"/></g><g transform="translate(-22,-6) scale(1,1)"><rect fill="#ffffff" stroke="none" x="160" y="824" width="131.80810546875" height="59"/></g><g transform="translate(-22,-6) scale(1,1)"><path fill="none" stroke="#000000" d="M 160 824 L 291.80810546875 824 L 291.80810546875 883 L 160 883 L 160 824 Z Z" stroke-miterlimit="10"/></g><g transform="translate(-22,-6) scale(1,1)"><path fill="none" stroke="#000000" d="M 160 864 L 291.80810546875 864" stroke-miterlimit="10"/></g><g transform="translate(-22,-6) scale(1,1)"><path fill="none" stroke="#000000" d="M 160 874 L 291.80810546875 874" stroke-miterlimit="10"/></g><g transform="translate(-22,-6) scale(1,1)"><g><path fill="none" stroke="none"/><text fill="#000000" stroke="none" font-family="Arial" font-size="13px" font-style="normal" font-weight="bold" text-decoration="none" x="176.408203125" y="843.5">DModelRenderer</text></g></g><g transform="translate(-22,-6) scale(1,1)"><g><path fill="none" stroke="none"/><text fill="#000000" stroke="none" font-family="Arial" font-size="13px" font-style="normal" font-weight="normal" text-decoration="none" x="193.0390625" y="858.5">(from Data)</text></g></g><g transform="translate(-22,-6) scale(1,1)"><rect fill="#C0C0C0" stroke="none" x="247" y="695" width="120.9853515625" height="59" opacity="0.2"/></g><g transform="translate(-22,-6) scale(1,1)"><rect fill="#ffffff" stroke="none" x="240" y="688" width="120.9853515625" height="59"/></g><g transform="translate(-22,-6) scale(1,1)"><path fill="none" stroke="#000000" d="M 240 688 L 360.9853515625 688 L 360.9853515625 747 L 240 747 L 240 688 Z Z" stroke-miterlimit="10"/></g><g transform="translate(-22,-6) scale(1,1)"><path fill="none" stroke="#000000" d="M 240 728 L 360.9853515625 728" stroke-miterlimit="10"/></g><g transform="translate(-22,-6) scale(1,1)"><path fill="none" stroke="#000000" d="M 240 738 L 360.9853515625 738" stroke-miterlimit="10"/></g><g transform="translate(-22,-6) scale(1,1)"><g><path fill="none" stroke="none"/><text fill="#000000" stroke="none" font-family="Arial" font-size="13px" font-style="normal" font-weight="bold" text-decoration="none" x="256.779541015625" y="707.5">DTextRenderer</text></g></g><g transform="translate(-22,-6) scale(1,1)"><g><path fill="none" stroke="none"/><text fill="#000000" stroke="none" font-family="Arial" font-size="13px" font-style="normal" font-weight="normal" text-decoration="none" x="267.627685546875" y="722.5">(from Data)</text></g></g><g transform="translate(-22,-6) scale(1,1)"><path fill="none" stroke="#000000" d="M 222 560 L 222 211" stroke-miterlimit="10"/></g><g transform="translate(-22,-6) scale(1,1)"><path fill="#000000" stroke="none" d="M 226.209517756016 221.16267485762415 L 222 211 L 217.790482243984 221.16267485762415 L 222 233"/></g><g transform="translate(-22,-6) scale(1,1)"><path fill="none" stroke="#000000" d="M 226.209517756016 221.16267485762415 L 222 211 L 217.790482243984 221.16267485762415 L 222 233 L 226.209517756016 221.16267485762415" stroke-miterlimit="10"/></g><g transform="translate(-22,-6) scale(1,1)"><path fill="none" stroke="#000000" d="M 264 619 L 264 688" stroke-miterlimit="10"/></g><g transform="translate(-22,-6) scale(1,1)"><path fill="#FFFFFF" stroke="none" d="M 259.790482243984 677.8373251423759 L 264 688 L 268.209517756016 677.8373251423759 L 264 666"/></g><g transform="translate(-22,-6) scale(1,1)"><path fill="none" stroke="#000000" d="M 259.790482243984 677.8373251423759 L 264 688 L 268.209517756016 677.8373251423759 L 264 666 L 259.790482243984 677.8373251423759" stroke-miterlimit="10"/></g><g transform="translate(-22,-6) scale(1,1)"><path fill="none" stroke="#000000" d="M 222 619 L 222 824" stroke-miterlimit="10"/></g><g transform="translate(-22,-6) scale(1,1)"><path fill="#FFFFFF" stroke="none" d="M 217.790482243984 813.8373251423759 L 222 824 L 226.209517756016 813.8373251423759 L 222 802"/></g><g transform="translate(-22,-6) scale(1,1)"><path fill="none" stroke="#000000" d="M 217.790482243984 813.8373251423759 L 222 824 L 226.209517756016 813.8373251423759 L 222 802 L 217.790482243984 813.8373251423759" stroke-miterlimit="10"/></g><g transform="translate(-22,-6) scale(1,1)"><path fill="none" stroke="#000000" d="M 928 619 L 928 864 L 292 864" stroke-miterlimit="10"/></g><g transform="translate(-22,-6) scale(1,1)"><path fill="#FFFFFF" stroke="none" d="M 302.16267485762415 859.790482243984 L 292 864 L 302.16267485762415 868.209517756016 L 314 864"/></g><g transform="translate(-22,-6) scale(1,1)"><path fill="none" stroke="#000000" d="M 302.16267485762415 859.790482243984 L 292 864 L 302.16267485762415 868.209517756016 L 314 864 L 302.16267485762415 859.790482243984" stroke-miterlimit="10"/></g><g transform="translate(-22,-6) scale(1,1)"><path fill="none" stroke="#000000" d="M 928 560 L 928 181 L 852 181" stroke-miterlimit="10"/></g><g transform="translate(-22,-6) scale(1,1)"><path fill="#000000" stroke="none" d="M 862.1626748576241 176.790482243984 L 852 181 L 862.1626748576241 185.209517756016 L 874 181"/></g><g transform="translate(-22,-6) scale(1,1)"><path fill="none" stroke="#000000" d="M 862.1626748576241 176.790482243984 L 852 181 L 862.1626748576241 185.209517756016 L 874 181 L 862.1626748576241 176.790482243984" stroke-miterlimit="10"/></g><g transform="translate(-22,-6) scale(1,1)"><rect fill="#C0C0C0" stroke="none" x="471" y="567" width="131.09716796875" height="59" opacity="0.2"/></g><g transform="translate(-22,-6) scale(1,1)"><rect fill="#ffffff" stroke="none" x="464" y="560" width="131.09716796875" height="59"/></g><g transform="translate(-22,-6) scale(1,1)"><path fill="none" stroke="#000000" d="M 464 560 L 595.09716796875 560 L 595.09716796875 619 L 464 619 L 464 560 Z Z" stroke-miterlimit="10"/></g><g transform="translate(-22,-6) scale(1,1)"><path fill="none" stroke="#000000" d="M 464 600 L 595.09716796875 600" stroke-miterlimit="10"/></g><g transform="translate(-22,-6) scale(1,1)"><path fill="none" stroke="#000000" d="M 464 610 L 595.09716796875 610" stroke-miterlimit="10"/></g><g transform="translate(-22,-6) scale(1,1)"><g><path fill="none" stroke="none"/><text fill="#000000" stroke="none" font-family="Arial" font-size="13px" font-style="normal" font-weight="bold" text-decoration="none" x="480.7763671875" y="579.5">DSpriteRenderer</text></g></g><g transform="translate(-22,-6) scale(1,1)"><g><path fill="none" stroke="none"/><text fill="#000000" stroke="none" font-family="Arial" font-size="13px" font-style="normal" font-weight="normal" text-decoration="none" x="496.68359375" y="594.5">(from Data)</text></g></g><g transform="translate(-22,-6) scale(1,1)"><path fill="none" stroke="#000000" d="M 734 560 L 734 384 L 534 384 L 534 211" stroke-miterlimit="10"/></g><g transform="translate(-22,-6) scale(1,1)"><path fill="#000000" stroke="none" d="M 538.209517756016 221.16267485762415 L 534 211 L 529.790482243984 221.16267485762415 L 534 233"/></g><g transform="translate(-22,-6) scale(1,1)"><path fill="none" stroke="#000000" d="M 538.209517756016 221.16267485762415 L 534 211 L 529.790482243984 221.16267485762415 L 534 233 L 538.209517756016 221.16267485762415" stroke-miterlimit="10"/></g><g transform="translate(-22,-6) scale(1,1)"><path fill="none" stroke="#000000" d="M 680 589 L 595 589" stroke-miterlimit="10"/></g><g transform="translate(-22,-6) scale(1,1)"><path fill="#FFFFFF" stroke="none" d="M 605.1626748576241 584.790482243984 L 595 589 L 605.1626748576241 593.209517756016 L 617 589"/></g><g transform="translate(-22,-6) scale(1,1)"><path fill="none" stroke="#000000" d="M 605.1626748576241 584.790482243984 L 595 589 L 605.1626748576241 593.209517756016 L 617 589 L 605.1626748576241 584.790482243984" stroke-miterlimit="10"/></g><g transform="translate(-22,-6) scale(1,1)"><path fill="none" stroke="#000000" d="M 277 589 L 464 589" stroke-miterlimit="10"/></g><g transform="translate(-22,-6) scale(1,1)"><path fill="#FFFFFF" stroke="none" d="M 453.83732514237585 593.209517756016 L 464 589 L 453.83732514237585 584.790482243984 L 442 589"/></g><g transform="translate(-22,-6) scale(1,1)"><path fill="none" stroke="#000000" d="M 453.83732514237585 593.209517756016 L 464 589 L 453.83732514237585 584.790482243984 L 442 589 L 453.83732514237585 593.209517756016" stroke-miterlimit="10"/></g><g transform="translate(-22,-6) scale(1,1)"><path fill="#C0C0C0" stroke="none" d="M 521.127685546875 722.5 C 521.127685546875 716.1487248 526.276410346875 711 532.627685546875 711 C 538.978960746875 711 544.127685546875 716.1487248 544.127685546875 722.5 C 544.127685546875 728.8512752 538.978960746875 734 532.627685546875 734 C 526.276410346875 734 521.127685546875 728.8512752 521.127685546875 722.5 Z" opacity="0.2"/></g><g transform="translate(-22,-6) scale(1,1)"><path fill="#ffff91" stroke="none" d="M 514.127685546875 715.5 C 514.127685546875 709.1487248 519.276410346875 704 525.627685546875 704 C 531.978960746875 704 537.127685546875 709.1487248 537.127685546875 715.5 C 537.127685546875 721.8512752 531.978960746875 727 525.627685546875 727 C 519.276410346875 727 514.127685546875 721.8512752 514.127685546875 715.5 Z"/></g><g transform="translate(-22,-6) scale(1,1)"><path fill="none" stroke="#000000" d="M 514.127685546875 715.5 C 514.127685546875 709.1487248 519.276410346875 704 525.627685546875 704 C 531.978960746875 704 537.127685546875 709.1487248 537.127685546875 715.5 C 537.127685546875 721.8512752 531.978960746875 727 525.627685546875 727 C 519.276410346875 727 514.127685546875 721.8512752 514.127685546875 715.5 Z" stroke-miterlimit="10"/></g><g transform="translate(-22,-6) scale(1,1)"><g><path fill="none" stroke="none"/><text fill="#000000" stroke="none" font-family="Arial" font-size="13px" font-style="normal" font-weight="bold" text-decoration="none" x="490.214111328125" y="746.5">IRenderable</text></g></g><g transform="translate(-22,-6) scale(1,1)"><g><path fill="none" stroke="none"/><text fill="#000000" stroke="none" font-family="Arial" font-size="13px" font-style="normal" font-weight="normal" text-decoration="none" x="476.5" y="761.5">(from Rendering)</text></g></g><g transform="translate(-22,-6) scale(1,1)"><path fill="none" stroke="#000000" d="M 361 715 L 514.127685546875 715" stroke-miterlimit="10"/></g><g transform="translate(-22,-6) scale(1,1)"><path fill="none" stroke="#000000" d="M 292 840 L 525 840 L 525 727" stroke-miterlimit="10"/></g><g transform="translate(-22,-6) scale(1,1)"><path fill="none" stroke="#000000" d="M 524 619 L 524 704" stroke-miterlimit="10"/></g><g transform="translate(-22,-6) scale(1,1)"><path fill="#C0C0C0" stroke="none" d="M 82.57177734375 170.5 C 82.57177734375 164.1487248 87.72050214375 159 94.07177734375 159 C 100.42305254375 159 105.57177734375 164.1487248 105.57177734375 170.5 C 105.57177734375 176.8512752 100.42305254375 182 94.07177734375 182 C 87.72050214375 182 82.57177734375 176.8512752 82.57177734375 170.5 Z" opacity="0.2"/></g><g transform="translate(-22,-6) scale(1,1)"><path fill="#ffff91" stroke="none" d="M 75.57177734375 163.5 C 75.57177734375 157.1487248 80.72050214375 152 87.07177734375 152 C 93.42305254375 152 98.57177734375 157.1487248 98.57177734375 163.5 C 98.57177734375 169.8512752 93.42305254375 175 87.07177734375 175 C 80.72050214375 175 75.57177734375 169.8512752 75.57177734375 163.5 Z"/></g><g transform="translate(-22,-6) scale(1,1)"><path fill="none" stroke="#000000" d="M 75.57177734375 163.5 C 75.57177734375 157.1487248 80.72050214375 152 87.07177734375 152 C 93.42305254375 152 98.57177734375 157.1487248 98.57177734375 163.5 C 98.57177734375 169.8512752 93.42305254375 175 87.07177734375 175 C 80.72050214375 175 75.57177734375 169.8512752 75.57177734375 163.5 Z" stroke-miterlimit="10"/></g><g transform="translate(-22,-6) scale(1,1)"><g><path fill="none" stroke="none"/><text fill="#000000" stroke="none" font-family="Arial" font-size="13px" font-style="normal" font-weight="bold" text-decoration="none" x="38.65185546875" y="194.5">IShaderManager</text></g></g><g transform="translate(-22,-6) scale(1,1)"><g><path fill="none" stroke="none"/><text fill="#000000" stroke="none" font-family="Arial" font-size="13px" font-style="normal" font-weight="normal" text-decoration="none" x="39.03271484375" y="209.5">(from Managers)</text></g></g><g transform="translate(-22,-6) scale(1,1)"><path fill="#C0C0C0" stroke="none" d="M 371.533447265625 170.5 C 371.533447265625 164.1487248 376.682172065625 159 383.033447265625 159 C 389.384722465625 159 394.533447265625 164.1487248 394.533447265625 170.5 C 394.533447265625 176.8512752 389.384722465625 182 383.033447265625 182 C 376.682172065625 182 371.533447265625 176.8512752 371.533447265625 170.5 Z" opacity="0.2"/></g><g transform="translate(-22,-6) scale(1,1)"><path fill="#ffff91" stroke="none" d="M 364.533447265625 163.5 C 364.533447265625 157.1487248 369.682172065625 152 376.033447265625 152 C 382.384722465625 152 387.533447265625 157.1487248 387.533447265625 163.5 C 387.533447265625 169.8512752 382.384722465625 175 376.033447265625 175 C 369.682172065625 175 364.533447265625 169.8512752 364.533447265625 163.5 Z"/></g><g transform="translate(-22,-6) scale(1,1)"><path fill="none" stroke="#000000" d="M 364.533447265625 163.5 C 364.533447265625 157.1487248 369.682172065625 152 376.033447265625 152 C 382.384722465625 152 387.533447265625 157.1487248 387.533447265625 163.5 C 387.533447265625 169.8512752 382.384722465625 175 376.033447265625 175 C 369.682172065625 175 364.533447265625 169.8512752 364.533447265625 163.5 Z" stroke-miterlimit="10"/></g><g transform="translate(-22,-6) scale(1,1)"><g><path fill="none" stroke="none"/><text fill="#000000" stroke="none" font-family="Arial" font-size="13px" font-style="normal" font-weight="bold" text-decoration="none" x="327.258056640625" y="194.5">ITextureManager</text></g></g><g transform="translate(-22,-6) scale(1,1)"><g><path fill="none" stroke="none"/><text fill="#000000" stroke="none" font-family="Arial" font-size="13px" font-style="normal" font-weight="normal" text-decoration="none" x="327.994384765625" y="209.5">(from Managers)</text></g></g><g transform="translate(-22,-6) scale(1,1)"><path fill="#C0C0C0" stroke="none" d="M 656.0390625 170.5 C 656.0390625 164.1487248 661.1877873 159 667.5390625 159 C 673.8903377 159 679.0390625 164.1487248 679.0390625 170.5 C 679.0390625 176.8512752 673.8903377 182 667.5390625 182 C 661.1877873 182 656.0390625 176.8512752 656.0390625 170.5 Z" opacity="0.2"/></g><g transform="translate(-22,-6) scale(1,1)"><path fill="#ffff91" stroke="none" d="M 649.0390625 163.5 C 649.0390625 157.1487248 654.1877873 152 660.5390625 152 C 666.8903377 152 672.0390625 157.1487248 672.0390625 163.5 C 672.0390625 169.8512752 666.8903377 175 660.5390625 175 C 654.1877873 175 649.0390625 169.8512752 649.0390625 163.5 Z"/></g><g transform="translate(-22,-6) scale(1,1)"><path fill="none" stroke="#000000" d="M 649.0390625 163.5 C 649.0390625 157.1487248 654.1877873 152 660.5390625 152 C 666.8903377 152 672.0390625 157.1487248 672.0390625 163.5 C 672.0390625 169.8512752 666.8903377 175 660.5390625 175 C 654.1877873 175 649.0390625 169.8512752 649.0390625 163.5 Z" stroke-miterlimit="10"/></g><g transform="translate(-22,-6) scale(1,1)"><g><path fill="none" stroke="none"/><text fill="#000000" stroke="none" font-family="Arial" font-size="13px" font-style="normal" font-weight="bold" text-decoration="none" x="615.37548828125" y="194.5">IModelManager</text></g></g><g transform="translate(-22,-6) scale(1,1)"><g><path fill="none" stroke="none"/><text fill="#000000" stroke="none" font-family="Arial" font-size="13px" font-style="normal" font-weight="normal" text-decoration="none" x="612.5" y="209.5">(from Managers)</text></g></g><g transform="translate(-22,-6) scale(1,1)"><path fill="none" stroke="#000000" d="M 168 163 L 98.57177734375 163" stroke-miterlimit="10"/></g><g transform="translate(-22,-6) scale(1,1)"><path fill="none" stroke="#000000" d="M 456 163 L 387.533447265625 163" stroke-miterlimit="10"/></g><g transform="translate(-22,-6) scale(1,1)"><path fill="none" stroke="#000000" d="M 744 163 L 672.0390625 163" stroke-miterlimit="10"/></g><g transform="translate(-22,-6) scale(1,1)"><rect fill="#C0C0C0" stroke="none" x="343" y="503" width="84.87353515625" height="59" opacity="0.2"/></g><g transform="translate(-22,-6) scale(1,1)"><rect fill="#ffffff" stroke="none" x="336" y="496" width="84.87353515625" height="59"/></g><g transform="translate(-22,-6) scale(1,1)"><path fill="none" stroke="#000000" d="M 336 496 L 420.87353515625 496 L 420.87353515625 555 L 336 555 L 336 496 Z Z" stroke-miterlimit="10"/></g><g transform="translate(-22,-6) scale(1,1)"><path fill="none" stroke="#000000" d="M 336 536 L 420.87353515625 536" stroke-miterlimit="10"/></g><g transform="translate(-22,-6) scale(1,1)"><path fill="none" stroke="#000000" d="M 336 546 L 420.87353515625 546" stroke-miterlimit="10"/></g><g transform="translate(-22,-6) scale(1,1)"><g><path fill="none" stroke="none"/><text fill="#000000" stroke="none" font-family="Arial" font-size="13px" font-style="normal" font-weight="bold" text-decoration="none" x="350.62451171875" y="515.5">DCamera</text></g></g><g transform="translate(-22,-6) scale(1,1)"><g><path fill="none" stroke="none"/><text fill="#000000" stroke="none" font-family="Arial" font-size="13px" font-style="normal" font-weight="normal" text-decoration="none" x="345.57177734375" y="530.5">(from Data)</text></g></g><g transform="translate(-22,-6) scale(1,1)"><path fill="none" stroke="#000000" d="M 421 528 L 508 528 L 508 467" stroke-miterlimit="10"/></g><g transform="translate(-22,-6) scale(1,1)"><path fill="#FFFFFF" stroke="none" d="M 512.209517756016 477.16267485762415 L 508 467 L 503.790482243984 477.16267485762415 L 508 489"/></g><g transform="translate(-22,-6) scale(1,1)"><path fill="none" stroke="#000000" d="M 512.209517756016 477.16267485762415 L 508 467 L 503.790482243984 477.16267485762415 L 508 489 L 512.209517756016 477.16267485762415" stroke-miterlimit="10"/></g><g transform="translate(-22,-6) scale(1,1)"><rect fill="#C0C0C0" stroke="none" x="327" y="327" width="92.07177734375" height="59" opacity="0.2"/></g><g transform="translate(-22,-6) scale(1,1)"><rect fill="#ffffff" stroke="none" x="320" y="320" width="92.07177734375" height="59"/></g><g transform="translate(-22,-6) scale(1,1)"><path fill="none" stroke="#000000" d="M 320 320 L 412.07177734375 320 L 412.07177734375 379 L 320 379 L 320 320 Z Z" stroke-miterlimit="10"/></g><g transform="translate(-22,-6) scale(1,1)"><path fill="none" stroke="#000000" d="M 320 360 L 412.07177734375 360" stroke-miterlimit="10"/></g><g transform="translate(-22,-6) scale(1,1)"><path fill="none" stroke="#000000" d="M 320 370 L 412.07177734375 370" stroke-miterlimit="10"/></g><g transform="translate(-22,-6) scale(1,1)"><g><path fill="none" stroke="none"/><text fill="#000000" stroke="none" font-family="Arial" font-size="13px" font-style="normal" font-weight="bold" text-decoration="none" x="329.562255859375" y="339.5">GLEWDriver</text></g></g><g transform="translate(-22,-6) scale(1,1)"><g><path fill="none" stroke="none"/><text fill="#000000" stroke="none" font-family="Arial" font-size="13px" font-style="normal" font-weight="normal" text-decoration="none" x="324.5" y="354.5">(from Context)</text></g></g><g transform="translate(-22,-6) scale(1,1)"><path fill="none" stroke="#000000" d="M 366 379 L 366 424 L 448 424" stroke-miterlimit="10"/></g><g transform="translate(-22,-6) scale(1,1)"><path fill="#000000" stroke="none" d="M 437.83732514237585 428.209517756016 L 448 424 L 437.83732514237585 419.790482243984 L 426 424"/></g><g transform="translate(-22,-6) scale(1,1)"><path fill="none" stroke="#000000" d="M 437.83732514237585 428.209517756016 L 448 424 L 437.83732514237585 419.790482243984 L 426 424 L 437.83732514237585 428.209517756016" stroke-miterlimit="10"/></g><g transform="translate(-22,-6) scale(1,1)"><path fill="#C0C0C0" stroke="none" d="M 361.535888671875 272.5 C 361.535888671875 266.1487248 366.684613471875 261 373.035888671875 261 C 379.387163871875 261 384.535888671875 266.1487248 384.535888671875 272.5 C 384.535888671875 278.8512752 379.387163871875 284 373.035888671875 284 C 366.684613471875 284 361.535888671875 278.8512752 361.535888671875 272.5 Z" opacity="0.2"/></g><g transform="translate(-22,-6) scale(1,1)"><path fill="#ffff91" stroke="none" d="M 354.535888671875 265.5 C 354.535888671875 259.1487248 359.684613471875 254 366.035888671875 254 C 372.387163871875 254 377.535888671875 259.1487248 377.535888671875 265.5 C 377.535888671875 271.8512752 372.387163871875 277 366.035888671875 277 C 359.684613471875 277 354.535888671875 271.8512752 354.535888671875 265.5 Z"/></g><g transform="translate(-22,-6) scale(1,1)"><path fill="none" stroke="#000000" d="M 354.535888671875 265.5 C 354.535888671875 259.1487248 359.684613471875 254 366.035888671875 254 C 372.387163871875 254 377.535888671875 259.1487248 377.535888671875 265.5 C 377.535888671875 271.8512752 372.387163871875 277 366.035888671875 277 C 359.684613471875 277 354.535888671875 271.8512752 354.535888671875 265.5 Z" stroke-miterlimit="10"/></g><g transform="translate(-22,-6) scale(1,1)"><g><path fill="none" stroke="none"/><text fill="#000000" stroke="none" font-family="Arial" font-size="13px" font-style="normal" font-weight="bold" text-decoration="none" x="346.897705078125" y="296.5">IDriver</text></g></g><g transform="translate(-22,-6) scale(1,1)"><g><path fill="none" stroke="none"/><text fill="#000000" stroke="none" font-family="Arial" font-size="13px" font-style="normal" font-weight="normal" text-decoration="none" x="324.5" y="311.5">(from Context)</text></g></g><g transform="translate(-22,-6) scale(1,1)"><path fill="none" stroke="#000000" d="M 366 320 L 366 277" stroke-miterlimit="10"/></g></g></svg>