<svg version="1.1" xmlns="http://www.w3.org/2000/svg" xmlns:xlink="http://www.w3.org/1999/xlink" width="855.3544921875" height="699"><defs/><g><g transform="translate(-22,-6) scale(1,1)"><path fill="#C0C0C0" stroke="none" d="M 92.67724609375 126.5 C 92.67724609375 120.1487248 97.82597089375 115 104.17724609375 115 C 110.52852129375 115 115.67724609375 120.1487248 115.67724609375 126.5 C 115.67724609375 132.8512752 110.52852129375 138 104.17724609375 138 C 97.82597089375 138 92.67724609375 132.8512752 92.67724609375 126.5 Z" opacity="0.2"/></g><g transform="translate(-22,-6) scale(1,1)"><path fill="#ffffff" stroke="none" d="M 85.67724609375 119.5 C 85.67724609375 113.1487248 90.82597089375 108 97.17724609375 108 C 103.52852129375 108 108.67724609375 113.1487248 108.67724609375 119.5 C 108.67724609375 125.8512752 103.52852129375 131 97.17724609375 131 C 90.82597089375 131 85.67724609375 125.8512752 85.67724609375 119.5 Z"/></g><g transform="translate(-22,-6) scale(1,1)"><path fill="none" stroke="#000000" d="M 85.67724609375 119.5 C 85.67724609375 113.1487248 90.82597089375 108 97.17724609375 108 C 103.52852129375 108 108.67724609375 113.1487248 108.67724609375 119.5 C 108.67724609375 125.8512752 103.52852129375 131 97.17724609375 131 C 90.82597089375 131 85.67724609375 125.8512752 85.67724609375 119.5 Z" stroke-miterlimit="10"/></g><g transform="translate(-22,-6) scale(1,1)"><g><path fill="none" stroke="none"/><text fill="#000000" stroke="none" font-family="Arial" font-size="13px" font-style="normal" font-weight="bold" text-decoration="none" x="55.260498046875" y="150.5">IInputManager</text></g></g><g transform="translate(-22,-6) scale(1,1)"><g><path fill="none" stroke="none"/><text fill="#000000" stroke="none" font-family="Arial" font-size="13px" font-style="normal" font-weight="normal" text-decoration="none" x="53.1181640625" y="165.5">(from Services)</text></g></g><g transform="translate(-22,-6) scale(1,1)"><path fill="#C0C0C0" stroke="none" d="M 233.67724609375 126.5 C 233.67724609375 120.1487248 238.82597089375 115 245.17724609375 115 C 251.52852129375 115 256.67724609375 120.1487248 256.67724609375 126.5 C 256.67724609375 132.8512752 251.52852129375 138 245.17724609375 138 C 238.82597089375 138 233.67724609375 132.8512752 233.67724609375 126.5 Z" opacity="0.2"/></g><g transform="translate(-22,-6) scale(1,1)"><path fill="#ffffff" stroke="none" d="M 226.67724609375 119.5 C 226.67724609375 113.1487248 231.82597089375 108 238.17724609375 108 C 244.52852129375 108 249.67724609375 113.1487248 249.67724609375 119.5 C 249.67724609375 125.8512752 244.52852129375 131 238.17724609375 131 C 231.82597089375 131 226.67724609375 125.8512752 226.67724609375 119.5 Z"/></g><g transform="translate(-22,-6) scale(1,1)"><path fill="none" stroke="#000000" d="M 226.67724609375 119.5 C 226.67724609375 113.1487248 231.82597089375 108 238.17724609375 108 C 244.52852129375 108 249.67724609375 113.1487248 249.67724609375 119.5 C 249.67724609375 125.8512752 244.52852129375 131 238.17724609375 131 C 231.82597089375 131 226.67724609375 125.8512752 226.67724609375 119.5 Z" stroke-miterlimit="10"/></g><g transform="translate(-22,-6) scale(1,1)"><g><path fill="none" stroke="none"/><text fill="#000000" stroke="none" font-family="Arial" font-size="13px" font-style="normal" font-weight="bold" text-decoration="none" x="194.0927734375" y="150.5">IAudioManager</text></g></g><g transform="translate(-22,-6) scale(1,1)"><g><path fill="none" stroke="none"/><text fill="#000000" stroke="none" font-family="Arial" font-size="13px" font-style="normal" font-weight="normal" text-decoration="none" x="194.1181640625" y="165.5">(from Services)</text></g></g><g transform="translate(-22,-6) scale(1,1)"><path fill="#C0C0C0" stroke="none" d="M 372.67724609375 126.5 C 372.67724609375 120.1487248 377.82597089375 115 384.17724609375 115 C 390.52852129375 115 395.67724609375 120.1487248 395.67724609375 126.5 C 395.67724609375 132.8512752 390.52852129375 138 384.17724609375 138 C 377.82597089375 138 372.67724609375 132.8512752 372.67724609375 126.5 Z" opacity="0.2"/></g><g transform="translate(-22,-6) scale(1,1)"><path fill="#ffffff" stroke="none" d="M 365.67724609375 119.5 C 365.67724609375 113.1487248 370.82597089375 108 377.17724609375 108 C 383.52852129375 108 388.67724609375 113.1487248 388.67724609375 119.5 C 388.67724609375 125.8512752 383.52852129375 131 377.17724609375 131 C 370.82597089375 131 365.67724609375 125.8512752 365.67724609375 119.5 Z"/></g><g transform="translate(-22,-6) scale(1,1)"><path fill="none" stroke="#000000" d="M 365.67724609375 119.5 C 365.67724609375 113.1487248 370.82597089375 108 377.17724609375 108 C 383.52852129375 108 388.67724609375 113.1487248 388.67724609375 119.5 C 388.67724609375 125.8512752 383.52852129375 131 377.17724609375 131 C 370.82597089375 131 365.67724609375 125.8512752 365.67724609375 119.5 Z" stroke-miterlimit="10"/></g><g transform="translate(-22,-6) scale(1,1)"><g><path fill="none" stroke="none"/><text fill="#000000" stroke="none" font-family="Arial" font-size="13px" font-style="normal" font-weight="bold" text-decoration="none" x="327.32275390625" y="150.5">IPhysicsManager</text></g></g><g transform="translate(-22,-6) scale(1,1)"><g><path fill="none" stroke="none"/><text fill="#000000" stroke="none" font-family="Arial" font-size="13px" font-style="normal" font-weight="normal" text-decoration="none" x="333.1181640625" y="165.5">(from Services)</text></g></g><g transform="translate(-22,-6) scale(1,1)"><path fill="#C0C0C0" stroke="none" d="M 515.67724609375 126.5 C 515.67724609375 120.1487248 520.82597089375 115 527.17724609375 115 C 533.52852129375 115 538.67724609375 120.1487248 538.67724609375 126.5 C 538.67724609375 132.8512752 533.52852129375 138 527.17724609375 138 C 520.82597089375 138 515.67724609375 132.8512752 515.67724609375 126.5 Z" opacity="0.2"/></g><g transform="translate(-22,-6) scale(1,1)"><path fill="#ffffff" stroke="none" d="M 508.67724609375 119.5 C 508.67724609375 113.1487248 513.82597089375 108 520.17724609375 108 C 526.52852129375 108 531.67724609375 113.1487248 531.67724609375 119.5 C 531.67724609375 125.8512752 526.52852129375 131 520.17724609375 131 C 513.82597089375 131 508.67724609375 125.8512752 508.67724609375 119.5 Z"/></g><g transform="translate(-22,-6) scale(1,1)"><path fill="none" stroke="#000000" d="M 508.67724609375 119.5 C 508.67724609375 113.1487248 513.82597089375 108 520.17724609375 108 C 526.52852129375 108 531.67724609375 113.1487248 531.67724609375 119.5 C 531.67724609375 125.8512752 526.52852129375 131 520.17724609375 131 C 513.82597089375 131 508.67724609375 125.8512752 508.67724609375 119.5 Z" stroke-miterlimit="10"/></g><g transform="translate(-22,-6) scale(1,1)"><g><path fill="none" stroke="none"/><text fill="#000000" stroke="none" font-family="Arial" font-size="13px" font-style="normal" font-weight="bold" text-decoration="none" x="462.724609375" y="150.5">IRenderingManager</text></g></g><g transform="translate(-22,-6) scale(1,1)"><g><path fill="none" stroke="none"/><text fill="#000000" stroke="none" font-family="Arial" font-size="13px" font-style="normal" font-weight="normal" text-decoration="none" x="476.1181640625" y="165.5">(from Services)</text></g></g><g transform="translate(-22,-6) scale(1,1)"><path fill="#C0C0C0" stroke="none" d="M 656.67724609375 126.5 C 656.67724609375 120.1487248 661.82597089375 115 668.17724609375 115 C 674.52852129375 115 679.67724609375 120.1487248 679.67724609375 126.5 C 679.67724609375 132.8512752 674.52852129375 138 668.17724609375 138 C 661.82597089375 138 656.67724609375 132.8512752 656.67724609375 126.5 Z" opacity="0.2"/></g><g transform="translate(-22,-6) scale(1,1)"><path fill="#ffffff" stroke="none" d="M 649.67724609375 119.5 C 649.67724609375 113.1487248 654.82597089375 108 661.17724609375 108 C 667.52852129375 108 672.67724609375 113.1487248 672.67724609375 119.5 C 672.67724609375 125.8512752 667.52852129375 131 661.17724609375 131 C 654.82597089375 131 649.67724609375 125.8512752 649.67724609375 119.5 Z"/></g><g transform="translate(-22,-6) scale(1,1)"><path fill="none" stroke="#000000" d="M 649.67724609375 119.5 C 649.67724609375 113.1487248 654.82597089375 108 661.17724609375 108 C 667.52852129375 108 672.67724609375 113.1487248 672.67724609375 119.5 C 672.67724609375 125.8512752 667.52852129375 131 661.17724609375 131 C 654.82597089375 131 649.67724609375 125.8512752 649.67724609375 119.5 Z" stroke-miterlimit="10"/></g><g transform="translate(-22,-6) scale(1,1)"><g><path fill="none" stroke="none"/><text fill="#000000" stroke="none" font-family="Arial" font-size="13px" font-style="normal" font-weight="bold" text-decoration="none" x="615.286865234375" y="150.5">ISceneManager</text></g></g><g transform="translate(-22,-6) scale(1,1)"><g><path fill="none" stroke="none"/><text fill="#000000" stroke="none" font-family="Arial" font-size="13px" font-style="normal" font-weight="normal" text-decoration="none" x="617.1181640625" y="165.5">(from Services)</text></g></g><g transform="translate(-22,-6) scale(1,1)"><path fill="#C0C0C0" stroke="none" d="M 797.67724609375 126.5 C 797.67724609375 120.1487248 802.82597089375 115 809.17724609375 115 C 815.52852129375 115 820.67724609375 120.1487248 820.67724609375 126.5 C 820.67724609375 132.8512752 815.52852129375 138 809.17724609375 138 C 802.82597089375 138 797.67724609375 132.8512752 797.67724609375 126.5 Z" opacity="0.2"/></g><g transform="translate(-22,-6) scale(1,1)"><path fill="#ffffff" stroke="none" d="M 790.67724609375 119.5 C 790.67724609375 113.1487248 795.82597089375 108 802.17724609375 108 C 808.52852129375 108 813.67724609375 113.1487248 813.67724609375 119.5 C 813.67724609375 125.8512752 808.52852129375 131 802.17724609375 131 C 795.82597089375 131 790.67724609375 125.8512752 790.67724609375 119.5 Z"/></g><g transform="translate(-22,-6) scale(1,1)"><path fill="none" stroke="#000000" d="M 790.67724609375 119.5 C 790.67724609375 113.1487248 795.82597089375 108 802.17724609375 108 C 808.52852129375 108 813.67724609375 113.1487248 813.67724609375 119.5 C 813.67724609375 125.8512752 808.52852129375 131 802.17724609375 131 C 795.82597089375 131 790.67724609375 125.8512752 790.67724609375 119.5 Z" stroke-miterlimit="10"/></g><g transform="translate(-22,-6) scale(1,1)"><g><path fill="none" stroke="none"/><text fill="#000000" stroke="none" font-family="Arial" font-size="13px" font-style="normal" font-weight="bold" text-decoration="none" x="754.477783203125" y="150.5">IEngineManager</text></g></g><g transform="translate(-22,-6) scale(1,1)"><g><path fill="none" stroke="none"/><text fill="#000000" stroke="none" font-family="Arial" font-size="13px" font-style="normal" font-weight="normal" text-decoration="none" x="758.1181640625" y="165.5">(from Services)</text></g></g><g transform="translate(-22,-6) scale(1,1)"><path fill="#C0C0C0" stroke="none" d="M 377.535888671875 554.5 C 377.535888671875 548.1487248 382.684613471875 543 389.035888671875 543 C 395.387163871875 543 400.535888671875 548.1487248 400.535888671875 554.5 C 400.535888671875 560.8512752 395.387163871875 566 389.035888671875 566 C 382.684613471875 566 377.535888671875 560.8512752 377.535888671875 554.5 Z" opacity="0.2"/></g><g transform="translate(-22,-6) scale(1,1)"><path fill="#ffffff" stroke="none" d="M 370.535888671875 547.5 C 370.535888671875 541.1487248 375.684613471875 536 382.035888671875 536 C 388.387163871875 536 393.535888671875 541.1487248 393.535888671875 547.5 C 393.535888671875 553.8512752 388.387163871875 559 382.035888671875 559 C 375.684613471875 559 370.535888671875 553.8512752 370.535888671875 547.5 Z"/></g><g transform="translate(-22,-6) scale(1,1)"><path fill="none" stroke="#000000" d="M 370.535888671875 547.5 C 370.535888671875 541.1487248 375.684613471875 536 382.035888671875 536 C 388.387163871875 536 393.535888671875 541.1487248 393.535888671875 547.5 C 393.535888671875 553.8512752 388.387163871875 559 382.035888671875 559 C 375.684613471875 559 370.535888671875 553.8512752 370.535888671875 547.5 Z" stroke-miterlimit="10"/></g><g transform="translate(-22,-6) scale(1,1)"><g><path fill="none" stroke="none"/><text fill="#000000" stroke="none" font-family="Arial" font-size="13px" font-style="normal" font-weight="bold" text-decoration="none" x="362.897705078125" y="578.5">IDriver</text></g></g><g transform="translate(-22,-6) scale(1,1)"><g><path fill="none" stroke="none"/><text fill="#000000" stroke="none" font-family="Arial" font-size="13px" font-style="normal" font-weight="normal" text-decoration="none" x="340.5" y="593.5">(from Context)</text></g></g><g transform="translate(-22,-6) scale(1,1)"><path fill="#C0C0C0" stroke="none" d="M 529.535888671875 554.5 C 529.535888671875 548.1487248 534.684613471875 543 541.035888671875 543 C 547.387163871875 543 552.535888671875 548.1487248 552.535888671875 554.5 C 552.535888671875 560.8512752 547.387163871875 566 541.035888671875 566 C 534.684613471875 566 529.535888671875 560.8512752 529.535888671875 554.5 Z" opacity="0.2"/></g><g transform="translate(-22,-6) scale(1,1)"><path fill="#ffffff" stroke="none" d="M 522.535888671875 547.5 C 522.535888671875 541.1487248 527.684613471875 536 534.035888671875 536 C 540.387163871875 536 545.535888671875 541.1487248 545.535888671875 547.5 C 545.535888671875 553.8512752 540.387163871875 559 534.035888671875 559 C 527.684613471875 559 522.535888671875 553.8512752 522.535888671875 547.5 Z"/></g><g transform="translate(-22,-6) scale(1,1)"><path fill="none" stroke="#000000" d="M 522.535888671875 547.5 C 522.535888671875 541.1487248 527.684613471875 536 534.035888671875 536 C 540.387163871875 536 545.535888671875 541.1487248 545.535888671875 547.5 C 545.535888671875 553.8512752 540.387163871875 559 534.035888671875 559 C 527.684613471875 559 522.535888671875 553.8512752 522.535888671875 547.5 Z" stroke-miterlimit="10"/></g><g transform="translate(-22,-6) scale(1,1)"><g><path fill="none" stroke="none"/><text fill="#000000" stroke="none" font-family="Arial" font-size="13px" font-style="normal" font-weight="bold" text-decoration="none" x="512.36181640625" y="578.5">IDevice</text></g></g><g transform="translate(-22,-6) scale(1,1)"><g><path fill="none" stroke="none"/><text fill="#000000" stroke="none" font-family="Arial" font-size="13px" font-style="normal" font-weight="normal" text-decoration="none" x="492.5" y="593.5">(from Context)</text></g></g><g transform="translate(-22,-6) scale(1,1)"><path fill="#C0C0C0" stroke="none" d="M 409.127685546875 650.5 C 409.127685546875 644.1487248 414.276410346875 639 420.627685546875 639 C 426.978960746875 639 432.127685546875 644.1487248 432.127685546875 650.5 C 432.127685546875 656.8512752 426.978960746875 662 420.627685546875 662 C 414.276410346875 662 409.127685546875 656.8512752 409.127685546875 650.5 Z" opacity="0.2"/></g><g transform="translate(-22,-6) scale(1,1)"><path fill="#ffffff" stroke="none" d="M 402.127685546875 643.5 C 402.127685546875 637.1487248 407.276410346875 632 413.627685546875 632 C 419.978960746875 632 425.127685546875 637.1487248 425.127685546875 643.5 C 425.127685546875 649.8512752 419.978960746875 655 413.627685546875 655 C 407.276410346875 655 402.127685546875 649.8512752 402.127685546875 643.5 Z"/></g><g transform="translate(-22,-6) scale(1,1)"><path fill="none" stroke="#000000" d="M 402.127685546875 643.5 C 402.127685546875 637.1487248 407.276410346875 632 413.627685546875 632 C 419.978960746875 632 425.127685546875 637.1487248 425.127685546875 643.5 C 425.127685546875 649.8512752 419.978960746875 655 413.627685546875 655 C 407.276410346875 655 402.127685546875 649.8512752 402.127685546875 643.5 Z" stroke-miterlimit="10"/></g><g transform="translate(-22,-6) scale(1,1)"><g><path fill="none" stroke="none"/><text fill="#000000" stroke="none" font-family="Arial" font-size="13px" font-style="normal" font-weight="bold" text-decoration="none" x="378.214111328125" y="674.5">IRenderable</text></g></g><g transform="translate(-22,-6) scale(1,1)"><g><path fill="none" stroke="none"/><text fill="#000000" stroke="none" font-family="Arial" font-size="13px" font-style="normal" font-weight="normal" text-decoration="none" x="364.5" y="689.5">(from Rendering)</text></g></g><g transform="translate(-22,-6) scale(1,1)"><path fill="#C0C0C0" stroke="none" d="M 507.759521484375 650.5 C 507.759521484375 644.1487248 512.908246284375 639 519.259521484375 639 C 525.610796684375 639 530.759521484375 644.1487248 530.759521484375 650.5 C 530.759521484375 656.8512752 525.610796684375 662 519.259521484375 662 C 512.908246284375 662 507.759521484375 656.8512752 507.759521484375 650.5 Z" opacity="0.2"/></g><g transform="translate(-22,-6) scale(1,1)"><path fill="#ffffff" stroke="none" d="M 500.759521484375 643.5 C 500.759521484375 637.1487248 505.908246284375 632 512.259521484375 632 C 518.610796684375 632 523.759521484375 637.1487248 523.759521484375 643.5 C 523.759521484375 649.8512752 518.610796684375 655 512.259521484375 655 C 505.908246284375 655 500.759521484375 649.8512752 500.759521484375 643.5 Z"/></g><g transform="translate(-22,-6) scale(1,1)"><path fill="none" stroke="#000000" d="M 500.759521484375 643.5 C 500.759521484375 637.1487248 505.908246284375 632 512.259521484375 632 C 518.610796684375 632 523.759521484375 637.1487248 523.759521484375 643.5 C 523.759521484375 649.8512752 518.610796684375 655 512.259521484375 655 C 505.908246284375 655 500.759521484375 649.8512752 500.759521484375 643.5 Z" stroke-miterlimit="10"/></g><g transform="translate(-22,-6) scale(1,1)"><g><path fill="none" stroke="none"/><text fill="#000000" stroke="none" font-family="Arial" font-size="13px" font-style="normal" font-weight="bold" text-decoration="none" x="485.52001953125" y="674.5">IPlayable</text></g></g><g transform="translate(-22,-6) scale(1,1)"><g><path fill="none" stroke="none"/><text fill="#000000" stroke="none" font-family="Arial" font-size="13px" font-style="normal" font-weight="normal" text-decoration="none" x="476.5" y="689.5">(from Audio)</text></g></g><g transform="translate(-22,-6) scale(1,1)"><path fill="#C0C0C0" stroke="none" d="M 244.67724609375 322.5 C 244.67724609375 316.1487248 249.82597089375 311 256.17724609375 311 C 262.52852129375 311 267.67724609375 316.1487248 267.67724609375 322.5 C 267.67724609375 328.8512752 262.52852129375 334 256.17724609375 334 C 249.82597089375 334 244.67724609375 328.8512752 244.67724609375 322.5 Z" opacity="0.2"/></g><g transform="translate(-22,-6) scale(1,1)"><path fill="#ffffff" stroke="none" d="M 237.67724609375 315.5 C 237.67724609375 309.1487248 242.82597089375 304 249.17724609375 304 C 255.52852129375 304 260.67724609375 309.1487248 260.67724609375 315.5 C 260.67724609375 321.8512752 255.52852129375 327 249.17724609375 327 C 242.82597089375 327 237.67724609375 321.8512752 237.67724609375 315.5 Z"/></g><g transform="translate(-22,-6) scale(1,1)"><path fill="none" stroke="#000000" d="M 237.67724609375 315.5 C 237.67724609375 309.1487248 242.82597089375 304 249.17724609375 304 C 255.52852129375 304 260.67724609375 309.1487248 260.67724609375 315.5 C 260.67724609375 321.8512752 255.52852129375 327 249.17724609375 327 C 242.82597089375 327 237.67724609375 321.8512752 237.67724609375 315.5 Z" stroke-miterlimit="10"/></g><g transform="translate(-22,-6) scale(1,1)"><g><path fill="none" stroke="none"/><text fill="#000000" stroke="none" font-family="Arial" font-size="13px" font-style="normal" font-weight="bold" text-decoration="none" x="204.013671875" y="346.5">IModelManager</text></g></g><g transform="translate(-22,-6) scale(1,1)"><g><path fill="none" stroke="none"/><text fill="#000000" stroke="none" font-family="Arial" font-size="13px" font-style="normal" font-weight="normal" text-decoration="none" x="205.1181640625" y="361.5">(from Services)</text></g></g><g transform="translate(-22,-6) scale(1,1)"><path fill="#C0C0C0" stroke="none" d="M 380.67724609375 322.5 C 380.67724609375 316.1487248 385.82597089375 311 392.17724609375 311 C 398.52852129375 311 403.67724609375 316.1487248 403.67724609375 322.5 C 403.67724609375 328.8512752 398.52852129375 334 392.17724609375 334 C 385.82597089375 334 380.67724609375 328.8512752 380.67724609375 322.5 Z" opacity="0.2"/></g><g transform="translate(-22,-6) scale(1,1)"><path fill="#ffffff" stroke="none" d="M 373.67724609375 315.5 C 373.67724609375 309.1487248 378.82597089375 304 385.17724609375 304 C 391.52852129375 304 396.67724609375 309.1487248 396.67724609375 315.5 C 396.67724609375 321.8512752 391.52852129375 327 385.17724609375 327 C 378.82597089375 327 373.67724609375 321.8512752 373.67724609375 315.5 Z"/></g><g transform="translate(-22,-6) scale(1,1)"><path fill="none" stroke="#000000" d="M 373.67724609375 315.5 C 373.67724609375 309.1487248 378.82597089375 304 385.17724609375 304 C 391.52852129375 304 396.67724609375 309.1487248 396.67724609375 315.5 C 396.67724609375 321.8512752 391.52852129375 327 385.17724609375 327 C 378.82597089375 327 373.67724609375 321.8512752 373.67724609375 315.5 Z" stroke-miterlimit="10"/></g><g transform="translate(-22,-6) scale(1,1)"><g><path fill="none" stroke="none"/><text fill="#000000" stroke="none" font-family="Arial" font-size="13px" font-style="normal" font-weight="bold" text-decoration="none" x="336.75732421875" y="346.5">IShaderManager</text></g></g><g transform="translate(-22,-6) scale(1,1)"><g><path fill="none" stroke="none"/><text fill="#000000" stroke="none" font-family="Arial" font-size="13px" font-style="normal" font-weight="normal" text-decoration="none" x="341.1181640625" y="361.5">(from Services)</text></g></g><g transform="translate(-22,-6) scale(1,1)"><path fill="#C0C0C0" stroke="none" d="M 516.67724609375 322.5 C 516.67724609375 316.1487248 521.82597089375 311 528.17724609375 311 C 534.52852129375 311 539.67724609375 316.1487248 539.67724609375 322.5 C 539.67724609375 328.8512752 534.52852129375 334 528.17724609375 334 C 521.82597089375 334 516.67724609375 328.8512752 516.67724609375 322.5 Z" opacity="0.2"/></g><g transform="translate(-22,-6) scale(1,1)"><path fill="#ffffff" stroke="none" d="M 509.67724609375 315.5 C 509.67724609375 309.1487248 514.82597089375 304 521.17724609375 304 C 527.52852129375 304 532.67724609375 309.1487248 532.67724609375 315.5 C 532.67724609375 321.8512752 527.52852129375 327 521.17724609375 327 C 514.82597089375 327 509.67724609375 321.8512752 509.67724609375 315.5 Z"/></g><g transform="translate(-22,-6) scale(1,1)"><path fill="none" stroke="#000000" d="M 509.67724609375 315.5 C 509.67724609375 309.1487248 514.82597089375 304 521.17724609375 304 C 527.52852129375 304 532.67724609375 309.1487248 532.67724609375 315.5 C 532.67724609375 321.8512752 527.52852129375 327 521.17724609375 327 C 514.82597089375 327 509.67724609375 321.8512752 509.67724609375 315.5 Z" stroke-miterlimit="10"/></g><g transform="translate(-22,-6) scale(1,1)"><g><path fill="none" stroke="none"/><text fill="#000000" stroke="none" font-family="Arial" font-size="13px" font-style="normal" font-weight="bold" text-decoration="none" x="472.40185546875" y="346.5">ITextureManager</text></g></g><g transform="translate(-22,-6) scale(1,1)"><g><path fill="none" stroke="none"/><text fill="#000000" stroke="none" font-family="Arial" font-size="13px" font-style="normal" font-weight="normal" text-decoration="none" x="477.1181640625" y="361.5">(from Services)</text></g></g><g transform="translate(-22,-6) scale(1,1)"><path fill="#C0C0C0" stroke="none" d="M 652.67724609375 322.5 C 652.67724609375 316.1487248 657.82597089375 311 664.17724609375 311 C 670.52852129375 311 675.67724609375 316.1487248 675.67724609375 322.5 C 675.67724609375 328.8512752 670.52852129375 334 664.17724609375 334 C 657.82597089375 334 652.67724609375 328.8512752 652.67724609375 322.5 Z" opacity="0.2"/></g><g transform="translate(-22,-6) scale(1,1)"><path fill="#ffffff" stroke="none" d="M 645.67724609375 315.5 C 645.67724609375 309.1487248 650.82597089375 304 657.17724609375 304 C 663.52852129375 304 668.67724609375 309.1487248 668.67724609375 315.5 C 668.67724609375 321.8512752 663.52852129375 327 657.17724609375 327 C 650.82597089375 327 645.67724609375 321.8512752 645.67724609375 315.5 Z"/></g><g transform="translate(-22,-6) scale(1,1)"><path fill="none" stroke="#000000" d="M 645.67724609375 315.5 C 645.67724609375 309.1487248 650.82597089375 304 657.17724609375 304 C 663.52852129375 304 668.67724609375 309.1487248 668.67724609375 315.5 C 668.67724609375 321.8512752 663.52852129375 327 657.17724609375 327 C 650.82597089375 327 645.67724609375 321.8512752 645.67724609375 315.5 Z" stroke-miterlimit="10"/></g><g transform="translate(-22,-6) scale(1,1)"><g><path fill="none" stroke="none"/><text fill="#000000" stroke="none" font-family="Arial" font-size="13px" font-style="normal" font-weight="bold" text-decoration="none" x="602.619140625" y="346.5">IAudioFileManager</text></g></g><g transform="translate(-22,-6) scale(1,1)"><g><path fill="none" stroke="none"/><text fill="#000000" stroke="none" font-family="Arial" font-size="13px" font-style="normal" font-weight="normal" text-decoration="none" x="613.1181640625" y="361.5">(from Services)</text></g></g><g transform="translate(-22,-6) scale(1,1)"><path fill="#C0C0C0" stroke="none" d="M 527.127685546875 414.5 C 527.127685546875 408.1487248 532.276410346875 403 538.627685546875 403 C 544.978960746875 403 550.127685546875 408.1487248 550.127685546875 414.5 C 550.127685546875 420.8512752 544.978960746875 426 538.627685546875 426 C 532.276410346875 426 527.127685546875 420.8512752 527.127685546875 414.5 Z" opacity="0.2"/></g><g transform="translate(-22,-6) scale(1,1)"><path fill="#ffffff" stroke="none" d="M 520.127685546875 407.5 C 520.127685546875 401.1487248 525.276410346875 396 531.627685546875 396 C 537.978960746875 396 543.127685546875 401.1487248 543.127685546875 407.5 C 543.127685546875 413.8512752 537.978960746875 419 531.627685546875 419 C 525.276410346875 419 520.127685546875 413.8512752 520.127685546875 407.5 Z"/></g><g transform="translate(-22,-6) scale(1,1)"><path fill="none" stroke="#000000" d="M 520.127685546875 407.5 C 520.127685546875 401.1487248 525.276410346875 396 531.627685546875 396 C 537.978960746875 396 543.127685546875 401.1487248 543.127685546875 407.5 C 543.127685546875 413.8512752 537.978960746875 419 531.627685546875 419 C 525.276410346875 419 520.127685546875 413.8512752 520.127685546875 407.5 Z" stroke-miterlimit="10"/></g><g transform="translate(-22,-6) scale(1,1)"><g><path fill="none" stroke="none"/><text fill="#000000" stroke="none" font-family="Arial" font-size="13px" font-style="normal" font-weight="bold" text-decoration="none" x="508.86181640625" y="438.5">IShader</text></g></g><g transform="translate(-22,-6) scale(1,1)"><g><path fill="none" stroke="none"/><text fill="#000000" stroke="none" font-family="Arial" font-size="13px" font-style="normal" font-weight="normal" text-decoration="none" x="482.5" y="453.5">(from Rendering)</text></g></g><g transform="translate(-22,-6) scale(1,1)"><path fill="#C0C0C0" stroke="none" d="M 382.127685546875 414.5 C 382.127685546875 408.1487248 387.276410346875 403 393.627685546875 403 C 399.978960746875 403 405.127685546875 408.1487248 405.127685546875 414.5 C 405.127685546875 420.8512752 399.978960746875 426 393.627685546875 426 C 387.276410346875 426 382.127685546875 420.8512752 382.127685546875 414.5 Z" opacity="0.2"/></g><g transform="translate(-22,-6) scale(1,1)"><path fill="#ffffff" stroke="none" d="M 375.127685546875 407.5 C 375.127685546875 401.1487248 380.276410346875 396 386.627685546875 396 C 392.978960746875 396 398.127685546875 401.1487248 398.127685546875 407.5 C 398.127685546875 413.8512752 392.978960746875 419 386.627685546875 419 C 380.276410346875 419 375.127685546875 413.8512752 375.127685546875 407.5 Z"/></g><g transform="translate(-22,-6) scale(1,1)"><path fill="none" stroke="#000000" d="M 375.127685546875 407.5 C 375.127685546875 401.1487248 380.276410346875 396 386.627685546875 396 C 392.978960746875 396 398.127685546875 401.1487248 398.127685546875 407.5 C 398.127685546875 413.8512752 392.978960746875 419 386.627685546875 419 C 380.276410346875 419 375.127685546875 413.8512752 375.127685546875 407.5 Z" stroke-miterlimit="10"/></g><g transform="translate(-22,-6) scale(1,1)"><g><path fill="none" stroke="none"/><text fill="#000000" stroke="none" font-family="Arial" font-size="13px" font-style="normal" font-weight="bold" text-decoration="none" x="363.50634765625" y="438.5">ITexture</text></g></g><g transform="translate(-22,-6) scale(1,1)"><g><path fill="none" stroke="none"/><text fill="#000000" stroke="none" font-family="Arial" font-size="13px" font-style="normal" font-weight="normal" text-decoration="none" x="337.5" y="453.5">(from Rendering)</text></g></g><g transform="translate(-22,-6) scale(1,1)"><path fill="#C0C0C0" stroke="none" d="M 448.0390625 34.5 C 448.0390625 28.1487248 453.1877873 23 459.5390625 23 C 465.8903377 23 471.0390625 28.1487248 471.0390625 34.5 C 471.0390625 40.8512752 465.8903377 46 459.5390625 46 C 453.1877873 46 448.0390625 40.8512752 448.0390625 34.5 Z" opacity="0.2"/></g><g transform="translate(-22,-6) scale(1,1)"><path fill="#ffffff" stroke="none" d="M 441.0390625 27.5 C 441.0390625 21.1487248 446.1877873 16 452.5390625 16 C 458.8903377 16 464.0390625 21.1487248 464.0390625 27.5 C 464.0390625 33.8512752 458.8903377 39 452.5390625 39 C 446.1877873 39 441.0390625 33.8512752 441.0390625 27.5 Z"/></g><g transform="translate(-22,-6) scale(1,1)"><path fill="none" stroke="#000000" d="M 441.0390625 27.5 C 441.0390625 21.1487248 446.1877873 16 452.5390625 16 C 458.8903377 16 464.0390625 21.1487248 464.0390625 27.5 C 464.0390625 33.8512752 458.8903377 39 452.5390625 39 C 446.1877873 39 441.0390625 33.8512752 441.0390625 27.5 Z" stroke-miterlimit="10"/></g><g transform="translate(-22,-6) scale(1,1)"><g><path fill="none" stroke="none"/><text fill="#000000" stroke="none" font-family="Arial" font-size="13px" font-style="normal" font-weight="bold" text-decoration="none" x="429.05908203125" y="58.5">IService</text></g></g><g transform="translate(-22,-6) scale(1,1)"><g><path fill="none" stroke="none"/><text fill="#000000" stroke="none" font-family="Arial" font-size="13px" font-style="normal" font-weight="normal" text-decoration="none" x="408.47998046875" y="73.5">(from Services)</text></g></g><g transform="translate(-22,-6) scale(1,1)"><path fill="none" stroke="#000000" d="M 96 108 L 96 27 L 441.0390625 27" stroke-miterlimit="10"/></g><g transform="translate(-22,-6) scale(1,1)"><path fill="none" stroke="#000000" d="M 800 108 L 800 27 L 464.0390625 27" stroke-miterlimit="10"/></g><g transform="translate(-22,-6) scale(1,1)"><path fill="none" stroke="#000000" d="M 240 108 L 240 27 L 441.0390625 27" stroke-miterlimit="10"/></g><g transform="translate(-22,-6) scale(1,1)"><path fill="none" stroke="#000000" d="M 656 108 L 656 27 L 464.0390625 27" stroke-miterlimit="10"/></g><g transform="translate(-22,-6) scale(1,1)"><path fill="none" stroke="#000000" d="M 376 108 L 376 27 L 441.0390625 27" stroke-miterlimit="10"/></g><g transform="translate(-22,-6) scale(1,1)"><path fill="none" stroke="#000000" d="M 520 108 L 520 27 L 464.0390625 27" stroke-miterlimit="10"/></g><g transform="translate(-22,-6) scale(1,1)"><path fill="none" stroke="#000000" d="M 520 304 L 520 280 L 452 280 L 452 39" stroke-miterlimit="10"/></g><g transform="translate(-22,-6) scale(1,1)"><path fill="none" stroke="#000000" d="M 656 304 L 656 216 L 452 216 L 452 39" stroke-miterlimit="10"/></g><g transform="translate(-22,-6) scale(1,1)"><path fill="none" stroke="#000000" d="M 384 304 L 384 280 L 452 280 L 452 39" stroke-miterlimit="10"/></g><g transform="translate(-22,-6) scale(1,1)"><path fill="none" stroke="#000000" d="M 248 304 L 248 216 L 452 216 L 452 39" stroke-miterlimit="10"/></g><g transform="translate(-22,-6) scale(1,1)"><path fill="#C0C0C0" stroke="none" d="M 457.535888671875 490.5 C 457.535888671875 484.1487248 462.684613471875 479 469.035888671875 479 C 475.387163871875 479 480.535888671875 484.1487248 480.535888671875 490.5 C 480.535888671875 496.8512752 475.387163871875 502 469.035888671875 502 C 462.684613471875 502 457.535888671875 496.8512752 457.535888671875 490.5 Z" opacity="0.2"/></g><g transform="translate(-22,-6) scale(1,1)"><path fill="#ffffff" stroke="none" d="M 450.535888671875 483.5 C 450.535888671875 477.1487248 455.684613471875 472 462.035888671875 472 C 468.387163871875 472 473.535888671875 477.1487248 473.535888671875 483.5 C 473.535888671875 489.8512752 468.387163871875 495 462.035888671875 495 C 455.684613471875 495 450.535888671875 489.8512752 450.535888671875 483.5 Z"/></g><g transform="translate(-22,-6) scale(1,1)"><path fill="none" stroke="#000000" d="M 450.535888671875 483.5 C 450.535888671875 477.1487248 455.684613471875 472 462.035888671875 472 C 468.387163871875 472 473.535888671875 477.1487248 473.535888671875 483.5 C 473.535888671875 489.8512752 468.387163871875 495 462.035888671875 495 C 455.684613471875 495 450.535888671875 489.8512752 450.535888671875 483.5 Z" stroke-miterlimit="10"/></g><g transform="translate(-22,-6) scale(1,1)"><g><path fill="none" stroke="none"/><text fill="#000000" stroke="none" font-family="Arial" font-size="13px" font-style="normal" font-weight="bold" text-decoration="none" x="437.8291015625" y="514.5">IContext</text></g></g><g transform="translate(-22,-6) scale(1,1)"><g><path fill="none" stroke="none"/><text fill="#000000" stroke="none" font-family="Arial" font-size="13px" font-style="normal" font-weight="normal" text-decoration="none" x="420.5" y="529.5">(from Context)</text></g></g><g transform="translate(-22,-6) scale(1,1)"><path fill="none" stroke="#000000" d="M 384 536 L 384 483 L 450.535888671875 483" stroke-miterlimit="10"/></g><g transform="translate(-22,-6) scale(1,1)"><path fill="none" stroke="#000000" d="M 536 536 L 536 483 L 473.535888671875 483" stroke-miterlimit="10"/></g></g></svg>