<svg version="1.1" xmlns="http://www.w3.org/2000/svg" xmlns:xlink="http://www.w3.org/1999/xlink" width="1766.93896484375" height="1027"><defs/><g><g transform="translate(-22,-14) scale(1,1)"><rect fill="#C0C0C0" stroke="none" x="255" y="343" width="159" height="183" opacity="0.2"/></g><g transform="translate(-22,-14) scale(1,1)"><rect fill="#ffffff" stroke="none" x="248" y="336" width="159" height="183"/></g><g transform="translate(-22,-14) scale(1,1)"><path fill="none" stroke="#000000" d="M 248 336 L 407 336 L 407 519 L 248 519 L 248 336 Z Z" stroke-miterlimit="10"/></g><g transform="translate(-22,-14) scale(1,1)"><path fill="none" stroke="#000000" d="M 248 361 L 407 361" stroke-miterlimit="10"/></g><g transform="translate(-22,-14) scale(1,1)"><path fill="none" stroke="#000000" d="M 248 371 L 407 371" stroke-miterlimit="10"/></g><g transform="translate(-22,-14) scale(1,1)"><g><path fill="none" stroke="none"/><text fill="#000000" stroke="none" font-family="Arial" font-size="13px" font-style="normal" font-weight="bold" text-decoration="none" x="281.6064453125" y="355.5">EngineManager</text></g></g><g transform="translate(-22,-14) scale(1,1)"><rect fill="#C0C0C0" stroke="none" x="79" y="399" width="102.88818359375" height="59" opacity="0.2"/></g><g transform="translate(-22,-14) scale(1,1)"><rect fill="#ffffff" stroke="none" x="72" y="392" width="102.88818359375" height="59"/></g><g transform="translate(-22,-14) scale(1,1)"><path fill="none" stroke="#000000" d="M 72 392 L 174.88818359375 392 L 174.88818359375 451 L 72 451 L 72 392 Z Z" stroke-miterlimit="10"/></g><g transform="translate(-22,-14) scale(1,1)"><path fill="none" stroke="#000000" d="M 72 432 L 174.88818359375 432" stroke-miterlimit="10"/></g><g transform="translate(-22,-14) scale(1,1)"><path fill="none" stroke="#000000" d="M 72 442 L 174.88818359375 442" stroke-miterlimit="10"/></g><g transform="translate(-22,-14) scale(1,1)"><g><path fill="none" stroke="none"/><text fill="#000000" stroke="none" font-family="Arial" font-size="13px" font-style="normal" font-weight="bold" text-decoration="none" x="84.799560546875" y="411.5">GLFWDevice</text></g></g><g transform="translate(-22,-14) scale(1,1)"><g><path fill="none" stroke="none"/><text fill="#000000" stroke="none" font-family="Arial" font-size="13px" font-style="normal" font-weight="normal" text-decoration="none" x="81.908203125" y="426.5">(from Context)</text></g></g><g transform="translate(-22,-14) scale(1,1)"><path fill="#C0C0C0" stroke="none" d="M 116.785888671875 306.5 C 116.785888671875 300.1487248 121.934613471875 295 128.285888671875 295 C 134.637163871875 295 139.785888671875 300.1487248 139.785888671875 306.5 C 139.785888671875 312.8512752 134.637163871875 318 128.285888671875 318 C 121.934613471875 318 116.785888671875 312.8512752 116.785888671875 306.5 Z" opacity="0.2"/></g><g transform="translate(-22,-14) scale(1,1)"><path fill="#ffff91" stroke="none" d="M 109.785888671875 299.5 C 109.785888671875 293.1487248 114.934613471875 288 121.285888671875 288 C 127.637163871875 288 132.785888671875 293.1487248 132.785888671875 299.5 C 132.785888671875 305.8512752 127.637163871875 311 121.285888671875 311 C 114.934613471875 311 109.785888671875 305.8512752 109.785888671875 299.5 Z"/></g><g transform="translate(-22,-14) scale(1,1)"><path fill="none" stroke="#000000" d="M 109.785888671875 299.5 C 109.785888671875 293.1487248 114.934613471875 288 121.285888671875 288 C 127.637163871875 288 132.785888671875 293.1487248 132.785888671875 299.5 C 132.785888671875 305.8512752 127.637163871875 311 121.285888671875 311 C 114.934613471875 311 109.785888671875 305.8512752 109.785888671875 299.5 Z" stroke-miterlimit="10"/></g><g transform="translate(-22,-14) scale(1,1)"><g><path fill="none" stroke="none"/><text fill="#000000" stroke="none" font-family="Arial" font-size="13px" font-style="normal" font-weight="bold" text-decoration="none" x="99.61181640625" y="330.5">IDevice</text></g></g><g transform="translate(-22,-14) scale(1,1)"><g><path fill="none" stroke="none"/><text fill="#000000" stroke="none" font-family="Arial" font-size="13px" font-style="normal" font-weight="normal" text-decoration="none" x="79.75" y="345.5">(from Context)</text></g></g><g transform="translate(-22,-14) scale(1,1)"><path fill="none" stroke="#000000" d="M 121 392 L 121 311" stroke-miterlimit="10"/></g><g transform="translate(-22,-14) scale(1,1)"><path fill="none" stroke="#000000" d="M 175 425 L 248 425" stroke-miterlimit="10"/></g><g transform="translate(-22,-14) scale(1,1)"><path fill="#000000" stroke="none" d="M 237.83732514237585 429.209517756016 L 248 425 L 237.83732514237585 420.790482243984 L 226 425"/></g><g transform="translate(-22,-14) scale(1,1)"><path fill="none" stroke="#000000" d="M 237.83732514237585 429.209517756016 L 248 425 L 237.83732514237585 420.790482243984 L 226 425 L 237.83732514237585 429.209517756016" stroke-miterlimit="10"/></g><g transform="translate(-22,-14) scale(1,1)"><rect fill="#C0C0C0" stroke="none" x="159" y="183" width="105.078125" height="59" opacity="0.2"/></g><g transform="translate(-22,-14) scale(1,1)"><rect fill="#ffffff" stroke="none" x="152" y="176" width="105.078125" height="59"/></g><g transform="translate(-22,-14) scale(1,1)"><path fill="none" stroke="#000000" d="M 152 176 L 257.078125 176 L 257.078125 235 L 152 235 L 152 176 Z Z" stroke-miterlimit="10"/></g><g transform="translate(-22,-14) scale(1,1)"><path fill="none" stroke="#000000" d="M 152 216 L 257.078125 216" stroke-miterlimit="10"/></g><g transform="translate(-22,-14) scale(1,1)"><path fill="none" stroke="#000000" d="M 152 226 L 257.078125 226" stroke-miterlimit="10"/></g><g transform="translate(-22,-14) scale(1,1)"><g><path fill="none" stroke="none"/><text fill="#000000" stroke="none" font-family="Arial" font-size="13px" font-style="normal" font-weight="bold" text-decoration="none" x="164.42822265625" y="195.5">InputManager</text></g></g><g transform="translate(-22,-14) scale(1,1)"><g><path fill="none" stroke="none"/><text fill="#000000" stroke="none" font-family="Arial" font-size="13px" font-style="normal" font-weight="normal" text-decoration="none" x="156.5" y="210.5">(from Managers)</text></g></g><g transform="translate(-22,-14) scale(1,1)"><path fill="#C0C0C0" stroke="none" d="M 200.0390625 42.5 C 200.0390625 36.1487248 205.1877873 31 211.5390625 31 C 217.8903377 31 223.0390625 36.1487248 223.0390625 42.5 C 223.0390625 48.8512752 217.8903377 54 211.5390625 54 C 205.1877873 54 200.0390625 48.8512752 200.0390625 42.5 Z" opacity="0.2"/></g><g transform="translate(-22,-14) scale(1,1)"><path fill="#ffff91" stroke="none" d="M 193.0390625 35.5 C 193.0390625 29.1487248 198.1877873 24 204.5390625 24 C 210.8903377 24 216.0390625 29.1487248 216.0390625 35.5 C 216.0390625 41.8512752 210.8903377 47 204.5390625 47 C 198.1877873 47 193.0390625 41.8512752 193.0390625 35.5 Z"/></g><g transform="translate(-22,-14) scale(1,1)"><path fill="none" stroke="#000000" d="M 193.0390625 35.5 C 193.0390625 29.1487248 198.1877873 24 204.5390625 24 C 210.8903377 24 216.0390625 29.1487248 216.0390625 35.5 C 216.0390625 41.8512752 210.8903377 47 204.5390625 47 C 198.1877873 47 193.0390625 41.8512752 193.0390625 35.5 Z" stroke-miterlimit="10"/></g><g transform="translate(-22,-14) scale(1,1)"><g><path fill="none" stroke="none"/><text fill="#000000" stroke="none" font-family="Arial" font-size="13px" font-style="normal" font-weight="bold" text-decoration="none" x="162.622314453125" y="66.5">IInputManager</text></g></g><g transform="translate(-22,-14) scale(1,1)"><g><path fill="none" stroke="none"/><text fill="#000000" stroke="none" font-family="Arial" font-size="13px" font-style="normal" font-weight="normal" text-decoration="none" x="160.47998046875" y="81.5">(from Services)</text></g></g><g transform="translate(-22,-14) scale(1,1)"><path fill="none" stroke="#000000" d="M 204 176 L 204 47" stroke-miterlimit="10"/></g><g transform="translate(-22,-14) scale(1,1)"><path fill="#C0C0C0" stroke="none" d="M 416.0390625 42.5 C 416.0390625 36.1487248 421.1877873 31 427.5390625 31 C 433.8903377 31 439.0390625 36.1487248 439.0390625 42.5 C 439.0390625 48.8512752 433.8903377 54 427.5390625 54 C 421.1877873 54 416.0390625 48.8512752 416.0390625 42.5 Z" opacity="0.2"/></g><g transform="translate(-22,-14) scale(1,1)"><path fill="#ffff91" stroke="none" d="M 409.0390625 35.5 C 409.0390625 29.1487248 414.1877873 24 420.5390625 24 C 426.8903377 24 432.0390625 29.1487248 432.0390625 35.5 C 432.0390625 41.8512752 426.8903377 47 420.5390625 47 C 414.1877873 47 409.0390625 41.8512752 409.0390625 35.5 Z"/></g><g transform="translate(-22,-14) scale(1,1)"><path fill="none" stroke="#000000" d="M 409.0390625 35.5 C 409.0390625 29.1487248 414.1877873 24 420.5390625 24 C 426.8903377 24 432.0390625 29.1487248 432.0390625 35.5 C 432.0390625 41.8512752 426.8903377 47 420.5390625 47 C 414.1877873 47 409.0390625 41.8512752 409.0390625 35.5 Z" stroke-miterlimit="10"/></g><g transform="translate(-22,-14) scale(1,1)"><g><path fill="none" stroke="none"/><text fill="#000000" stroke="none" font-family="Arial" font-size="13px" font-style="normal" font-weight="bold" text-decoration="none" x="374.648681640625" y="66.5">ISceneManager</text></g></g><g transform="translate(-22,-14) scale(1,1)"><g><path fill="none" stroke="none"/><text fill="#000000" stroke="none" font-family="Arial" font-size="13px" font-style="normal" font-weight="normal" text-decoration="none" x="376.47998046875" y="81.5">(from Services)</text></g></g><g transform="translate(-22,-14) scale(1,1)"><rect fill="#C0C0C0" stroke="none" x="375" y="183" width="105.078125" height="59" opacity="0.2"/></g><g transform="translate(-22,-14) scale(1,1)"><rect fill="#ffffff" stroke="none" x="368" y="176" width="105.078125" height="59"/></g><g transform="translate(-22,-14) scale(1,1)"><path fill="none" stroke="#000000" d="M 368 176 L 473.078125 176 L 473.078125 235 L 368 235 L 368 176 Z Z" stroke-miterlimit="10"/></g><g transform="translate(-22,-14) scale(1,1)"><path fill="none" stroke="#000000" d="M 368 216 L 473.078125 216" stroke-miterlimit="10"/></g><g transform="translate(-22,-14) scale(1,1)"><path fill="none" stroke="#000000" d="M 368 226 L 473.078125 226" stroke-miterlimit="10"/></g><g transform="translate(-22,-14) scale(1,1)"><g><path fill="none" stroke="none"/><text fill="#000000" stroke="none" font-family="Arial" font-size="13px" font-style="normal" font-weight="bold" text-decoration="none" x="376.45458984375" y="195.5">SceneManager</text></g></g><g transform="translate(-22,-14) scale(1,1)"><g><path fill="none" stroke="none"/><text fill="#000000" stroke="none" font-family="Arial" font-size="13px" font-style="normal" font-weight="normal" text-decoration="none" x="372.5" y="210.5">(from Managers)</text></g></g><g transform="translate(-22,-14) scale(1,1)"><path fill="none" stroke="#000000" d="M 420 176 L 420 47" stroke-miterlimit="10"/></g><g transform="translate(-22,-14) scale(1,1)"><rect fill="#C0C0C0" stroke="none" x="575" y="183" width="109.4072265625" height="59" opacity="0.2"/></g><g transform="translate(-22,-14) scale(1,1)"><rect fill="#ffffff" stroke="none" x="568" y="176" width="109.4072265625" height="59"/></g><g transform="translate(-22,-14) scale(1,1)"><path fill="none" stroke="#000000" d="M 568 176 L 677.4072265625 176 L 677.4072265625 235 L 568 235 L 568 176 Z Z" stroke-miterlimit="10"/></g><g transform="translate(-22,-14) scale(1,1)"><path fill="none" stroke="#000000" d="M 568 216 L 677.4072265625 216" stroke-miterlimit="10"/></g><g transform="translate(-22,-14) scale(1,1)"><path fill="none" stroke="#000000" d="M 568 226 L 677.4072265625 226" stroke-miterlimit="10"/></g><g transform="translate(-22,-14) scale(1,1)"><g><path fill="none" stroke="none"/><text fill="#000000" stroke="none" font-family="Arial" font-size="13px" font-style="normal" font-weight="bold" text-decoration="none" x="604.273193359375" y="195.5">Scene</text></g></g><g transform="translate(-22,-14) scale(1,1)"><g><path fill="none" stroke="none"/><text fill="#000000" stroke="none" font-family="Arial" font-size="13px" font-style="normal" font-weight="normal" text-decoration="none" x="581.53271484375" y="210.5">(from Objects)</text></g></g><g transform="translate(-22,-14) scale(1,1)"><path fill="none" stroke="#000000" d="M 568 205 L 473 205" stroke-miterlimit="10"/></g><g transform="translate(-22,-14) scale(1,1)"><path fill="#000000" stroke="none" d="M 483.16267485762415 200.790482243984 L 473 205 L 483.16267485762415 209.209517756016 L 495 205"/></g><g transform="translate(-22,-14) scale(1,1)"><path fill="none" stroke="#000000" d="M 483.16267485762415 200.790482243984 L 473 205 L 483.16267485762415 209.209517756016 L 495 205 L 483.16267485762415 200.790482243984" stroke-miterlimit="10"/></g><g transform="translate(-22,-14) scale(1,1)"><rect fill="#C0C0C0" stroke="none" x="767" y="58" width="109.4072265625" height="59" opacity="0.2"/></g><g transform="translate(-22,-14) scale(1,1)"><rect fill="#ffffff" stroke="none" x="760" y="51" width="109.4072265625" height="59"/></g><g transform="translate(-22,-14) scale(1,1)"><path fill="none" stroke="#000000" d="M 760 51 L 869.4072265625 51 L 869.4072265625 110 L 760 110 L 760 51 Z Z" stroke-miterlimit="10"/></g><g transform="translate(-22,-14) scale(1,1)"><path fill="none" stroke="#000000" d="M 760 91 L 869.4072265625 91" stroke-miterlimit="10"/></g><g transform="translate(-22,-14) scale(1,1)"><path fill="none" stroke="#000000" d="M 760 101 L 869.4072265625 101" stroke-miterlimit="10"/></g><g transform="translate(-22,-14) scale(1,1)"><g><path fill="none" stroke="none"/><text fill="#000000" stroke="none" font-family="Arial" font-size="13px" font-style="italic" font-weight="bold" text-decoration="none" x="792.70361328125" y="70.5">AObject</text></g></g><g transform="translate(-22,-14) scale(1,1)"><g><path fill="none" stroke="none"/><text fill="#000000" stroke="none" font-family="Arial" font-size="13px" font-style="normal" font-weight="normal" text-decoration="none" x="773.53271484375" y="85.5">(from Objects)</text></g></g><g transform="translate(-22,-14) scale(1,1)"><rect fill="#C0C0C0" stroke="none" x="767" y="183" width="109.4072265625" height="59" opacity="0.2"/></g><g transform="translate(-22,-14) scale(1,1)"><rect fill="#ffffff" stroke="none" x="760" y="176" width="109.4072265625" height="59"/></g><g transform="translate(-22,-14) scale(1,1)"><path fill="none" stroke="#000000" d="M 760 176 L 869.4072265625 176 L 869.4072265625 235 L 760 235 L 760 176 Z Z" stroke-miterlimit="10"/></g><g transform="translate(-22,-14) scale(1,1)"><path fill="none" stroke="#000000" d="M 760 216 L 869.4072265625 216" stroke-miterlimit="10"/></g><g transform="translate(-22,-14) scale(1,1)"><path fill="none" stroke="#000000" d="M 760 226 L 869.4072265625 226" stroke-miterlimit="10"/></g><g transform="translate(-22,-14) scale(1,1)"><g><path fill="none" stroke="none"/><text fill="#000000" stroke="none" font-family="Arial" font-size="13px" font-style="normal" font-weight="bold" text-decoration="none" x="778.21728515625" y="195.5">GameObject</text></g></g><g transform="translate(-22,-14) scale(1,1)"><g><path fill="none" stroke="none"/><text fill="#000000" stroke="none" font-family="Arial" font-size="13px" font-style="normal" font-weight="normal" text-decoration="none" x="773.53271484375" y="210.5">(from Objects)</text></g></g><g transform="translate(-22,-14) scale(1,1)"><path fill="none" stroke="#000000" d="M 624 176 L 624 80 L 760 80" stroke-miterlimit="10"/></g><g transform="translate(-22,-14) scale(1,1)"><path fill="#FFFFFF" stroke="none" d="M 739.6746502847517 88.41903551203198 L 760 80 L 739.6746502847517 71.58096448796803"/></g><g transform="translate(-22,-14) scale(1,1)"><path fill="none" stroke="#000000" d="M 739.6746502847517 88.41903551203198 L 760 80 L 739.6746502847517 71.58096448796803 L 739.6746502847517 88.41903551203198" stroke-miterlimit="10"/></g><g transform="translate(-22,-14) scale(1,1)"><path fill="none" stroke="#000000" d="M 814 176 L 814 110" stroke-miterlimit="10"/></g><g transform="translate(-22,-14) scale(1,1)"><path fill="#FFFFFF" stroke="none" d="M 822.419035512032 130.3253497152483 L 814 110 L 805.580964487968 130.3253497152483"/></g><g transform="translate(-22,-14) scale(1,1)"><path fill="none" stroke="#000000" d="M 822.419035512032 130.3253497152483 L 814 110 L 805.580964487968 130.3253497152483 L 822.419035512032 130.3253497152483" stroke-miterlimit="10"/></g><g transform="translate(-22,-14) scale(1,1)"><rect fill="#C0C0C0" stroke="none" x="1159" y="183" width="120.97900390625" height="59" opacity="0.2"/></g><g transform="translate(-22,-14) scale(1,1)"><rect fill="#ffffff" stroke="none" x="1152" y="176" width="120.97900390625" height="59"/></g><g transform="translate(-22,-14) scale(1,1)"><path fill="none" stroke="#000000" d="M 1152 176 L 1272.97900390625 176 L 1272.97900390625 235 L 1152 235 L 1152 176 Z Z" stroke-miterlimit="10"/></g><g transform="translate(-22,-14) scale(1,1)"><path fill="none" stroke="#000000" d="M 1152 216 L 1272.97900390625 216" stroke-miterlimit="10"/></g><g transform="translate(-22,-14) scale(1,1)"><path fill="none" stroke="#000000" d="M 1152 226 L 1272.97900390625 226" stroke-miterlimit="10"/></g><g transform="translate(-22,-14) scale(1,1)"><g><path fill="none" stroke="none"/><text fill="#000000" stroke="none" font-family="Arial" font-size="13px" font-style="italic" font-weight="bold" text-decoration="none" x="1176.989501953125" y="195.5">AComponent</text></g></g><g transform="translate(-22,-14) scale(1,1)"><g><path fill="none" stroke="none"/><text fill="#000000" stroke="none" font-family="Arial" font-size="13px" font-style="normal" font-weight="normal" text-decoration="none" x="1156.5" y="210.5">(from Components)</text></g></g><g transform="translate(-22,-14) scale(1,1)"><path fill="none" stroke="#000000" d="M 1216 176 L 1216 80 L 869 80" stroke-miterlimit="10"/></g><g transform="translate(-22,-14) scale(1,1)"><path fill="#FFFFFF" stroke="none" d="M 889.3253497152483 71.58096448796803 L 869 80 L 889.3253497152483 88.41903551203197"/></g><g transform="translate(-22,-14) scale(1,1)"><path fill="none" stroke="#000000" d="M 889.3253497152483 71.58096448796803 L 869 80 L 889.3253497152483 88.41903551203197 L 889.3253497152483 71.58096448796803" stroke-miterlimit="10"/></g><g transform="translate(-22,-14) scale(1,1)"><rect fill="#C0C0C0" stroke="none" x="263" y="621" width="130.3544921875" height="102" opacity="0.2"/></g><g transform="translate(-22,-14) scale(1,1)"><rect fill="#ffff91" stroke="none" x="256" y="614" width="130.3544921875" height="102"/></g><g transform="translate(-22,-14) scale(1,1)"><path fill="none" stroke="#000000" d="M 256 614 L 386.3544921875 614 L 386.3544921875 716 L 256 716 L 256 614 Z Z" stroke-miterlimit="10"/></g><g transform="translate(-22,-14) scale(1,1)"><path fill="none" stroke="#000000" d="M 256 654 L 386.3544921875 654" stroke-miterlimit="10"/></g><g transform="translate(-22,-14) scale(1,1)"><path fill="none" stroke="#000000" d="M 256 664 L 386.3544921875 664" stroke-miterlimit="10"/></g><g transform="translate(-22,-14) scale(1,1)"><g><path fill="none" stroke="none"/><text fill="#000000" stroke="none" font-family="Arial" font-size="13px" font-style="normal" font-weight="bold" text-decoration="none" x="265.530517578125" y="633.5">RenderingManager</text></g></g><g transform="translate(-22,-14) scale(1,1)"><g><path fill="none" stroke="none"/><text fill="#000000" stroke="none" font-family="Arial" font-size="13px" font-style="normal" font-weight="normal" text-decoration="none" x="273.13818359375" y="648.5">(from Managers)</text></g></g><g transform="translate(-22,-14) scale(1,1)"><rect fill="#C0C0C0" stroke="none" x="39" y="895" width="112" height="63" opacity="0.2"/></g><g transform="translate(-22,-14) scale(1,1)"><rect fill="#ffff91" stroke="none" x="32" y="888" width="112" height="63"/></g><g transform="translate(-22,-14) scale(1,1)"><path fill="none" stroke="#000000" d="M 32 888 L 144 888 L 144 951 L 32 951 L 32 888 Z Z" stroke-miterlimit="10"/></g><g transform="translate(-22,-14) scale(1,1)"><path fill="none" stroke="#000000" d="M 32 928 L 144 928" stroke-miterlimit="10"/></g><g transform="translate(-22,-14) scale(1,1)"><path fill="none" stroke="#000000" d="M 32 938 L 144 938" stroke-miterlimit="10"/></g><g transform="translate(-22,-14) scale(1,1)"><g><path fill="none" stroke="none"/><text fill="#000000" stroke="none" font-family="Arial" font-size="13px" font-style="normal" font-weight="bold" text-decoration="none" x="45.721435546875" y="907.5">AudioManager</text></g></g><g transform="translate(-22,-14) scale(1,1)"><g><path fill="none" stroke="none"/><text fill="#000000" stroke="none" font-family="Arial" font-size="13px" font-style="normal" font-weight="normal" text-decoration="none" x="39.9609375" y="922.5">(from Managers)</text></g></g><g transform="translate(-22,-14) scale(1,1)"><rect fill="#C0C0C0" stroke="none" x="511" y="399" width="115.21533203125" height="63" opacity="0.2"/></g><g transform="translate(-22,-14) scale(1,1)"><rect fill="#ffff91" stroke="none" x="504" y="392" width="115.21533203125" height="63"/></g><g transform="translate(-22,-14) scale(1,1)"><path fill="none" stroke="#000000" d="M 504 392 L 619.21533203125 392 L 619.21533203125 455 L 504 455 L 504 392 Z Z" stroke-miterlimit="10"/></g><g transform="translate(-22,-14) scale(1,1)"><path fill="none" stroke="#000000" d="M 504 432 L 619.21533203125 432" stroke-miterlimit="10"/></g><g transform="translate(-22,-14) scale(1,1)"><path fill="none" stroke="#000000" d="M 504 442 L 619.21533203125 442" stroke-miterlimit="10"/></g><g transform="translate(-22,-14) scale(1,1)"><g><path fill="none" stroke="none"/><text fill="#000000" stroke="none" font-family="Arial" font-size="13px" font-style="normal" font-weight="bold" text-decoration="none" x="513.55908203125" y="411.5">PhysicsManager</text></g></g><g transform="translate(-22,-14) scale(1,1)"><g><path fill="none" stroke="none"/><text fill="#000000" stroke="none" font-family="Arial" font-size="13px" font-style="normal" font-weight="normal" text-decoration="none" x="513.568603515625" y="426.5">(from Managers)</text></g></g><g transform="translate(-22,-14) scale(1,1)"><path fill="none" stroke="#000000" d="M 320 614 L 320 519" stroke-miterlimit="10"/></g><g transform="translate(-22,-14) scale(1,1)"><path fill="#000000" stroke="none" d="M 324.209517756016 529.1626748576241 L 320 519 L 315.790482243984 529.1626748576241 L 320 541"/></g><g transform="translate(-22,-14) scale(1,1)"><path fill="none" stroke="#000000" d="M 324.209517756016 529.1626748576241 L 320 519 L 315.790482243984 529.1626748576241 L 320 541 L 324.209517756016 529.1626748576241" stroke-miterlimit="10"/></g><g transform="translate(-22,-14) scale(1,1)"><path fill="none" stroke="#000000" d="M 88 888 L 88 480 L 248 480" stroke-miterlimit="10"/></g><g transform="translate(-22,-14) scale(1,1)"><path fill="#000000" stroke="none" d="M 237.83732514237585 484.209517756016 L 248 480 L 237.83732514237585 475.790482243984 L 226 480"/></g><g transform="translate(-22,-14) scale(1,1)"><path fill="none" stroke="#000000" d="M 237.83732514237585 484.209517756016 L 248 480 L 237.83732514237585 475.790482243984 L 226 480 L 237.83732514237585 484.209517756016" stroke-miterlimit="10"/></g><g transform="translate(-22,-14) scale(1,1)"><path fill="none" stroke="#000000" d="M 504 424 L 407 424" stroke-miterlimit="10"/></g><g transform="translate(-22,-14) scale(1,1)"><path fill="#000000" stroke="none" d="M 417.16267485762415 419.790482243984 L 407 424 L 417.16267485762415 428.209517756016 L 429 424"/></g><g transform="translate(-22,-14) scale(1,1)"><path fill="none" stroke="#000000" d="M 417.16267485762415 419.790482243984 L 407 424 L 417.16267485762415 428.209517756016 L 429 424 L 417.16267485762415 419.790482243984" stroke-miterlimit="10"/></g><g transform="translate(-22,-14) scale(1,1)"><path fill="none" stroke="#000000" d="M 208 235 L 208 376 L 248 376" stroke-miterlimit="10"/></g><g transform="translate(-22,-14) scale(1,1)"><path fill="#000000" stroke="none" d="M 237.83732514237585 380.209517756016 L 248 376 L 237.83732514237585 371.790482243984 L 226 376"/></g><g transform="translate(-22,-14) scale(1,1)"><path fill="none" stroke="#000000" d="M 237.83732514237585 380.209517756016 L 248 376 L 237.83732514237585 371.790482243984 L 226 376 L 237.83732514237585 380.209517756016" stroke-miterlimit="10"/></g><g transform="translate(-22,-14) scale(1,1)"><path fill="none" stroke="#000000" d="M 392 235 L 392 336" stroke-miterlimit="10"/></g><g transform="translate(-22,-14) scale(1,1)"><path fill="#000000" stroke="none" d="M 387.790482243984 325.83732514237585 L 392 336 L 396.209517756016 325.83732514237585 L 392 314"/></g><g transform="translate(-22,-14) scale(1,1)"><path fill="none" stroke="#000000" d="M 387.790482243984 325.83732514237585 L 392 336 L 396.209517756016 325.83732514237585 L 392 314 L 387.790482243984 325.83732514237585" stroke-miterlimit="10"/></g><g transform="translate(-22,-14) scale(1,1)"><path fill="#C0C0C0" stroke="none" d="M 83.5 986.5 C 83.5 980.1487248 88.6487248 975 95 975 C 101.3512752 975 106.5 980.1487248 106.5 986.5 C 106.5 992.8512752 101.3512752 998 95 998 C 88.6487248 998 83.5 992.8512752 83.5 986.5 Z" opacity="0.2"/></g><g transform="translate(-22,-14) scale(1,1)"><path fill="#ffff91" stroke="none" d="M 76.5 979.5 C 76.5 973.1487248 81.6487248 968 88 968 C 94.3512752 968 99.5 973.1487248 99.5 979.5 C 99.5 985.8512752 94.3512752 991 88 991 C 81.6487248 991 76.5 985.8512752 76.5 979.5 Z"/></g><g transform="translate(-22,-14) scale(1,1)"><path fill="none" stroke="#000000" d="M 76.5 979.5 C 76.5 973.1487248 81.6487248 968 88 968 C 94.3512752 968 99.5 973.1487248 99.5 979.5 C 99.5 985.8512752 94.3512752 991 88 991 C 81.6487248 991 76.5 985.8512752 76.5 979.5 Z" stroke-miterlimit="10"/></g><g transform="translate(-22,-14) scale(1,1)"><g><path fill="none" stroke="none"/><text fill="#000000" stroke="none" font-family="Arial" font-size="13px" font-style="normal" font-weight="bold" text-decoration="none" x="43.91552734375" y="1010.5">IAudioManager</text></g></g><g transform="translate(-22,-14) scale(1,1)"><g><path fill="none" stroke="none"/><text fill="#000000" stroke="none" font-family="Arial" font-size="13px" font-style="normal" font-weight="normal" text-decoration="none" x="43.94091796875" y="1025.5">(from Services)</text></g></g><g transform="translate(-22,-14) scale(1,1)"><path fill="#C0C0C0" stroke="none" d="M 557.107666015625 306.5 C 557.107666015625 300.1487248 562.256390815625 295 568.607666015625 295 C 574.958941215625 295 580.107666015625 300.1487248 580.107666015625 306.5 C 580.107666015625 312.8512752 574.958941215625 318 568.607666015625 318 C 562.256390815625 318 557.107666015625 312.8512752 557.107666015625 306.5 Z" opacity="0.2"/></g><g transform="translate(-22,-14) scale(1,1)"><path fill="#ffff91" stroke="none" d="M 550.107666015625 299.5 C 550.107666015625 293.1487248 555.256390815625 288 561.607666015625 288 C 567.958941215625 288 573.107666015625 293.1487248 573.107666015625 299.5 C 573.107666015625 305.8512752 567.958941215625 311 561.607666015625 311 C 555.256390815625 311 550.107666015625 305.8512752 550.107666015625 299.5 Z"/></g><g transform="translate(-22,-14) scale(1,1)"><path fill="none" stroke="#000000" d="M 550.107666015625 299.5 C 550.107666015625 293.1487248 555.256390815625 288 561.607666015625 288 C 567.958941215625 288 573.107666015625 293.1487248 573.107666015625 299.5 C 573.107666015625 305.8512752 567.958941215625 311 561.607666015625 311 C 555.256390815625 311 550.107666015625 305.8512752 550.107666015625 299.5 Z" stroke-miterlimit="10"/></g><g transform="translate(-22,-14) scale(1,1)"><g><path fill="none" stroke="none"/><text fill="#000000" stroke="none" font-family="Arial" font-size="13px" font-style="normal" font-weight="bold" text-decoration="none" x="511.753173828125" y="330.5">IPhysicsManager</text></g></g><g transform="translate(-22,-14) scale(1,1)"><g><path fill="none" stroke="none"/><text fill="#000000" stroke="none" font-family="Arial" font-size="13px" font-style="normal" font-weight="normal" text-decoration="none" x="517.548583984375" y="345.5">(from Services)</text></g></g><g transform="translate(-22,-14) scale(1,1)"><path fill="#C0C0C0" stroke="none" d="M 164.67724609375 666.5 C 164.67724609375 660.1487248 169.82597089375 655 176.17724609375 655 C 182.52852129375 655 187.67724609375 660.1487248 187.67724609375 666.5 C 187.67724609375 672.8512752 182.52852129375 678 176.17724609375 678 C 169.82597089375 678 164.67724609375 672.8512752 164.67724609375 666.5 Z" opacity="0.2"/></g><g transform="translate(-22,-14) scale(1,1)"><path fill="#ffff91" stroke="none" d="M 157.67724609375 659.5 C 157.67724609375 653.1487248 162.82597089375 648 169.17724609375 648 C 175.52852129375 648 180.67724609375 653.1487248 180.67724609375 659.5 C 180.67724609375 665.8512752 175.52852129375 671 169.17724609375 671 C 162.82597089375 671 157.67724609375 665.8512752 157.67724609375 659.5 Z"/></g><g transform="translate(-22,-14) scale(1,1)"><path fill="none" stroke="#000000" d="M 157.67724609375 659.5 C 157.67724609375 653.1487248 162.82597089375 648 169.17724609375 648 C 175.52852129375 648 180.67724609375 653.1487248 180.67724609375 659.5 C 180.67724609375 665.8512752 175.52852129375 671 169.17724609375 671 C 162.82597089375 671 157.67724609375 665.8512752 157.67724609375 659.5 Z" stroke-miterlimit="10"/></g><g transform="translate(-22,-14) scale(1,1)"><g><path fill="none" stroke="none"/><text fill="#000000" stroke="none" font-family="Arial" font-size="13px" font-style="normal" font-weight="bold" text-decoration="none" x="111.724609375" y="690.5">IRenderingManager</text></g></g><g transform="translate(-22,-14) scale(1,1)"><g><path fill="none" stroke="none"/><text fill="#000000" stroke="none" font-family="Arial" font-size="13px" font-style="normal" font-weight="normal" text-decoration="none" x="125.1181640625" y="705.5">(from Services)</text></g></g><g transform="translate(-22,-14) scale(1,1)"><path fill="#C0C0C0" stroke="none" d="M 322.20361328125 250.5 C 322.20361328125 244.1487248 327.35233808125 239 333.70361328125 239 C 340.05488848125 239 345.20361328125 244.1487248 345.20361328125 250.5 C 345.20361328125 256.8512752 340.05488848125 262 333.70361328125 262 C 327.35233808125 262 322.20361328125 256.8512752 322.20361328125 250.5 Z" opacity="0.2"/></g><g transform="translate(-22,-14) scale(1,1)"><path fill="#ffff91" stroke="none" d="M 315.20361328125 243.5 C 315.20361328125 237.1487248 320.35233808125 232 326.70361328125 232 C 333.05488848125 232 338.20361328125 237.1487248 338.20361328125 243.5 C 338.20361328125 249.8512752 333.05488848125 255 326.70361328125 255 C 320.35233808125 255 315.20361328125 249.8512752 315.20361328125 243.5 Z"/></g><g transform="translate(-22,-14) scale(1,1)"><path fill="none" stroke="#000000" d="M 315.20361328125 243.5 C 315.20361328125 237.1487248 320.35233808125 232 326.70361328125 232 C 333.05488848125 232 338.20361328125 237.1487248 338.20361328125 243.5 C 338.20361328125 249.8512752 333.05488848125 255 326.70361328125 255 C 320.35233808125 255 315.20361328125 249.8512752 315.20361328125 243.5 Z" stroke-miterlimit="10"/></g><g transform="translate(-22,-14) scale(1,1)"><g><path fill="none" stroke="none"/><text fill="#000000" stroke="none" font-family="Arial" font-size="13px" font-style="normal" font-weight="bold" text-decoration="none" x="279.004150390625" y="274.5">IEngineManager</text></g></g><g transform="translate(-22,-14) scale(1,1)"><g><path fill="none" stroke="none"/><text fill="#000000" stroke="none" font-family="Arial" font-size="13px" font-style="normal" font-weight="normal" text-decoration="none" x="282.64453125" y="289.5">(from Services)</text></g></g><g transform="translate(-22,-14) scale(1,1)"><path fill="none" stroke="#000000" d="M 326 336 L 326 255" stroke-miterlimit="10"/></g><g transform="translate(-22,-14) scale(1,1)"><path fill="none" stroke="#000000" d="M 256 659 L 180.67724609375 659" stroke-miterlimit="10"/></g><g transform="translate(-22,-14) scale(1,1)"><path fill="none" stroke="#000000" d="M 88 951 L 88 968" stroke-miterlimit="10"/></g><g transform="translate(-22,-14) scale(1,1)"><path fill="none" stroke="#000000" d="M 561 392 L 561 311" stroke-miterlimit="10"/></g><g transform="translate(-22,-14) scale(1,1)"><rect fill="#C0C0C0" stroke="none" x="951" y="607" width="131.80810546875" height="59" opacity="0.2"/></g><g transform="translate(-22,-14) scale(1,1)"><rect fill="#ffffff" stroke="none" x="944" y="600" width="131.80810546875" height="59"/></g><g transform="translate(-22,-14) scale(1,1)"><path fill="none" stroke="#000000" d="M 944 600 L 1075.80810546875 600 L 1075.80810546875 659 L 944 659 L 944 600 Z Z" stroke-miterlimit="10"/></g><g transform="translate(-22,-14) scale(1,1)"><path fill="none" stroke="#000000" d="M 944 640 L 1075.80810546875 640" stroke-miterlimit="10"/></g><g transform="translate(-22,-14) scale(1,1)"><path fill="none" stroke="#000000" d="M 944 650 L 1075.80810546875 650" stroke-miterlimit="10"/></g><g transform="translate(-22,-14) scale(1,1)"><g><path fill="none" stroke="none"/><text fill="#000000" stroke="none" font-family="Arial" font-size="13px" font-style="normal" font-weight="bold" text-decoration="none" x="965.825927734375" y="619.5">SpriteRenderer</text></g></g><g transform="translate(-22,-14) scale(1,1)"><g><path fill="none" stroke="none"/><text fill="#000000" stroke="none" font-family="Arial" font-size="13px" font-style="normal" font-weight="normal" text-decoration="none" x="958.25" y="634.5">(from Behaviours)</text></g></g><g transform="translate(-22,-14) scale(1,1)"><rect fill="#C0C0C0" stroke="none" x="1087" y="607" width="131.80810546875" height="59" opacity="0.2"/></g><g transform="translate(-22,-14) scale(1,1)"><rect fill="#ffffff" stroke="none" x="1080" y="600" width="131.80810546875" height="59"/></g><g transform="translate(-22,-14) scale(1,1)"><path fill="none" stroke="#000000" d="M 1080 600 L 1211.80810546875 600 L 1211.80810546875 659 L 1080 659 L 1080 600 Z Z" stroke-miterlimit="10"/></g><g transform="translate(-22,-14) scale(1,1)"><path fill="none" stroke="#000000" d="M 1080 640 L 1211.80810546875 640" stroke-miterlimit="10"/></g><g transform="translate(-22,-14) scale(1,1)"><path fill="none" stroke="#000000" d="M 1080 650 L 1211.80810546875 650" stroke-miterlimit="10"/></g><g transform="translate(-22,-14) scale(1,1)"><g><path fill="none" stroke="none"/><text fill="#000000" stroke="none" font-family="Arial" font-size="13px" font-style="normal" font-weight="bold" text-decoration="none" x="1101.102294921875" y="619.5">ModelRenderer</text></g></g><g transform="translate(-22,-14) scale(1,1)"><g><path fill="none" stroke="none"/><text fill="#000000" stroke="none" font-family="Arial" font-size="13px" font-style="normal" font-weight="normal" text-decoration="none" x="1094.25" y="634.5">(from Behaviours)</text></g></g><g transform="translate(-22,-14) scale(1,1)"><rect fill="#C0C0C0" stroke="none" x="815" y="543" width="131.80810546875" height="59" opacity="0.2"/></g><g transform="translate(-22,-14) scale(1,1)"><rect fill="#ffffff" stroke="none" x="808" y="536" width="131.80810546875" height="59"/></g><g transform="translate(-22,-14) scale(1,1)"><path fill="none" stroke="#000000" d="M 808 536 L 939.80810546875 536 L 939.80810546875 595 L 808 595 L 808 536 Z Z" stroke-miterlimit="10"/></g><g transform="translate(-22,-14) scale(1,1)"><path fill="none" stroke="#000000" d="M 808 576 L 939.80810546875 576" stroke-miterlimit="10"/></g><g transform="translate(-22,-14) scale(1,1)"><path fill="none" stroke="#000000" d="M 808 586 L 939.80810546875 586" stroke-miterlimit="10"/></g><g transform="translate(-22,-14) scale(1,1)"><g><path fill="none" stroke="none"/><text fill="#000000" stroke="none" font-family="Arial" font-size="13px" font-style="normal" font-weight="bold" text-decoration="none" x="850.785888671875" y="555.5">Camera</text></g></g><g transform="translate(-22,-14) scale(1,1)"><g><path fill="none" stroke="none"/><text fill="#000000" stroke="none" font-family="Arial" font-size="13px" font-style="normal" font-weight="normal" text-decoration="none" x="822.25" y="570.5">(from Behaviours)</text></g></g><g transform="translate(-22,-14) scale(1,1)"><rect fill="#C0C0C0" stroke="none" x="1159" y="327" width="120.97900390625" height="59" opacity="0.2"/></g><g transform="translate(-22,-14) scale(1,1)"><rect fill="#ffffff" stroke="none" x="1152" y="320" width="120.97900390625" height="59"/></g><g transform="translate(-22,-14) scale(1,1)"><path fill="none" stroke="#000000" d="M 1152 320 L 1272.97900390625 320 L 1272.97900390625 379 L 1152 379 L 1152 320 Z Z" stroke-miterlimit="10"/></g><g transform="translate(-22,-14) scale(1,1)"><path fill="none" stroke="#000000" d="M 1152 360 L 1272.97900390625 360" stroke-miterlimit="10"/></g><g transform="translate(-22,-14) scale(1,1)"><path fill="none" stroke="#000000" d="M 1152 370 L 1272.97900390625 370" stroke-miterlimit="10"/></g><g transform="translate(-22,-14) scale(1,1)"><g><path fill="none" stroke="none"/><text fill="#000000" stroke="none" font-family="Arial" font-size="13px" font-style="italic" font-weight="bold" text-decoration="none" x="1179.989501953125" y="339.5">ABehaviour</text></g></g><g transform="translate(-22,-14) scale(1,1)"><g><path fill="none" stroke="none"/><text fill="#000000" stroke="none" font-family="Arial" font-size="13px" font-style="normal" font-weight="normal" text-decoration="none" x="1160.83544921875" y="354.5">(from Behaviours)</text></g></g><g transform="translate(-22,-14) scale(1,1)"><rect fill="#C0C0C0" stroke="none" x="1394" y="327" width="120.97900390625" height="59" opacity="0.2"/></g><g transform="translate(-22,-14) scale(1,1)"><rect fill="#ffffff" stroke="none" x="1387" y="320" width="120.97900390625" height="59"/></g><g transform="translate(-22,-14) scale(1,1)"><path fill="none" stroke="#000000" d="M 1387 320 L 1507.97900390625 320 L 1507.97900390625 379 L 1387 379 L 1387 320 Z Z" stroke-miterlimit="10"/></g><g transform="translate(-22,-14) scale(1,1)"><path fill="none" stroke="#000000" d="M 1387 360 L 1507.97900390625 360" stroke-miterlimit="10"/></g><g transform="translate(-22,-14) scale(1,1)"><path fill="none" stroke="#000000" d="M 1387 370 L 1507.97900390625 370" stroke-miterlimit="10"/></g><g transform="translate(-22,-14) scale(1,1)"><g><path fill="none" stroke="none"/><text fill="#000000" stroke="none" font-family="Arial" font-size="13px" font-style="normal" font-weight="bold" text-decoration="none" x="1418.11572265625" y="339.5">Transform</text></g></g><g transform="translate(-22,-14) scale(1,1)"><g><path fill="none" stroke="none"/><text fill="#000000" stroke="none" font-family="Arial" font-size="13px" font-style="normal" font-weight="normal" text-decoration="none" x="1391.5" y="354.5">(from Components)</text></g></g><g transform="translate(-22,-14) scale(1,1)"><path fill="none" stroke="#000000" d="M 1448 320 L 1448 208 L 1273 208" stroke-miterlimit="10"/></g><g transform="translate(-22,-14) scale(1,1)"><path fill="#FFFFFF" stroke="none" d="M 1293.3253497152482 199.58096448796803 L 1273 208 L 1293.3253497152482 216.41903551203197"/></g><g transform="translate(-22,-14) scale(1,1)"><path fill="none" stroke="#000000" d="M 1293.3253497152482 199.58096448796803 L 1273 208 L 1293.3253497152482 216.41903551203197 L 1293.3253497152482 199.58096448796803" stroke-miterlimit="10"/></g><g transform="translate(-22,-14) scale(1,1)"><path fill="none" stroke="#000000" d="M 1212 320 L 1212 235" stroke-miterlimit="10"/></g><g transform="translate(-22,-14) scale(1,1)"><path fill="#FFFFFF" stroke="none" d="M 1220.419035512032 255.3253497152483 L 1212 235 L 1203.580964487968 255.3253497152483"/></g><g transform="translate(-22,-14) scale(1,1)"><path fill="none" stroke="#000000" d="M 1220.419035512032 255.3253497152483 L 1212 235 L 1203.580964487968 255.3253497152483 L 1220.419035512032 255.3253497152483" stroke-miterlimit="10"/></g><g transform="translate(-22,-14) scale(1,1)"><path fill="none" stroke="#000000" d="M 940 557 L 1152 557 L 1152 379" stroke-miterlimit="10"/></g><g transform="translate(-22,-14) scale(1,1)"><path fill="#FFFFFF" stroke="none" d="M 1160.419035512032 399.3253497152483 L 1152 379 L 1143.580964487968 399.3253497152483"/></g><g transform="translate(-22,-14) scale(1,1)"><path fill="none" stroke="#000000" d="M 1160.419035512032 399.3253497152483 L 1152 379 L 1143.580964487968 399.3253497152483 L 1160.419035512032 399.3253497152483" stroke-miterlimit="10"/></g><g transform="translate(-22,-14) scale(1,1)"><path fill="none" stroke="#000000" d="M 1048 600 L 1048 584 L 1176 584 L 1176 379" stroke-miterlimit="10"/></g><g transform="translate(-22,-14) scale(1,1)"><path fill="#FFFFFF" stroke="none" d="M 1184.419035512032 399.3253497152483 L 1176 379 L 1167.580964487968 399.3253497152483"/></g><g transform="translate(-22,-14) scale(1,1)"><path fill="none" stroke="#000000" d="M 1184.419035512032 399.3253497152483 L 1176 379 L 1167.580964487968 399.3253497152483 L 1184.419035512032 399.3253497152483" stroke-miterlimit="10"/></g><g transform="translate(-22,-14) scale(1,1)"><path fill="none" stroke="#000000" d="M 1200 600 L 1200 379" stroke-miterlimit="10"/></g><g transform="translate(-22,-14) scale(1,1)"><path fill="#FFFFFF" stroke="none" d="M 1208.419035512032 399.3253497152483 L 1200 379 L 1191.580964487968 399.3253497152483"/></g><g transform="translate(-22,-14) scale(1,1)"><path fill="none" stroke="#000000" d="M 1208.419035512032 399.3253497152483 L 1200 379 L 1191.580964487968 399.3253497152483 L 1208.419035512032 399.3253497152483" stroke-miterlimit="10"/></g><g transform="translate(-22,-14) scale(1,1)"><rect fill="#C0C0C0" stroke="none" x="1223" y="607" width="131.80810546875" height="59" opacity="0.2"/></g><g transform="translate(-22,-14) scale(1,1)"><rect fill="#ffffff" stroke="none" x="1216" y="600" width="131.80810546875" height="59"/></g><g transform="translate(-22,-14) scale(1,1)"><path fill="none" stroke="#000000" d="M 1216 600 L 1347.80810546875 600 L 1347.80810546875 659 L 1216 659 L 1216 600 Z Z" stroke-miterlimit="10"/></g><g transform="translate(-22,-14) scale(1,1)"><path fill="none" stroke="#000000" d="M 1216 640 L 1347.80810546875 640" stroke-miterlimit="10"/></g><g transform="translate(-22,-14) scale(1,1)"><path fill="none" stroke="#000000" d="M 1216 650 L 1347.80810546875 650" stroke-miterlimit="10"/></g><g transform="translate(-22,-14) scale(1,1)"><g><path fill="none" stroke="none"/><text fill="#000000" stroke="none" font-family="Arial" font-size="13px" font-style="normal" font-weight="bold" text-decoration="none" x="1242.885009765625" y="619.5">TextRenderer</text></g></g><g transform="translate(-22,-14) scale(1,1)"><g><path fill="none" stroke="none"/><text fill="#000000" stroke="none" font-family="Arial" font-size="13px" font-style="normal" font-weight="normal" text-decoration="none" x="1230.25" y="634.5">(from Behaviours)</text></g></g><g transform="translate(-22,-14) scale(1,1)"><path fill="none" stroke="#000000" d="M 1224 600 L 1224 379" stroke-miterlimit="10"/></g><g transform="translate(-22,-14) scale(1,1)"><path fill="#FFFFFF" stroke="none" d="M 1232.419035512032 399.3253497152483 L 1224 379 L 1215.580964487968 399.3253497152483"/></g><g transform="translate(-22,-14) scale(1,1)"><path fill="none" stroke="#000000" d="M 1232.419035512032 399.3253497152483 L 1224 379 L 1215.580964487968 399.3253497152483 L 1232.419035512032 399.3253497152483" stroke-miterlimit="10"/></g><g transform="translate(-22,-14) scale(1,1)"><rect fill="#C0C0C0" stroke="none" x="1359" y="607" width="131.80810546875" height="59" opacity="0.2"/></g><g transform="translate(-22,-14) scale(1,1)"><rect fill="#ffffff" stroke="none" x="1352" y="600" width="131.80810546875" height="59"/></g><g transform="translate(-22,-14) scale(1,1)"><path fill="none" stroke="#000000" d="M 1352 600 L 1483.80810546875 600 L 1483.80810546875 659 L 1352 659 L 1352 600 Z Z" stroke-miterlimit="10"/></g><g transform="translate(-22,-14) scale(1,1)"><path fill="none" stroke="#000000" d="M 1352 640 L 1483.80810546875 640" stroke-miterlimit="10"/></g><g transform="translate(-22,-14) scale(1,1)"><path fill="none" stroke="#000000" d="M 1352 650 L 1483.80810546875 650" stroke-miterlimit="10"/></g><g transform="translate(-22,-14) scale(1,1)"><g><path fill="none" stroke="none"/><text fill="#000000" stroke="none" font-family="Arial" font-size="13px" font-style="normal" font-weight="bold" text-decoration="none" x="1378.155029296875" y="619.5">AudioListener</text></g></g><g transform="translate(-22,-14) scale(1,1)"><g><path fill="none" stroke="none"/><text fill="#000000" stroke="none" font-family="Arial" font-size="13px" font-style="normal" font-weight="normal" text-decoration="none" x="1366.25" y="634.5">(from Behaviours)</text></g></g><g transform="translate(-22,-14) scale(1,1)"><rect fill="#C0C0C0" stroke="none" x="1494" y="543" width="131.80810546875" height="59" opacity="0.2"/></g><g transform="translate(-22,-14) scale(1,1)"><rect fill="#ffffff" stroke="none" x="1487" y="536" width="131.80810546875" height="59"/></g><g transform="translate(-22,-14) scale(1,1)"><path fill="none" stroke="#000000" d="M 1487 536 L 1618.80810546875 536 L 1618.80810546875 595 L 1487 595 L 1487 536 Z Z" stroke-miterlimit="10"/></g><g transform="translate(-22,-14) scale(1,1)"><path fill="none" stroke="#000000" d="M 1487 576 L 1618.80810546875 576" stroke-miterlimit="10"/></g><g transform="translate(-22,-14) scale(1,1)"><path fill="none" stroke="#000000" d="M 1487 586 L 1618.80810546875 586" stroke-miterlimit="10"/></g><g transform="translate(-22,-14) scale(1,1)"><g><path fill="none" stroke="none"/><text fill="#000000" stroke="none" font-family="Arial" font-size="13px" font-style="normal" font-weight="bold" text-decoration="none" x="1515.6845703125" y="555.5">AudioSource</text></g></g><g transform="translate(-22,-14) scale(1,1)"><g><path fill="none" stroke="none"/><text fill="#000000" stroke="none" font-family="Arial" font-size="13px" font-style="normal" font-weight="normal" text-decoration="none" x="1501.25" y="570.5">(from Behaviours)</text></g></g><g transform="translate(-22,-14) scale(1,1)"><rect fill="#C0C0C0" stroke="none" x="679" y="479" width="131.80810546875" height="59" opacity="0.2"/></g><g transform="translate(-22,-14) scale(1,1)"><rect fill="#ffffff" stroke="none" x="672" y="472" width="131.80810546875" height="59"/></g><g transform="translate(-22,-14) scale(1,1)"><path fill="none" stroke="#000000" d="M 672 472 L 803.80810546875 472 L 803.80810546875 531 L 672 531 L 672 472 Z Z" stroke-miterlimit="10"/></g><g transform="translate(-22,-14) scale(1,1)"><path fill="none" stroke="#000000" d="M 672 512 L 803.80810546875 512" stroke-miterlimit="10"/></g><g transform="translate(-22,-14) scale(1,1)"><path fill="none" stroke="#000000" d="M 672 522 L 803.80810546875 522" stroke-miterlimit="10"/></g><g transform="translate(-22,-14) scale(1,1)"><g><path fill="none" stroke="none"/><text fill="#000000" stroke="none" font-family="Arial" font-size="13px" font-style="normal" font-weight="bold" text-decoration="none" x="704.667724609375" y="491.5">BoxCollider</text></g></g><g transform="translate(-22,-14) scale(1,1)"><g><path fill="none" stroke="none"/><text fill="#000000" stroke="none" font-family="Arial" font-size="13px" font-style="normal" font-weight="normal" text-decoration="none" x="686.25" y="506.5">(from Behaviours)</text></g></g><g transform="translate(-22,-14) scale(1,1)"><path fill="none" stroke="#000000" d="M 804 504 L 1096 504 L 1096 352 L 1152 352" stroke-miterlimit="10"/></g><g transform="translate(-22,-14) scale(1,1)"><path fill="#FFFFFF" stroke="none" d="M 1131.6746502847518 360.419035512032 L 1152 352 L 1131.6746502847516 343.580964487968"/></g><g transform="translate(-22,-14) scale(1,1)"><path fill="none" stroke="#000000" d="M 1131.6746502847518 360.419035512032 L 1152 352 L 1131.6746502847516 343.580964487968 L 1131.6746502847518 360.419035512032" stroke-miterlimit="10"/></g><g transform="translate(-22,-14) scale(1,1)"><path fill="none" stroke="#000000" d="M 1368 600 L 1368 584 L 1248 584 L 1248 379" stroke-miterlimit="10"/></g><g transform="translate(-22,-14) scale(1,1)"><path fill="#FFFFFF" stroke="none" d="M 1256.419035512032 399.3253497152483 L 1248 379 L 1239.580964487968 399.3253497152483"/></g><g transform="translate(-22,-14) scale(1,1)"><path fill="none" stroke="#000000" d="M 1256.419035512032 399.3253497152483 L 1248 379 L 1239.580964487968 399.3253497152483 L 1256.419035512032 399.3253497152483" stroke-miterlimit="10"/></g><g transform="translate(-22,-14) scale(1,1)"><path fill="none" stroke="#000000" d="M 1487 557 L 1272 557 L 1272 379" stroke-miterlimit="10"/></g><g transform="translate(-22,-14) scale(1,1)"><path fill="#FFFFFF" stroke="none" d="M 1280.419035512032 399.3253497152483 L 1272 379 L 1263.580964487968 399.3253497152483"/></g><g transform="translate(-22,-14) scale(1,1)"><path fill="none" stroke="#000000" d="M 1280.419035512032 399.3253497152483 L 1272 379 L 1263.580964487968 399.3253497152483 L 1280.419035512032 399.3253497152483" stroke-miterlimit="10"/></g><g transform="translate(-22,-14) scale(1,1)"><rect fill="#C0C0C0" stroke="none" x="1084" y="751" width="131.80810546875" height="59" opacity="0.2"/></g><g transform="translate(-22,-14) scale(1,1)"><rect fill="#ffff91" stroke="none" x="1077" y="744" width="131.80810546875" height="59"/></g><g transform="translate(-22,-14) scale(1,1)"><path fill="none" stroke="#000000" d="M 1077 744 L 1208.80810546875 744 L 1208.80810546875 803 L 1077 803 L 1077 744 Z Z" stroke-miterlimit="10"/></g><g transform="translate(-22,-14) scale(1,1)"><path fill="none" stroke="#000000" d="M 1077 784 L 1208.80810546875 784" stroke-miterlimit="10"/></g><g transform="translate(-22,-14) scale(1,1)"><path fill="none" stroke="#000000" d="M 1077 794 L 1208.80810546875 794" stroke-miterlimit="10"/></g><g transform="translate(-22,-14) scale(1,1)"><g><path fill="none" stroke="none"/><text fill="#000000" stroke="none" font-family="Arial" font-size="13px" font-style="normal" font-weight="bold" text-decoration="none" x="1093.04638671875" y="763.5">OModelRenderer</text></g></g><g transform="translate(-22,-14) scale(1,1)"><g><path fill="none" stroke="none"/><text fill="#000000" stroke="none" font-family="Arial" font-size="13px" font-style="normal" font-weight="normal" text-decoration="none" x="1104.983154296875" y="778.5">(from Object)</text></g></g><g transform="translate(-22,-14) scale(1,1)"><path fill="none" stroke="#000000" d="M 1152 744 L 1152 659" stroke-miterlimit="10"/></g><g transform="translate(-22,-14) scale(1,1)"><path fill="#000000" stroke="none" d="M 1156.2095177560159 669.1626748576241 L 1152 659 L 1147.7904822439841 669.1626748576241 L 1152 681"/></g><g transform="translate(-22,-14) scale(1,1)"><path fill="none" stroke="#000000" d="M 1156.2095177560159 669.1626748576241 L 1152 659 L 1147.7904822439841 669.1626748576241 L 1152 681 L 1156.2095177560159 669.1626748576241" stroke-miterlimit="10"/></g><g transform="translate(-22,-14) scale(1,1)"><rect fill="#C0C0C0" stroke="none" x="1219" y="751" width="131.80810546875" height="59" opacity="0.2"/></g><g transform="translate(-22,-14) scale(1,1)"><rect fill="#ffff91" stroke="none" x="1212" y="744" width="131.80810546875" height="59"/></g><g transform="translate(-22,-14) scale(1,1)"><path fill="none" stroke="#000000" d="M 1212 744 L 1343.80810546875 744 L 1343.80810546875 803 L 1212 803 L 1212 744 Z Z" stroke-miterlimit="10"/></g><g transform="translate(-22,-14) scale(1,1)"><path fill="none" stroke="#000000" d="M 1212 784 L 1343.80810546875 784" stroke-miterlimit="10"/></g><g transform="translate(-22,-14) scale(1,1)"><path fill="none" stroke="#000000" d="M 1212 794 L 1343.80810546875 794" stroke-miterlimit="10"/></g><g transform="translate(-22,-14) scale(1,1)"><g><path fill="none" stroke="none"/><text fill="#000000" stroke="none" font-family="Arial" font-size="13px" font-style="normal" font-weight="bold" text-decoration="none" x="1233.8291015625" y="763.5">OTextRenderer</text></g></g><g transform="translate(-22,-14) scale(1,1)"><g><path fill="none" stroke="none"/><text fill="#000000" stroke="none" font-family="Arial" font-size="13px" font-style="normal" font-weight="normal" text-decoration="none" x="1239.983154296875" y="778.5">(from Object)</text></g></g><g transform="translate(-22,-14) scale(1,1)"><path fill="none" stroke="#000000" d="M 1282 744 L 1282 659" stroke-miterlimit="10"/></g><g transform="translate(-22,-14) scale(1,1)"><path fill="#000000" stroke="none" d="M 1286.2095177560159 669.1626748576241 L 1282 659 L 1277.7904822439841 669.1626748576241 L 1282 681"/></g><g transform="translate(-22,-14) scale(1,1)"><path fill="none" stroke="#000000" d="M 1286.2095177560159 669.1626748576241 L 1282 659 L 1277.7904822439841 669.1626748576241 L 1282 681 L 1286.2095177560159 669.1626748576241" stroke-miterlimit="10"/></g><g transform="translate(-22,-14) scale(1,1)"><rect fill="#C0C0C0" stroke="none" x="949" y="751" width="131.80810546875" height="59" opacity="0.2"/></g><g transform="translate(-22,-14) scale(1,1)"><rect fill="#ffff91" stroke="none" x="942" y="744" width="131.80810546875" height="59"/></g><g transform="translate(-22,-14) scale(1,1)"><path fill="none" stroke="#000000" d="M 942 744 L 1073.80810546875 744 L 1073.80810546875 803 L 942 803 L 942 744 Z Z" stroke-miterlimit="10"/></g><g transform="translate(-22,-14) scale(1,1)"><path fill="none" stroke="#000000" d="M 942 784 L 1073.80810546875 784" stroke-miterlimit="10"/></g><g transform="translate(-22,-14) scale(1,1)"><path fill="none" stroke="#000000" d="M 942 794 L 1073.80810546875 794" stroke-miterlimit="10"/></g><g transform="translate(-22,-14) scale(1,1)"><g><path fill="none" stroke="none"/><text fill="#000000" stroke="none" font-family="Arial" font-size="13px" font-style="normal" font-weight="bold" text-decoration="none" x="958.77001953125" y="763.5">OSpriteRenderer</text></g></g><g transform="translate(-22,-14) scale(1,1)"><g><path fill="none" stroke="none"/><text fill="#000000" stroke="none" font-family="Arial" font-size="13px" font-style="normal" font-weight="normal" text-decoration="none" x="969.983154296875" y="778.5">(from Object)</text></g></g><g transform="translate(-22,-14) scale(1,1)"><path fill="none" stroke="#000000" d="M 1022 744 L 1022 659" stroke-miterlimit="10"/></g><g transform="translate(-22,-14) scale(1,1)"><path fill="#000000" stroke="none" d="M 1026.2095177560159 669.1626748576241 L 1022 659 L 1017.790482243984 669.1626748576241 L 1022 681"/></g><g transform="translate(-22,-14) scale(1,1)"><path fill="none" stroke="#000000" d="M 1026.2095177560159 669.1626748576241 L 1022 659 L 1017.790482243984 669.1626748576241 L 1022 681 L 1026.2095177560159 669.1626748576241" stroke-miterlimit="10"/></g><g transform="translate(-22,-14) scale(1,1)"><rect fill="#C0C0C0" stroke="none" x="1631" y="479" width="131.80810546875" height="59" opacity="0.2"/></g><g transform="translate(-22,-14) scale(1,1)"><rect fill="#ffffff" stroke="none" x="1624" y="472" width="131.80810546875" height="59"/></g><g transform="translate(-22,-14) scale(1,1)"><path fill="none" stroke="#000000" d="M 1624 472 L 1755.80810546875 472 L 1755.80810546875 531 L 1624 531 L 1624 472 Z Z" stroke-miterlimit="10"/></g><g transform="translate(-22,-14) scale(1,1)"><path fill="none" stroke="#000000" d="M 1624 512 L 1755.80810546875 512" stroke-miterlimit="10"/></g><g transform="translate(-22,-14) scale(1,1)"><path fill="none" stroke="#000000" d="M 1624 522 L 1755.80810546875 522" stroke-miterlimit="10"/></g><g transform="translate(-22,-14) scale(1,1)"><g><path fill="none" stroke="none"/><text fill="#000000" stroke="none" font-family="Arial" font-size="13px" font-style="normal" font-weight="bold" text-decoration="none" x="1660.996826171875" y="491.5">Rigidbody</text></g></g><g transform="translate(-22,-14) scale(1,1)"><g><path fill="none" stroke="none"/><text fill="#000000" stroke="none" font-family="Arial" font-size="13px" font-style="normal" font-weight="normal" text-decoration="none" x="1638.25" y="506.5">(from Behaviours)</text></g></g><g transform="translate(-22,-14) scale(1,1)"><path fill="none" stroke="#000000" d="M 1624 504 L 1328 504 L 1328 352 L 1273 352" stroke-miterlimit="10"/></g><g transform="translate(-22,-14) scale(1,1)"><path fill="#FFFFFF" stroke="none" d="M 1293.3253497152482 343.580964487968 L 1273 352 L 1293.3253497152482 360.419035512032"/></g><g transform="translate(-22,-14) scale(1,1)"><path fill="none" stroke="#000000" d="M 1293.3253497152482 343.580964487968 L 1273 352 L 1293.3253497152482 360.419035512032 L 1293.3253497152482 343.580964487968" stroke-miterlimit="10"/></g><g transform="translate(-22,-14) scale(1,1)"><rect fill="#C0C0C0" stroke="none" x="679" y="751" width="131.80810546875" height="59" opacity="0.2"/></g><g transform="translate(-22,-14) scale(1,1)"><rect fill="#ffff91" stroke="none" x="672" y="744" width="131.80810546875" height="59"/></g><g transform="translate(-22,-14) scale(1,1)"><path fill="none" stroke="#000000" d="M 672 744 L 803.80810546875 744 L 803.80810546875 803 L 672 803 L 672 744 Z Z" stroke-miterlimit="10"/></g><g transform="translate(-22,-14) scale(1,1)"><path fill="none" stroke="#000000" d="M 672 784 L 803.80810546875 784" stroke-miterlimit="10"/></g><g transform="translate(-22,-14) scale(1,1)"><path fill="none" stroke="#000000" d="M 672 794 L 803.80810546875 794" stroke-miterlimit="10"/></g><g transform="translate(-22,-14) scale(1,1)"><g><path fill="none" stroke="none"/><text fill="#000000" stroke="none" font-family="Arial" font-size="13px" font-style="normal" font-weight="bold" text-decoration="none" x="699.61181640625" y="763.5">OBoxCollider</text></g></g><g transform="translate(-22,-14) scale(1,1)"><g><path fill="none" stroke="none"/><text fill="#000000" stroke="none" font-family="Arial" font-size="13px" font-style="normal" font-weight="normal" text-decoration="none" x="699.983154296875" y="778.5">(from Object)</text></g></g><g transform="translate(-22,-14) scale(1,1)"><rect fill="#C0C0C0" stroke="none" x="1644" y="751" width="141.93896484375" height="59" opacity="0.2"/></g><g transform="translate(-22,-14) scale(1,1)"><rect fill="#ffff91" stroke="none" x="1637" y="744" width="141.93896484375" height="59"/></g><g transform="translate(-22,-14) scale(1,1)"><path fill="none" stroke="#000000" d="M 1637 744 L 1778.93896484375 744 L 1778.93896484375 803 L 1637 803 L 1637 744 Z Z" stroke-miterlimit="10"/></g><g transform="translate(-22,-14) scale(1,1)"><path fill="none" stroke="#000000" d="M 1637 784 L 1778.93896484375 784" stroke-miterlimit="10"/></g><g transform="translate(-22,-14) scale(1,1)"><path fill="none" stroke="#000000" d="M 1637 794 L 1778.93896484375 794" stroke-miterlimit="10"/></g><g transform="translate(-22,-14) scale(1,1)"><g><path fill="none" stroke="none"/><text fill="#000000" stroke="none" font-family="Arial" font-size="13px" font-style="normal" font-weight="bold" text-decoration="none" x="1674.00634765625" y="763.5">ORigidbody</text></g></g><g transform="translate(-22,-14) scale(1,1)"><g><path fill="none" stroke="none"/><text fill="#000000" stroke="none" font-family="Arial" font-size="13px" font-style="normal" font-weight="normal" text-decoration="none" x="1670.048583984375" y="778.5">(from Object)</text></g></g><g transform="translate(-22,-14) scale(1,1)"><path fill="none" stroke="#000000" d="M 736 744 L 736 531" stroke-miterlimit="10"/></g><g transform="translate(-22,-14) scale(1,1)"><path fill="#000000" stroke="none" d="M 740.209517756016 541.1626748576241 L 736 531 L 731.790482243984 541.1626748576241 L 736 553"/></g><g transform="translate(-22,-14) scale(1,1)"><path fill="none" stroke="#000000" d="M 740.209517756016 541.1626748576241 L 736 531 L 731.790482243984 541.1626748576241 L 736 553 L 740.209517756016 541.1626748576241" stroke-miterlimit="10"/></g><g transform="translate(-22,-14) scale(1,1)"><path fill="none" stroke="#000000" d="M 1704 744 L 1704 531" stroke-miterlimit="10"/></g><g transform="translate(-22,-14) scale(1,1)"><path fill="#000000" stroke="none" d="M 1708.2095177560159 541.1626748576241 L 1704 531 L 1699.7904822439841 541.1626748576241 L 1704 553"/></g><g transform="translate(-22,-14) scale(1,1)"><path fill="none" stroke="#000000" d="M 1708.2095177560159 541.1626748576241 L 1704 531 L 1699.7904822439841 541.1626748576241 L 1704 553 L 1708.2095177560159 541.1626748576241" stroke-miterlimit="10"/></g><g transform="translate(-22,-14) scale(1,1)"><rect fill="#C0C0C0" stroke="none" x="1354" y="751" width="141.93896484375" height="59" opacity="0.2"/></g><g transform="translate(-22,-14) scale(1,1)"><rect fill="#ffff91" stroke="none" x="1347" y="744" width="141.93896484375" height="59"/></g><g transform="translate(-22,-14) scale(1,1)"><path fill="none" stroke="#000000" d="M 1347 744 L 1488.93896484375 744 L 1488.93896484375 803 L 1347 803 L 1347 744 Z Z" stroke-miterlimit="10"/></g><g transform="translate(-22,-14) scale(1,1)"><path fill="none" stroke="#000000" d="M 1347 784 L 1488.93896484375 784" stroke-miterlimit="10"/></g><g transform="translate(-22,-14) scale(1,1)"><path fill="none" stroke="#000000" d="M 1347 794 L 1488.93896484375 794" stroke-miterlimit="10"/></g><g transform="translate(-22,-14) scale(1,1)"><g><path fill="none" stroke="none"/><text fill="#000000" stroke="none" font-family="Arial" font-size="13px" font-style="normal" font-weight="bold" text-decoration="none" x="1373.16455078125" y="763.5">OAudioListener</text></g></g><g transform="translate(-22,-14) scale(1,1)"><g><path fill="none" stroke="none"/><text fill="#000000" stroke="none" font-family="Arial" font-size="13px" font-style="normal" font-weight="normal" text-decoration="none" x="1380.048583984375" y="778.5">(from Object)</text></g></g><g transform="translate(-22,-14) scale(1,1)"><rect fill="#C0C0C0" stroke="none" x="1499" y="751" width="141.93896484375" height="59" opacity="0.2"/></g><g transform="translate(-22,-14) scale(1,1)"><rect fill="#ffff91" stroke="none" x="1492" y="744" width="141.93896484375" height="59"/></g><g transform="translate(-22,-14) scale(1,1)"><path fill="none" stroke="#000000" d="M 1492 744 L 1633.93896484375 744 L 1633.93896484375 803 L 1492 803 L 1492 744 Z Z" stroke-miterlimit="10"/></g><g transform="translate(-22,-14) scale(1,1)"><path fill="none" stroke="#000000" d="M 1492 784 L 1633.93896484375 784" stroke-miterlimit="10"/></g><g transform="translate(-22,-14) scale(1,1)"><path fill="none" stroke="#000000" d="M 1492 794 L 1633.93896484375 794" stroke-miterlimit="10"/></g><g transform="translate(-22,-14) scale(1,1)"><g><path fill="none" stroke="none"/><text fill="#000000" stroke="none" font-family="Arial" font-size="13px" font-style="normal" font-weight="bold" text-decoration="none" x="1520.694091796875" y="763.5">OAudioSource</text></g></g><g transform="translate(-22,-14) scale(1,1)"><g><path fill="none" stroke="none"/><text fill="#000000" stroke="none" font-family="Arial" font-size="13px" font-style="normal" font-weight="normal" text-decoration="none" x="1525.048583984375" y="778.5">(from Object)</text></g></g><g transform="translate(-22,-14) scale(1,1)"><path fill="none" stroke="#000000" d="M 1552 744 L 1552 595" stroke-miterlimit="10"/></g><g transform="translate(-22,-14) scale(1,1)"><path fill="#000000" stroke="none" d="M 1556.2095177560159 605.1626748576241 L 1552 595 L 1547.7904822439841 605.1626748576241 L 1552 617"/></g><g transform="translate(-22,-14) scale(1,1)"><path fill="none" stroke="#000000" d="M 1556.2095177560159 605.1626748576241 L 1552 595 L 1547.7904822439841 605.1626748576241 L 1552 617 L 1556.2095177560159 605.1626748576241" stroke-miterlimit="10"/></g><g transform="translate(-22,-14) scale(1,1)"><path fill="none" stroke="#000000" d="M 1416 803 L 1416 919 L 144 919" stroke-miterlimit="10"/></g><g transform="translate(-22,-14) scale(1,1)"><path fill="#FFFFFF" stroke="none" d="M 154.16267485762415 914.790482243984 L 144 919 L 154.16267485762415 923.209517756016 L 166 919"/></g><g transform="translate(-22,-14) scale(1,1)"><path fill="none" stroke="#000000" d="M 154.16267485762415 914.790482243984 L 144 919 L 154.16267485762415 923.209517756016 L 166 919 L 154.16267485762415 914.790482243984" stroke-miterlimit="10"/></g><g transform="translate(-22,-14) scale(1,1)"><path fill="none" stroke="#000000" d="M 1416 744 L 1416 659" stroke-miterlimit="10"/></g><g transform="translate(-22,-14) scale(1,1)"><path fill="#000000" stroke="none" d="M 1420.2095177560159 669.1626748576241 L 1416 659 L 1411.7904822439841 669.1626748576241 L 1416 681"/></g><g transform="translate(-22,-14) scale(1,1)"><path fill="none" stroke="#000000" d="M 1420.2095177560159 669.1626748576241 L 1416 659 L 1411.7904822439841 669.1626748576241 L 1416 681 L 1420.2095177560159 669.1626748576241" stroke-miterlimit="10"/></g><g transform="translate(-22,-14) scale(1,1)"><rect fill="#C0C0C0" stroke="none" x="814" y="751" width="131.80810546875" height="59" opacity="0.2"/></g><g transform="translate(-22,-14) scale(1,1)"><rect fill="#ffff91" stroke="none" x="807" y="744" width="131.80810546875" height="59"/></g><g transform="translate(-22,-14) scale(1,1)"><path fill="none" stroke="#000000" d="M 807 744 L 938.80810546875 744 L 938.80810546875 803 L 807 803 L 807 744 Z Z" stroke-miterlimit="10"/></g><g transform="translate(-22,-14) scale(1,1)"><path fill="none" stroke="#000000" d="M 807 784 L 938.80810546875 784" stroke-miterlimit="10"/></g><g transform="translate(-22,-14) scale(1,1)"><path fill="none" stroke="#000000" d="M 807 794 L 938.80810546875 794" stroke-miterlimit="10"/></g><g transform="translate(-22,-14) scale(1,1)"><g><path fill="none" stroke="none"/><text fill="#000000" stroke="none" font-family="Arial" font-size="13px" font-style="normal" font-weight="bold" text-decoration="none" x="844.72998046875" y="763.5">OCamera</text></g></g><g transform="translate(-22,-14) scale(1,1)"><g><path fill="none" stroke="none"/><text fill="#000000" stroke="none" font-family="Arial" font-size="13px" font-style="normal" font-weight="normal" text-decoration="none" x="834.983154296875" y="778.5">(from Object)</text></g></g><g transform="translate(-22,-14) scale(1,1)"><path fill="none" stroke="#000000" d="M 869 744 L 869 595" stroke-miterlimit="10"/></g><g transform="translate(-22,-14) scale(1,1)"><path fill="#000000" stroke="none" d="M 873.209517756016 605.1626748576241 L 869 595 L 864.790482243984 605.1626748576241 L 869 617"/></g><g transform="translate(-22,-14) scale(1,1)"><path fill="none" stroke="#000000" d="M 873.209517756016 605.1626748576241 L 869 595 L 864.790482243984 605.1626748576241 L 869 617 L 873.209517756016 605.1626748576241" stroke-miterlimit="10"/></g><g transform="translate(-22,-14) scale(1,1)"><path fill="none" stroke="#000000" d="M 872 803 L 872 856 L 320 856 L 320 716" stroke-miterlimit="10"/></g><g transform="translate(-22,-14) scale(1,1)"><path fill="#FFFFFF" stroke="none" d="M 324.209517756016 726.1626748576241 L 320 716 L 315.790482243984 726.1626748576241 L 320 738"/></g><g transform="translate(-22,-14) scale(1,1)"><path fill="none" stroke="#000000" d="M 324.209517756016 726.1626748576241 L 320 716 L 315.790482243984 726.1626748576241 L 320 738 L 324.209517756016 726.1626748576241" stroke-miterlimit="10"/></g><g transform="translate(-22,-14) scale(1,1)"><rect fill="#C0C0C0" stroke="none" x="1394" y="431" width="120.97900390625" height="59" opacity="0.2"/></g><g transform="translate(-22,-14) scale(1,1)"><rect fill="#ffff91" stroke="none" x="1387" y="424" width="120.97900390625" height="59"/></g><g transform="translate(-22,-14) scale(1,1)"><path fill="none" stroke="#000000" d="M 1387 424 L 1507.97900390625 424 L 1507.97900390625 483 L 1387 483 L 1387 424 Z Z" stroke-miterlimit="10"/></g><g transform="translate(-22,-14) scale(1,1)"><path fill="none" stroke="#000000" d="M 1387 464 L 1507.97900390625 464" stroke-miterlimit="10"/></g><g transform="translate(-22,-14) scale(1,1)"><path fill="none" stroke="#000000" d="M 1387 474 L 1507.97900390625 474" stroke-miterlimit="10"/></g><g transform="translate(-22,-14) scale(1,1)"><g><path fill="none" stroke="none"/><text fill="#000000" stroke="none" font-family="Arial" font-size="13px" font-style="normal" font-weight="bold" text-decoration="none" x="1413.059814453125" y="443.5">OTransform</text></g></g><g transform="translate(-22,-14) scale(1,1)"><g><path fill="none" stroke="none"/><text fill="#000000" stroke="none" font-family="Arial" font-size="13px" font-style="normal" font-weight="normal" text-decoration="none" x="1409.568603515625" y="458.5">(from Object)</text></g></g><g transform="translate(-22,-14) scale(1,1)"><path fill="none" stroke="#000000" d="M 1448 424 L 1448 379" stroke-miterlimit="10"/></g><g transform="translate(-22,-14) scale(1,1)"><path fill="#000000" stroke="none" d="M 1452.2095177560159 389.16267485762415 L 1448 379 L 1443.7904822439841 389.16267485762415 L 1448 401"/></g><g transform="translate(-22,-14) scale(1,1)"><path fill="none" stroke="#000000" d="M 1452.2095177560159 389.16267485762415 L 1448 379 L 1443.7904822439841 389.16267485762415 L 1448 401 L 1452.2095177560159 389.16267485762415" stroke-miterlimit="10"/></g><g transform="translate(-22,-14) scale(1,1)"><path fill="none" stroke="#000000" d="M 760 205 L 677 205" stroke-miterlimit="10"/></g><g transform="translate(-22,-14) scale(1,1)"><path fill="#000000" stroke="none" d="M 687.1626748576241 200.790482243984 L 677 205 L 687.1626748576241 209.209517756016 L 699 205"/></g><g transform="translate(-22,-14) scale(1,1)"><path fill="none" stroke="#000000" d="M 687.1626748576241 200.790482243984 L 677 205 L 687.1626748576241 209.209517756016 L 699 205 L 687.1626748576241 200.790482243984" stroke-miterlimit="10"/></g><g transform="translate(-22,-14) scale(1,1)"><rect fill="#C0C0C0" stroke="none" x="511" y="479" width="115.21533203125" height="63" opacity="0.2"/></g><g transform="translate(-22,-14) scale(1,1)"><rect fill="#ffffff" stroke="none" x="504" y="472" width="115.21533203125" height="63"/></g><g transform="translate(-22,-14) scale(1,1)"><path fill="none" stroke="#000000" d="M 504 472 L 619.21533203125 472 L 619.21533203125 535 L 504 535 L 504 472 Z Z" stroke-miterlimit="10"/></g><g transform="translate(-22,-14) scale(1,1)"><path fill="none" stroke="#000000" d="M 504 512 L 619.21533203125 512" stroke-miterlimit="10"/></g><g transform="translate(-22,-14) scale(1,1)"><path fill="none" stroke="#000000" d="M 504 522 L 619.21533203125 522" stroke-miterlimit="10"/></g><g transform="translate(-22,-14) scale(1,1)"><g><path fill="none" stroke="none"/><text fill="#000000" stroke="none" font-family="Arial" font-size="13px" font-style="normal" font-weight="bold" text-decoration="none" x="521.6142578125" y="491.5">VideoSettings</text></g></g><g transform="translate(-22,-14) scale(1,1)"><g><path fill="none" stroke="none"/><text fill="#000000" stroke="none" font-family="Arial" font-size="13px" font-style="normal" font-weight="normal" text-decoration="none" x="518.986328125" y="506.5">(from Settings)</text></g></g><g transform="translate(-22,-14) scale(1,1)"><path fill="none" stroke="#000000" d="M 504 499 L 407 499" stroke-miterlimit="10"/></g><g transform="translate(-22,-14) scale(1,1)"><path fill="#000000" stroke="none" d="M 417.16267485762415 494.790482243984 L 407 499 L 417.16267485762415 503.209517756016 L 429 499"/></g><g transform="translate(-22,-14) scale(1,1)"><path fill="none" stroke="#000000" d="M 417.16267485762415 494.790482243984 L 407 499 L 417.16267485762415 503.209517756016 L 429 499 L 417.16267485762415 494.790482243984" stroke-miterlimit="10"/></g></g></svg>