<svg version="1.1" xmlns="http://www.w3.org/2000/svg" xmlns:xlink="http://www.w3.org/1999/xlink" width="1062.3544921875" height="419"><defs/><g><g transform="translate(-14,2) scale(1,1)"><rect fill="#C0C0C0" stroke="none" x="31" y="15" width="131.09716796875" height="59" opacity="0.2"/></g><g transform="translate(-14,2) scale(1,1)"><rect fill="#ffffff" stroke="none" x="24" y="8" width="131.09716796875" height="59"/></g><g transform="translate(-14,2) scale(1,1)"><path fill="none" stroke="#000000" d="M 24 8 L 155.09716796875 8 L 155.09716796875 67 L 24 67 L 24 8 Z Z" stroke-miterlimit="10"/></g><g transform="translate(-14,2) scale(1,1)"><path fill="none" stroke="#000000" d="M 24 48 L 155.09716796875 48" stroke-miterlimit="10"/></g><g transform="translate(-14,2) scale(1,1)"><path fill="none" stroke="#000000" d="M 24 58 L 155.09716796875 58" stroke-miterlimit="10"/></g><g transform="translate(-14,2) scale(1,1)"><g><path fill="none" stroke="none"/><text fill="#000000" stroke="none" font-family="Arial" font-size="13px" font-style="italic" font-weight="bold" text-decoration="none" x="35.789794921875" y="27.5">AResourceManager</text></g></g><g transform="translate(-14,2) scale(1,1)"><g><path fill="none" stroke="none"/><text fill="#000000" stroke="none" font-family="Arial" font-size="13px" font-style="normal" font-weight="normal" text-decoration="none" x="41.509521484375" y="42.5">(from Managers)</text></g></g><g transform="translate(-14,2) scale(1,1)"><rect fill="#C0C0C0" stroke="none" x="655" y="159" width="152" height="99" opacity="0.2"/></g><g transform="translate(-14,2) scale(1,1)"><rect fill="#ffffff" stroke="none" x="648" y="152" width="152" height="99"/></g><g transform="translate(-14,2) scale(1,1)"><path fill="none" stroke="#000000" d="M 648 152 L 800 152 L 800 251 L 648 251 L 648 152 Z Z" stroke-miterlimit="10"/></g><g transform="translate(-14,2) scale(1,1)"><path fill="none" stroke="#000000" d="M 648 192 L 800 192" stroke-miterlimit="10"/></g><g transform="translate(-14,2) scale(1,1)"><path fill="none" stroke="#000000" d="M 648 202 L 800 202" stroke-miterlimit="10"/></g><g transform="translate(-14,2) scale(1,1)"><g><path fill="none" stroke="none"/><text fill="#000000" stroke="none" font-family="Arial" font-size="13px" font-style="normal" font-weight="bold" text-decoration="none" x="680.6455078125" y="171.5">ServiceLocator</text></g></g><g transform="translate(-14,2) scale(1,1)"><g><path fill="none" stroke="none"/><text fill="#000000" stroke="none" font-family="Arial" font-size="13px" font-style="normal" font-weight="normal" text-decoration="none" x="675.9609375" y="186.5">(from Managers)</text></g></g><g transform="translate(-14,2) scale(1,1)"><rect fill="#C0C0C0" stroke="none" x="31" y="87" width="74.71728515625" height="59" opacity="0.2"/></g><g transform="translate(-14,2) scale(1,1)"><rect fill="#ffffff" stroke="none" x="24" y="80" width="74.71728515625" height="59"/></g><g transform="translate(-14,2) scale(1,1)"><path fill="none" stroke="#000000" d="M 24 80 L 98.71728515625 80 L 98.71728515625 139 L 24 139 L 24 80 Z Z" stroke-miterlimit="10"/></g><g transform="translate(-14,2) scale(1,1)"><path fill="none" stroke="#000000" d="M 24 120 L 98.71728515625 120" stroke-miterlimit="10"/></g><g transform="translate(-14,2) scale(1,1)"><path fill="none" stroke="#000000" d="M 24 130 L 98.71728515625 130" stroke-miterlimit="10"/></g><g transform="translate(-14,2) scale(1,1)"><g><path fill="none" stroke="none"/><text fill="#000000" stroke="none" font-family="Arial" font-size="13px" font-style="normal" font-weight="bold" text-decoration="none" x="34.254150390625" y="99.5">IniLoader</text></g></g><g transform="translate(-14,2) scale(1,1)"><g><path fill="none" stroke="none"/><text fill="#000000" stroke="none" font-family="Arial" font-size="13px" font-style="normal" font-weight="normal" text-decoration="none" x="28.5" y="114.5">(from Files)</text></g></g><g transform="translate(-14,2) scale(1,1)"><rect fill="#C0C0C0" stroke="none" x="31" y="159" width="72.54638671875" height="59" opacity="0.2"/></g><g transform="translate(-14,2) scale(1,1)"><rect fill="#ffffff" stroke="none" x="24" y="152" width="72.54638671875" height="59"/></g><g transform="translate(-14,2) scale(1,1)"><path fill="none" stroke="#000000" d="M 24 152 L 96.54638671875 152 L 96.54638671875 211 L 24 211 L 24 152 Z Z" stroke-miterlimit="10"/></g><g transform="translate(-14,2) scale(1,1)"><path fill="none" stroke="#000000" d="M 24 192 L 96.54638671875 192" stroke-miterlimit="10"/></g><g transform="translate(-14,2) scale(1,1)"><path fill="none" stroke="#000000" d="M 24 202 L 96.54638671875 202" stroke-miterlimit="10"/></g><g transform="translate(-14,2) scale(1,1)"><g><path fill="none" stroke="none"/><text fill="#000000" stroke="none" font-family="Arial" font-size="13px" font-style="normal" font-weight="bold" text-decoration="none" x="35.70458984375" y="171.5">Random</text></g></g><g transform="translate(-14,2) scale(1,1)"><g><path fill="none" stroke="none"/><text fill="#000000" stroke="none" font-family="Arial" font-size="13px" font-style="normal" font-weight="normal" text-decoration="none" x="28.5" y="186.5">(from Utils)</text></g></g><g transform="translate(-14,2) scale(1,1)"><rect fill="#C0C0C0" stroke="none" x="191" y="159" width="72.54638671875" height="59" opacity="0.2"/></g><g transform="translate(-14,2) scale(1,1)"><rect fill="#ffffff" stroke="none" x="184" y="152" width="72.54638671875" height="59"/></g><g transform="translate(-14,2) scale(1,1)"><path fill="none" stroke="#000000" d="M 184 152 L 256.54638671875 152 L 256.54638671875 211 L 184 211 L 184 152 Z Z" stroke-miterlimit="10"/></g><g transform="translate(-14,2) scale(1,1)"><path fill="none" stroke="#000000" d="M 184 192 L 256.54638671875 192" stroke-miterlimit="10"/></g><g transform="translate(-14,2) scale(1,1)"><path fill="none" stroke="#000000" d="M 184 202 L 256.54638671875 202" stroke-miterlimit="10"/></g><g transform="translate(-14,2) scale(1,1)"><g><path fill="none" stroke="none"/><text fill="#000000" stroke="none" font-family="Arial" font-size="13px" font-style="normal" font-weight="bold" text-decoration="none" x="206.0703125" y="171.5">Time</text></g></g><g transform="translate(-14,2) scale(1,1)"><g><path fill="none" stroke="none"/><text fill="#000000" stroke="none" font-family="Arial" font-size="13px" font-style="normal" font-weight="normal" text-decoration="none" x="188.5" y="186.5">(from Utils)</text></g></g><g transform="translate(-14,2) scale(1,1)"><rect fill="#C0C0C0" stroke="none" x="111" y="159" width="72.54638671875" height="59" opacity="0.2"/></g><g transform="translate(-14,2) scale(1,1)"><rect fill="#ffffff" stroke="none" x="104" y="152" width="72.54638671875" height="59"/></g><g transform="translate(-14,2) scale(1,1)"><path fill="none" stroke="#000000" d="M 104 152 L 176.54638671875 152 L 176.54638671875 211 L 104 211 L 104 152 Z Z" stroke-miterlimit="10"/></g><g transform="translate(-14,2) scale(1,1)"><path fill="none" stroke="#000000" d="M 104 192 L 176.54638671875 192" stroke-miterlimit="10"/></g><g transform="translate(-14,2) scale(1,1)"><path fill="none" stroke="#000000" d="M 104 202 L 176.54638671875 202" stroke-miterlimit="10"/></g><g transform="translate(-14,2) scale(1,1)"><g><path fill="none" stroke="none"/><text fill="#000000" stroke="none" font-family="Arial" font-size="13px" font-style="normal" font-weight="bold" text-decoration="none" x="126.543212890625" y="171.5">Date</text></g></g><g transform="translate(-14,2) scale(1,1)"><g><path fill="none" stroke="none"/><text fill="#000000" stroke="none" font-family="Arial" font-size="13px" font-style="normal" font-weight="normal" text-decoration="none" x="108.5" y="186.5">(from Utils)</text></g></g><g transform="translate(-14,2) scale(1,1)"><rect fill="#C0C0C0" stroke="none" x="31" y="231" width="121.68994140625" height="59" opacity="0.2"/></g><g transform="translate(-14,2) scale(1,1)"><rect fill="#ffffff" stroke="none" x="24" y="224" width="121.68994140625" height="59"/></g><g transform="translate(-14,2) scale(1,1)"><path fill="none" stroke="#000000" d="M 24 224 L 145.68994140625 224 L 145.68994140625 283 L 24 283 L 24 224 Z Z" stroke-miterlimit="10"/></g><g transform="translate(-14,2) scale(1,1)"><path fill="none" stroke="#000000" d="M 24 264 L 145.68994140625 264" stroke-miterlimit="10"/></g><g transform="translate(-14,2) scale(1,1)"><path fill="none" stroke="#000000" d="M 24 274 L 145.68994140625 274" stroke-miterlimit="10"/></g><g transform="translate(-14,2) scale(1,1)"><g><path fill="none" stroke="none"/><text fill="#000000" stroke="none" font-family="Arial" font-size="13px" font-style="normal" font-weight="bold" text-decoration="none" x="64.25634765625" y="243.5">Profiler</text></g></g><g transform="translate(-14,2) scale(1,1)"><g><path fill="none" stroke="none"/><text fill="#000000" stroke="none" font-family="Arial" font-size="13px" font-style="normal" font-weight="normal" text-decoration="none" x="28.5" y="258.5">(from Performance)</text></g></g><g transform="translate(-14,2) scale(1,1)"><rect fill="#C0C0C0" stroke="none" x="31" y="303" width="85.578125" height="59" opacity="0.2"/></g><g transform="translate(-14,2) scale(1,1)"><rect fill="#ffffff" stroke="none" x="24" y="296" width="85.578125" height="59"/></g><g transform="translate(-14,2) scale(1,1)"><path fill="none" stroke="#000000" d="M 24 296 L 109.578125 296 L 109.578125 355 L 24 355 L 24 296 Z Z" stroke-miterlimit="10"/></g><g transform="translate(-14,2) scale(1,1)"><path fill="none" stroke="#000000" d="M 24 336 L 109.578125 336" stroke-miterlimit="10"/></g><g transform="translate(-14,2) scale(1,1)"><path fill="none" stroke="#000000" d="M 24 346 L 109.578125 346" stroke-miterlimit="10"/></g><g transform="translate(-14,2) scale(1,1)"><g><path fill="none" stroke="none"/><text fill="#000000" stroke="none" font-family="Arial" font-size="13px" font-style="normal" font-weight="bold" text-decoration="none" x="39.694091796875" y="315.5">Assertion</text></g></g><g transform="translate(-14,2) scale(1,1)"><g><path fill="none" stroke="none"/><text fill="#000000" stroke="none" font-family="Arial" font-size="13px" font-style="normal" font-weight="normal" text-decoration="none" x="28.5" y="330.5">(from Debug)</text></g></g><g transform="translate(-14,2) scale(1,1)"><rect fill="#C0C0C0" stroke="none" x="127" y="303" width="85.578125" height="59" opacity="0.2"/></g><g transform="translate(-14,2) scale(1,1)"><rect fill="#ffffff" stroke="none" x="120" y="296" width="85.578125" height="59"/></g><g transform="translate(-14,2) scale(1,1)"><path fill="none" stroke="#000000" d="M 120 296 L 205.578125 296 L 205.578125 355 L 120 355 L 120 296 Z Z" stroke-miterlimit="10"/></g><g transform="translate(-14,2) scale(1,1)"><path fill="none" stroke="#000000" d="M 120 336 L 205.578125 336" stroke-miterlimit="10"/></g><g transform="translate(-14,2) scale(1,1)"><path fill="none" stroke="#000000" d="M 120 346 L 205.578125 346" stroke-miterlimit="10"/></g><g transform="translate(-14,2) scale(1,1)"><g><path fill="none" stroke="none"/><text fill="#000000" stroke="none" font-family="Arial" font-size="13px" font-style="normal" font-weight="bold" text-decoration="none" x="151.944091796875" y="315.5">Log</text></g></g><g transform="translate(-14,2) scale(1,1)"><g><path fill="none" stroke="none"/><text fill="#000000" stroke="none" font-family="Arial" font-size="13px" font-style="normal" font-weight="normal" text-decoration="none" x="124.5" y="330.5">(from Debug)</text></g></g><g transform="translate(-14,2) scale(1,1)"><path fill="#C0C0C0" stroke="none" d="M 652.67724609375 50.5 C 652.67724609375 44.1487248 657.82597089375 39 664.17724609375 39 C 670.52852129375 39 675.67724609375 44.1487248 675.67724609375 50.5 C 675.67724609375 56.8512752 670.52852129375 62 664.17724609375 62 C 657.82597089375 62 652.67724609375 56.8512752 652.67724609375 50.5 Z" opacity="0.2"/></g><g transform="translate(-14,2) scale(1,1)"><path fill="#ffff91" stroke="none" d="M 645.67724609375 43.5 C 645.67724609375 37.1487248 650.82597089375 32 657.17724609375 32 C 663.52852129375 32 668.67724609375 37.1487248 668.67724609375 43.5 C 668.67724609375 49.8512752 663.52852129375 55 657.17724609375 55 C 650.82597089375 55 645.67724609375 49.8512752 645.67724609375 43.5 Z"/></g><g transform="translate(-14,2) scale(1,1)"><path fill="none" stroke="#000000" d="M 645.67724609375 43.5 C 645.67724609375 37.1487248 650.82597089375 32 657.17724609375 32 C 663.52852129375 32 668.67724609375 37.1487248 668.67724609375 43.5 C 668.67724609375 49.8512752 663.52852129375 55 657.17724609375 55 C 650.82597089375 55 645.67724609375 49.8512752 645.67724609375 43.5 Z" stroke-miterlimit="10"/></g><g transform="translate(-14,2) scale(1,1)"><g><path fill="none" stroke="none"/><text fill="#000000" stroke="none" font-family="Arial" font-size="13px" font-style="normal" font-weight="bold" text-decoration="none" x="615.260498046875" y="74.5">IInputManager</text></g></g><g transform="translate(-14,2) scale(1,1)"><g><path fill="none" stroke="none"/><text fill="#000000" stroke="none" font-family="Arial" font-size="13px" font-style="normal" font-weight="normal" text-decoration="none" x="613.1181640625" y="89.5">(from Services)</text></g></g><g transform="translate(-14,2) scale(1,1)"><path fill="#C0C0C0" stroke="none" d="M 532.67724609375 90.5 C 532.67724609375 84.1487248 537.82597089375 79 544.17724609375 79 C 550.52852129375 79 555.67724609375 84.1487248 555.67724609375 90.5 C 555.67724609375 96.8512752 550.52852129375 102 544.17724609375 102 C 537.82597089375 102 532.67724609375 96.8512752 532.67724609375 90.5 Z" opacity="0.2"/></g><g transform="translate(-14,2) scale(1,1)"><path fill="#ffff91" stroke="none" d="M 525.67724609375 83.5 C 525.67724609375 77.1487248 530.82597089375 72 537.17724609375 72 C 543.52852129375 72 548.67724609375 77.1487248 548.67724609375 83.5 C 548.67724609375 89.8512752 543.52852129375 95 537.17724609375 95 C 530.82597089375 95 525.67724609375 89.8512752 525.67724609375 83.5 Z"/></g><g transform="translate(-14,2) scale(1,1)"><path fill="none" stroke="#000000" d="M 525.67724609375 83.5 C 525.67724609375 77.1487248 530.82597089375 72 537.17724609375 72 C 543.52852129375 72 548.67724609375 77.1487248 548.67724609375 83.5 C 548.67724609375 89.8512752 543.52852129375 95 537.17724609375 95 C 530.82597089375 95 525.67724609375 89.8512752 525.67724609375 83.5 Z" stroke-miterlimit="10"/></g><g transform="translate(-14,2) scale(1,1)"><g><path fill="none" stroke="none"/><text fill="#000000" stroke="none" font-family="Arial" font-size="13px" font-style="normal" font-weight="bold" text-decoration="none" x="493.0927734375" y="114.5">IAudioManager</text></g></g><g transform="translate(-14,2) scale(1,1)"><g><path fill="none" stroke="none"/><text fill="#000000" stroke="none" font-family="Arial" font-size="13px" font-style="normal" font-weight="normal" text-decoration="none" x="493.1181640625" y="129.5">(from Services)</text></g></g><g transform="translate(-14,2) scale(1,1)"><path fill="#C0C0C0" stroke="none" d="M 540.67724609375 298.5 C 540.67724609375 292.1487248 545.82597089375 287 552.17724609375 287 C 558.52852129375 287 563.67724609375 292.1487248 563.67724609375 298.5 C 563.67724609375 304.8512752 558.52852129375 310 552.17724609375 310 C 545.82597089375 310 540.67724609375 304.8512752 540.67724609375 298.5 Z" opacity="0.2"/></g><g transform="translate(-14,2) scale(1,1)"><path fill="#ffff91" stroke="none" d="M 533.67724609375 291.5 C 533.67724609375 285.1487248 538.82597089375 280 545.17724609375 280 C 551.52852129375 280 556.67724609375 285.1487248 556.67724609375 291.5 C 556.67724609375 297.8512752 551.52852129375 303 545.17724609375 303 C 538.82597089375 303 533.67724609375 297.8512752 533.67724609375 291.5 Z"/></g><g transform="translate(-14,2) scale(1,1)"><path fill="none" stroke="#000000" d="M 533.67724609375 291.5 C 533.67724609375 285.1487248 538.82597089375 280 545.17724609375 280 C 551.52852129375 280 556.67724609375 285.1487248 556.67724609375 291.5 C 556.67724609375 297.8512752 551.52852129375 303 545.17724609375 303 C 538.82597089375 303 533.67724609375 297.8512752 533.67724609375 291.5 Z" stroke-miterlimit="10"/></g><g transform="translate(-14,2) scale(1,1)"><g><path fill="none" stroke="none"/><text fill="#000000" stroke="none" font-family="Arial" font-size="13px" font-style="normal" font-weight="bold" text-decoration="none" x="495.32275390625" y="322.5">IPhysicsManager</text></g></g><g transform="translate(-14,2) scale(1,1)"><g><path fill="none" stroke="none"/><text fill="#000000" stroke="none" font-family="Arial" font-size="13px" font-style="normal" font-weight="normal" text-decoration="none" x="501.1181640625" y="337.5">(from Services)</text></g></g><g transform="translate(-14,2) scale(1,1)"><path fill="#C0C0C0" stroke="none" d="M 460.67724609375 186.5 C 460.67724609375 180.1487248 465.82597089375 175 472.17724609375 175 C 478.52852129375 175 483.67724609375 180.1487248 483.67724609375 186.5 C 483.67724609375 192.8512752 478.52852129375 198 472.17724609375 198 C 465.82597089375 198 460.67724609375 192.8512752 460.67724609375 186.5 Z" opacity="0.2"/></g><g transform="translate(-14,2) scale(1,1)"><path fill="#ffff91" stroke="none" d="M 453.67724609375 179.5 C 453.67724609375 173.1487248 458.82597089375 168 465.17724609375 168 C 471.52852129375 168 476.67724609375 173.1487248 476.67724609375 179.5 C 476.67724609375 185.8512752 471.52852129375 191 465.17724609375 191 C 458.82597089375 191 453.67724609375 185.8512752 453.67724609375 179.5 Z"/></g><g transform="translate(-14,2) scale(1,1)"><path fill="none" stroke="#000000" d="M 453.67724609375 179.5 C 453.67724609375 173.1487248 458.82597089375 168 465.17724609375 168 C 471.52852129375 168 476.67724609375 173.1487248 476.67724609375 179.5 C 476.67724609375 185.8512752 471.52852129375 191 465.17724609375 191 C 458.82597089375 191 453.67724609375 185.8512752 453.67724609375 179.5 Z" stroke-miterlimit="10"/></g><g transform="translate(-14,2) scale(1,1)"><g><path fill="none" stroke="none"/><text fill="#000000" stroke="none" font-family="Arial" font-size="13px" font-style="normal" font-weight="bold" text-decoration="none" x="407.724609375" y="210.5">IRenderingManager</text></g></g><g transform="translate(-14,2) scale(1,1)"><g><path fill="none" stroke="none"/><text fill="#000000" stroke="none" font-family="Arial" font-size="13px" font-style="normal" font-weight="normal" text-decoration="none" x="421.1181640625" y="225.5">(from Services)</text></g></g><g transform="translate(-14,2) scale(1,1)"><path fill="#C0C0C0" stroke="none" d="M 780.67724609375 50.5 C 780.67724609375 44.1487248 785.82597089375 39 792.17724609375 39 C 798.52852129375 39 803.67724609375 44.1487248 803.67724609375 50.5 C 803.67724609375 56.8512752 798.52852129375 62 792.17724609375 62 C 785.82597089375 62 780.67724609375 56.8512752 780.67724609375 50.5 Z" opacity="0.2"/></g><g transform="translate(-14,2) scale(1,1)"><path fill="#ffff91" stroke="none" d="M 773.67724609375 43.5 C 773.67724609375 37.1487248 778.82597089375 32 785.17724609375 32 C 791.52852129375 32 796.67724609375 37.1487248 796.67724609375 43.5 C 796.67724609375 49.8512752 791.52852129375 55 785.17724609375 55 C 778.82597089375 55 773.67724609375 49.8512752 773.67724609375 43.5 Z"/></g><g transform="translate(-14,2) scale(1,1)"><path fill="none" stroke="#000000" d="M 773.67724609375 43.5 C 773.67724609375 37.1487248 778.82597089375 32 785.17724609375 32 C 791.52852129375 32 796.67724609375 37.1487248 796.67724609375 43.5 C 796.67724609375 49.8512752 791.52852129375 55 785.17724609375 55 C 778.82597089375 55 773.67724609375 49.8512752 773.67724609375 43.5 Z" stroke-miterlimit="10"/></g><g transform="translate(-14,2) scale(1,1)"><g><path fill="none" stroke="none"/><text fill="#000000" stroke="none" font-family="Arial" font-size="13px" font-style="normal" font-weight="bold" text-decoration="none" x="739.286865234375" y="74.5">ISceneManager</text></g></g><g transform="translate(-14,2) scale(1,1)"><g><path fill="none" stroke="none"/><text fill="#000000" stroke="none" font-family="Arial" font-size="13px" font-style="normal" font-weight="normal" text-decoration="none" x="741.1181640625" y="89.5">(from Services)</text></g></g><g transform="translate(-14,2) scale(1,1)"><path fill="#C0C0C0" stroke="none" d="M 996.67724609375 186.5 C 996.67724609375 180.1487248 1001.82597089375 175 1008.17724609375 175 C 1014.52852129375 175 1019.67724609375 180.1487248 1019.67724609375 186.5 C 1019.67724609375 192.8512752 1014.52852129375 198 1008.17724609375 198 C 1001.82597089375 198 996.67724609375 192.8512752 996.67724609375 186.5 Z" opacity="0.2"/></g><g transform="translate(-14,2) scale(1,1)"><path fill="#ffff91" stroke="none" d="M 989.67724609375 179.5 C 989.67724609375 173.1487248 994.82597089375 168 1001.17724609375 168 C 1007.52852129375 168 1012.67724609375 173.1487248 1012.67724609375 179.5 C 1012.67724609375 185.8512752 1007.52852129375 191 1001.17724609375 191 C 994.82597089375 191 989.67724609375 185.8512752 989.67724609375 179.5 Z"/></g><g transform="translate(-14,2) scale(1,1)"><path fill="none" stroke="#000000" d="M 989.67724609375 179.5 C 989.67724609375 173.1487248 994.82597089375 168 1001.17724609375 168 C 1007.52852129375 168 1012.67724609375 173.1487248 1012.67724609375 179.5 C 1012.67724609375 185.8512752 1007.52852129375 191 1001.17724609375 191 C 994.82597089375 191 989.67724609375 185.8512752 989.67724609375 179.5 Z" stroke-miterlimit="10"/></g><g transform="translate(-14,2) scale(1,1)"><g><path fill="none" stroke="none"/><text fill="#000000" stroke="none" font-family="Arial" font-size="13px" font-style="normal" font-weight="bold" text-decoration="none" x="953.477783203125" y="210.5">IEngineManager</text></g></g><g transform="translate(-14,2) scale(1,1)"><g><path fill="none" stroke="none"/><text fill="#000000" stroke="none" font-family="Arial" font-size="13px" font-style="normal" font-weight="normal" text-decoration="none" x="957.1181640625" y="225.5">(from Services)</text></g></g><g transform="translate(-14,2) scale(1,1)"><path fill="#C0C0C0" stroke="none" d="M 900.67724609375 90.5 C 900.67724609375 84.1487248 905.82597089375 79 912.17724609375 79 C 918.52852129375 79 923.67724609375 84.1487248 923.67724609375 90.5 C 923.67724609375 96.8512752 918.52852129375 102 912.17724609375 102 C 905.82597089375 102 900.67724609375 96.8512752 900.67724609375 90.5 Z" opacity="0.2"/></g><g transform="translate(-14,2) scale(1,1)"><path fill="#ffff91" stroke="none" d="M 893.67724609375 83.5 C 893.67724609375 77.1487248 898.82597089375 72 905.17724609375 72 C 911.52852129375 72 916.67724609375 77.1487248 916.67724609375 83.5 C 916.67724609375 89.8512752 911.52852129375 95 905.17724609375 95 C 898.82597089375 95 893.67724609375 89.8512752 893.67724609375 83.5 Z"/></g><g transform="translate(-14,2) scale(1,1)"><path fill="none" stroke="#000000" d="M 893.67724609375 83.5 C 893.67724609375 77.1487248 898.82597089375 72 905.17724609375 72 C 911.52852129375 72 916.67724609375 77.1487248 916.67724609375 83.5 C 916.67724609375 89.8512752 911.52852129375 95 905.17724609375 95 C 898.82597089375 95 893.67724609375 89.8512752 893.67724609375 83.5 Z" stroke-miterlimit="10"/></g><g transform="translate(-14,2) scale(1,1)"><g><path fill="none" stroke="none"/><text fill="#000000" stroke="none" font-family="Arial" font-size="13px" font-style="normal" font-weight="bold" text-decoration="none" x="856.75732421875" y="114.5">IShaderManager</text></g></g><g transform="translate(-14,2) scale(1,1)"><g><path fill="none" stroke="none"/><text fill="#000000" stroke="none" font-family="Arial" font-size="13px" font-style="normal" font-weight="normal" text-decoration="none" x="861.1181640625" y="129.5">(from Services)</text></g></g><g transform="translate(-14,2) scale(1,1)"><path fill="#C0C0C0" stroke="none" d="M 916.67724609375 298.5 C 916.67724609375 292.1487248 921.82597089375 287 928.17724609375 287 C 934.52852129375 287 939.67724609375 292.1487248 939.67724609375 298.5 C 939.67724609375 304.8512752 934.52852129375 310 928.17724609375 310 C 921.82597089375 310 916.67724609375 304.8512752 916.67724609375 298.5 Z" opacity="0.2"/></g><g transform="translate(-14,2) scale(1,1)"><path fill="#ffff91" stroke="none" d="M 909.67724609375 291.5 C 909.67724609375 285.1487248 914.82597089375 280 921.17724609375 280 C 927.52852129375 280 932.67724609375 285.1487248 932.67724609375 291.5 C 932.67724609375 297.8512752 927.52852129375 303 921.17724609375 303 C 914.82597089375 303 909.67724609375 297.8512752 909.67724609375 291.5 Z"/></g><g transform="translate(-14,2) scale(1,1)"><path fill="none" stroke="#000000" d="M 909.67724609375 291.5 C 909.67724609375 285.1487248 914.82597089375 280 921.17724609375 280 C 927.52852129375 280 932.67724609375 285.1487248 932.67724609375 291.5 C 932.67724609375 297.8512752 927.52852129375 303 921.17724609375 303 C 914.82597089375 303 909.67724609375 297.8512752 909.67724609375 291.5 Z" stroke-miterlimit="10"/></g><g transform="translate(-14,2) scale(1,1)"><g><path fill="none" stroke="none"/><text fill="#000000" stroke="none" font-family="Arial" font-size="13px" font-style="normal" font-weight="bold" text-decoration="none" x="872.40185546875" y="322.5">ITextureManager</text></g></g><g transform="translate(-14,2) scale(1,1)"><g><path fill="none" stroke="none"/><text fill="#000000" stroke="none" font-family="Arial" font-size="13px" font-style="normal" font-weight="normal" text-decoration="none" x="877.1181640625" y="337.5">(from Services)</text></g></g><g transform="translate(-14,2) scale(1,1)"><path fill="#C0C0C0" stroke="none" d="M 628.67724609375 362.5 C 628.67724609375 356.1487248 633.82597089375 351 640.17724609375 351 C 646.52852129375 351 651.67724609375 356.1487248 651.67724609375 362.5 C 651.67724609375 368.8512752 646.52852129375 374 640.17724609375 374 C 633.82597089375 374 628.67724609375 368.8512752 628.67724609375 362.5 Z" opacity="0.2"/></g><g transform="translate(-14,2) scale(1,1)"><path fill="#ffff91" stroke="none" d="M 621.67724609375 355.5 C 621.67724609375 349.1487248 626.82597089375 344 633.17724609375 344 C 639.52852129375 344 644.67724609375 349.1487248 644.67724609375 355.5 C 644.67724609375 361.8512752 639.52852129375 367 633.17724609375 367 C 626.82597089375 367 621.67724609375 361.8512752 621.67724609375 355.5 Z"/></g><g transform="translate(-14,2) scale(1,1)"><path fill="none" stroke="#000000" d="M 621.67724609375 355.5 C 621.67724609375 349.1487248 626.82597089375 344 633.17724609375 344 C 639.52852129375 344 644.67724609375 349.1487248 644.67724609375 355.5 C 644.67724609375 361.8512752 639.52852129375 367 633.17724609375 367 C 626.82597089375 367 621.67724609375 361.8512752 621.67724609375 355.5 Z" stroke-miterlimit="10"/></g><g transform="translate(-14,2) scale(1,1)"><g><path fill="none" stroke="none"/><text fill="#000000" stroke="none" font-family="Arial" font-size="13px" font-style="normal" font-weight="bold" text-decoration="none" x="588.013671875" y="386.5">IModelManager</text></g></g><g transform="translate(-14,2) scale(1,1)"><g><path fill="none" stroke="none"/><text fill="#000000" stroke="none" font-family="Arial" font-size="13px" font-style="normal" font-weight="normal" text-decoration="none" x="589.1181640625" y="401.5">(from Services)</text></g></g><g transform="translate(-14,2) scale(1,1)"><path fill="none" stroke="#000000" d="M 672 95 L 672 152" stroke-miterlimit="10"/></g><g transform="translate(-14,2) scale(1,1)"><path fill="#FFFFFF" stroke="none" d="M 667.790482243984 141.83732514237585 L 672 152 L 676.209517756016 141.83732514237585 L 672 130"/></g><g transform="translate(-14,2) scale(1,1)"><path fill="none" stroke="#000000" d="M 667.790482243984 141.83732514237585 L 672 152 L 676.209517756016 141.83732514237585 L 672 130 L 667.790482243984 141.83732514237585" stroke-miterlimit="10"/></g><g transform="translate(-14,2) scale(1,1)"><path fill="none" stroke="#000000" d="M 528 135 L 528 159 L 648 159" stroke-miterlimit="10"/></g><g transform="translate(-14,2) scale(1,1)"><path fill="#FFFFFF" stroke="none" d="M 637.8373251423759 163.209517756016 L 648 159 L 637.8373251423758 154.790482243984 L 626 159"/></g><g transform="translate(-14,2) scale(1,1)"><path fill="none" stroke="#000000" d="M 637.8373251423759 163.209517756016 L 648 159 L 637.8373251423758 154.790482243984 L 626 159 L 637.8373251423759 163.209517756016" stroke-miterlimit="10"/></g><g transform="translate(-14,2) scale(1,1)"><path fill="none" stroke="#000000" d="M 530 208 L 648 208" stroke-miterlimit="10"/></g><g transform="translate(-14,2) scale(1,1)"><path fill="#FFFFFF" stroke="none" d="M 637.8373251423759 212.209517756016 L 648 208 L 637.8373251423758 203.790482243984 L 626 208"/></g><g transform="translate(-14,2) scale(1,1)"><path fill="none" stroke="#000000" d="M 637.8373251423759 212.209517756016 L 648 208 L 637.8373251423758 203.790482243984 L 626 208 L 637.8373251423759 212.209517756016" stroke-miterlimit="10"/></g><g transform="translate(-14,2) scale(1,1)"><path fill="none" stroke="#000000" d="M 545 280 L 545 243 L 648 243" stroke-miterlimit="10"/></g><g transform="translate(-14,2) scale(1,1)"><path fill="#FFFFFF" stroke="none" d="M 637.8373251423759 247.209517756016 L 648 243 L 637.8373251423758 238.790482243984 L 626 243"/></g><g transform="translate(-14,2) scale(1,1)"><path fill="none" stroke="#000000" d="M 637.8373251423759 247.209517756016 L 648 243 L 637.8373251423758 238.790482243984 L 626 243 L 637.8373251423759 247.209517756016" stroke-miterlimit="10"/></g><g transform="translate(-14,2) scale(1,1)"><path fill="none" stroke="#000000" d="M 632 344 L 632 304 L 696 304 L 696 251" stroke-miterlimit="10"/></g><g transform="translate(-14,2) scale(1,1)"><path fill="#FFFFFF" stroke="none" d="M 700.209517756016 261.16267485762415 L 696 251 L 691.790482243984 261.16267485762415 L 696 273"/></g><g transform="translate(-14,2) scale(1,1)"><path fill="none" stroke="#000000" d="M 700.209517756016 261.16267485762415 L 696 251 L 691.790482243984 261.16267485762415 L 696 273 L 700.209517756016 261.16267485762415" stroke-miterlimit="10"/></g><g transform="translate(-14,2) scale(1,1)"><path fill="none" stroke="#000000" d="M 920 280 L 920 243 L 800 243" stroke-miterlimit="10"/></g><g transform="translate(-14,2) scale(1,1)"><path fill="#FFFFFF" stroke="none" d="M 810.1626748576241 238.790482243984 L 800 243 L 810.1626748576241 247.209517756016 L 822 243"/></g><g transform="translate(-14,2) scale(1,1)"><path fill="none" stroke="#000000" d="M 810.1626748576241 238.790482243984 L 800 243 L 810.1626748576241 247.209517756016 L 822 243 L 810.1626748576241 238.790482243984" stroke-miterlimit="10"/></g><g transform="translate(-14,2) scale(1,1)"><path fill="none" stroke="#000000" d="M 936 211 L 800 211" stroke-miterlimit="10"/></g><g transform="translate(-14,2) scale(1,1)"><path fill="#FFFFFF" stroke="none" d="M 810.1626748576241 206.790482243984 L 800 211 L 810.1626748576241 215.209517756016 L 822 211"/></g><g transform="translate(-14,2) scale(1,1)"><path fill="none" stroke="#000000" d="M 810.1626748576241 206.790482243984 L 800 211 L 810.1626748576241 215.209517756016 L 822 211 L 810.1626748576241 206.790482243984" stroke-miterlimit="10"/></g><g transform="translate(-14,2) scale(1,1)"><path fill="none" stroke="#000000" d="M 904 135 L 904 159 L 800 159" stroke-miterlimit="10"/></g><g transform="translate(-14,2) scale(1,1)"><path fill="#FFFFFF" stroke="none" d="M 810.1626748576241 154.790482243984 L 800 159 L 810.1626748576241 163.209517756016 L 822 159"/></g><g transform="translate(-14,2) scale(1,1)"><path fill="none" stroke="#000000" d="M 810.1626748576241 154.790482243984 L 800 159 L 810.1626748576241 163.209517756016 L 822 159 L 810.1626748576241 154.790482243984" stroke-miterlimit="10"/></g><g transform="translate(-14,2) scale(1,1)"><path fill="none" stroke="#000000" d="M 776 95 L 776 152" stroke-miterlimit="10"/></g><g transform="translate(-14,2) scale(1,1)"><path fill="#FFFFFF" stroke="none" d="M 771.790482243984 141.83732514237585 L 776 152 L 780.209517756016 141.83732514237585 L 776 130"/></g><g transform="translate(-14,2) scale(1,1)"><path fill="none" stroke="#000000" d="M 771.790482243984 141.83732514237585 L 776 152 L 780.209517756016 141.83732514237585 L 776 130 L 771.790482243984 141.83732514237585" stroke-miterlimit="10"/></g><g transform="translate(-14,2) scale(1,1)"><rect fill="#C0C0C0" stroke="none" x="271" y="159" width="72.54638671875" height="59" opacity="0.2"/></g><g transform="translate(-14,2) scale(1,1)"><rect fill="#ffffff" stroke="none" x="264" y="152" width="72.54638671875" height="59"/></g><g transform="translate(-14,2) scale(1,1)"><path fill="none" stroke="#000000" d="M 264 152 L 336.54638671875 152 L 336.54638671875 211 L 264 211 L 264 152 Z Z" stroke-miterlimit="10"/></g><g transform="translate(-14,2) scale(1,1)"><path fill="none" stroke="#000000" d="M 264 192 L 336.54638671875 192" stroke-miterlimit="10"/></g><g transform="translate(-14,2) scale(1,1)"><path fill="none" stroke="#000000" d="M 264 202 L 336.54638671875 202" stroke-miterlimit="10"/></g><g transform="translate(-14,2) scale(1,1)"><g><path fill="none" stroke="none"/><text fill="#000000" stroke="none" font-family="Arial" font-size="13px" font-style="normal" font-weight="bold" text-decoration="none" x="283.65185546875" y="171.5">Event</text></g></g><g transform="translate(-14,2) scale(1,1)"><g><path fill="none" stroke="none"/><text fill="#000000" stroke="none" font-family="Arial" font-size="13px" font-style="normal" font-weight="normal" text-decoration="none" x="268.5" y="186.5">(from Utils)</text></g></g><g transform="translate(-14,2) scale(1,1)"><path fill="#C0C0C0" stroke="none" d="M 810.14453125 362.5 C 810.14453125 356.1487248 815.29325605 351 821.64453125 351 C 827.99580645 351 833.14453125 356.1487248 833.14453125 362.5 C 833.14453125 368.8512752 827.99580645 374 821.64453125 374 C 815.29325605 374 810.14453125 368.8512752 810.14453125 362.5 Z" opacity="0.2"/></g><g transform="translate(-14,2) scale(1,1)"><path fill="#ffff91" stroke="none" d="M 803.14453125 355.5 C 803.14453125 349.1487248 808.29325605 344 814.64453125 344 C 820.99580645 344 826.14453125 349.1487248 826.14453125 355.5 C 826.14453125 361.8512752 820.99580645 367 814.64453125 367 C 808.29325605 367 803.14453125 361.8512752 803.14453125 355.5 Z"/></g><g transform="translate(-14,2) scale(1,1)"><path fill="none" stroke="#000000" d="M 803.14453125 355.5 C 803.14453125 349.1487248 808.29325605 344 814.64453125 344 C 820.99580645 344 826.14453125 349.1487248 826.14453125 355.5 C 826.14453125 361.8512752 820.99580645 367 814.64453125 367 C 808.29325605 367 803.14453125 361.8512752 803.14453125 355.5 Z" stroke-miterlimit="10"/></g><g transform="translate(-14,2) scale(1,1)"><g><path fill="none" stroke="none"/><text fill="#000000" stroke="none" font-family="Arial" font-size="13px" font-style="normal" font-weight="bold" text-decoration="none" x="760.08642578125" y="386.5">IAudioFileManager</text></g></g><g transform="translate(-14,2) scale(1,1)"><g><path fill="none" stroke="none"/><text fill="#000000" stroke="none" font-family="Arial" font-size="13px" font-style="normal" font-weight="normal" text-decoration="none" x="770.58544921875" y="401.5">(from Services)</text></g></g><g transform="translate(-14,2) scale(1,1)"><path fill="none" stroke="#000000" d="M 816 344 L 816 304 L 752 304 L 752 251" stroke-miterlimit="10"/></g><g transform="translate(-14,2) scale(1,1)"><path fill="#FFFFFF" stroke="none" d="M 756.209517756016 261.16267485762415 L 752 251 L 747.790482243984 261.16267485762415 L 752 273"/></g><g transform="translate(-14,2) scale(1,1)"><path fill="none" stroke="#000000" d="M 756.209517756016 261.16267485762415 L 752 251 L 747.790482243984 261.16267485762415 L 752 273 L 756.209517756016 261.16267485762415" stroke-miterlimit="10"/></g></g></svg>