<svg version="1.1" xmlns="http://www.w3.org/2000/svg" xmlns:xlink="http://www.w3.org/1999/xlink" width="1404" height="1014"><defs/><g><g transform="translate(-6,-22) scale(1,1)"><path fill="#ffff00" stroke="none" d="M 640 667.5 L 699.5 632 L 759 667.5 L 699.5 703 L 640 667.5"/></g><g transform="translate(-6,-22) scale(1,1)"><path fill="none" stroke="#000000" d="M 640 667.5 L 699.5 632 L 759 667.5 L 699.5 703 L 640 667.5 L 640 667.5" stroke-miterlimit="10"/></g><g transform="translate(-6,-22) scale(1,1)"><g><path fill="none" stroke="none"/><text fill="#000000" stroke="none" font-family="Arial" font-size="13px" font-style="normal" font-weight="normal" text-decoration="none" x="685.41455078125" y="667.5">Must</text><text fill="#000000" stroke="none" font-family="Arial" font-size="13px" font-style="normal" font-weight="normal" text-decoration="none" x="679.266845703125" y="680.5">Close?</text></g></g><g transform="translate(-6,-22) scale(1,1)"><rect fill="#d8e5ff" stroke="none" x="624" y="256" width="151" height="48"/></g><g transform="translate(-6,-22) scale(1,1)"><path fill="none" stroke="#000000" d="M 624 256 L 775 256 L 775 304 L 624 304 L 624 256 Z Z" stroke-miterlimit="10"/></g><g transform="translate(-6,-22) scale(1,1)"><path fill="none" stroke="#000000" d="M 629 256 L 629 304" stroke-miterlimit="10"/></g><g transform="translate(-6,-22) scale(1,1)"><path fill="none" stroke="#000000" d="M 770 256 L 770 304" stroke-miterlimit="10"/></g><g transform="translate(-6,-22) scale(1,1)"><g><path fill="none" stroke="none"/><text fill="#000000" stroke="none" font-family="Arial" font-size="13px" font-style="normal" font-weight="normal" text-decoration="none" x="682.490478515625" y="278.5">Create</text><text fill="#000000" stroke="none" font-family="Arial" font-size="13px" font-style="normal" font-weight="normal" text-decoration="none" x="656.1064453125" y="291.5">EngineManager</text></g></g><g transform="translate(-6,-22) scale(1,1)"><path fill="#d10000" stroke="none" d="M 928.5 752 L 1030.5 752 Q 1047 752 1047 768.5 L 1047 767.5 Q 1047 784 1030.5 784 L 928.5 784 Q 912 784 912 767.5 L 912 768.5 Q 912 752 928.5 752 Z"/></g><g transform="translate(-6,-22) scale(1,1)"><path fill="none" stroke="#000000" d="M 928.5 752 L 1030.5 752 Q 1047 752 1047 768.5 L 1047 767.5 Q 1047 784 1030.5 784 L 928.5 784 Q 912 784 912 767.5 L 912 768.5 Q 912 752 928.5 752 Z" stroke-miterlimit="10"/></g><g transform="translate(-6,-22) scale(1,1)"><g><path fill="none" stroke="none"/><text fill="#ffffff" stroke="none" font-family="Arial" font-size="13px" font-style="normal" font-weight="normal" text-decoration="none" x="966.128662109375" y="774.5">Stop</text></g></g><g transform="translate(-6,-22) scale(1,1)"><path fill="#00ad00" stroke="none" d="M 648.5 32 L 751.5 32 Q 768 32 768 48.5 L 768 47.5 Q 768 64 751.5 64 L 648.5 64 Q 632 64 632 47.5 L 632 48.5 Q 632 32 648.5 32 Z"/></g><g transform="translate(-6,-22) scale(1,1)"><path fill="none" stroke="#000000" d="M 648.5 32 L 751.5 32 Q 768 32 768 48.5 L 768 47.5 Q 768 64 751.5 64 L 648.5 64 Q 632 64 632 47.5 L 632 48.5 Q 632 32 648.5 32 Z" stroke-miterlimit="10"/></g><g transform="translate(-6,-22) scale(1,1)"><g><path fill="none" stroke="none"/><text fill="#ffffff" stroke="none" font-family="Arial" font-size="13px" font-style="normal" font-weight="normal" text-decoration="none" x="686.273193359375" y="54.5">Start</text></g></g><g transform="translate(-6,-22) scale(1,1)"><path fill="none" stroke="#000000" d="M 696 64 L 696 256" stroke-miterlimit="10"/></g><g transform="translate(-6,-22) scale(1,1)"><path fill="#000000" stroke="none" d="M 691.790482243984 245.83732514237585 L 696 256 L 700.209517756016 245.83732514237585"/></g><g transform="translate(-6,-22) scale(1,1)"><path fill="none" stroke="#000000" d="M 691.790482243984 245.83732514237585 L 696 256 L 700.209517756016 245.83732514237585 L 691.790482243984 245.83732514237585" stroke-miterlimit="10"/></g><g transform="translate(-6,-22) scale(1,1)"><path fill="none" stroke="#000000" d="M 699 304 L 699 632" stroke-miterlimit="10"/></g><g transform="translate(-6,-22) scale(1,1)"><path fill="#000000" stroke="none" d="M 694.790482243984 621.8373251423759 L 699 632 L 703.209517756016 621.8373251423759"/></g><g transform="translate(-6,-22) scale(1,1)"><path fill="none" stroke="#000000" d="M 694.790482243984 621.8373251423759 L 699 632 L 703.209517756016 621.8373251423759 L 694.790482243984 621.8373251423759" stroke-miterlimit="10"/></g><g transform="translate(-6,-22) scale(1,1)"><path fill="#00ad00" stroke="none" d="M 895 72 L 984 72 Q 1007 72 1007 95 L 1007 94 Q 1007 117 984 117 L 895 117 Q 872 117 872 94 L 872 95 Q 872 72 895 72 Z"/></g><g transform="translate(-6,-22) scale(1,1)"><path fill="none" stroke="#000000" d="M 895 72 L 984 72 Q 1007 72 1007 95 L 1007 94 Q 1007 117 984 117 L 895 117 Q 872 117 872 94 L 872 95 Q 872 72 895 72 Z" stroke-miterlimit="10"/></g><g transform="translate(-6,-22) scale(1,1)"><g><path fill="none" stroke="none"/><text fill="#ffffff" stroke="none" font-family="Arial" font-size="13px" font-style="normal" font-weight="normal" text-decoration="none" x="899.398681640625" y="94.5">Start Creating</text><text fill="#ffffff" stroke="none" font-family="Arial" font-size="13px" font-style="normal" font-weight="normal" text-decoration="none" x="893.6064453125" y="107.5">EngineManager</text></g></g><g transform="translate(-6,-22) scale(1,1)"><path fill="#d10000" stroke="none" d="M 895 560 L 984 560 Q 1007 560 1007 583 L 1007 582 Q 1007 605 984 605 L 895 605 Q 872 605 872 582 L 872 583 Q 872 560 895 560 Z"/></g><g transform="translate(-6,-22) scale(1,1)"><path fill="none" stroke="#000000" d="M 895 560 L 984 560 Q 1007 560 1007 583 L 1007 582 Q 1007 605 984 605 L 895 605 Q 872 605 872 582 L 872 583 Q 872 560 895 560 Z" stroke-miterlimit="10"/></g><g transform="translate(-6,-22) scale(1,1)"><g><path fill="none" stroke="none"/><text fill="#ffffff" stroke="none" font-family="Arial" font-size="13px" font-style="normal" font-weight="normal" text-decoration="none" x="901.56005859375" y="582.5">End Creating</text><text fill="#ffffff" stroke="none" font-family="Arial" font-size="13px" font-style="normal" font-weight="normal" text-decoration="none" x="893.6064453125" y="595.5">EngineManager</text></g></g><g transform="translate(-6,-22) scale(1,1)"><rect fill="#d8e5ff" stroke="none" x="872" y="144" width="135" height="32"/></g><g transform="translate(-6,-22) scale(1,1)"><path fill="none" stroke="#000000" d="M 872 144 L 1007 144 L 1007 176 L 872 176 L 872 144 Z Z" stroke-miterlimit="10"/></g><g transform="translate(-6,-22) scale(1,1)"><g><path fill="none" stroke="none"/><text fill="#000000" stroke="none" font-family="Arial" font-size="13px" font-style="normal" font-weight="normal" text-decoration="none" x="898.31640625" y="166.5">Create Device</text></g></g><g transform="translate(-6,-22) scale(1,1)"><path fill="none" stroke="#000000" d="M 939 117 L 939 144" stroke-miterlimit="10"/></g><g transform="translate(-6,-22) scale(1,1)"><path fill="#000000" stroke="none" d="M 934.790482243984 133.83732514237585 L 939 144 L 943.209517756016 133.83732514237585"/></g><g transform="translate(-6,-22) scale(1,1)"><path fill="none" stroke="#000000" d="M 934.790482243984 133.83732514237585 L 939 144 L 943.209517756016 133.83732514237585 L 934.790482243984 133.83732514237585" stroke-miterlimit="10"/></g><g transform="translate(-6,-22) scale(1,1)"><path fill="none" stroke="#000000" d="M 736 256 L 736 104 M 736 104 A 8 8 0 0 1 744 96 L 872 96" stroke-miterlimit="10"/></g><g transform="translate(-6,-22) scale(1,1)"><path fill="#000000" stroke="none" d="M 861.8373251423759 100.20951775601598 L 872 96 L 861.8373251423758 91.79048224398402"/></g><g transform="translate(-6,-22) scale(1,1)"><path fill="none" stroke="#000000" d="M 861.8373251423759 100.20951775601598 L 872 96 L 861.8373251423758 91.79048224398402 L 861.8373251423759 100.20951775601598" stroke-miterlimit="10"/></g><g transform="translate(-6,-22) scale(1,1)"><path fill="none" stroke="#000000" d="M 735 304 L 735 576 M 735 576 A 8 8 0 0 0 743 584 L 872 584" stroke-miterlimit="10"/></g><g transform="translate(-6,-22) scale(1,1)"><path fill="#000000" stroke="none" d="M 861.8373251423759 588.209517756016 L 872 584 L 861.8373251423758 579.790482243984"/></g><g transform="translate(-6,-22) scale(1,1)"><path fill="none" stroke="#000000" d="M 861.8373251423759 588.209517756016 L 872 584 L 861.8373251423758 579.790482243984 L 861.8373251423759 588.209517756016" stroke-miterlimit="10"/></g><g transform="translate(-6,-22) scale(1,1)"><rect fill="#d8e5ff" stroke="none" x="872" y="208" width="135" height="45"/></g><g transform="translate(-6,-22) scale(1,1)"><path fill="none" stroke="#000000" d="M 872 208 L 1007 208 L 1007 253 L 872 253 L 872 208 Z Z" stroke-miterlimit="10"/></g><g transform="translate(-6,-22) scale(1,1)"><g><path fill="none" stroke="none"/><text fill="#000000" stroke="none" font-family="Arial" font-size="13px" font-style="normal" font-weight="normal" text-decoration="none" x="919.990478515625" y="230.5">Create</text><text fill="#000000" stroke="none" font-family="Arial" font-size="13px" font-style="normal" font-weight="normal" text-decoration="none" x="899.38916015625" y="243.5">InputManager</text></g></g><g transform="translate(-6,-22) scale(1,1)"><rect fill="#d8e5ff" stroke="none" x="872" y="280" width="135" height="45"/></g><g transform="translate(-6,-22) scale(1,1)"><path fill="none" stroke="#000000" d="M 872 280 L 1007 280 L 1007 325 L 872 325 L 872 280 Z Z" stroke-miterlimit="10"/></g><g transform="translate(-6,-22) scale(1,1)"><g><path fill="none" stroke="none"/><text fill="#000000" stroke="none" font-family="Arial" font-size="13px" font-style="normal" font-weight="normal" text-decoration="none" x="919.990478515625" y="302.5">Create</text><text fill="#000000" stroke="none" font-family="Arial" font-size="13px" font-style="normal" font-weight="normal" text-decoration="none" x="895.41552734375" y="315.5">SceneManager</text></g></g><g transform="translate(-6,-22) scale(1,1)"><rect fill="#d1ffa3" stroke="none" x="872" y="424" width="135" height="45"/></g><g transform="translate(-6,-22) scale(1,1)"><path fill="none" stroke="#000000" d="M 872 424 L 1007 424 L 1007 469 L 872 469 L 872 424 Z Z" stroke-miterlimit="10"/></g><g transform="translate(-6,-22) scale(1,1)"><g><path fill="none" stroke="none"/><text fill="#000000" stroke="none" font-family="Arial" font-size="13px" font-style="normal" font-weight="normal" text-decoration="none" x="919.990478515625" y="446.5">Create</text><text fill="#000000" stroke="none" font-family="Arial" font-size="13px" font-style="normal" font-weight="normal" text-decoration="none" x="891.451416015625" y="459.5">PhysicsManager</text></g></g><g transform="translate(-6,-22) scale(1,1)"><rect fill="#ffd6ad" stroke="none" x="872" y="352" width="136.06982421875" height="45"/></g><g transform="translate(-6,-22) scale(1,1)"><path fill="none" stroke="#000000" d="M 872 352 L 1008.06982421875 352 L 1008.06982421875 397 L 872 397 L 872 352 Z Z" stroke-miterlimit="10"/></g><g transform="translate(-6,-22) scale(1,1)"><path fill="none" stroke="#000000" d="M 877 352 L 877 397" stroke-miterlimit="10"/></g><g transform="translate(-6,-22) scale(1,1)"><path fill="none" stroke="#000000" d="M 1003.06982421875 352 L 1003.06982421875 397" stroke-miterlimit="10"/></g><g transform="translate(-6,-22) scale(1,1)"><g><path fill="none" stroke="none"/><text fill="#000000" stroke="none" font-family="Arial" font-size="13px" font-style="normal" font-weight="normal" text-decoration="none" x="923.025390625" y="374.5">Create</text><text fill="#000000" stroke="none" font-family="Arial" font-size="13px" font-style="normal" font-weight="normal" text-decoration="none" x="886.88818359375" y="387.5">RenderingManager</text></g></g><g transform="translate(-6,-22) scale(1,1)"><path fill="#00ad00" stroke="none" d="M 1127 232 L 1211.29345703125 232 Q 1234.29345703125 232 1234.29345703125 255 L 1234.29345703125 254 Q 1234.29345703125 277 1211.29345703125 277 L 1127 277 Q 1104 277 1104 254 L 1104 255 Q 1104 232 1127 232 Z"/></g><g transform="translate(-6,-22) scale(1,1)"><path fill="none" stroke="#000000" d="M 1127 232 L 1211.29345703125 232 Q 1234.29345703125 232 1234.29345703125 255 L 1234.29345703125 254 Q 1234.29345703125 277 1211.29345703125 277 L 1127 277 Q 1104 277 1104 254 L 1104 255 Q 1104 232 1127 232 Z" stroke-miterlimit="10"/></g><g transform="translate(-6,-22) scale(1,1)"><g><path fill="none" stroke="none"/><text fill="#ffffff" stroke="none" font-family="Arial" font-size="13px" font-style="normal" font-weight="normal" text-decoration="none" x="1129.04541015625" y="254.5">Start Creating</text><text fill="#ffffff" stroke="none" font-family="Arial" font-size="13px" font-style="normal" font-weight="normal" text-decoration="none" x="1113.5" y="267.5">RenderingManager</text></g></g><g transform="translate(-6,-22) scale(1,1)"><path fill="#d10000" stroke="none" d="M 1127 368 L 1211.29345703125 368 Q 1234.29345703125 368 1234.29345703125 391 L 1234.29345703125 390 Q 1234.29345703125 413 1211.29345703125 413 L 1127 413 Q 1104 413 1104 390 L 1104 391 Q 1104 368 1127 368 Z"/></g><g transform="translate(-6,-22) scale(1,1)"><path fill="none" stroke="#000000" d="M 1127 368 L 1211.29345703125 368 Q 1234.29345703125 368 1234.29345703125 391 L 1234.29345703125 390 Q 1234.29345703125 413 1211.29345703125 413 L 1127 413 Q 1104 413 1104 390 L 1104 391 Q 1104 368 1127 368 Z" stroke-miterlimit="10"/></g><g transform="translate(-6,-22) scale(1,1)"><g><path fill="none" stroke="none"/><text fill="#ffffff" stroke="none" font-family="Arial" font-size="13px" font-style="normal" font-weight="normal" text-decoration="none" x="1131.206787109375" y="390.5">End Creating</text><text fill="#ffffff" stroke="none" font-family="Arial" font-size="13px" font-style="normal" font-weight="normal" text-decoration="none" x="1113.5" y="403.5">RenderingManager</text></g></g><g transform="translate(-6,-22) scale(1,1)"><path fill="none" stroke="#000000" d="M 1008 360 L 1024 360 M 1024 360 A 8 8 0 0 0 1032 352 L 1032 264 M 1032 264 A 8 8 0 0 1 1040 256 L 1104 256" stroke-miterlimit="10"/></g><g transform="translate(-6,-22) scale(1,1)"><path fill="#000000" stroke="none" d="M 1093.837325142376 260.209517756016 L 1104 256 L 1093.837325142376 251.790482243984"/></g><g transform="translate(-6,-22) scale(1,1)"><path fill="none" stroke="#000000" d="M 1093.837325142376 260.209517756016 L 1104 256 L 1093.837325142376 251.790482243984 L 1093.837325142376 260.209517756016" stroke-miterlimit="10"/></g><g transform="translate(-6,-22) scale(1,1)"><path fill="none" stroke="#000000" d="M 1008 388 L 1104 388" stroke-miterlimit="10"/></g><g transform="translate(-6,-22) scale(1,1)"><path fill="#000000" stroke="none" d="M 1093.837325142376 392.209517756016 L 1104 388 L 1093.837325142376 383.790482243984"/></g><g transform="translate(-6,-22) scale(1,1)"><path fill="none" stroke="#000000" d="M 1093.837325142376 392.209517756016 L 1104 388 L 1093.837325142376 383.790482243984 L 1093.837325142376 392.209517756016" stroke-miterlimit="10"/></g><g transform="translate(-6,-22) scale(1,1)"><rect fill="#ffd6ad" stroke="none" x="1112" y="304" width="111" height="32"/></g><g transform="translate(-6,-22) scale(1,1)"><path fill="none" stroke="#000000" d="M 1112 304 L 1223 304 L 1223 336 L 1112 336 L 1112 304 Z Z" stroke-miterlimit="10"/></g><g transform="translate(-6,-22) scale(1,1)"><g><path fill="none" stroke="none"/><text fill="#000000" stroke="none" font-family="Arial" font-size="13px" font-style="normal" font-weight="normal" text-decoration="none" x="1128.852294921875" y="326.5">Create Driver</text></g></g><g transform="translate(-6,-22) scale(1,1)"><path fill="none" stroke="#000000" d="M 1167 277 L 1167 304" stroke-miterlimit="10"/></g><g transform="translate(-6,-22) scale(1,1)"><path fill="#000000" stroke="none" d="M 1162.7904822439841 293.83732514237585 L 1167 304 L 1171.2095177560159 293.83732514237585"/></g><g transform="translate(-6,-22) scale(1,1)"><path fill="none" stroke="#000000" d="M 1162.7904822439841 293.83732514237585 L 1167 304 L 1171.2095177560159 293.83732514237585 L 1162.7904822439841 293.83732514237585" stroke-miterlimit="10"/></g><g transform="translate(-6,-22) scale(1,1)"><path fill="none" stroke="#000000" d="M 1167 336 L 1167 368" stroke-miterlimit="10"/></g><g transform="translate(-6,-22) scale(1,1)"><path fill="#000000" stroke="none" d="M 1162.7904822439841 357.83732514237585 L 1167 368 L 1171.2095177560159 357.83732514237585"/></g><g transform="translate(-6,-22) scale(1,1)"><path fill="none" stroke="#000000" d="M 1162.7904822439841 357.83732514237585 L 1167 368 L 1171.2095177560159 357.83732514237585 L 1162.7904822439841 357.83732514237585" stroke-miterlimit="10"/></g><g transform="translate(-6,-22) scale(1,1)"><path fill="none" stroke="#000000" d="M 939 176 L 939 208" stroke-miterlimit="10"/></g><g transform="translate(-6,-22) scale(1,1)"><path fill="#000000" stroke="none" d="M 934.790482243984 197.83732514237585 L 939 208 L 943.209517756016 197.83732514237585"/></g><g transform="translate(-6,-22) scale(1,1)"><path fill="none" stroke="#000000" d="M 934.790482243984 197.83732514237585 L 939 208 L 943.209517756016 197.83732514237585 L 934.790482243984 197.83732514237585" stroke-miterlimit="10"/></g><g transform="translate(-6,-22) scale(1,1)"><path fill="none" stroke="#000000" d="M 939 253 L 939 280" stroke-miterlimit="10"/></g><g transform="translate(-6,-22) scale(1,1)"><path fill="#000000" stroke="none" d="M 934.790482243984 269.83732514237585 L 939 280 L 943.209517756016 269.83732514237585"/></g><g transform="translate(-6,-22) scale(1,1)"><path fill="none" stroke="#000000" d="M 934.790482243984 269.83732514237585 L 939 280 L 943.209517756016 269.83732514237585 L 934.790482243984 269.83732514237585" stroke-miterlimit="10"/></g><g transform="translate(-6,-22) scale(1,1)"><path fill="none" stroke="#000000" d="M 939 325 L 939 352" stroke-miterlimit="10"/></g><g transform="translate(-6,-22) scale(1,1)"><path fill="#000000" stroke="none" d="M 934.790482243984 341.83732514237585 L 939 352 L 943.209517756016 341.83732514237585"/></g><g transform="translate(-6,-22) scale(1,1)"><path fill="none" stroke="#000000" d="M 934.790482243984 341.83732514237585 L 939 352 L 943.209517756016 341.83732514237585 L 934.790482243984 341.83732514237585" stroke-miterlimit="10"/></g><g transform="translate(-6,-22) scale(1,1)"><path fill="none" stroke="#000000" d="M 940 397 L 940 424" stroke-miterlimit="10"/></g><g transform="translate(-6,-22) scale(1,1)"><path fill="#000000" stroke="none" d="M 935.790482243984 413.83732514237585 L 940 424 L 944.209517756016 413.83732514237585"/></g><g transform="translate(-6,-22) scale(1,1)"><path fill="none" stroke="#000000" d="M 935.790482243984 413.83732514237585 L 940 424 L 944.209517756016 413.83732514237585 L 935.790482243984 413.83732514237585" stroke-miterlimit="10"/></g><g transform="translate(-6,-22) scale(1,1)"><path fill="#ffffd8" stroke="none" d="M 1240 296 L 1389 296 L 1399 306 L 1399 345 L 1240 345 L 1240 296"/></g><g transform="translate(-6,-22) scale(1,1)"><path fill="none" stroke="#000000" d="M 1240 296 L 1389 296 L 1399 306 L 1399 345 L 1240 345 L 1240 296 L 1240 296" stroke-miterlimit="10"/></g><g transform="translate(-6,-22) scale(1,1)"><path fill="none" stroke="#000000" d="M 1389 296 L 1389 306 L 1399 306 L 1389 296" stroke-miterlimit="10"/></g><g transform="translate(-6,-22) scale(1,1)"><g><path fill="none" stroke="none"/><text fill="#000000" stroke="none" font-family="Arial" font-size="13px" font-style="normal" font-weight="normal" text-decoration="none" x="1245" y="314">Handle the graphical</text><text fill="#000000" stroke="none" font-family="Arial" font-size="13px" font-style="normal" font-weight="normal" text-decoration="none" x="1245" y="327">context (OpenGL, DirectX</text><text fill="#000000" stroke="none" font-family="Arial" font-size="13px" font-style="normal" font-weight="normal" text-decoration="none" x="1245" y="340">or Vulkan)</text></g></g><g transform="translate(-6,-22) scale(1,1)"><path fill="#ffffd8" stroke="none" d="M 1024 136 L 1148 136 L 1158 146 L 1158 185 L 1024 185 L 1024 136"/></g><g transform="translate(-6,-22) scale(1,1)"><path fill="none" stroke="#000000" d="M 1024 136 L 1148 136 L 1158 146 L 1158 185 L 1024 185 L 1024 136 L 1024 136" stroke-miterlimit="10"/></g><g transform="translate(-6,-22) scale(1,1)"><path fill="none" stroke="#000000" d="M 1148 136 L 1148 146 L 1158 146 L 1148 136" stroke-miterlimit="10"/></g><g transform="translate(-6,-22) scale(1,1)"><g><path fill="none" stroke="none"/><text fill="#000000" stroke="none" font-family="Arial" font-size="13px" font-style="normal" font-weight="normal" text-decoration="none" x="1029" y="154">Handle the window</text><text fill="#000000" stroke="none" font-family="Arial" font-size="13px" font-style="normal" font-weight="normal" text-decoration="none" x="1029" y="167">context (GLFW or</text><text fill="#000000" stroke="none" font-family="Arial" font-size="13px" font-style="normal" font-weight="normal" text-decoration="none" x="1029" y="180">anything else)</text></g></g><g transform="translate(-6,-22) scale(1,1)"><rect fill="#d8e5ff" stroke="none" x="920" y="648" width="119" height="47"/></g><g transform="translate(-6,-22) scale(1,1)"><path fill="none" stroke="#000000" d="M 920 648 L 1039 648 L 1039 695 L 920 695 L 920 648 Z Z" stroke-miterlimit="10"/></g><g transform="translate(-6,-22) scale(1,1)"><g><path fill="none" stroke="none"/><text fill="#000000" stroke="none" font-family="Arial" font-size="13px" font-style="normal" font-weight="normal" text-decoration="none" x="957.10546875" y="670.5">Destroy</text><text fill="#000000" stroke="none" font-family="Arial" font-size="13px" font-style="normal" font-weight="normal" text-decoration="none" x="933.6064453125" y="683.5">EngineManager</text></g></g><g transform="translate(-6,-22) scale(1,1)"><path fill="none" stroke="#000000" d="M 759 670 L 920 670" stroke-miterlimit="10"/></g><g transform="translate(-6,-22) scale(1,1)"><path fill="#000000" stroke="none" d="M 909.8373251423759 674.209517756016 L 920 670 L 909.8373251423758 665.790482243984"/></g><g transform="translate(-6,-22) scale(1,1)"><path fill="none" stroke="#000000" d="M 909.8373251423759 674.209517756016 L 920 670 L 909.8373251423758 665.790482243984 L 909.8373251423759 674.209517756016" stroke-miterlimit="10"/></g><g transform="translate(-6,-22) scale(1,1)"><g><path fill="none" stroke="none"/><text fill="#000000" stroke="none" font-family="Arial" font-size="13px" font-style="normal" font-weight="normal" text-decoration="none" x="828.5" y="661.5">Yes</text></g></g><g transform="translate(-6,-22) scale(1,1)"><path fill="none" stroke="#000000" d="M 979 695 L 979 752" stroke-miterlimit="10"/></g><g transform="translate(-6,-22) scale(1,1)"><path fill="#000000" stroke="none" d="M 974.790482243984 741.8373251423759 L 979 752 L 983.209517756016 741.8373251423759"/></g><g transform="translate(-6,-22) scale(1,1)"><path fill="none" stroke="#000000" d="M 974.790482243984 741.8373251423759 L 979 752 L 983.209517756016 741.8373251423759 L 974.790482243984 741.8373251423759" stroke-miterlimit="10"/></g><g transform="translate(-6,-22) scale(1,1)"><path fill="#ffffd8" stroke="none" d="M 1056 648 L 1245 648 L 1255 658 L 1255 697 L 1056 697 L 1056 648"/></g><g transform="translate(-6,-22) scale(1,1)"><path fill="none" stroke="#000000" d="M 1056 648 L 1245 648 L 1255 658 L 1255 697 L 1056 697 L 1056 648 L 1056 648" stroke-miterlimit="10"/></g><g transform="translate(-6,-22) scale(1,1)"><path fill="none" stroke="#000000" d="M 1245 648 L 1245 658 L 1255 658 L 1245 648" stroke-miterlimit="10"/></g><g transform="translate(-6,-22) scale(1,1)"><g><path fill="none" stroke="none"/><text fill="#000000" stroke="none" font-family="Arial" font-size="13px" font-style="normal" font-weight="normal" text-decoration="none" x="1061" y="666">The destruction of the engine</text><text fill="#000000" stroke="none" font-family="Arial" font-size="13px" font-style="normal" font-weight="normal" text-decoration="none" x="1061" y="679">will cause every managers to get</text><text fill="#000000" stroke="none" font-family="Arial" font-size="13px" font-style="normal" font-weight="normal" text-decoration="none" x="1061" y="692">destroyed</text></g></g><g transform="translate(-6,-22) scale(1,1)"><rect fill="#ffd6ad" stroke="none" x="256" y="880" width="136.06982421875" height="32"/></g><g transform="translate(-6,-22) scale(1,1)"><path fill="none" stroke="#000000" d="M 256 880 L 392.06982421875 880 L 392.06982421875 912 L 256 912 L 256 880 Z Z" stroke-miterlimit="10"/></g><g transform="translate(-6,-22) scale(1,1)"><path fill="none" stroke="#000000" d="M 261 880 L 261 912" stroke-miterlimit="10"/></g><g transform="translate(-6,-22) scale(1,1)"><path fill="none" stroke="#000000" d="M 387.06982421875 880 L 387.06982421875 912" stroke-miterlimit="10"/></g><g transform="translate(-6,-22) scale(1,1)"><g><path fill="none" stroke="none"/><text fill="#000000" stroke="none" font-family="Arial" font-size="13px" font-style="normal" font-weight="normal" text-decoration="none" x="284.97998046875" y="902.5">Render Scene</text></g></g><g transform="translate(-6,-22) scale(1,1)"><path fill="#00ad00" stroke="none" d="M 45.5 968 L 97.5 968 Q 127 968 127 997.5 L 127 996.5 Q 127 1026 97.5 1026 L 45.5 1026 Q 16 1026 16 996.5 L 16 997.5 Q 16 968 45.5 968 Z"/></g><g transform="translate(-6,-22) scale(1,1)"><path fill="none" stroke="#000000" d="M 45.5 968 L 97.5 968 Q 127 968 127 997.5 L 127 996.5 Q 127 1026 97.5 1026 L 45.5 1026 Q 16 1026 16 996.5 L 16 997.5 Q 16 968 45.5 968 Z" stroke-miterlimit="10"/></g><g transform="translate(-6,-22) scale(1,1)"><g><path fill="none" stroke="none"/><text fill="#ffffff" stroke="none" font-family="Arial" font-size="13px" font-style="normal" font-weight="normal" text-decoration="none" x="57.773193359375" y="990.5">Start</text><text fill="#ffffff" stroke="none" font-family="Arial" font-size="13px" font-style="normal" font-weight="normal" text-decoration="none" x="41.50732421875" y="1003.5">Rendering</text><text fill="#ffffff" stroke="none" font-family="Arial" font-size="13px" font-style="normal" font-weight="normal" text-decoration="none" x="53.069580078125" y="1016.5">Scene</text></g></g><g transform="translate(-6,-22) scale(1,1)"><path fill="#d10000" stroke="none" d="M 543 976 L 609 976 Q 632 976 632 999 L 632 998 Q 632 1021 609 1021 L 543 1021 Q 520 1021 520 998 L 520 999 Q 520 976 543 976 Z"/></g><g transform="translate(-6,-22) scale(1,1)"><path fill="none" stroke="#000000" d="M 543 976 L 609 976 Q 632 976 632 999 L 632 998 Q 632 1021 609 1021 L 543 1021 Q 520 1021 520 998 L 520 999 Q 520 976 543 976 Z" stroke-miterlimit="10"/></g><g transform="translate(-6,-22) scale(1,1)"><g><path fill="none" stroke="none"/><text fill="#ffffff" stroke="none" font-family="Arial" font-size="13px" font-style="normal" font-weight="normal" text-decoration="none" x="532.635986328125" y="998.5">End Rendering</text><text fill="#ffffff" stroke="none" font-family="Arial" font-size="13px" font-style="normal" font-weight="normal" text-decoration="none" x="557.569580078125" y="1011.5">Scene</text></g></g><g transform="translate(-6,-22) scale(1,1)"><path fill="none" stroke="#000000" d="M 296 912 L 296 936 M 296 936 A 8 8 0 0 1 288 944 L 80 944 M 80 944 A 8 8 0 0 0 72 952 L 72 968" stroke-miterlimit="10"/></g><g transform="translate(-6,-22) scale(1,1)"><path fill="#000000" stroke="none" d="M 67.79048224398402 957.8373251423759 L 72 968 L 76.20951775601598 957.8373251423759"/></g><g transform="translate(-6,-22) scale(1,1)"><path fill="none" stroke="#000000" d="M 67.79048224398402 957.8373251423759 L 72 968 L 76.20951775601598 957.8373251423759 L 67.79048224398402 957.8373251423759" stroke-miterlimit="10"/></g><g transform="translate(-6,-22) scale(1,1)"><path fill="none" stroke="#000000" d="M 352 912 L 352 936 M 352 936 A 8 8 0 0 0 360 944 L 568 944 M 568 944 A 8 8 0 0 1 576 952 L 576 976" stroke-miterlimit="10"/></g><g transform="translate(-6,-22) scale(1,1)"><path fill="#000000" stroke="none" d="M 571.790482243984 965.8373251423759 L 576 976 L 580.209517756016 965.8373251423759"/></g><g transform="translate(-6,-22) scale(1,1)"><path fill="none" stroke="#000000" d="M 571.790482243984 965.8373251423759 L 576 976 L 580.209517756016 965.8373251423759 L 571.790482243984 965.8373251423759" stroke-miterlimit="10"/></g><g transform="translate(-6,-22) scale(1,1)"><rect fill="#ffd6ad" stroke="none" x="160" y="976" width="87" height="47"/></g><g transform="translate(-6,-22) scale(1,1)"><path fill="none" stroke="#000000" d="M 160 976 L 247 976 L 247 1023 L 160 1023 L 160 976 Z Z" stroke-miterlimit="10"/></g><g transform="translate(-6,-22) scale(1,1)"><g><path fill="none" stroke="none"/><text fill="#000000" stroke="none" font-family="Arial" font-size="13px" font-style="normal" font-weight="normal" text-decoration="none" x="182.181396484375" y="998.5">Render</text><text fill="#000000" stroke="none" font-family="Arial" font-size="13px" font-style="normal" font-weight="normal" text-decoration="none" x="182.54638671875" y="1011.5">Models</text></g></g><g transform="translate(-6,-22) scale(1,1)"><rect fill="#ffd6ad" stroke="none" x="280" y="976" width="87" height="47"/></g><g transform="translate(-6,-22) scale(1,1)"><path fill="none" stroke="#000000" d="M 280 976 L 367 976 L 367 1023 L 280 1023 L 280 976 Z Z" stroke-miterlimit="10"/></g><g transform="translate(-6,-22) scale(1,1)"><g><path fill="none" stroke="none"/><text fill="#000000" stroke="none" font-family="Arial" font-size="13px" font-style="normal" font-weight="normal" text-decoration="none" x="302.181396484375" y="998.5">Render</text><text fill="#000000" stroke="none" font-family="Arial" font-size="13px" font-style="normal" font-weight="normal" text-decoration="none" x="303.27001953125" y="1011.5">Sprites</text></g></g><g transform="translate(-6,-22) scale(1,1)"><rect fill="#ffd6ad" stroke="none" x="400" y="976" width="87" height="47"/></g><g transform="translate(-6,-22) scale(1,1)"><path fill="none" stroke="#000000" d="M 400 976 L 487 976 L 487 1023 L 400 1023 L 400 976 Z Z" stroke-miterlimit="10"/></g><g transform="translate(-6,-22) scale(1,1)"><g><path fill="none" stroke="none"/><text fill="#000000" stroke="none" font-family="Arial" font-size="13px" font-style="normal" font-weight="normal" text-decoration="none" x="422.181396484375" y="998.5">Render</text><text fill="#000000" stroke="none" font-family="Arial" font-size="13px" font-style="normal" font-weight="normal" text-decoration="none" x="428.3291015625" y="1011.5">Texts</text></g></g><g transform="translate(-6,-22) scale(1,1)"><path fill="none" stroke="#000000" d="M 127 997 L 160 997" stroke-miterlimit="10"/></g><g transform="translate(-6,-22) scale(1,1)"><path fill="#000000" stroke="none" d="M 149.83732514237585 1001.209517756016 L 160 997 L 149.83732514237585 992.790482243984"/></g><g transform="translate(-6,-22) scale(1,1)"><path fill="none" stroke="#000000" d="M 149.83732514237585 1001.209517756016 L 160 997 L 149.83732514237585 992.790482243984 L 149.83732514237585 1001.209517756016" stroke-miterlimit="10"/></g><g transform="translate(-6,-22) scale(1,1)"><path fill="none" stroke="#000000" d="M 247 999 L 280 999" stroke-miterlimit="10"/></g><g transform="translate(-6,-22) scale(1,1)"><path fill="#000000" stroke="none" d="M 269.83732514237585 1003.209517756016 L 280 999 L 269.83732514237585 994.790482243984"/></g><g transform="translate(-6,-22) scale(1,1)"><path fill="none" stroke="#000000" d="M 269.83732514237585 1003.209517756016 L 280 999 L 269.83732514237585 994.790482243984 L 269.83732514237585 1003.209517756016" stroke-miterlimit="10"/></g><g transform="translate(-6,-22) scale(1,1)"><path fill="none" stroke="#000000" d="M 367 999 L 400 999" stroke-miterlimit="10"/></g><g transform="translate(-6,-22) scale(1,1)"><path fill="#000000" stroke="none" d="M 389.83732514237585 1003.209517756016 L 400 999 L 389.83732514237585 994.790482243984"/></g><g transform="translate(-6,-22) scale(1,1)"><path fill="none" stroke="#000000" d="M 389.83732514237585 1003.209517756016 L 400 999 L 389.83732514237585 994.790482243984 L 389.83732514237585 1003.209517756016" stroke-miterlimit="10"/></g><g transform="translate(-6,-22) scale(1,1)"><path fill="none" stroke="#000000" d="M 487 997 L 520 997" stroke-miterlimit="10"/></g><g transform="translate(-6,-22) scale(1,1)"><path fill="#000000" stroke="none" d="M 509.83732514237585 1001.209517756016 L 520 997 L 509.83732514237585 992.790482243984"/></g><g transform="translate(-6,-22) scale(1,1)"><path fill="none" stroke="#000000" d="M 509.83732514237585 1001.209517756016 L 520 997 L 509.83732514237585 992.790482243984 L 509.83732514237585 1001.209517756016" stroke-miterlimit="10"/></g><g transform="translate(-6,-22) scale(1,1)"><rect fill="#d8e5ff" stroke="none" x="264" y="424" width="111" height="45"/></g><g transform="translate(-6,-22) scale(1,1)"><path fill="none" stroke="#000000" d="M 264 424 L 375 424 L 375 469 L 264 469 L 264 424 Z Z" stroke-miterlimit="10"/></g><g transform="translate(-6,-22) scale(1,1)"><g><path fill="none" stroke="none"/><text fill="#000000" stroke="none" font-family="Arial" font-size="13px" font-style="normal" font-weight="normal" text-decoration="none" x="298.5400390625" y="446.5">Update</text><text fill="#000000" stroke="none" font-family="Arial" font-size="13px" font-style="normal" font-weight="normal" text-decoration="none" x="279.38916015625" y="459.5">InputManager</text></g></g><g transform="translate(-6,-22) scale(1,1)"><rect fill="#d1ffa3" stroke="none" x="248" y="504" width="136.06982421875" height="45"/></g><g transform="translate(-6,-22) scale(1,1)"><path fill="none" stroke="#000000" d="M 248 504 L 384.06982421875 504 L 384.06982421875 549 L 248 549 L 248 504 Z Z" stroke-miterlimit="10"/></g><g transform="translate(-6,-22) scale(1,1)"><path fill="none" stroke="#000000" d="M 253 504 L 253 549" stroke-miterlimit="10"/></g><g transform="translate(-6,-22) scale(1,1)"><path fill="none" stroke="#000000" d="M 379.06982421875 504 L 379.06982421875 549" stroke-miterlimit="10"/></g><g transform="translate(-6,-22) scale(1,1)"><g><path fill="none" stroke="none"/><text fill="#000000" stroke="none" font-family="Arial" font-size="13px" font-style="normal" font-weight="normal" text-decoration="none" x="297.574951171875" y="526.5">Update</text><text fill="#000000" stroke="none" font-family="Arial" font-size="13px" font-style="normal" font-weight="normal" text-decoration="none" x="270.486328125" y="539.5">PhysicsManager</text></g></g><g transform="translate(-6,-22) scale(1,1)"><path fill="#00ad00" stroke="none" d="M 112.5 376 L 178.59716796875 376 Q 203.09716796875 376 203.09716796875 400.5 L 203.09716796875 399.5 Q 203.09716796875 424 178.59716796875 424 L 112.5 424 Q 88 424 88 399.5 L 88 400.5 Q 88 376 112.5 376 Z"/></g><g transform="translate(-6,-22) scale(1,1)"><path fill="none" stroke="#000000" d="M 112.5 376 L 178.59716796875 376 Q 203.09716796875 376 203.09716796875 400.5 L 203.09716796875 399.5 Q 203.09716796875 424 178.59716796875 424 L 112.5 424 Q 88 424 88 399.5 L 88 400.5 Q 88 376 112.5 376 Z" stroke-miterlimit="10"/></g><g transform="translate(-6,-22) scale(1,1)"><g><path fill="none" stroke="none"/><text fill="#ffffff" stroke="none" font-family="Arial" font-size="13px" font-style="normal" font-weight="normal" text-decoration="none" x="103.996826171875" y="398.5">Start Updating</text><text fill="#ffffff" stroke="none" font-family="Arial" font-size="13px" font-style="normal" font-weight="normal" text-decoration="none" x="97.5" y="411.5">PhysicsManager</text></g></g><g transform="translate(-6,-22) scale(1,1)"><path fill="#d10000" stroke="none" d="M 103 608 L 172.09716796875 608 Q 195.09716796875 608 195.09716796875 631 L 195.09716796875 630 Q 195.09716796875 653 172.09716796875 653 L 103 653 Q 80 653 80 630 L 80 631 Q 80 608 103 608 Z"/></g><g transform="translate(-6,-22) scale(1,1)"><path fill="none" stroke="#000000" d="M 103 608 L 172.09716796875 608 Q 195.09716796875 608 195.09716796875 631 L 195.09716796875 630 Q 195.09716796875 653 172.09716796875 653 L 103 653 Q 80 653 80 630 L 80 631 Q 80 608 103 608 Z" stroke-miterlimit="10"/></g><g transform="translate(-6,-22) scale(1,1)"><g><path fill="none" stroke="none"/><text fill="#ffffff" stroke="none" font-family="Arial" font-size="13px" font-style="normal" font-weight="normal" text-decoration="none" x="98.158203125" y="630.5">End Updating</text><text fill="#ffffff" stroke="none" font-family="Arial" font-size="13px" font-style="normal" font-weight="normal" text-decoration="none" x="89.5" y="643.5">PhysicsManager</text></g></g><g transform="translate(-6,-22) scale(1,1)"><rect fill="#d1ffa3" stroke="none" x="104" y="464" width="73.18994140625" height="45"/></g><g transform="translate(-6,-22) scale(1,1)"><path fill="none" stroke="#000000" d="M 104 464 L 177.18994140625 464 L 177.18994140625 509 L 104 509 L 104 464 Z Z" stroke-miterlimit="10"/></g><g transform="translate(-6,-22) scale(1,1)"><g><path fill="none" stroke="none"/><text fill="#000000" stroke="none" font-family="Arial" font-size="13px" font-style="normal" font-weight="normal" text-decoration="none" x="124.33544921875" y="486.5">Apply</text><text fill="#000000" stroke="none" font-family="Arial" font-size="13px" font-style="normal" font-weight="normal" text-decoration="none" x="118.9208984375" y="499.5">physics</text></g></g><g transform="translate(-6,-22) scale(1,1)"><rect fill="#d1ffa3" stroke="none" x="104" y="536" width="75" height="45"/></g><g transform="translate(-6,-22) scale(1,1)"><path fill="none" stroke="#000000" d="M 104 536 L 179 536 L 179 581 L 104 581 L 104 536 Z Z" stroke-miterlimit="10"/></g><g transform="translate(-6,-22) scale(1,1)"><g><path fill="none" stroke="none"/><text fill="#000000" stroke="none" font-family="Arial" font-size="13px" font-style="normal" font-weight="normal" text-decoration="none" x="123.075927734375" y="558.5">Check</text><text fill="#000000" stroke="none" font-family="Arial" font-size="13px" font-style="normal" font-weight="normal" text-decoration="none" x="113.6845703125" y="571.5">Collisions</text></g></g><g transform="translate(-6,-22) scale(1,1)"><path fill="none" stroke="#000000" d="M 248 520 L 240 520 M 240 520 A 8 8 0 0 1 232 512 L 232 408 M 232 408 A 8 8 0 0 0 224 400 L 203 400" stroke-miterlimit="10"/></g><g transform="translate(-6,-22) scale(1,1)"><path fill="#000000" stroke="none" d="M 213.16267485762415 395.790482243984 L 203 400 L 213.16267485762415 404.209517756016"/></g><g transform="translate(-6,-22) scale(1,1)"><path fill="none" stroke="#000000" d="M 213.16267485762415 395.790482243984 L 203 400 L 213.16267485762415 404.209517756016 L 213.16267485762415 395.790482243984" stroke-miterlimit="10"/></g><g transform="translate(-6,-22) scale(1,1)"><path fill="none" stroke="#000000" d="M 248 536 L 240 536 M 240 536 A 8 8 0 0 0 232 544 L 232 624 M 232 624 A 8 8 0 0 1 224 632 L 195 632" stroke-miterlimit="10"/></g><g transform="translate(-6,-22) scale(1,1)"><path fill="#000000" stroke="none" d="M 205.16267485762415 627.790482243984 L 195 632 L 205.16267485762415 636.209517756016"/></g><g transform="translate(-6,-22) scale(1,1)"><path fill="none" stroke="#000000" d="M 205.16267485762415 627.790482243984 L 195 632 L 205.16267485762415 636.209517756016 L 205.16267485762415 627.790482243984" stroke-miterlimit="10"/></g><g transform="translate(-6,-22) scale(1,1)"><path fill="none" stroke="#000000" d="M 144 424 L 144 464" stroke-miterlimit="10"/></g><g transform="translate(-6,-22) scale(1,1)"><path fill="#000000" stroke="none" d="M 139.790482243984 453.83732514237585 L 144 464 L 148.209517756016 453.83732514237585"/></g><g transform="translate(-6,-22) scale(1,1)"><path fill="none" stroke="#000000" d="M 139.790482243984 453.83732514237585 L 144 464 L 148.209517756016 453.83732514237585 L 139.790482243984 453.83732514237585" stroke-miterlimit="10"/></g><g transform="translate(-6,-22) scale(1,1)"><path fill="none" stroke="#000000" d="M 140 509 L 140 536" stroke-miterlimit="10"/></g><g transform="translate(-6,-22) scale(1,1)"><path fill="#000000" stroke="none" d="M 135.790482243984 525.8373251423759 L 140 536 L 144.209517756016 525.8373251423759"/></g><g transform="translate(-6,-22) scale(1,1)"><path fill="none" stroke="#000000" d="M 135.790482243984 525.8373251423759 L 140 536 L 144.209517756016 525.8373251423759 L 135.790482243984 525.8373251423759" stroke-miterlimit="10"/></g><g transform="translate(-6,-22) scale(1,1)"><path fill="none" stroke="#000000" d="M 139 581 L 139 608" stroke-miterlimit="10"/></g><g transform="translate(-6,-22) scale(1,1)"><path fill="#000000" stroke="none" d="M 134.790482243984 597.8373251423759 L 139 608 L 143.209517756016 597.8373251423759"/></g><g transform="translate(-6,-22) scale(1,1)"><path fill="none" stroke="#000000" d="M 134.790482243984 597.8373251423759 L 139 608 L 143.209517756016 597.8373251423759 L 134.790482243984 597.8373251423759" stroke-miterlimit="10"/></g><g transform="translate(-6,-22) scale(1,1)"><rect fill="#d8e5ff" stroke="none" x="248" y="696" width="135" height="45"/></g><g transform="translate(-6,-22) scale(1,1)"><path fill="none" stroke="#000000" d="M 248 696 L 383 696 L 383 741 L 248 741 L 248 696 Z Z" stroke-miterlimit="10"/></g><g transform="translate(-6,-22) scale(1,1)"><g><path fill="none" stroke="none"/><text fill="#000000" stroke="none" font-family="Arial" font-size="13px" font-style="normal" font-weight="normal" text-decoration="none" x="294.5400390625" y="718.5">Update</text><text fill="#000000" stroke="none" font-family="Arial" font-size="13px" font-style="normal" font-weight="normal" text-decoration="none" x="280.089599609375" y="731.5">components</text></g></g><g transform="translate(-6,-22) scale(1,1)"><rect fill="#ffadd6" stroke="none" x="872" y="496" width="135" height="45"/></g><g transform="translate(-6,-22) scale(1,1)"><path fill="none" stroke="#000000" d="M 872 496 L 1007 496 L 1007 541 L 872 541 L 872 496 Z Z" stroke-miterlimit="10"/></g><g transform="translate(-6,-22) scale(1,1)"><g><path fill="none" stroke="none"/><text fill="#000000" stroke="none" font-family="Arial" font-size="13px" font-style="normal" font-weight="normal" text-decoration="none" x="919.990478515625" y="518.5">Create</text><text fill="#000000" stroke="none" font-family="Arial" font-size="13px" font-style="normal" font-weight="normal" text-decoration="none" x="897.221435546875" y="531.5">AudioManager</text></g></g><g transform="translate(-6,-22) scale(1,1)"><path fill="none" stroke="#000000" d="M 939 469 L 939 496" stroke-miterlimit="10"/></g><g transform="translate(-6,-22) scale(1,1)"><path fill="#000000" stroke="none" d="M 934.790482243984 485.83732514237585 L 939 496 L 943.209517756016 485.83732514237585"/></g><g transform="translate(-6,-22) scale(1,1)"><path fill="none" stroke="#000000" d="M 934.790482243984 485.83732514237585 L 939 496 L 943.209517756016 485.83732514237585 L 934.790482243984 485.83732514237585" stroke-miterlimit="10"/></g><g transform="translate(-6,-22) scale(1,1)"><path fill="none" stroke="#000000" d="M 939 541 L 939 560" stroke-miterlimit="10"/></g><g transform="translate(-6,-22) scale(1,1)"><path fill="#000000" stroke="none" d="M 934.790482243984 549.8373251423759 L 939 560 L 943.209517756016 549.8373251423759"/></g><g transform="translate(-6,-22) scale(1,1)"><path fill="none" stroke="#000000" d="M 934.790482243984 549.8373251423759 L 939 560 L 943.209517756016 549.8373251423759 L 934.790482243984 549.8373251423759" stroke-miterlimit="10"/></g><g transform="translate(-6,-22) scale(1,1)"><rect fill="#ffadd6" stroke="none" x="248" y="776" width="136" height="45"/></g><g transform="translate(-6,-22) scale(1,1)"><path fill="none" stroke="#000000" d="M 248 776 L 384 776 L 384 821 L 248 821 L 248 776 Z Z" stroke-miterlimit="10"/></g><g transform="translate(-6,-22) scale(1,1)"><g><path fill="none" stroke="none"/><text fill="#000000" stroke="none" font-family="Arial" font-size="13px" font-style="normal" font-weight="normal" text-decoration="none" x="295.0400390625" y="798.5">Update</text><text fill="#000000" stroke="none" font-family="Arial" font-size="13px" font-style="normal" font-weight="normal" text-decoration="none" x="273.721435546875" y="811.5">AudioManager</text></g></g><g transform="translate(-6,-22) scale(1,1)"><path fill="#ffffd8" stroke="none" d="M 64 680 L 228 680 L 238 690 L 238 755 L 64 755 L 64 680"/></g><g transform="translate(-6,-22) scale(1,1)"><path fill="none" stroke="#000000" d="M 64 680 L 228 680 L 238 690 L 238 755 L 64 755 L 64 680 L 64 680" stroke-miterlimit="10"/></g><g transform="translate(-6,-22) scale(1,1)"><path fill="none" stroke="#000000" d="M 228 680 L 228 690 L 238 690 L 228 680" stroke-miterlimit="10"/></g><g transform="translate(-6,-22) scale(1,1)"><g><path fill="none" stroke="none"/><text fill="#000000" stroke="none" font-family="Arial" font-size="13px" font-style="normal" font-weight="normal" text-decoration="none" x="69" y="698">Will make sure to keep</text><text fill="#000000" stroke="none" font-family="Arial" font-size="13px" font-style="normal" font-weight="normal" text-decoration="none" x="69" y="711">up-to-date every Data</text><text fill="#000000" stroke="none" font-family="Arial" font-size="13px" font-style="normal" font-weight="normal" text-decoration="none" x="69" y="724">container wrapped by</text><text fill="#000000" stroke="none" font-family="Arial" font-size="13px" font-style="normal" font-weight="normal" text-decoration="none" x="69" y="737">components (Ex: Position of</text><text fill="#000000" stroke="none" font-family="Arial" font-size="13px" font-style="normal" font-weight="normal" text-decoration="none" x="69" y="750">a DAudioSource)</text></g></g><g transform="translate(-6,-22) scale(1,1)"><rect fill="#d8e5ff" stroke="none" x="472" y="648" width="136.06982421875" height="47"/></g><g transform="translate(-6,-22) scale(1,1)"><path fill="none" stroke="#000000" d="M 472 648 L 608.06982421875 648 L 608.06982421875 695 L 472 695 L 472 648 Z Z" stroke-miterlimit="10"/></g><g transform="translate(-6,-22) scale(1,1)"><path fill="none" stroke="#000000" d="M 477 648 L 477 695" stroke-miterlimit="10"/></g><g transform="translate(-6,-22) scale(1,1)"><path fill="none" stroke="#000000" d="M 603.06982421875 648 L 603.06982421875 695" stroke-miterlimit="10"/></g><g transform="translate(-6,-22) scale(1,1)"><g><path fill="none" stroke="none"/><text fill="#000000" stroke="none" font-family="Arial" font-size="13px" font-style="normal" font-weight="normal" text-decoration="none" x="521.574951171875" y="670.5">Update</text><text fill="#000000" stroke="none" font-family="Arial" font-size="13px" font-style="normal" font-weight="normal" text-decoration="none" x="496.641357421875" y="683.5">EngineManager</text></g></g><g transform="translate(-6,-22) scale(1,1)"><path fill="#00ad00" stroke="none" d="M 503 432 L 568.63720703125 432 Q 591.63720703125 432 591.63720703125 455 L 591.63720703125 454 Q 591.63720703125 477 568.63720703125 477 L 503 477 Q 480 477 480 454 L 480 455 Q 480 432 503 432 Z"/></g><g transform="translate(-6,-22) scale(1,1)"><path fill="none" stroke="#000000" d="M 503 432 L 568.63720703125 432 Q 591.63720703125 432 591.63720703125 455 L 591.63720703125 454 Q 591.63720703125 477 568.63720703125 477 L 503 477 Q 480 477 480 454 L 480 455 Q 480 432 503 432 Z" stroke-miterlimit="10"/></g><g transform="translate(-6,-22) scale(1,1)"><g><path fill="none" stroke="none"/><text fill="#ffffff" stroke="none" font-family="Arial" font-size="13px" font-style="normal" font-weight="normal" text-decoration="none" x="494.266845703125" y="454.5">Start Updating</text><text fill="#ffffff" stroke="none" font-family="Arial" font-size="13px" font-style="normal" font-weight="normal" text-decoration="none" x="489.925048828125" y="467.5">EngineManager</text></g></g><g transform="translate(-6,-22) scale(1,1)"><path fill="#d10000" stroke="none" d="M 503 872 L 569 872 Q 592 872 592 895 L 592 894 Q 592 917 569 917 L 503 917 Q 480 917 480 894 L 480 895 Q 480 872 503 872 Z"/></g><g transform="translate(-6,-22) scale(1,1)"><path fill="none" stroke="#000000" d="M 503 872 L 569 872 Q 592 872 592 895 L 592 894 Q 592 917 569 917 L 503 917 Q 480 917 480 894 L 480 895 Q 480 872 503 872 Z" stroke-miterlimit="10"/></g><g transform="translate(-6,-22) scale(1,1)"><g><path fill="none" stroke="none"/><text fill="#ffffff" stroke="none" font-family="Arial" font-size="13px" font-style="normal" font-weight="normal" text-decoration="none" x="496.609619140625" y="894.5">End Updating</text><text fill="#ffffff" stroke="none" font-family="Arial" font-size="13px" font-style="normal" font-weight="normal" text-decoration="none" x="490.1064453125" y="907.5">EngineManager</text></g></g><g transform="translate(-6,-22) scale(1,1)"><path fill="none" stroke="#000000" d="M 480 448 L 375 448" stroke-miterlimit="10"/></g><g transform="translate(-6,-22) scale(1,1)"><path fill="#000000" stroke="none" d="M 385.16267485762415 443.790482243984 L 375 448 L 385.16267485762415 452.209517756016"/></g><g transform="translate(-6,-22) scale(1,1)"><path fill="none" stroke="#000000" d="M 385.16267485762415 443.790482243984 L 375 448 L 385.16267485762415 452.209517756016 L 385.16267485762415 443.790482243984" stroke-miterlimit="10"/></g><g transform="translate(-6,-22) scale(1,1)"><path fill="none" stroke="#000000" d="M 318 469 L 318 504" stroke-miterlimit="10"/></g><g transform="translate(-6,-22) scale(1,1)"><path fill="#000000" stroke="none" d="M 313.790482243984 493.83732514237585 L 318 504 L 322.209517756016 493.83732514237585"/></g><g transform="translate(-6,-22) scale(1,1)"><path fill="none" stroke="#000000" d="M 313.790482243984 493.83732514237585 L 318 504 L 322.209517756016 493.83732514237585 L 313.790482243984 493.83732514237585" stroke-miterlimit="10"/></g><g transform="translate(-6,-22) scale(1,1)"><path fill="none" stroke="#000000" d="M 316 549 L 316 696" stroke-miterlimit="10"/></g><g transform="translate(-6,-22) scale(1,1)"><path fill="#000000" stroke="none" d="M 311.790482243984 685.8373251423759 L 316 696 L 320.209517756016 685.8373251423759"/></g><g transform="translate(-6,-22) scale(1,1)"><path fill="none" stroke="#000000" d="M 311.790482243984 685.8373251423759 L 316 696 L 320.209517756016 685.8373251423759 L 311.790482243984 685.8373251423759" stroke-miterlimit="10"/></g><g transform="translate(-6,-22) scale(1,1)"><path fill="none" stroke="#000000" d="M 320 741 L 320 776" stroke-miterlimit="10"/></g><g transform="translate(-6,-22) scale(1,1)"><path fill="#000000" stroke="none" d="M 315.790482243984 765.8373251423759 L 320 776 L 324.209517756016 765.8373251423759"/></g><g transform="translate(-6,-22) scale(1,1)"><path fill="none" stroke="#000000" d="M 315.790482243984 765.8373251423759 L 320 776 L 324.209517756016 765.8373251423759 L 315.790482243984 765.8373251423759" stroke-miterlimit="10"/></g><g transform="translate(-6,-22) scale(1,1)"><path fill="none" stroke="#000000" d="M 320 821 L 320 880" stroke-miterlimit="10"/></g><g transform="translate(-6,-22) scale(1,1)"><path fill="#000000" stroke="none" d="M 315.790482243984 869.8373251423759 L 320 880 L 324.209517756016 869.8373251423759"/></g><g transform="translate(-6,-22) scale(1,1)"><path fill="none" stroke="#000000" d="M 315.790482243984 869.8373251423759 L 320 880 L 324.209517756016 869.8373251423759 L 315.790482243984 869.8373251423759" stroke-miterlimit="10"/></g><g transform="translate(-6,-22) scale(1,1)"><path fill="none" stroke="#000000" d="M 392 896 L 480 896" stroke-miterlimit="10"/></g><g transform="translate(-6,-22) scale(1,1)"><path fill="#000000" stroke="none" d="M 469.83732514237585 900.209517756016 L 480 896 L 469.83732514237585 891.790482243984"/></g><g transform="translate(-6,-22) scale(1,1)"><path fill="none" stroke="#000000" d="M 469.83732514237585 900.209517756016 L 480 896 L 469.83732514237585 891.790482243984 L 469.83732514237585 900.209517756016" stroke-miterlimit="10"/></g><g transform="translate(-6,-22) scale(1,1)"><path fill="none" stroke="#000000" d="M 536 695 L 536 872" stroke-miterlimit="10"/></g><g transform="translate(-6,-22) scale(1,1)"><path fill="#000000" stroke="none" d="M 531.790482243984 861.8373251423759 L 536 872 L 540.209517756016 861.8373251423759"/></g><g transform="translate(-6,-22) scale(1,1)"><path fill="none" stroke="#000000" d="M 531.790482243984 861.8373251423759 L 536 872 L 540.209517756016 861.8373251423759 L 531.790482243984 861.8373251423759" stroke-miterlimit="10"/></g><g transform="translate(-6,-22) scale(1,1)"><path fill="none" stroke="#000000" d="M 640 669 L 608 669" stroke-miterlimit="10"/></g><g transform="translate(-6,-22) scale(1,1)"><path fill="#000000" stroke="none" d="M 618.1626748576241 664.790482243984 L 608 669 L 618.1626748576241 673.209517756016"/></g><g transform="translate(-6,-22) scale(1,1)"><path fill="none" stroke="#000000" d="M 618.1626748576241 664.790482243984 L 608 669 L 618.1626748576241 673.209517756016 L 618.1626748576241 664.790482243984" stroke-miterlimit="10"/></g><g transform="translate(-6,-22) scale(1,1)"><path fill="none" stroke="#000000" d="M 536 648 L 536 477" stroke-miterlimit="10"/></g><g transform="translate(-6,-22) scale(1,1)"><path fill="#000000" stroke="none" d="M 540.209517756016 487.16267485762415 L 536 477 L 531.790482243984 487.16267485762415"/></g><g transform="translate(-6,-22) scale(1,1)"><path fill="none" stroke="#000000" d="M 540.209517756016 487.16267485762415 L 536 477 L 531.790482243984 487.16267485762415 L 540.209517756016 487.16267485762415" stroke-miterlimit="10"/></g><g transform="translate(-6,-22) scale(1,1)"><path fill="none" stroke="#000000" d="M 576 695 L 576 720 M 576 720 A 8 8 0 0 0 584 728 L 688 728 M 688 728 A 8 8 0 0 0 696 720 L 696 703" stroke-miterlimit="10"/></g><g transform="translate(-6,-22) scale(1,1)"><path fill="#000000" stroke="none" d="M 700.209517756016 713.1626748576241 L 696 703 L 691.790482243984 713.1626748576241"/></g><g transform="translate(-6,-22) scale(1,1)"><path fill="none" stroke="#000000" d="M 700.209517756016 713.1626748576241 L 696 703 L 691.790482243984 713.1626748576241 L 700.209517756016 713.1626748576241" stroke-miterlimit="10"/></g><g transform="translate(-6,-22) scale(1,1)"><rect fill="#d8e5ff" stroke="none" x="72" y="72" width="160" height="49"/></g><g transform="translate(-6,-22) scale(1,1)"><path fill="none" stroke="#000000" d="M 72 72 L 232 72 L 232 121 L 72 121 L 72 72 Z Z" stroke-miterlimit="10"/></g><g transform="translate(-6,-22) scale(1,1)"><g><path fill="none" stroke="none"/><text fill="#000000" stroke="none" font-family="Arial" font-size="20px" font-style="normal" font-weight="normal" text-decoration="none" x="109" y="105">GyvrCore</text></g></g><g transform="translate(-6,-22) scale(1,1)"><rect fill="#ffd6ad" stroke="none" x="72" y="124" width="160" height="49"/></g><g transform="translate(-6,-22) scale(1,1)"><path fill="none" stroke="#000000" d="M 72 124 L 232 124 L 232 173 L 72 173 L 72 124 Z Z" stroke-miterlimit="10"/></g><g transform="translate(-6,-22) scale(1,1)"><rect fill="#d1ffa3" stroke="none" x="72" y="176" width="160" height="49"/></g><g transform="translate(-6,-22) scale(1,1)"><path fill="none" stroke="#000000" d="M 72 176 L 232 176 L 232 225 L 72 225 L 72 176 Z Z" stroke-miterlimit="10"/></g><g transform="translate(-6,-22) scale(1,1)"><rect fill="#ffadd6" stroke="none" x="72" y="228" width="160" height="49"/></g><g transform="translate(-6,-22) scale(1,1)"><path fill="none" stroke="#000000" d="M 72 228 L 232 228 L 232 277 L 72 277 L 72 228 Z Z" stroke-miterlimit="10"/></g><g transform="translate(-6,-22) scale(1,1)"><g><path fill="none" stroke="none"/><text fill="#000000" stroke="none" font-family="Arial" font-size="20px" font-style="normal" font-weight="normal" text-decoration="none" x="85" y="158">GyvrRendering</text></g></g><g transform="translate(-6,-22) scale(1,1)"><g><path fill="none" stroke="none"/><text fill="#000000" stroke="none" font-family="Arial" font-size="20px" font-style="normal" font-weight="normal" text-decoration="none" x="96" y="211">GyvrPhysics</text></g></g><g transform="translate(-6,-22) scale(1,1)"><g><path fill="none" stroke="none"/><text fill="#000000" stroke="none" font-family="Arial" font-size="20px" font-style="normal" font-weight="normal" text-decoration="none" x="105" y="264">GyvrAudio</text></g></g><g transform="translate(-6,-22) scale(1,1)"><g><path fill="none" stroke="none"/><text fill="#000000" stroke="none" font-family="Arial" font-size="25px" font-style="normal" font-weight="normal" text-decoration="none" x="109" y="62">Legend</text></g></g></g></svg>